<?xml version="1.0" encoding="UTF-8" standalone="no"?>
<!-- Created with Inkscape (http://www.inkscape.org/) -->

<svg
   xmlns:dc="http://purl.org/dc/elements/1.1/"
   xmlns:cc="http://creativecommons.org/ns#"
   xmlns:rdf="http://www.w3.org/1999/02/22-rdf-syntax-ns#"
   xmlns:svg="http://www.w3.org/2000/svg"
   xmlns="http://www.w3.org/2000/svg"
   xmlns:sodipodi="http://sodipodi.sourceforge.net/DTD/sodipodi-0.dtd"
   xmlns:inkscape="http://www.inkscape.org/namespaces/inkscape"
   width="320"
   height="240"
   viewBox="0 0 84.666665 63.500002"
   version="1.1"
   id="svg8"
   inkscape:version="0.92.5 (2060ec1f9f, 2020-04-08)"
   sodipodi:docname="bed1.svg"
   inkscape:export-filename="/home/victor/Projects/cogmura/data/img/block/bed1.png"
   inkscape:export-xdpi="96"
   inkscape:export-ydpi="96">
  <defs
     id="defs2" />
  <sodipodi:namedview
     id="base"
     pagecolor="#ffffff"
     bordercolor="#666666"
     borderopacity="1.0"
     inkscape:pageopacity="0.0"
     inkscape:pageshadow="2"
     inkscape:zoom="1"
     inkscape:cx="117.07346"
     inkscape:cy="152.88275"
     inkscape:document-units="px"
     inkscape:current-layer="layer2"
     showgrid="false"
     units="px"
     inkscape:pagecheckerboard="true"
     inkscape:showpageshadow="false"
     inkscape:window-width="1920"
     inkscape:window-height="1015"
     inkscape:window-x="0"
     inkscape:window-y="0"
     inkscape:window-maximized="1"
     inkscape:snap-global="false" />
  <metadata
     id="metadata5">
    <rdf:RDF>
      <cc:Work
         rdf:about="">
        <dc:format>image/svg+xml</dc:format>
        <dc:type
           rdf:resource="http://purl.org/dc/dcmitype/StillImage" />
        <dc:title></dc:title>
      </cc:Work>
    </rdf:RDF>
  </metadata>
  <g
     inkscape:label="Layer 1"
     inkscape:groupmode="layer"
     id="layer1"
     transform="translate(0,-233.49998)"
     sodipodi:insensitive="true"
     style="display:none">
    <path
       style="opacity:0.15;fill:#000000;fill-opacity:1;stroke:none;stroke-width:1.0583334;stroke-linecap:round;stroke-linejoin:round;stroke-miterlimit:4;stroke-dasharray:none;stroke-opacity:1;paint-order:normal"
       d="M 16.933333,263.13335 0,271.60002 l 16.933333,8.46667 16.933334,-8.46667 z"
       id="path812"
       inkscape:connector-curvature="0"
       sodipodi:nodetypes="ccccc" />
    <path
       sodipodi:nodetypes="ccccc"
       inkscape:connector-curvature="0"
       id="path814"
       d="m 33.866663,271.6 -16.933331,8.46667 16.933331,8.46667 16.933334,-8.46667 z"
       style="opacity:0.3;fill:#000000;fill-opacity:1;stroke:none;stroke-width:1.0583334;stroke-linecap:round;stroke-linejoin:round;stroke-miterlimit:4;stroke-dasharray:none;stroke-opacity:1;paint-order:normal" />
    <path
       style="opacity:0.15;fill:#000000;fill-opacity:1;stroke:none;stroke-width:1.0583334;stroke-linecap:round;stroke-linejoin:round;stroke-miterlimit:4;stroke-dasharray:none;stroke-opacity:1;paint-order:normal"
       d="m 50.799993,280.06665 -16.933331,8.46667 16.933331,8.46667 16.933334,-8.46667 z"
       id="path816"
       inkscape:connector-curvature="0"
       sodipodi:nodetypes="ccccc" />
    <path
       style="opacity:0.3;fill:#000000;fill-opacity:1;stroke:none;stroke-width:1.0583334;stroke-linecap:round;stroke-linejoin:round;stroke-miterlimit:4;stroke-dasharray:none;stroke-opacity:1;paint-order:normal"
       d="m 33.866663,254.6667 -16.933331,8.46667 16.933331,8.46667 16.933334,-8.46667 z"
       id="path818"
       inkscape:connector-curvature="0"
       sodipodi:nodetypes="ccccc" />
    <path
       sodipodi:nodetypes="ccccc"
       inkscape:connector-curvature="0"
       id="path820"
       d="m 50.799993,263.13335 -16.933331,8.46667 16.933331,8.46667 16.933334,-8.46667 z"
       style="opacity:0.15;fill:#000000;fill-opacity:1;stroke:none;stroke-width:1.0583334;stroke-linecap:round;stroke-linejoin:round;stroke-miterlimit:4;stroke-dasharray:none;stroke-opacity:1;paint-order:normal" />
    <path
       style="opacity:0.3;fill:#000000;fill-opacity:1;stroke:none;stroke-width:1.0583334;stroke-linecap:round;stroke-linejoin:round;stroke-miterlimit:4;stroke-dasharray:none;stroke-opacity:1;paint-order:normal"
       d="m 67.733326,271.6 -16.933331,8.46667 16.933331,8.46667 16.933334,-8.46667 z"
       id="path822"
       inkscape:connector-curvature="0"
       sodipodi:nodetypes="ccccc" />
  </g>
  <g
     inkscape:groupmode="layer"
     id="layer2"
     inkscape:label="Layer 2">
    <path
       style="opacity:1;fill:#a05a2c;fill-opacity:1;stroke:#502d16;stroke-width:1.05833328;stroke-linecap:round;stroke-linejoin:round;stroke-miterlimit:4;stroke-dasharray:none;stroke-opacity:1;paint-order:normal"
       d="m 2.8315642,14.26337 v 22.619927 l 2.9259495,1.227011 3.1147205,-1.227011 13.4971218,6.606982 12.74204,-19.34902 V 2.0876446 L 32.374215,0.57747681 29.731424,1.804488 l 0,4.4361173 c 0,0 -2.831565,-3.3978771 -10.85433,0.09439 C 10.854329,9.8272583 8.5890778,15.112844 8.5890778,15.112844 l -5e-7,-0.943855 -2.9259495,-1.227011 z"
       id="path827"
       inkscape:connector-curvature="0"
       sodipodi:nodetypes="ccccccccccscccc" />
    <path
       style="opacity:1;fill:none;fill-opacity:1;stroke:#502d16;stroke-width:1.05833328;stroke-linecap:round;stroke-linejoin:round;stroke-miterlimit:4;stroke-dasharray:none;stroke-opacity:1;paint-order:normal"
       d="m 3.0203351,14.452147 2.642793,1.132625 2.9259495,-1.227011"
       id="path829"
       inkscape:connector-curvature="0" />
    <path
       style="opacity:1;fill:none;fill-opacity:1;stroke:#502d16;stroke-width:1.05833328;stroke-linecap:round;stroke-linejoin:round;stroke-miterlimit:4;stroke-dasharray:none;stroke-opacity:1;paint-order:normal"
       d="m 29.920193,1.8988742 2.454024,1.3213963 2.642794,-1.1326253"
       id="path831"
       inkscape:connector-curvature="0"
       sodipodi:nodetypes="ccc" />
    <path
       style="opacity:1;fill:none;fill-opacity:1;stroke:#502d16;stroke-width:1.05833328;stroke-linecap:round;stroke-linejoin:round;stroke-miterlimit:4;stroke-dasharray:none;stroke-opacity:1;paint-order:normal"
       d="m 5.851899,38.186121 v -2.92595 l 3.2091061,1.698937"
       id="path835"
       inkscape:connector-curvature="0" />
    <path
       style="opacity:1;fill:none;fill-opacity:1;stroke:#502d16;stroke-width:1.05833328;stroke-linecap:round;stroke-linejoin:round;stroke-miterlimit:4;stroke-dasharray:none;stroke-opacity:1;paint-order:normal"
       d="m 8.5890776,14.924073 -0.094385,4.247347 c 0,0 1.4157819,-5.191201 11.3262554,-10.3824025 9.910474,-5.1912049 12.458883,-0.9438557 12.458883,-0.9438557 l -5e-6,-4.4361202"
       id="path837"
       inkscape:connector-curvature="0"
       sodipodi:nodetypes="ccscc" />
    <path
       style="opacity:1;fill:none;fill-opacity:1;stroke:#502d16;stroke-width:1.05833328;stroke-linecap:round;stroke-linejoin:round;stroke-miterlimit:4;stroke-dasharray:none;stroke-opacity:1;paint-order:normal"
       d="m 5.6631281,15.740952 0.188771,11.703797 16.4230719,7.739608"
       id="path839"
       inkscape:connector-curvature="0"
       sodipodi:nodetypes="ccc" />
    <path
       style="opacity:1;fill:#d5e5ff;fill-opacity:1;stroke:#80b3ff;stroke-width:1.05833328;stroke-linecap:round;stroke-linejoin:round;stroke-miterlimit:4;stroke-dasharray:none;stroke-opacity:1;paint-order:normal"
       d="m 8.1704337,26.774346 0.036347,-1.348234 c 0.045071,-0.553839 0.496604,-0.955254 1.0158811,-1.18731 L 32.657372,13.853242 75.225218,34.146119 75.60276,35.750672 51.491625,46.733524 Z"
       id="path843"
       inkscape:connector-curvature="0"
       sodipodi:nodetypes="cccccccc" />
    <path
       style="opacity:1;fill:none;fill-opacity:1;stroke:#502d16;stroke-width:1.05833328;stroke-linecap:round;stroke-linejoin:round;stroke-miterlimit:4;stroke-dasharray:none;stroke-opacity:1;paint-order:normal"
       d="M 5.7575137,27.255978 7.5508376,26.500894 24.068295,34.146119"
       id="path841"
       inkscape:connector-curvature="0" />
    <path
       style="opacity:1;fill:#aaccff;fill-opacity:1;stroke:#5599ff;stroke-width:1.05833328;stroke-linecap:round;stroke-linejoin:round;stroke-miterlimit:4;stroke-dasharray:none;stroke-opacity:1;paint-order:normal"
       d="m 37.942959,19.893912 c 0,0 -9.627317,2.92595 -11.326257,4.341732 -1.698938,1.415782 -5.474357,2.737179 -5.474357,2.737179 0,0 -5.096815,0.660697 -5.096815,3.30349 0,2.642793 0.377542,6.229442 0.377542,6.229442 0,0 0,4.058576 -0.660699,5.096815 -0.660698,1.03824 3.020335,2.359638 3.020335,2.359638 0,0 6.135056,1.793322 6.984525,3.11472 0.849469,1.321396 7.645223,4.058574 7.645223,4.058574 0,0 2.359636,0.283157 3.11472,1.510167 0.755084,1.227013 6.229443,3.681034 6.229443,3.681034 0,0 2.925947,0.377542 3.681031,1.604553 0.755084,1.227013 2.170866,2.359638 3.681034,2.548408 1.510168,0.188772 3.397877,-1.321395 3.397877,-1.321395 0,0 4.436118,-4.908045 6.22944,-4.81366 1.793325,0.09439 1.793325,0.09439 1.793325,0.09439 l 5.379971,-1.227011 c 0,0 4.058576,-1.510167 4.62489,-3.209107 0.566312,-1.698937 5.568741,-1.793322 5.568741,-1.793322 0,0 2.831565,-0.09439 3.775419,-1.321398 0,0 -1.227009,-3.114724 -1.038238,-4.813663 0.188771,-1.698938 -1.038241,-6.512597 -1.038241,-6.512597 0,0 -1.793324,-2.831564 -4.247346,-3.303492 -2.454022,-0.471927 -7.362067,-3.681033 -7.362067,-3.681033 0,0 -6.795753,-3.775419 -12.175725,-5.568743 -5.379972,-1.793324 -7.645223,-3.775419 -7.645223,-3.775419 0,0 -2.831565,-1.982096 -9.438548,0.660698 z"
       id="path845"
       inkscape:connector-curvature="0" />
    <path
       style="opacity:1;fill:none;fill-opacity:1;stroke:#80b3ff;stroke-width:0.52916667;stroke-linecap:round;stroke-linejoin:round;stroke-miterlimit:4;stroke-dasharray:none;stroke-opacity:1;paint-order:normal"
       d="m 9.3940314,25.149455 c 0,0 0.03367,0.269363 0.5050554,0.505056 0.4713852,0.235693 5.5892802,2.525278 5.5892802,2.525278"
       id="path875"
       inkscape:connector-curvature="0" />
    <path
       style="opacity:1;fill:#5599ff;fill-opacity:1;stroke:#0066ff;stroke-width:1.05833328;stroke-linecap:round;stroke-linejoin:round;stroke-miterlimit:4;stroke-dasharray:none;stroke-opacity:1;paint-order:normal"
       d="m 38.037344,18.47813 c 0,0 -7.267681,2.265251 -8.966618,3.303492 -1.69894,1.03824 -3.964191,2.07648 -3.964191,2.07648 0,0 -1.227011,1.227011 -3.397877,1.887709 -2.170866,0.660699 -4.908044,1.415782 -4.908044,1.415782 0,0 -2.548408,1.132626 -1.982095,4.530503 0.566312,3.397877 0.566312,7.550837 0.566312,7.550837 0,0 -0.09439,2.548409 -0.755083,2.925951 -0.660699,0.377542 2.548408,2.170866 2.548408,2.170866 0,0 2.170865,0.471927 2.265251,-1.415783 0.09438,-1.887709 -0.188771,-6.229442 -0.188771,-6.229442 0,0 -0.660699,-3.964189 -0.188771,-4.719272 0.471927,-0.755084 3.11472,-2.265252 3.11472,-2.265252 0,0 4.152961,-1.132625 5.096816,-1.982094 0.943853,-0.849471 3.964189,-3.397878 6.418212,-3.775419 2.454021,-0.377542 7.550838,-3.114721 7.550838,-3.114721 0,0 2.831563,-1.132626 4.152961,-1.132626 1.321395,0 4.813657,1.03824 4.813657,1.03824 0,0 -1.038238,-2.265251 -4.530503,-2.925949 -3.492262,-0.660698 -7.645222,0.660698 -7.645222,0.660698 z"
       id="path847"
       inkscape:connector-curvature="0" />
    <path
       style="opacity:1;fill:none;fill-opacity:1;stroke:#5599ff;stroke-width:0.52916667;stroke-linecap:round;stroke-linejoin:round;stroke-miterlimit:4;stroke-dasharray:none;stroke-opacity:1;paint-order:normal"
       d="m 21.519887,33.957347 c 0,0 9.344161,4.81366 11.609412,5.474359 2.265251,0.660696 8.494694,4.436115 8.494694,4.436115 0,0 4.152961,2.548408 6.22944,2.92595"
       id="path849"
       inkscape:connector-curvature="0" />
    <path
       style="opacity:1;fill:none;fill-opacity:1;stroke:#5599ff;stroke-width:0.52916664;stroke-linecap:round;stroke-linejoin:round;stroke-miterlimit:4;stroke-dasharray:none;stroke-opacity:1;paint-order:normal"
       d="m 50.213069,48.020782 c 0,0 0.943856,3.775419 0.660699,5.568743 -0.283157,1.793325 0.09439,5.851898 0.09439,5.851898"
       id="path851"
       inkscape:connector-curvature="0" />
    <path
       style="opacity:1;fill:none;fill-opacity:1;stroke:#5599ff;stroke-width:0.52916664;stroke-linecap:round;stroke-linejoin:round;stroke-miterlimit:4;stroke-dasharray:none;stroke-opacity:1;paint-order:normal"
       d="m 53.044634,46.793771 c 0,0 10.476786,-3.681034 12.553268,-5.002429 2.076479,-1.321398 10.759942,-6.229443 10.759942,-6.229443"
       id="path853"
       inkscape:connector-curvature="0" />
    <path
       style="opacity:1;fill:none;fill-opacity:1;stroke:#5599ff;stroke-width:0.52916664;stroke-linecap:round;stroke-linejoin:round;stroke-miterlimit:4;stroke-dasharray:none;stroke-opacity:1;paint-order:normal"
       d="m 33.601228,51.041117 c 0,0 0.943854,-3.397877 1.038239,-6.418212"
       id="path855"
       inkscape:connector-curvature="0" />
    <path
       style="opacity:1;fill:none;fill-opacity:1;stroke:#5599ff;stroke-width:0.52916664;stroke-linecap:round;stroke-linejoin:round;stroke-miterlimit:4;stroke-dasharray:none;stroke-opacity:1;paint-order:normal"
       d="m 36.338406,47.360083 c 0,0 -0.09438,3.397877 0.09439,4.719275"
       id="path857"
       inkscape:connector-curvature="0" />
    <path
       style="opacity:1;fill:none;fill-opacity:1;stroke:#5599ff;stroke-width:0.52916664;stroke-linecap:round;stroke-linejoin:round;stroke-miterlimit:4;stroke-dasharray:none;stroke-opacity:1;paint-order:normal"
       d="m 26.144775,47.076928 c 0,0 0.188771,-2.170866 0.471927,-3.209107 0.283157,-1.038238 0.283157,-4.341731 0.283157,-4.341731"
       id="path859"
       inkscape:connector-curvature="0" />
    <path
       style="opacity:1;fill:none;fill-opacity:1;stroke:#5599ff;stroke-width:0.52916664;stroke-linecap:round;stroke-linejoin:round;stroke-miterlimit:4;stroke-dasharray:none;stroke-opacity:1;paint-order:normal"
       d="m 43.039773,56.232318 c 0,0 0.660699,-1.793324 0.755084,-3.303492"
       id="path861"
       inkscape:connector-curvature="0" />
    <path
       style="opacity:1;fill:none;fill-opacity:1;stroke:#5599ff;stroke-width:0.52916664;stroke-linecap:round;stroke-linejoin:round;stroke-miterlimit:4;stroke-dasharray:none;stroke-opacity:1;paint-order:normal"
       d="m 45.871338,49.719721 c 0,0 -0.377541,5.474357 0.283158,7.550838"
       id="path863"
       inkscape:connector-curvature="0" />
    <path
       style="opacity:1;fill:none;fill-opacity:1;stroke:#5599ff;stroke-width:0.52916664;stroke-linecap:round;stroke-linejoin:round;stroke-miterlimit:4;stroke-dasharray:none;stroke-opacity:1;paint-order:normal"
       d="m 57.763907,55.194078 c 0,0 1.604552,-3.11472 1.604552,-4.530503 0,-1.415783 -0.377542,-3.681034 -0.377542,-3.681034"
       id="path865"
       inkscape:connector-curvature="0" />
    <path
       style="opacity:1;fill:none;fill-opacity:1;stroke:#5599ff;stroke-width:0.52916664;stroke-linecap:round;stroke-linejoin:round;stroke-miterlimit:4;stroke-dasharray:none;stroke-opacity:1;paint-order:normal"
       d="m 61.350556,54.250224 c 0,0 -0.566314,-3.492264 -0.283157,-4.436118"
       id="path867"
       inkscape:connector-curvature="0" />
    <path
       style="opacity:1;fill:none;fill-opacity:1;stroke:#5599ff;stroke-width:0.52916664;stroke-linecap:round;stroke-linejoin:round;stroke-miterlimit:4;stroke-dasharray:none;stroke-opacity:1;paint-order:normal"
       d="m 70.883488,41.980111 c 0,0 -0.566314,3.397877 -0.283157,5.096817 0.283157,1.698937 0.660699,3.586647 0.660699,3.586647"
       id="path869"
       inkscape:connector-curvature="0" />
    <path
       style="opacity:1;fill:none;fill-opacity:1;stroke:#5599ff;stroke-width:0.52916664;stroke-linecap:round;stroke-linejoin:round;stroke-miterlimit:4;stroke-dasharray:none;stroke-opacity:1;paint-order:normal"
       d="m 79.755721,42.64081 c 0,0 -0.943853,2.265252 -0.755084,3.492262"
       id="path871"
       inkscape:connector-curvature="0" />
    <path
       style="opacity:1;fill:#ffffff;fill-opacity:1;stroke:#aaeeff;stroke-width:1.05833334;stroke-linecap:round;stroke-linejoin:round;stroke-miterlimit:4;stroke-dasharray:none;stroke-opacity:1;paint-order:normal"
       d="m 13.308351,19.51637 c 0,0 4.436117,-3.586647 8.117151,-5.096815 3.681033,-1.510167 7.173294,-1.793324 7.173294,-1.793324 0,0 -0.09438,-1.227011 0.47193,-1.321397 0.566311,-0.09438 1.510167,0.377542 1.510167,0.377542 0,0 0.09438,0.188771 -0.471929,0.84947 0,0 7.173297,1.698938 9.061007,4.624888 0,0 0.660698,-0.660698 1.321396,-0.660698 0.660698,0 0.755084,1.510167 0.755084,1.510167 0,0 -0.943855,1.132626 -1.793324,0.377542 0,0 -5.474357,5.285587 -15.762374,8.305922 0,0 0.471928,1.132625 -0.188771,1.415782 -0.660698,0.283156 -1.415782,-0.377542 -1.415782,-0.377542 0,0 -0.283156,-0.849469 0.377542,-1.227011 0,0 -7.362067,-0.566313 -8.777849,-5.285587 0,0 -1.321396,0.84947 -1.887709,0.09439 -0.566313,-0.755084 0.09439,-1.604553 0.09439,-1.604553 0,0 0.283156,-0.755086 1.415782,-0.188772 z"
       id="path873"
       inkscape:connector-curvature="0" />
    <path
       style="opacity:1;fill:none;fill-opacity:1;stroke:#aaeeff;stroke-width:0.52916664;stroke-linecap:round;stroke-linejoin:round;stroke-miterlimit:4;stroke-dasharray:none;stroke-opacity:1;paint-order:normal"
       d="m 21.969032,18.829635 c 0,0 5.777041,-1.017085 8.462144,-0.610251"
       id="path896"
       inkscape:connector-curvature="0" />
    <path
       style="opacity:1;fill:none;fill-opacity:1;stroke:#aaeeff;stroke-width:0.52916664;stroke-linecap:round;stroke-linejoin:round;stroke-miterlimit:4;stroke-dasharray:none;stroke-opacity:1;paint-order:normal"
       d="m 28.19359,16.225898 c 0,0 -1.179817,0.61025 -1.912119,1.952802"
       id="path898"
       inkscape:connector-curvature="0" />
  </g>
</svg>
