<?xml version="1.0" encoding="UTF-8" standalone="no"?>
<!-- Created with Inkscape (http://www.inkscape.org/) -->

<svg
   xmlns:dc="http://purl.org/dc/elements/1.1/"
   xmlns:cc="http://creativecommons.org/ns#"
   xmlns:rdf="http://www.w3.org/1999/02/22-rdf-syntax-ns#"
   xmlns:svg="http://www.w3.org/2000/svg"
   xmlns="http://www.w3.org/2000/svg"
   xmlns:sodipodi="http://sodipodi.sourceforge.net/DTD/sodipodi-0.dtd"
   xmlns:inkscape="http://www.inkscape.org/namespaces/inkscape"
   width="128"
   height="240"
   viewBox="0 0 33.866666 63.500002"
   version="1.1"
   id="svg8"
   inkscape:version="0.92.5 (2060ec1f9f, 2020-04-08)"
   sodipodi:docname="bedtable1.svg"
   inkscape:export-filename="/home/victor/Projects/cogmura/data/img/block/bedtable1.png"
   inkscape:export-xdpi="96"
   inkscape:export-ydpi="96">
  <defs
     id="defs2" />
  <sodipodi:namedview
     id="base"
     pagecolor="#ffffff"
     bordercolor="#666666"
     borderopacity="1.0"
     inkscape:pageopacity="0.0"
     inkscape:pageshadow="2"
     inkscape:zoom="3.9525416"
     inkscape:cx="59.295567"
     inkscape:cy="53.190602"
     inkscape:document-units="px"
     inkscape:current-layer="layer2"
     showgrid="false"
     units="px"
     inkscape:pagecheckerboard="true"
     inkscape:showpageshadow="false"
     inkscape:window-width="1920"
     inkscape:window-height="1015"
     inkscape:window-x="0"
     inkscape:window-y="0"
     inkscape:window-maximized="1"
     inkscape:snap-global="false" />
  <metadata
     id="metadata5">
    <rdf:RDF>
      <cc:Work
         rdf:about="">
        <dc:format>image/svg+xml</dc:format>
        <dc:type
           rdf:resource="http://purl.org/dc/dcmitype/StillImage" />
        <dc:title></dc:title>
      </cc:Work>
    </rdf:RDF>
  </metadata>
  <g
     inkscape:label="Layer 1"
     inkscape:groupmode="layer"
     id="layer1"
     transform="translate(0,-233.49998)"
     style="display:none"
     sodipodi:insensitive="true">
    <path
       style="opacity:0.15;fill:#000000;fill-opacity:1;stroke:none;stroke-width:1.0583334;stroke-linecap:round;stroke-linejoin:round;stroke-miterlimit:4;stroke-dasharray:none;stroke-opacity:1;paint-order:normal"
       d="M 16.933331,280.06665 0,288.53332 l 16.933331,8.46667 16.933334,-8.46667 z"
       id="path816"
       inkscape:connector-curvature="0"
       sodipodi:nodetypes="ccccc" />
  </g>
  <g
     inkscape:groupmode="layer"
     id="layer2"
     inkscape:label="Layer 2"
     style="display:inline">
    <path
       style="opacity:1;fill:none;fill-opacity:1;stroke:#2ad4ff;stroke-width:1.05833328;stroke-linecap:round;stroke-linejoin:round;stroke-miterlimit:4;stroke-dasharray:none;stroke-opacity:1;paint-order:normal"
       d="m 15.0881,21.763807 c 0,0 0.627039,-0.439696 1.771135,-0.439696 1.144096,0 1.737263,0.395892 1.737263,0.395892"
       id="path910"
       inkscape:connector-curvature="0"
       sodipodi:nodetypes="csc" />
    <path
       style="opacity:1;fill:#a05a2c;fill-opacity:1;stroke:#502d16;stroke-width:1.0583334;stroke-linecap:round;stroke-linejoin:round;stroke-miterlimit:4;stroke-dasharray:none;stroke-opacity:1;paint-order:normal"
       d="m 5.4789179,54.155814 1.8752882,0.807818 0.9029165,-1.279045 6.3204164,3.163952 0.208365,1.75027 1.875288,1.009773 2.153109,-0.875136 0.27782,-1.952225 6.667693,-2.827362 0.625095,1.211728 1.944744,-0.673183 -3.958942,-14.33876 2.430929,-2.15418 -9.793172,-4.712269 -10.0015373,4.712269 2.2225637,1.884907 z"
       id="path900"
       inkscape:connector-curvature="0" />
    <path
       style="opacity:1;fill:none;fill-opacity:1;stroke:#502d16;stroke-width:1.05833328;stroke-linecap:round;stroke-linejoin:round;stroke-miterlimit:4;stroke-dasharray:none;stroke-opacity:1;paint-order:normal"
       d="m 7.5625714,38.066781 9.3069866,4.308361 9.654261,-4.375678"
       id="path902"
       inkscape:connector-curvature="0" />
    <path
       style="opacity:1;fill:none;fill-opacity:1;stroke:#502d16;stroke-width:1.05833328;stroke-linecap:round;stroke-linejoin:round;stroke-miterlimit:4;stroke-dasharray:none;stroke-opacity:1;paint-order:normal"
       d="m 16.800103,59.541264 0.06946,-17.098803"
       id="path904"
       inkscape:connector-curvature="0" />
    <path
       style="opacity:1;fill:none;fill-opacity:1;stroke:#502d16;stroke-width:1.05833328;stroke-linecap:round;stroke-linejoin:round;stroke-miterlimit:4;stroke-dasharray:none;stroke-opacity:1;paint-order:normal"
       d="m 9.0905841,39.951689 7.7789739,3.567862 7.640063,-3.433225"
       id="path906"
       inkscape:connector-curvature="0" />
    <path
       style="opacity:1;fill:#80e5ff;fill-opacity:1;stroke:none;stroke-width:1.05833328;stroke-linecap:round;stroke-linejoin:round;stroke-miterlimit:4;stroke-dasharray:none;stroke-opacity:1;paint-order:normal"
       d="m 15.14388,35.534257 c 0,0 0.534526,0.687496 1.72236,0.687496 1.187835,0 1.662969,-0.515622 1.662969,-0.515622 0,0 1.009659,-3.036437 0.831484,-6.302038 -0.178175,-3.265602 -0.890876,-5.04163 -0.890876,-5.04163 0,0 -0.653309,-1.77603 0.178175,-2.69269 0,0 -1.959927,-0.744786 -3.622895,0.05729 0,0 0.593917,0.973949 0.178175,1.890609 0,0 -0.950268,3.552058 -0.950268,5.958291 0,3.036436 0.890876,5.95829 0.890876,5.95829 z"
       id="path908"
       inkscape:connector-curvature="0"
       sodipodi:nodetypes="cscsccccsc" />
    <path
       style="opacity:1;fill:none;fill-opacity:1;stroke:#338000;stroke-width:1.05833328;stroke-linecap:round;stroke-linejoin:round;stroke-miterlimit:4;stroke-dasharray:none;stroke-opacity:1;paint-order:normal"
       d="m 17.538293,34.448017 c 0,0 -1.740441,-9.505486 1.204921,-19.077913 2.945362,-9.5724273 8.836087,-1.472681 8.836087,-1.472681"
       id="path931"
       inkscape:connector-curvature="0" />
    <path
       style="opacity:1;fill:none;fill-opacity:1;stroke:#338000;stroke-width:1.05833328;stroke-linecap:round;stroke-linejoin:round;stroke-miterlimit:4;stroke-dasharray:none;stroke-opacity:1;paint-order:normal"
       d="m 16.266432,34.916599 c 0,0 1.405741,-9.505488 0.6694,-19.010975 C 16.199492,6.4001371 12.316969,5.1952162 12.316969,5.1952162"
       id="path933"
       inkscape:connector-curvature="0" />
    <path
       style="opacity:1;fill:none;fill-opacity:1;stroke:#338000;stroke-width:1.05833328;stroke-linecap:round;stroke-linejoin:round;stroke-miterlimit:4;stroke-dasharray:none;stroke-opacity:1;paint-order:normal"
       d="m 15.463152,33.711676 c 0,0 2.342901,-11.915327 -0.870221,-19.211793 -3.213123,-7.2964653 -8.3675064,2.275962 -8.3675064,2.275962"
       id="path935"
       inkscape:connector-curvature="0" />
    <path
       sodipodi:nodetypes="cscsccccscc"
       inkscape:connector-curvature="0"
       id="path937"
       d="m 15.14388,35.534257 c 0,0 0.534526,0.687496 1.72236,0.687496 1.187835,0 1.662969,-0.515622 1.662969,-0.515622 0,0 1.009659,-3.036437 0.831484,-6.302038 -0.178175,-3.265602 -0.890876,-5.04163 -0.890876,-5.04163 0,0 -0.653309,-1.77603 0.178175,-2.69269 0,0 -1.5704,1.135105 -3.622895,0.05729 0,0 0.593917,0.973949 0.178175,1.890609 0,0 -0.950268,3.552058 -0.950268,5.958291 0,3.036436 0.890876,5.95829 0.890876,5.95829 z"
       style="opacity:1;fill:#80e5ff;fill-opacity:0.50196078;stroke:#2ad4ff;stroke-width:1.05833328;stroke-linecap:round;stroke-linejoin:round;stroke-miterlimit:4;stroke-dasharray:none;stroke-opacity:1;paint-order:normal" />
    <path
       style="opacity:1;fill:#d40000;fill-opacity:1;stroke:none;stroke-width:1.05833328;stroke-linecap:round;stroke-linejoin:round;stroke-miterlimit:4;stroke-dasharray:none;stroke-opacity:1;paint-order:normal"
       d="m 27.239325,13.937225 c 0,0 -2.087564,-0.03367 -2.289586,1.818199 -0.202022,1.85187 1.515166,1.245804 1.515166,1.245804 0,0 1.245804,1.245803 1.683518,-0.606067 0.437716,-1.85187 -0.909098,-2.457936 -0.909098,-2.457936 z"
       id="path939"
       inkscape:connector-curvature="0" />
    <path
       style="opacity:1;fill:#d40000;fill-opacity:1;stroke:none;stroke-width:1.05833328;stroke-linecap:round;stroke-linejoin:round;stroke-miterlimit:4;stroke-dasharray:none;stroke-opacity:1;paint-order:normal"
       d="m 27.418829,13.666645 c 0,0 0.548615,2.014468 2.383549,1.693146 1.834936,-0.321322 0.77493,-1.802011 0.77493,-1.802011 0,0 0.84989,-1.543288 -1.050638,-1.448347 -1.900527,0.09494 -2.107841,1.557212 -2.107841,1.557212 z"
       id="path943"
       inkscape:connector-curvature="0" />
    <path
       inkscape:connector-curvature="0"
       id="path941"
       d="m 27.316083,14.079263 c 0,0 -1.05936,1.799115 0.451681,2.888604 1.511042,1.08949 1.831214,-0.703145 1.831214,-0.703145 0,0 1.6983,-0.468859 0.303556,-1.76335 -1.394742,-1.294493 -2.586451,-0.422109 -2.586451,-0.422109 z"
       style="opacity:1;fill:#ff2a2a;fill-opacity:1;stroke:none;stroke-width:1.05833328;stroke-linecap:round;stroke-linejoin:round;stroke-miterlimit:4;stroke-dasharray:none;stroke-opacity:1;paint-order:normal" />
    <path
       inkscape:connector-curvature="0"
       id="path945"
       d="m 6.1232849,17.114506 c 0,0 1.9687875,-0.694934 2.7485004,0.996894 0.7797132,1.691828 -1.0410536,1.662517 -1.0410536,1.662517 0,0 -0.785638,1.576967 -1.7888403,-0.04001 -1.0032042,-1.616972 0.081393,-2.619405 0.081393,-2.619405 z"
       style="opacity:1;fill:#d40000;fill-opacity:1;stroke:none;stroke-width:1.05833328;stroke-linecap:round;stroke-linejoin:round;stroke-miterlimit:4;stroke-dasharray:none;stroke-opacity:1;paint-order:normal" />
    <path
       inkscape:connector-curvature="0"
       id="path947"
       d="m 5.8671389,16.914945 c 0,0 0.119581,2.084409 -1.7224013,2.362495 -1.8419842,0.278087 -1.3071239,-1.462596 -1.3071239,-1.462596 0,0 -1.2960329,-1.193461 0.536249,-1.70704 1.8322807,-0.51358 2.4932762,0.807141 2.4932762,0.807141 z"
       style="opacity:1;fill:#d40000;fill-opacity:1;stroke:none;stroke-width:1.05833328;stroke-linecap:round;stroke-linejoin:round;stroke-miterlimit:4;stroke-dasharray:none;stroke-opacity:1;paint-order:normal" />
    <path
       style="opacity:1;fill:#ff2a2a;fill-opacity:1;stroke:none;stroke-width:1.05833328;stroke-linecap:round;stroke-linejoin:round;stroke-miterlimit:4;stroke-dasharray:none;stroke-opacity:1;paint-order:normal"
       d="m 6.095612,17.273568 c 0,0 1.5759079,1.369516 0.4891204,2.882501 -1.0867881,1.512986 -1.9597212,-0.08515 -1.9597212,-0.08515 0,0 -1.7592799,0.09479 -0.8478765,-1.575644 0.9114009,-1.670439 2.3184773,-1.221707 2.3184773,-1.221707 z"
       id="path949"
       inkscape:connector-curvature="0" />
    <path
       style="opacity:1;fill:#d40000;fill-opacity:1;stroke:none;stroke-width:1.05833328;stroke-linecap:round;stroke-linejoin:round;stroke-miterlimit:4;stroke-dasharray:none;stroke-opacity:1;paint-order:normal"
       d="m 12.300467,5.4205149 c 0,0 -0.15966,2.0817215 -2.022279,2.1115018 -1.8626181,0.02978 -1.1002418,-1.6239521 -1.1002418,-1.6239521 0,0 -1.1251688,-1.3557464 0.759265,-1.6202063 1.8844298,-0.2644629 2.3632608,1.1326546 2.3632608,1.1326546 z"
       id="path951"
       inkscape:connector-curvature="0" />
    <path
       style="opacity:1;fill:#d40000;fill-opacity:1;stroke:none;stroke-width:1.05833328;stroke-linecap:round;stroke-linejoin:round;stroke-miterlimit:4;stroke-dasharray:none;stroke-opacity:1;paint-order:normal"
       d="m 12.586497,5.2668212 c 0,0 -1.955054,-0.7326826 -1.465303,-2.5300066 0.489751,-1.79732701 1.865992,-0.6048445 1.865992,-0.6048445 0,0 1.615315,-0.7034249 1.344904,1.1801616 -0.27041,1.8835855 -1.745593,1.9546895 -1.745593,1.9546895 z"
       id="path953"
       inkscape:connector-curvature="0" />
    <path
       inkscape:connector-curvature="0"
       id="path955"
       d="m 12.166142,5.3309419 c 0,0 -1.88943,0.8883213 -2.8344098,-0.7170588 -0.9449803,-1.6053806 0.8695908,-1.7582855 0.8695908,-1.7582855 0,0 0.624014,-1.647622 1.783875,-0.1390701 1.159867,1.5085513 0.180944,2.6144144 0.180944,2.6144144 z"
       style="opacity:1;fill:#ff2a2a;fill-opacity:1;stroke:none;stroke-width:1.05833328;stroke-linecap:round;stroke-linejoin:round;stroke-miterlimit:4;stroke-dasharray:none;stroke-opacity:1;paint-order:normal" />
  </g>
</svg>
