<?xml version="1.0" encoding="UTF-8" standalone="no"?>
<!-- Created with Inkscape (http://www.inkscape.org/) -->

<svg
   xmlns:dc="http://purl.org/dc/elements/1.1/"
   xmlns:cc="http://creativecommons.org/ns#"
   xmlns:rdf="http://www.w3.org/1999/02/22-rdf-syntax-ns#"
   xmlns:svg="http://www.w3.org/2000/svg"
   xmlns="http://www.w3.org/2000/svg"
   xmlns:sodipodi="http://sodipodi.sourceforge.net/DTD/sodipodi-0.dtd"
   xmlns:inkscape="http://www.inkscape.org/namespaces/inkscape"
   width="468"
   height="542"
   viewBox="0 0 123.825 143.40417"
   version="1.1"
   id="svg5"
   inkscape:version="0.92.5 (2060ec1f9f, 2020-04-08)"
   sodipodi:docname="house3.svg"
   inkscape:export-filename="/home/victor/Projects/cogmura/data/img/block/house3.png"
   inkscape:export-xdpi="96"
   inkscape:export-ydpi="96">
  <metadata
     id="metadata942">
    <rdf:RDF>
      <cc:Work
         rdf:about="">
        <dc:format>image/svg+xml</dc:format>
        <dc:type
           rdf:resource="http://purl.org/dc/dcmitype/StillImage" />
        <dc:title></dc:title>
      </cc:Work>
    </rdf:RDF>
  </metadata>
  <sodipodi:namedview
     id="namedview7"
     pagecolor="#ffffff"
     bordercolor="#666666"
     borderopacity="1.0"
     inkscape:pageshadow="2"
     inkscape:pageopacity="0.0"
     inkscape:pagecheckerboard="true"
     inkscape:document-units="px"
     showgrid="false"
     units="px"
     width="320px"
     inkscape:zoom="1"
     inkscape:cx="328.55858"
     inkscape:cy="111.20714"
     inkscape:window-width="1920"
     inkscape:window-height="1015"
     inkscape:window-x="0"
     inkscape:window-y="0"
     inkscape:window-maximized="1"
     inkscape:current-layer="layer2"
     inkscape:snap-global="false"
     showguides="true" />
  <defs
     id="defs2">
    <clipPath
       id="clipPath1629"
       clipPathUnits="userSpaceOnUse">
      <path
         sodipodi:nodetypes="ccccc"
         inkscape:connector-curvature="0"
         id="path1631"
         d="m 12.7,279.80208 v 17.19791 l 12.700001,-6.08541 v -17.19792 z"
         style="opacity:1;fill:#000000;fill-opacity:1;stroke:none;stroke-width:0.5291667;stroke-linecap:round;stroke-linejoin:round;stroke-miterlimit:4;stroke-dasharray:none;stroke-opacity:1;paint-order:normal" />
    </clipPath>
    <clipPath
       id="clipPath1633"
       clipPathUnits="userSpaceOnUse">
      <path
         style="opacity:1;fill:#000000;fill-opacity:1;stroke:none;stroke-width:0.5291667;stroke-linecap:round;stroke-linejoin:round;stroke-miterlimit:4;stroke-dasharray:none;stroke-opacity:1;paint-order:normal"
         d="m 25.399999,279.80208 v 17.19791 l 12.700002,-6.08541 v -17.19792 z"
         id="path1635"
         inkscape:connector-curvature="0"
         sodipodi:nodetypes="ccccc" />
    </clipPath>
    <clipPath
       id="clipPath1637"
       clipPathUnits="userSpaceOnUse">
      <path
         sodipodi:nodetypes="ccccc"
         inkscape:connector-curvature="0"
         id="path1639"
         d="m 38.099998,279.80208 v 17.19791 l 12.700001,-6.08541 v -17.19792 z"
         style="opacity:1;fill:#000000;fill-opacity:1;stroke:none;stroke-width:0.5291667;stroke-linecap:round;stroke-linejoin:round;stroke-miterlimit:4;stroke-dasharray:none;stroke-opacity:1;paint-order:normal" />
    </clipPath>
    <clipPath
       id="clipPath1641"
       clipPathUnits="userSpaceOnUse">
      <path
         style="opacity:1;fill:#000000;fill-opacity:1;stroke:none;stroke-width:0.5291667;stroke-linecap:round;stroke-linejoin:round;stroke-miterlimit:4;stroke-dasharray:none;stroke-opacity:1;paint-order:normal"
         d="m 50.799996,279.80208 v 17.19791 l 12.700003,-6.08541 v -17.19792 z"
         id="path1643"
         inkscape:connector-curvature="0"
         sodipodi:nodetypes="ccccc" />
    </clipPath>
  </defs>
  <g
     inkscape:label="Layer 1"
     inkscape:groupmode="layer"
     id="layer1"
     transform="translate(0,66.14584)" />
  <g
     inkscape:groupmode="layer"
     id="layer2"
     inkscape:label="Layer 2"
     transform="translate(0,66.14584)">
    <path
       style="fill:#ffccaa;stroke:#ff9955;stroke-width:1.0583334;stroke-linecap:butt;stroke-linejoin:round;stroke-miterlimit:4;stroke-dasharray:none;stroke-opacity:1"
       d="M 3.175,-6.3500058 V 51.329161 L 53.445834,76.729162 V 19.049994 Z"
       id="path641"
       sodipodi:nodetypes="ccccc"
       inkscape:connector-curvature="0" />
    <path
       style="fill:#ffccaa;stroke:#ff9955;stroke-width:1.0583334;stroke-linecap:butt;stroke-linejoin:round;stroke-miterlimit:4;stroke-dasharray:none;stroke-opacity:1"
       d="M 120.65,-14.816673 V 42.862495 L 53.445834,76.729162 V 19.049994 Z"
       id="path1974"
       sodipodi:nodetypes="ccccc"
       inkscape:connector-curvature="0" />
    <path
       style="opacity:1;fill:#d35f5f;fill-opacity:1;stroke:#a02c2c;stroke-width:1.0583334;stroke-linecap:butt;stroke-linejoin:round;stroke-miterlimit:4;stroke-dasharray:none;stroke-opacity:1;paint-order:normal"
       d="M 0.52916667,-2.8213805 51.438491,20.911467 123.29592,-14.783834 89.958334,-53.710423 66.145834,-65.616673 34.925,-50.006257 Z"
       id="path941"
       inkscape:connector-curvature="0"
       sodipodi:nodetypes="ccccccc" />
    <path
       style="opacity:1;fill:none;fill-opacity:1;stroke:#a02c2c;stroke-width:1.05833328;stroke-linecap:round;stroke-linejoin:round;stroke-miterlimit:4;stroke-dasharray:none;stroke-opacity:1;paint-order:normal"
       d="m 34.925,-50.006257 23.812501,11.906251 31.220833,-15.610417"
       id="path943"
       inkscape:connector-curvature="0"
       sodipodi:nodetypes="ccc" />
    <path
       style="opacity:1;fill:none;fill-opacity:1;stroke:#a02c2c;stroke-width:1.05833328;stroke-linecap:round;stroke-linejoin:round;stroke-miterlimit:4;stroke-dasharray:none;stroke-opacity:1;paint-order:normal"
       d="M 58.731084,-38.148002 51.531502,20.537635"
       id="path945"
       inkscape:connector-curvature="0"
       sodipodi:nodetypes="cc" />
    <path
       style="opacity:1;fill:#aaeeff;fill-opacity:1;stroke:#55ddff;stroke-width:1.0583334;stroke-linecap:round;stroke-linejoin:round;stroke-miterlimit:4;stroke-dasharray:none;stroke-opacity:1;paint-order:normal"
       d="m 56.091664,24.984223 v 9.676188 L 78.845833,23.573113 V 13.49375 Z"
       id="path947"
       inkscape:connector-curvature="0" />
    <path
       style="opacity:1;fill:#aaeeff;fill-opacity:1;stroke:#55ddff;stroke-width:1.0583334;stroke-linecap:round;stroke-linejoin:round;stroke-miterlimit:4;stroke-dasharray:none;stroke-opacity:1;paint-order:normal"
       d="M 56.193854,29.723334 78.642673,18.633621"
       id="path951"
       inkscape:connector-curvature="0"
       sodipodi:nodetypes="cc" />
    <path
       style="opacity:1;fill:none;fill-opacity:1;stroke:#a02c2c;stroke-width:1.0583334;stroke-linecap:round;stroke-linejoin:round;stroke-miterlimit:4;stroke-dasharray:none;stroke-opacity:1;paint-order:normal"
       d="m 52.377316,15.122156 c 0,0 1.540083,1.631047 3.804911,0.600912 2.264827,-1.030134 2.33709,-3.596275 2.33709,-3.596275 0,0 1.521758,1.554395 3.786584,0.52426 2.264827,-1.030132 2.337094,-3.5962738 2.337094,-3.5962738 0,0 1.521756,1.5543948 3.786584,0.5242603 2.264825,-1.0301338 2.33709,-3.5962761 2.33709,-3.5962761 0,0 1.521759,1.5543963 3.786587,0.5242608 2.264811,-1.0301342 2.337078,-3.5962743 2.337078,-3.5962743 0,0 1.521769,1.5543946 3.786601,0.5242598 2.26481,-1.0301335 2.337084,-3.59627581 2.337084,-3.59627581 0,0 1.521763,1.55439621 3.786579,0.52426107 2.264817,-1.03013375 2.337099,-3.59627516 2.337099,-3.59627516 0,0 1.521755,1.5543952 3.786579,0.5242601 2.264817,-1.0301337 2.337104,-3.5962771 2.337104,-3.5962771 0,0 1.521743,1.5543967 3.786567,0.5242611 2.264833,-1.0301328 2.337103,-3.5962742 2.337103,-3.5962742 0,0 1.52174,1.5543948 3.78657,0.5242591 2.26485,-1.0301325 2.33712,-3.5962758 2.33712,-3.5962758 0,0 1.52174,1.554396 3.78658,0.524261 2.26482,-1.030134 2.33707,-3.596276 2.33707,-3.596276 0,0 1.52176,1.554397 3.7866,0.524261 2.26482,-1.030134 2.35541,-3.519623 2.35541,-3.519623"
       id="path955"
       inkscape:connector-curvature="0"
       sodipodi:nodetypes="cscscscscscscscscscscsc" />
    <path
       sodipodi:nodetypes="cscscscscscscscscscsc"
       inkscape:connector-curvature="0"
       id="path982"
       d="m 53.4062,8.3775116 c 0,0 1.570551,1.6637864 3.880187,0.6129734 2.309634,-1.0508113 2.383327,-3.6684616 2.383327,-3.6684616 0,0 1.551863,1.5855967 3.861497,0.5347839 2.309634,-1.0508106 2.383331,-3.6684604 2.383331,-3.6684604 0,0 1.551862,1.5855961 3.861496,0.5347831 2.309633,-1.0508108 2.383328,-3.66846176 2.383328,-3.66846176 0,0 1.551869,1.58559718 3.861506,0.53478423 2.309617,-1.05081097 2.383314,-3.66846087 2.383314,-3.66846087 0,0 1.551876,1.5855951 3.861515,0.5347832 2.309616,-1.0508113 2.38332,-3.6684613 2.38332,-3.6684613 0,0 1.55187,1.5855966 3.861493,0.5347836 2.309623,-1.0508103 2.383336,-3.6684611 2.383336,-3.6684611 0,0 1.551861,1.5855954 3.861491,0.5347823 2.309625,-1.0508103 2.383343,-3.6684603 2.383343,-3.6684603 0,0 1.551847,1.585597 3.861476,0.534784 2.30965,-1.050811 2.38335,-3.668462 2.38335,-3.668462 0,0 1.55184,1.585597 3.86149,0.534784 2.30963,-1.050811 2.38333,-3.66846 2.38333,-3.66846 0,0 1.55186,1.585596 3.8615,0.534783 2.30963,-1.050811 2.38331,-3.668461 2.38331,-3.668461"
       style="opacity:1;fill:none;fill-opacity:1;stroke:#a02c2c;stroke-width:1.0583334;stroke-linecap:round;stroke-linejoin:round;stroke-miterlimit:4;stroke-dasharray:none;stroke-opacity:1;paint-order:normal" />
    <path
       style="opacity:1;fill:none;fill-opacity:1;stroke:#a02c2c;stroke-width:1.0583334;stroke-linecap:round;stroke-linejoin:round;stroke-miterlimit:4;stroke-dasharray:none;stroke-opacity:1;paint-order:normal"
       d="m 54.435114,0.88142818 c 0,0 1.607766,1.69808142 3.972127,0.62560892 2.36436,-1.07247301 2.4398,-3.7440813 2.4398,-3.7440813 0,0 1.588634,1.61828095 3.952993,0.5458079 2.364361,-1.0724716 2.439803,-3.7440809 2.439803,-3.7440809 0,0 1.588633,1.618281 3.952994,0.5458069 2.364361,-1.0724715 2.439806,-3.7440799 2.439806,-3.7440799 0,0 1.588632,1.6182806 3.952996,0.5458069 2.364342,-1.0724715 2.439785,-3.7440797 2.439785,-3.7440797 0,0 1.588648,1.618279 3.953012,0.545807 2.364341,-1.072471 2.439793,-3.744079 2.439793,-3.744079 0,0 1.588639,1.61828 3.952988,0.545807 2.36435,-1.072472 2.439808,-3.74408 2.439808,-3.74408 0,0 1.588634,1.618282 3.95299,0.545808 2.364349,-1.072471 2.439815,-3.744082 2.439815,-3.744082 0,0 1.588616,1.618282 3.952976,0.545808 2.36436,-1.072471 2.43982,-3.744079 2.43982,-3.744079 0,0 1.58861,1.61828 3.95297,0.545807 2.36438,-1.072471 2.43983,-3.744079 2.43983,-3.744079"
       id="path984"
       inkscape:connector-curvature="0"
       sodipodi:nodetypes="cscscscscscscscscsc" />
    <path
       sodipodi:nodetypes="cscscscscscscscsc"
       inkscape:connector-curvature="0"
       id="path986"
       d="m 55.27639,-6.7932987 c 0,0 1.648382,1.7165979 4.072474,0.6324301 2.424091,-1.0841661 2.501436,-3.7849061 2.501436,-3.7849061 0,0 1.628768,1.6359262 4.052859,0.5517584 2.424089,-1.0841657 2.501437,-3.7849037 2.501437,-3.7849037 0,0 1.628767,1.635926 4.052857,0.551758 2.424092,-1.084166 2.501442,-3.784906 2.501442,-3.784906 0,0 1.628767,1.635926 4.05286,0.551759 2.424072,-1.084166 2.501423,-3.784904 2.501423,-3.784904 0,0 1.62878,1.635925 4.052875,0.551758 2.424072,-1.084165 2.501429,-3.784905 2.501429,-3.784905 0,0 1.628774,1.635926 4.052853,0.551759 2.42408,-1.084166 2.501445,-3.784905 2.501445,-3.784905 0,0 1.628765,1.635925 4.052852,0.551759 2.424078,-1.084166 2.501448,-3.784907 2.501448,-3.784907 0,0 1.62875,1.635927 4.05285,0.551759 2.42409,-1.084165 2.50144,-3.784903 2.50144,-3.784903"
       style="opacity:1;fill:none;fill-opacity:1;stroke:#a02c2c;stroke-width:1.0583334;stroke-linecap:round;stroke-linejoin:round;stroke-miterlimit:4;stroke-dasharray:none;stroke-opacity:1;paint-order:normal" />
    <path
       sodipodi:nodetypes="cscscscscscscsc"
       inkscape:connector-curvature="0"
       id="path996"
       d="m 52.002959,15.964351 c 0,0 -1.714237,1.788594 -4.235161,0.658955 -2.520933,-1.129637 -2.601366,-3.943649 -2.601366,-3.943649 0,0 -1.69384,1.704538 -4.214764,0.5749 -2.520924,-1.129637 -2.601364,-3.9436509 -2.601364,-3.9436509 0,0 -1.693833,1.7045389 -4.214766,0.5749005 -2.520925,-1.1296375 -2.601364,-3.943651 -2.601364,-3.943651 0,0 -1.693832,1.7045398 -4.214765,0.5748995 C 24.7985,5.3874171 24.71806,2.573406 24.71806,2.573406 c 0,0 -1.693848,1.704539 -4.214781,0.5748994 -2.520908,-1.1296372 -2.601356,-3.94364986 -2.601356,-3.94364986 0,0 -1.69384,1.70453909 -4.214757,0.57489935 -2.520917,-1.12963729 -2.601372,-3.94364999 -2.601372,-3.94364999 0,0 -1.6938326,1.7045398 -4.2147575,0.5748994 -2.5209174,-1.1296383 -2.6013802,-3.943651 -2.6013802,-3.943651"
       style="opacity:1;fill:none;fill-opacity:1;stroke:#a02c2c;stroke-width:1.0583334;stroke-linecap:round;stroke-linejoin:round;stroke-miterlimit:4;stroke-dasharray:none;stroke-opacity:1;paint-order:normal" />
    <path
       inkscape:connector-curvature="0"
       id="path1354"
       d="M 95.779164,4.8758895 V 14.552077 L 118.53333,3.4647795 v -10.079363 z"
       style="opacity:1;fill:#aaeeff;fill-opacity:1;stroke:#55ddff;stroke-width:1.0583334;stroke-linecap:round;stroke-linejoin:round;stroke-miterlimit:4;stroke-dasharray:none;stroke-opacity:1;paint-order:normal" />
    <path
       sodipodi:nodetypes="cc"
       inkscape:connector-curvature="0"
       id="path1356"
       d="M 95.881354,9.6150005 118.33017,-1.4747125"
       style="opacity:1;fill:#aaeeff;fill-opacity:1;stroke:#55ddff;stroke-width:1.0583334;stroke-linecap:round;stroke-linejoin:round;stroke-miterlimit:4;stroke-dasharray:none;stroke-opacity:1;paint-order:normal" />
    <path
       style="opacity:1;fill:none;fill-opacity:1;stroke:#a02c2c;stroke-width:1.05833328;stroke-linecap:round;stroke-linejoin:round;stroke-miterlimit:4;stroke-dasharray:none;stroke-opacity:1;paint-order:normal"
       d="m 56.026547,-13.827865 c 0,0 1.50687,1.548145 3.722857,0.570369 2.215986,-0.977775 2.286691,-3.413486 2.286691,-3.413486 0,0 1.48894,1.47539 3.704927,0.497613 2.215984,-0.977774 2.286691,-3.413483 2.286691,-3.413483 0,0 1.488941,1.475389 3.704925,0.497612 2.215987,-0.977773 2.286696,-3.413484 2.286696,-3.413484 0,0 1.488941,1.475388 3.704927,0.497613 2.215969,-0.977775 2.28668,-3.413484 2.28668,-3.413484 0,0 1.488952,1.475389 3.70494,0.497613 2.215969,-0.977774 2.286686,-3.413484 2.286686,-3.413484 0,0 1.488946,1.475389 3.70492,0.497613 2.215976,-0.977774 2.2867,-3.413484 2.2867,-3.413484 0,0 1.488938,1.475388 3.704919,0.497614 2.215975,-0.977775 2.286704,-3.413487 2.286704,-3.413487 0,0 1.488924,1.475391 3.70492,0.497614 2.21598,-0.977773 2.28669,-3.413482 2.28669,-3.413482"
       id="path1358"
       inkscape:connector-curvature="0"
       sodipodi:nodetypes="cscscscscscscscsc" />
    <path
       sodipodi:nodetypes="cscscscscscscsc"
       inkscape:connector-curvature="0"
       id="path1360"
       d="m 57.340148,-21.34157 c 0,0 1.527085,1.561831 3.772799,0.575411 2.245713,-0.986418 2.317366,-3.44366 2.317366,-3.44366 0,0 1.508914,1.488432 3.754628,0.502012 2.245711,-0.986418 2.317367,-3.443658 2.317367,-3.443658 0,0 1.508914,1.488431 3.754625,0.502011 2.245714,-0.986417 2.317372,-3.443659 2.317372,-3.443659 0,0 1.508915,1.48843 3.754628,0.502012 2.245696,-0.986418 2.317355,-3.443658 2.317355,-3.443658 0,0 1.508926,1.488431 3.754641,0.502011 2.245696,-0.986417 2.317362,-3.443658 2.317362,-3.443658 0,0 1.50892,1.488431 3.75462,0.502012 2.245703,-0.986418 2.317376,-3.443659 2.317376,-3.443659 0,0 1.508912,1.48843 3.75462,0.502013 2.245702,-0.986418 2.31738,-3.443662 2.31738,-3.443662"
       style="opacity:1;fill:none;fill-opacity:1;stroke:#a02c2c;stroke-width:1.05833328;stroke-linecap:round;stroke-linejoin:round;stroke-miterlimit:4;stroke-dasharray:none;stroke-opacity:1;paint-order:normal" />
    <path
       style="opacity:1;fill:none;fill-opacity:1;stroke:#a02c2c;stroke-width:1.05833328;stroke-linecap:round;stroke-linejoin:round;stroke-miterlimit:4;stroke-dasharray:none;stroke-opacity:1;paint-order:normal"
       d="m 57.90326,-28.499121 c 0,0 1.578061,1.60914 3.898739,0.592839 2.320676,-1.016296 2.39472,-3.54797 2.39472,-3.54797 0,0 1.559284,1.533518 3.879961,0.517219 2.320674,-1.016298 2.394723,-3.547969 2.394723,-3.547969 0,0 1.559282,1.533516 3.879956,0.517217 2.320679,-1.016297 2.394728,-3.54797 2.394728,-3.54797 0,0 1.559284,1.533515 3.879961,0.517218 2.320659,-1.016298 2.394709,-3.547969 2.394709,-3.547969 0,0 1.559296,1.533517 3.879975,0.517217 2.320658,-1.016295 2.394717,-3.547969 2.394717,-3.547969 0,0 1.559289,1.533517 3.879951,0.517219 2.320667,-1.016297 2.394733,-3.54797 2.394733,-3.54797"
       id="path1362"
       inkscape:connector-curvature="0"
       sodipodi:nodetypes="cscscscscscsc" />
    <path
       sodipodi:nodetypes="cscscscscsc"
       inkscape:connector-curvature="0"
       id="path1364"
       d="m 59.029274,-35.860775 c 0,0 1.616466,1.685264 3.993623,0.620885 2.377154,-1.064374 2.453001,-3.715818 2.453001,-3.715818 0,0 1.597232,1.606067 3.974387,0.541688 2.377153,-1.064376 2.453003,-3.715815 2.453003,-3.715815 0,0 1.597231,1.606063 3.974384,0.541685 2.377157,-1.064375 2.453008,-3.715816 2.453008,-3.715816 0,0 1.597233,1.606062 3.974388,0.541686 2.377137,-1.064376 2.45299,-3.715815 2.45299,-3.715815 0,0 1.597244,1.606064 3.974401,0.541686 2.377138,-1.064375 2.452998,-3.715816 2.452998,-3.715816"
       style="opacity:1;fill:none;fill-opacity:1;stroke:#a02c2c;stroke-width:1.05833328;stroke-linecap:round;stroke-linejoin:round;stroke-miterlimit:4;stroke-dasharray:none;stroke-opacity:1;paint-order:normal" />
    <path
       sodipodi:nodetypes="cscscscscscsc"
       inkscape:connector-curvature="0"
       id="path1366"
       d="m 53.594617,1.5075649 c 0,0 -1.690894,1.8543873 -4.177491,0.6831947 -2.486604,-1.1711909 -2.565942,-4.0887167 -2.565942,-4.0887167 0,0 -1.670775,1.76724081 -4.157371,0.5960493 -2.486597,-1.1711908 -2.565941,-4.0887164 -2.565941,-4.0887164 0,0 -1.670768,1.7672405 -4.157373,0.596048 -2.486597,-1.1711921 -2.565942,-4.0887184 -2.565942,-4.0887184 0,0 -1.670765,1.7672411 -4.15737,0.5960475 -2.486582,-1.1711911 -2.565927,-4.0887159 -2.565927,-4.0887159 0,0 -1.670782,1.76724 -4.157387,0.596049 -2.486581,-1.171191 -2.565933,-4.088717 -2.565933,-4.088717 0,0 -1.670776,1.767241 -4.157363,0.596047 -2.48659,-1.17119 -2.565949,-4.088714 -2.565949,-4.088714"
       style="opacity:1;fill:none;fill-opacity:1;stroke:#a02c2c;stroke-width:1.05833352;stroke-linecap:round;stroke-linejoin:round;stroke-miterlimit:4;stroke-dasharray:none;stroke-opacity:1;paint-order:normal" />
    <path
       style="opacity:1;fill:none;fill-opacity:1;stroke:#a02c2c;stroke-width:1.05833352;stroke-linecap:round;stroke-linejoin:round;stroke-miterlimit:4;stroke-dasharray:none;stroke-opacity:1;paint-order:normal"
       d="m 54.345478,-6.2735483 c 0,0 -1.549392,1.6799126 -3.827898,0.6189146 -2.278512,-1.0609965 -2.351211,-3.7040193 -2.351211,-3.7040193 0,0 -1.530956,1.6009653 -3.809462,0.5399684 -2.278506,-1.0609971 -2.35121,-3.7040194 -2.35121,-3.7040194 0,0 -1.53095,1.600965 -3.809463,0.539967 -2.278506,-1.060997 -2.351211,-3.704021 -2.351211,-3.704021 0,0 -1.530947,1.600966 -3.809461,0.539967 -2.278492,-1.060996 -2.351197,-3.704018 -2.351197,-3.704018 0,0 -1.530963,1.600964 -3.809477,0.539968 -2.278491,-1.060997 -2.351203,-3.70402 -2.351203,-3.70402 0,0 -1.530957,1.600966 -3.809454,0.539966 -2.278499,-1.060995 -2.351217,-3.704016 -2.351217,-3.704016"
       id="path1368"
       inkscape:connector-curvature="0"
       sodipodi:nodetypes="cscscscscscsc" />
    <path
       sodipodi:nodetypes="cscscscscsc"
       inkscape:connector-curvature="0"
       id="path1370"
       d="m 55.283427,-13.710858 c 0,0 -1.690992,1.887537 -4.177732,0.695409 -2.486746,-1.192128 -2.566089,-4.161809 -2.566089,-4.161809 0,0 -1.670871,1.798833 -4.15761,0.606705 -2.48674,-1.192128 -2.566089,-4.161807 -2.566089,-4.161807 0,0 -1.670864,1.798832 -4.157612,0.606702 -2.48674,-1.192128 -2.56609,-4.161808 -2.56609,-4.161808 0,0 -1.670861,1.798832 -4.157609,0.606702 -2.486725,-1.192127 -2.566074,-4.161806 -2.566074,-4.161806 0,0 -1.670878,1.798831 -4.157627,0.606703 -2.486723,-1.192128 -2.566081,-4.161809 -2.566081,-4.161809"
       style="opacity:1;fill:none;fill-opacity:1;stroke:#a02c2c;stroke-width:1.05833352;stroke-linecap:round;stroke-linejoin:round;stroke-miterlimit:4;stroke-dasharray:none;stroke-opacity:1;paint-order:normal" />
    <path
       style="opacity:1;fill:none;fill-opacity:1;stroke:#a02c2c;stroke-width:1.0583334;stroke-linecap:round;stroke-linejoin:round;stroke-miterlimit:4;stroke-dasharray:none;stroke-opacity:1;paint-order:normal"
       d="m 52.566282,8.5443312 c 0,0 -1.586211,1.6380588 -3.918862,0.6034949 -2.332659,-1.0345625 -2.407085,-3.6117366 -2.407085,-3.6117366 0,0 -1.567337,1.5610776 -3.899988,0.5265143 -2.332651,-1.0345625 -2.407084,-3.6117387 -2.407084,-3.6117387 0,0 -1.56733,1.5610788 -3.89999,0.5265147 -2.332652,-1.0345629 -2.407083,-3.61173834 -2.407083,-3.61173834 0,0 -1.56733,1.56107925 -3.89999,0.52651378 -2.332637,-1.03456344 -2.407069,-3.61173674 -2.407069,-3.61173674 0,0 -1.567345,1.5610786 -3.900004,0.5265137 -2.332636,-1.0345627 -2.407076,-3.6117374 -2.407076,-3.6117374 0,0 -1.567337,1.5610786 -3.899982,0.5265136 -2.332645,-1.0345627 -2.407091,-3.6117381 -2.407091,-3.6117381 0,0 -1.56733,1.5610798 -3.899982,0.5265146 C 8.4723512,-10.39808 8.3978976,-12.975254 8.3978976,-12.975254"
       id="path1372"
       inkscape:connector-curvature="0"
       sodipodi:nodetypes="cscscscscscscsc" />
    <path
       sodipodi:nodetypes="cscscscsc"
       inkscape:connector-curvature="0"
       id="path1376"
       d="m 57.159878,-28.712884 c 0,0 -1.69085,1.870486 -4.177378,0.689127 -2.486537,-1.181359 -2.565873,-4.124211 -2.565873,-4.124211 0,0 -1.67073,1.782582 -4.157259,0.601223 -2.48653,-1.181358 -2.565872,-4.12421 -2.565872,-4.12421 0,0 -1.670722,1.782581 -4.15726,0.601221 -2.48653,-1.181358 -2.565873,-4.124211 -2.565873,-4.124211 0,0 -1.67072,1.782581 -4.157258,0.60122 -2.486513,-1.181357 -2.565857,-4.124207 -2.565857,-4.124207"
       style="opacity:1;fill:none;fill-opacity:1;stroke:#a02c2c;stroke-width:1.05833364;stroke-linecap:round;stroke-linejoin:round;stroke-miterlimit:4;stroke-dasharray:none;stroke-opacity:1;paint-order:normal" />
    <path
       style="opacity:1;fill:none;fill-opacity:1;stroke:#a02c2c;stroke-width:1.05833352;stroke-linecap:round;stroke-linejoin:round;stroke-miterlimit:4;stroke-dasharray:none;stroke-opacity:1;paint-order:normal"
       d="m 56.409608,-21.119561 c 0,0 -1.540188,1.717976 -3.805155,0.632938 -2.264976,-1.085037 -2.337243,-3.787945 -2.337243,-3.787945 0,0 -1.521861,1.63724 -3.786829,0.552203 -2.26497,-1.085036 -2.337242,-3.787944 -2.337242,-3.787944 0,0 -1.521853,1.637239 -3.78683,0.552201 -2.264969,-1.085037 -2.337242,-3.787945 -2.337242,-3.787945 0,0 -1.521852,1.637238 -3.786829,0.552199 -2.264954,-1.085036 -2.337228,-3.787942 -2.337228,-3.787942 0,0 -1.521867,1.637238 -3.786843,0.552201 -2.264954,-1.085037 -2.337236,-3.787945 -2.337236,-3.787945"
       id="path1374"
       inkscape:connector-curvature="0"
       sodipodi:nodetypes="cscscscscsc" />
    <path
       style="opacity:1;fill:none;fill-opacity:1;stroke:#a02c2c;stroke-width:1.05833364;stroke-linecap:round;stroke-linejoin:round;stroke-miterlimit:4;stroke-dasharray:none;stroke-opacity:1;paint-order:normal"
       d="m 58.098408,-35.52234 c 0,0 -1.543457,1.638359 -3.813232,0.603606 -2.269784,-1.034751 -2.342203,-3.612393 -2.342203,-3.612393 0,0 -1.525091,1.561362 -3.794867,0.52661 -2.269777,-1.03475 -2.342203,-3.612393 -2.342203,-3.612393 0,0 -1.525084,1.561361 -3.794868,0.526609 -2.269776,-1.034751 -2.342203,-3.612395 -2.342203,-3.612395 0,0 -1.525082,1.561363 -3.794866,0.526609 -2.269761,-1.03475 -2.342189,-3.612391 -2.342189,-3.612391"
       id="path1378"
       inkscape:connector-curvature="0"
       sodipodi:nodetypes="cscscscsc" />
    <path
       style="opacity:1;fill:#c87137;fill-opacity:1;stroke:#784421;stroke-width:1.05833387;stroke-linecap:round;stroke-linejoin:round;stroke-miterlimit:4;stroke-dasharray:none;stroke-opacity:1;paint-order:normal"
       d="M 75.141668,32.490842 V 65.828361 L 99.483348,53.657532 V 20.320002 Z"
       id="path1522"
       inkscape:connector-curvature="0"
       sodipodi:nodetypes="ccccc" />
    <path
       style="opacity:1;fill:none;fill-opacity:1;stroke:#784421;stroke-width:1.05833387;stroke-linecap:round;stroke-linejoin:round;stroke-miterlimit:4;stroke-dasharray:none;stroke-opacity:1;paint-order:normal"
       d="m 79.904169,34.607502 v 9.525009 l 14.816669,-7.408329 v -9.525 z"
       id="path1524"
       inkscape:connector-curvature="0"
       sodipodi:nodetypes="ccccc" />
    <path
       sodipodi:nodetypes="ccccc"
       inkscape:connector-curvature="0"
       id="path1528"
       d="m 79.904169,48.895011 v 9.525 l 14.816669,-7.40832 v -9.524999 z"
       style="opacity:1;fill:none;fill-opacity:1;stroke:#784421;stroke-width:1.05833387;stroke-linecap:round;stroke-linejoin:round;stroke-miterlimit:4;stroke-dasharray:none;stroke-opacity:1;paint-order:normal" />
    <ellipse
       style="opacity:1;fill:#784421;fill-opacity:1;stroke:none;stroke-width:1.10833681;stroke-linecap:round;stroke-linejoin:round;stroke-miterlimit:4;stroke-dasharray:none;stroke-opacity:1;paint-order:normal"
       id="path1530"
       cx="106.44759"
       cy="82.008842"
       rx="1.7808855"
       ry="1.8066775"
       transform="matrix(0.91180474,-0.41062406,0,1,0,0)" />
  </g>
</svg>
