<?xml version="1.0" encoding="UTF-8" standalone="no"?>
<!-- Created with Inkscape (http://www.inkscape.org/) -->

<svg
   width="320"
   height="292"
   viewBox="0 0 84.666666 77.258335"
   version="1.1"
   id="svg5"
   inkscape:version="1.1.2 (0a00cf5339, 2022-02-04)"
   sodipodi:docname="house1.svg"
   inkscape:export-filename="/home/victor/Projects/cogmura/data/img/block/house1.png"
   inkscape:export-xdpi="96"
   inkscape:export-ydpi="96"
   xmlns:inkscape="http://www.inkscape.org/namespaces/inkscape"
   xmlns:sodipodi="http://sodipodi.sourceforge.net/DTD/sodipodi-0.dtd"
   xmlns="http://www.w3.org/2000/svg"
   xmlns:svg="http://www.w3.org/2000/svg">
  <sodipodi:namedview
     id="namedview7"
     pagecolor="#ffffff"
     bordercolor="#666666"
     borderopacity="1.0"
     inkscape:pageshadow="2"
     inkscape:pageopacity="0.0"
     inkscape:pagecheckerboard="true"
     inkscape:document-units="px"
     showgrid="false"
     units="px"
     width="320px"
     inkscape:zoom="1"
     inkscape:cx="77"
     inkscape:cy="79"
     inkscape:window-width="1920"
     inkscape:window-height="1012"
     inkscape:window-x="0"
     inkscape:window-y="0"
     inkscape:window-maximized="1"
     inkscape:current-layer="layer2"
     inkscape:snap-global="false" />
  <defs
     id="defs2" />
  <g
     inkscape:label="Layer 1"
     inkscape:groupmode="layer"
     id="layer1"
     sodipodi:insensitive="true">
    <path
       style="opacity:0.1;fill:#000000;stroke:none;stroke-width:0.264583px;stroke-linecap:butt;stroke-linejoin:miter;stroke-opacity:1"
       d="m 16.933332,60.324995 -8.4666652,4.233333 8.4666652,4.233332 8.466666,-4.233332 z"
       id="path39"
       sodipodi:nodetypes="ccccc" />
    <path
       style="opacity:0.2;fill:#000000;stroke:none;stroke-width:0.264583px;stroke-linecap:butt;stroke-linejoin:miter;stroke-opacity:1"
       d="m 25.399997,64.558326 -8.466665,4.233333 8.466665,4.233332 8.466666,-4.233332 z"
       id="path525"
       sodipodi:nodetypes="ccccc" />
    <path
       style="opacity:0.1;fill:#000000;stroke:none;stroke-width:0.264583px;stroke-linecap:butt;stroke-linejoin:miter;stroke-opacity:1"
       d="m 33.866662,68.79166 -8.466665,4.233333 8.466665,4.233332 8.466666,-4.233332 z"
       id="path527"
       sodipodi:nodetypes="ccccc" />
    <path
       style="opacity:0.2;fill:#000000;stroke:none;stroke-width:0.264583px;stroke-linecap:butt;stroke-linejoin:miter;stroke-opacity:1"
       d="M 8.4666656,56.091661 -1.4514555e-7,60.324994 8.4666656,64.558326 16.93333,60.324994 Z"
       id="path529"
       sodipodi:nodetypes="ccccc" />
    <path
       style="opacity:0.2;fill:#000000;stroke:none;stroke-width:0.264583px;stroke-linecap:butt;stroke-linejoin:miter;stroke-opacity:1"
       d="m 25.399997,56.091661 -8.466665,4.233333 8.466665,4.233332 8.466666,-4.233332 z"
       id="path531"
       sodipodi:nodetypes="ccccc" />
    <path
       style="opacity:0.1;fill:#000000;stroke:none;stroke-width:0.264583px;stroke-linecap:butt;stroke-linejoin:miter;stroke-opacity:1"
       d="m 33.866662,60.324992 -8.466665,4.233333 8.466665,4.233332 8.466666,-4.233332 z"
       id="path533"
       sodipodi:nodetypes="ccccc" />
    <path
       style="opacity:0.2;fill:#000000;stroke:none;stroke-width:0.264583px;stroke-linecap:butt;stroke-linejoin:miter;stroke-opacity:1"
       d="m 42.333327,64.558326 -8.466665,4.233333 8.466665,4.233332 8.466666,-4.233332 z"
       id="path535"
       sodipodi:nodetypes="ccccc" />
    <path
       style="opacity:0.1;fill:#000000;stroke:none;stroke-width:0.264583px;stroke-linecap:butt;stroke-linejoin:miter;stroke-opacity:1"
       d="M 16.933331,51.858327 8.4666666,56.09166 16.933331,60.324992 25.399995,56.09166 Z"
       id="path537"
       sodipodi:nodetypes="ccccc" />
    <path
       style="opacity:0.1;fill:#000000;stroke:none;stroke-width:0.264583px;stroke-linecap:butt;stroke-linejoin:miter;stroke-opacity:1"
       d="M 33.866665,51.85833 25.4,56.091663 l 8.466665,4.233332 8.466666,-4.233332 z"
       id="path539"
       sodipodi:nodetypes="ccccc" />
    <path
       style="opacity:0.2;fill:#000000;stroke:none;stroke-width:0.264583px;stroke-linecap:butt;stroke-linejoin:miter;stroke-opacity:1"
       d="m 42.33333,56.091661 -8.466665,4.233333 8.466665,4.233332 8.466666,-4.233332 z"
       id="path541"
       sodipodi:nodetypes="ccccc" />
    <path
       style="opacity:0.1;fill:#000000;stroke:none;stroke-width:0.264583px;stroke-linecap:butt;stroke-linejoin:miter;stroke-opacity:1"
       d="m 50.799995,60.324995 -8.466665,4.233333 8.466665,4.233332 8.466666,-4.233332 z"
       id="path543"
       sodipodi:nodetypes="ccccc" />
    <path
       style="opacity:0.2;fill:#000000;stroke:none;stroke-width:0.264583px;stroke-linecap:butt;stroke-linejoin:miter;stroke-opacity:1"
       d="m 25.399999,47.624996 -8.466665,4.233333 8.466665,4.233332 8.466664,-4.233332 z"
       id="path545"
       sodipodi:nodetypes="ccccc" />
    <path
       style="opacity:0.2;fill:#000000;stroke:none;stroke-width:0.264583px;stroke-linecap:butt;stroke-linejoin:miter;stroke-opacity:1"
       d="m 42.33333,47.624996 -8.466665,4.233333 8.466665,4.233332 8.466666,-4.233332 z"
       id="path547"
       sodipodi:nodetypes="ccccc" />
    <path
       style="opacity:0.1;fill:#000000;stroke:none;stroke-width:0.264583px;stroke-linecap:butt;stroke-linejoin:miter;stroke-opacity:1"
       d="m 50.799995,51.858327 -8.466665,4.233333 8.466665,4.233332 8.466666,-4.233332 z"
       id="path549"
       sodipodi:nodetypes="ccccc" />
    <path
       style="opacity:0.2;fill:#000000;stroke:none;stroke-width:0.264583px;stroke-linecap:butt;stroke-linejoin:miter;stroke-opacity:1"
       d="m 59.26666,56.091661 -8.466665,4.233333 8.466665,4.233332 8.466666,-4.233332 z"
       id="path551"
       sodipodi:nodetypes="ccccc" />
    <path
       style="opacity:0.1;fill:#000000;stroke:none;stroke-width:0.264583px;stroke-linecap:butt;stroke-linejoin:miter;stroke-opacity:1"
       d="M 33.866664,43.391662 25.4,47.624995 l 8.466664,4.233332 8.466664,-4.233332 z"
       id="path553"
       sodipodi:nodetypes="ccccc" />
    <path
       style="opacity:0.1;fill:#000000;stroke:none;stroke-width:0.264583px;stroke-linecap:butt;stroke-linejoin:miter;stroke-opacity:1"
       d="m 50.799998,43.391665 -8.466665,4.233333 8.466665,4.233332 8.466666,-4.233332 z"
       id="path555"
       sodipodi:nodetypes="ccccc" />
    <path
       style="opacity:0.2;fill:#000000;stroke:none;stroke-width:0.264583px;stroke-linecap:butt;stroke-linejoin:miter;stroke-opacity:1"
       d="m 59.266663,47.624996 -8.466665,4.233333 8.466665,4.233332 8.466666,-4.233332 z"
       id="path557"
       sodipodi:nodetypes="ccccc" />
    <path
       style="opacity:0.1;fill:#000000;stroke:none;stroke-width:0.264583px;stroke-linecap:butt;stroke-linejoin:miter;stroke-opacity:1"
       d="m 67.733328,51.85833 -8.466665,4.233333 8.466665,4.233332 8.466666,-4.233332 z"
       id="path559"
       sodipodi:nodetypes="ccccc" />
    <path
       style="opacity:0.2;fill:#000000;stroke:none;stroke-width:0.264583px;stroke-linecap:butt;stroke-linejoin:miter;stroke-opacity:1"
       d="m 42.333332,39.158331 -8.466665,4.233333 8.466665,4.233332 8.466664,-4.233332 z"
       id="path561"
       sodipodi:nodetypes="ccccc" />
    <path
       style="opacity:0.2;fill:#000000;stroke:none;stroke-width:0.264583px;stroke-linecap:butt;stroke-linejoin:miter;stroke-opacity:1"
       d="m 59.266663,39.158331 -8.466665,4.233333 8.466665,4.233332 8.466666,-4.233332 z"
       id="path563"
       sodipodi:nodetypes="ccccc" />
    <path
       style="opacity:0.1;fill:#000000;stroke:none;stroke-width:0.264583px;stroke-linecap:butt;stroke-linejoin:miter;stroke-opacity:1"
       d="m 67.733328,43.391662 -8.466665,4.233333 8.466665,4.233332 8.466666,-4.233332 z"
       id="path565"
       sodipodi:nodetypes="ccccc" />
    <path
       style="opacity:0.2;fill:#000000;stroke:none;stroke-width:0.264583px;stroke-linecap:butt;stroke-linejoin:miter;stroke-opacity:1"
       d="m 76.199993,47.624996 -8.466665,4.233333 8.466665,4.233332 8.466666,-4.233332 z"
       id="path567"
       sodipodi:nodetypes="ccccc" />
    <path
       style="opacity:0.1;fill:#000000;stroke:none;stroke-width:0.264583px;stroke-linecap:butt;stroke-linejoin:miter;stroke-opacity:1"
       d="m 50.799997,34.924997 -8.466664,4.233333 8.466664,4.233332 8.466664,-4.233332 z"
       id="path569"
       sodipodi:nodetypes="ccccc" />
  </g>
  <g
     inkscape:groupmode="layer"
     id="layer2"
     inkscape:label="Layer 2">
    <path
       style="fill:#ffccaa;stroke:#ff9955;stroke-width:0.529167;stroke-linecap:butt;stroke-linejoin:round;stroke-miterlimit:4;stroke-dasharray:none;stroke-opacity:1"
       d="M 0.26458334,33.866667 V 60.325 L 33.866667,76.993751 V 50.535417 Z"
       id="path641"
       sodipodi:nodetypes="ccccc" />
    <path
       style="fill:#ffccaa;stroke:#ff9955;stroke-width:0.529167;stroke-linecap:butt;stroke-linejoin:round;stroke-miterlimit:4;stroke-dasharray:none;stroke-opacity:1"
       d="M 84.402084,25.4 V 51.858334 L 33.866665,76.993751 V 50.535417 L 42.333334,35.983334 75.935417,19.05 Z"
       id="path1974"
       sodipodi:nodetypes="ccccccc" />
    <path
       style="fill:#c87137;stroke:#784421;stroke-width:0.529167;stroke-linecap:butt;stroke-linejoin:round;stroke-miterlimit:4;stroke-dasharray:none;stroke-opacity:1"
       d="M 0.19636237,33.620576 8.6788228,20.505036 42.095146,36.173649 33.942389,50.417927 Z"
       id="path5407"
       sodipodi:nodetypes="ccccc" />
    <path
       style="opacity:1;fill:#c87137;stroke-width:0.52916667;stroke-linejoin:round;stroke-miterlimit:4;stroke-dasharray:none;stroke:#784421;stroke-opacity:1"
       d="M 8.7352875,20.571775 42.415162,36.218866 76.158822,19.058172 42.259801,1.4902474 Z"
       id="path5887" />
    <path
       id="path6372"
       style="opacity:1;fill:#aaeeff;stroke:#55ddff;stroke-width:0.529167;stroke-linejoin:round"
       d="m 51.162361,45.989945 a 2.2902876,5.6524123 5.9033175 0 1 -2.351148,6.668073 2.2902876,5.6524123 5.9033175 0 1 -2.351149,-4.344119 2.2902876,5.6524123 5.9033175 0 1 2.351149,-6.668073 2.2902876,5.6524123 5.9033175 0 1 2.351148,4.344119 z" />
    <path
       style="opacity:1;fill:#000000;stroke:#000000;stroke-width:0.529167;stroke-linejoin:round;stroke-miterlimit:4;stroke-dasharray:none;stroke-opacity:1"
       d="M 54.226564,66.846973 54.207504,52.364746 62.6773,48.119721 62.636409,62.672227 Z"
       id="path6511"
       sodipodi:nodetypes="ccccc" />
    <path
       id="path7194"
       style="opacity:1;fill:#aaeeff;stroke:#55ddff;stroke-width:0.529167;stroke-linejoin:round"
       d="m 70.379953,36.333944 a 2.2902876,5.6524123 5.9033175 0 1 -2.351148,6.668073 2.2902876,5.6524123 5.9033175 0 1 -2.351149,-4.344119 2.2902876,5.6524123 5.9033175 0 1 2.351149,-6.668073 2.2902876,5.6524123 5.9033175 0 1 2.351148,4.344119 z" />
    <path
       style="opacity:1;fill:#aaeeff;stroke:#784421;stroke-width:0.529167;stroke-linecap:round;stroke-linejoin:round;stroke-miterlimit:4;stroke-dasharray:none;stroke-opacity:1"
       d="m 76.018318,19.051797 8.383766,6.361634"
       id="path7355"
       sodipodi:nodetypes="cc" />
  </g>
</svg>
