<?xml version="1.0" encoding="UTF-8" standalone="no"?>
<!-- Created with Inkscape (http://www.inkscape.org/) -->

<svg
   xmlns:dc="http://purl.org/dc/elements/1.1/"
   xmlns:cc="http://creativecommons.org/ns#"
   xmlns:rdf="http://www.w3.org/1999/02/22-rdf-syntax-ns#"
   xmlns:svg="http://www.w3.org/2000/svg"
   xmlns="http://www.w3.org/2000/svg"
   xmlns:sodipodi="http://sodipodi.sourceforge.net/DTD/sodipodi-0.dtd"
   xmlns:inkscape="http://www.inkscape.org/namespaces/inkscape"
   width="660"
   height="680"
   viewBox="0 0 174.625 179.91667"
   version="1.1"
   id="svg5"
   inkscape:version="0.92.5 (2060ec1f9f, 2020-04-08)"
   sodipodi:docname="house3.svg"
   inkscape:export-filename="/home/victor/Projects/cogmura/data/img/block/house3.png"
   inkscape:export-xdpi="96"
   inkscape:export-ydpi="96">
  <metadata
     id="metadata942">
    <rdf:RDF>
      <cc:Work
         rdf:about="">
        <dc:format>image/svg+xml</dc:format>
        <dc:type
           rdf:resource="http://purl.org/dc/dcmitype/StillImage" />
        <dc:title></dc:title>
      </cc:Work>
    </rdf:RDF>
  </metadata>
  <sodipodi:namedview
     id="namedview7"
     pagecolor="#ffffff"
     bordercolor="#666666"
     borderopacity="1.0"
     inkscape:pageshadow="2"
     inkscape:pageopacity="0.0"
     inkscape:pagecheckerboard="true"
     inkscape:document-units="px"
     showgrid="false"
     units="px"
     width="320px"
     inkscape:zoom="1"
     inkscape:cx="289.53967"
     inkscape:cy="340.30275"
     inkscape:window-width="1920"
     inkscape:window-height="1015"
     inkscape:window-x="0"
     inkscape:window-y="0"
     inkscape:window-maximized="1"
     inkscape:current-layer="layer2"
     inkscape:snap-global="false"
     showguides="true" />
  <defs
     id="defs2">
    <clipPath
       id="clipPath1629"
       clipPathUnits="userSpaceOnUse">
      <path
         sodipodi:nodetypes="ccccc"
         inkscape:connector-curvature="0"
         id="path1631"
         d="m 12.7,279.80208 v 17.19791 l 12.700001,-6.08541 v -17.19792 z"
         style="opacity:1;fill:#000000;fill-opacity:1;stroke:none;stroke-width:0.5291667;stroke-linecap:round;stroke-linejoin:round;stroke-miterlimit:4;stroke-dasharray:none;stroke-opacity:1;paint-order:normal" />
    </clipPath>
    <clipPath
       id="clipPath1633"
       clipPathUnits="userSpaceOnUse">
      <path
         style="opacity:1;fill:#000000;fill-opacity:1;stroke:none;stroke-width:0.5291667;stroke-linecap:round;stroke-linejoin:round;stroke-miterlimit:4;stroke-dasharray:none;stroke-opacity:1;paint-order:normal"
         d="m 25.399999,279.80208 v 17.19791 l 12.700002,-6.08541 v -17.19792 z"
         id="path1635"
         inkscape:connector-curvature="0"
         sodipodi:nodetypes="ccccc" />
    </clipPath>
    <clipPath
       id="clipPath1637"
       clipPathUnits="userSpaceOnUse">
      <path
         sodipodi:nodetypes="ccccc"
         inkscape:connector-curvature="0"
         id="path1639"
         d="m 38.099998,279.80208 v 17.19791 l 12.700001,-6.08541 v -17.19792 z"
         style="opacity:1;fill:#000000;fill-opacity:1;stroke:none;stroke-width:0.5291667;stroke-linecap:round;stroke-linejoin:round;stroke-miterlimit:4;stroke-dasharray:none;stroke-opacity:1;paint-order:normal" />
    </clipPath>
    <clipPath
       id="clipPath1641"
       clipPathUnits="userSpaceOnUse">
      <path
         style="opacity:1;fill:#000000;fill-opacity:1;stroke:none;stroke-width:0.5291667;stroke-linecap:round;stroke-linejoin:round;stroke-miterlimit:4;stroke-dasharray:none;stroke-opacity:1;paint-order:normal"
         d="m 50.799996,279.80208 v 17.19791 l 12.700003,-6.08541 v -17.19792 z"
         id="path1643"
         inkscape:connector-curvature="0"
         sodipodi:nodetypes="ccccc" />
    </clipPath>
  </defs>
  <g
     inkscape:label="Layer 1"
     inkscape:groupmode="layer"
     id="layer1"
     transform="translate(0,102.65834)" />
  <g
     inkscape:groupmode="layer"
     id="layer2"
     inkscape:label="Layer 2"
     transform="translate(0,102.65834)">
    <path
       style="fill:#ffccaa;stroke:#ff9955;stroke-width:1.05780423;stroke-linecap:butt;stroke-linejoin:round;stroke-miterlimit:4;stroke-dasharray:none;stroke-opacity:1"
       d="M 3.3110785,-25.399254 V 43.3921 L 70.45859,76.729404 V 7.9380478 Z"
       id="path641"
       sodipodi:nodetypes="ccccc"
       inkscape:connector-curvature="0" />
    <path
       style="fill:#ffccaa;stroke:#ff9955;stroke-width:1.05788374;stroke-linecap:butt;stroke-linejoin:round;stroke-miterlimit:4;stroke-dasharray:none;stroke-opacity:1"
       d="M 171.44421,-42.332487 V 26.458868 L 70.458586,76.729404 V 7.9380478 Z"
       id="path1974"
       sodipodi:nodetypes="ccccc"
       inkscape:connector-curvature="0" />
    <path
       style="opacity:1;fill:#000000;stroke:#000000;stroke-width:1.05788374;stroke-linejoin:round;stroke-miterlimit:4;stroke-dasharray:none;stroke-opacity:1"
       d="m 109.10992,57.494304 -0.0547,-33.294782 24.32114,-12.21346 -0.11742,33.496981 z"
       id="path6511"
       sodipodi:nodetypes="ccccc"
       inkscape:connector-curvature="0" />
    <path
       style="opacity:1;fill:#d35f5f;fill-opacity:1;stroke:#a02c2c;stroke-width:1.0583334;stroke-linecap:butt;stroke-linejoin:round;stroke-miterlimit:4;stroke-dasharray:none;stroke-opacity:1;paint-order:normal"
       d="M 0.52916667,-26.722915 69.320834,8.7312525 174.09584,-43.656249 116.68125,-93.662507 99.747919,-102.12917 65.881251,-85.19584 Z"
       id="path941"
       inkscape:connector-curvature="0"
       sodipodi:nodetypes="ccccccc" />
    <path
       style="opacity:1;fill:none;fill-opacity:1;stroke:#a02c2c;stroke-width:1.05833328;stroke-linecap:round;stroke-linejoin:round;stroke-miterlimit:4;stroke-dasharray:none;stroke-opacity:1;paint-order:normal"
       d="m 65.881251,-85.19584 16.933333,8.466667 33.866666,-16.933334"
       id="path943"
       inkscape:connector-curvature="0"
       sodipodi:nodetypes="ccc" />
    <path
       style="opacity:1;fill:none;fill-opacity:1;stroke:#a02c2c;stroke-width:1.05833328;stroke-linecap:round;stroke-linejoin:round;stroke-miterlimit:4;stroke-dasharray:none;stroke-opacity:1;paint-order:normal"
       d="M 82.814584,-76.729173 69.452332,8.2020786"
       id="path945"
       inkscape:connector-curvature="0"
       sodipodi:nodetypes="cc" />
    <path
       style="opacity:1;fill:#aaeeff;fill-opacity:1;stroke:#55ddff;stroke-width:1.0583334;stroke-linecap:round;stroke-linejoin:round;stroke-miterlimit:4;stroke-dasharray:none;stroke-opacity:1;paint-order:normal"
       d="M 75.935419,11.906246 V 24.606247 L 105.56875,10.054163 V -3.1750042 Z"
       id="path947"
       inkscape:connector-curvature="0" />
    <path
       inkscape:connector-curvature="0"
       id="path949"
       d="M 136.52501,-18.785421 V -6.0854199 L 166.15834,-20.637504 V -33.866671 Z"
       style="opacity:1;fill:#aaeeff;fill-opacity:1;stroke:#55ddff;stroke-width:1.0583334;stroke-linecap:round;stroke-linejoin:round;stroke-miterlimit:4;stroke-dasharray:none;stroke-opacity:1;paint-order:normal" />
    <path
       style="opacity:1;fill:#aaeeff;fill-opacity:1;stroke:#55ddff;stroke-width:1.0583334;stroke-linecap:round;stroke-linejoin:round;stroke-miterlimit:4;stroke-dasharray:none;stroke-opacity:1;paint-order:normal"
       d="M 76.068503,18.126331 105.30417,3.5710792"
       id="path951"
       inkscape:connector-curvature="0"
       sodipodi:nodetypes="cc" />
    <path
       sodipodi:nodetypes="cc"
       inkscape:connector-curvature="0"
       id="path953"
       d="m 136.6215,-12.482877 29.23567,-14.555252"
       style="opacity:1;fill:#aaeeff;fill-opacity:1;stroke:#55ddff;stroke-width:1.0583334;stroke-linecap:round;stroke-linejoin:round;stroke-miterlimit:4;stroke-dasharray:none;stroke-opacity:1;paint-order:normal" />
    <path
       style="opacity:1;fill:none;fill-opacity:1;stroke:#a02c2c;stroke-width:1.0583334;stroke-linecap:round;stroke-linejoin:round;stroke-miterlimit:4;stroke-dasharray:none;stroke-opacity:1;paint-order:normal"
       d="m 70.913544,-0.80270679 c 0,0 2.213764,2.32771879 5.4693,0.85758008 3.255535,-1.47013629 3.35941,-5.13235829 3.35941,-5.13235829 0,0 2.187422,2.2183276 5.442956,0.7481889 3.255534,-1.4701361 3.359413,-5.1323581 3.359413,-5.1323581 0,0 2.187421,2.2183274 5.442956,0.7481886 3.255534,-1.4701364 3.359409,-5.1323594 3.359409,-5.1323594 0,0 2.187424,2.218328 5.442962,0.748189 3.25551,-1.470137 3.35939,-5.132357 3.35939,-5.132357 0,0 2.18744,2.218326 5.44298,0.748188 3.25551,-1.470136 3.3594,-5.132358 3.3594,-5.132358 0,0 2.18743,2.218327 5.44295,0.748189 3.25552,-1.470136 3.35942,-5.132358 3.35942,-5.132358 0,0 2.18742,2.218327 5.44295,0.748188 3.25552,-1.470136 3.35943,-5.132359 3.35943,-5.132359 0,0 2.1874,2.218329 5.44293,0.74819 3.25554,-1.470137 3.35943,-5.132358 3.35943,-5.132358 0,0 2.18739,2.218327 5.44294,0.748188 3.25555,-1.470136 3.35943,-5.132357 3.35943,-5.132357 0,0 2.1874,2.218327 5.44296,0.748188 3.25552,-1.470136 3.35938,-5.132358 3.35938,-5.132358 0,0 2.18743,2.218328 5.44298,0.748189 3.25553,-1.470137 3.38575,-5.022966 3.38575,-5.022966"
       id="path955"
       inkscape:connector-curvature="0"
       sodipodi:nodetypes="cscscscscscscscscscscsc" />
    <path
       sodipodi:nodetypes="cscscscscscscscscscsc"
       inkscape:connector-curvature="0"
       id="path982"
       d="m 72.633336,-11.38604 c 0,0 2.213764,2.3277186 5.4693,0.85758 3.255535,-1.470137 3.35941,-5.132359 3.35941,-5.132359 0,0 2.187422,2.218328 5.442956,0.748189 3.255534,-1.470136 3.359413,-5.132358 3.359413,-5.132358 0,0 2.187421,2.218328 5.442956,0.748189 3.255534,-1.470136 3.359409,-5.132359 3.359409,-5.132359 0,0 2.18743,2.218328 5.44297,0.748189 3.25551,-1.470137 3.35939,-5.132357 3.35939,-5.132357 0,0 2.18744,2.218326 5.44298,0.748188 3.25551,-1.470136 3.3594,-5.132358 3.3594,-5.132358 0,0 2.18743,2.218327 5.44295,0.748189 3.25552,-1.470136 3.35942,-5.132358 3.35942,-5.132358 0,0 2.18742,2.218327 5.44295,0.748188 3.25552,-1.470136 3.35943,-5.132359 3.35943,-5.132359 0,0 2.1874,2.218329 5.44293,0.74819 3.25554,-1.470137 3.35943,-5.132358 3.35943,-5.132358 0,0 2.18739,2.218327 5.44294,0.748188 3.25555,-1.470136 3.35943,-5.132357 3.35943,-5.132357 0,0 2.1874,2.218327 5.44296,0.748188 3.25552,-1.470136 3.35938,-5.132358 3.35938,-5.132358"
       style="opacity:1;fill:none;fill-opacity:1;stroke:#a02c2c;stroke-width:1.0583334;stroke-linecap:round;stroke-linejoin:round;stroke-miterlimit:4;stroke-dasharray:none;stroke-opacity:1;paint-order:normal" />
    <path
       style="opacity:1;fill:none;fill-opacity:1;stroke:#a02c2c;stroke-width:1.0583334;stroke-linecap:round;stroke-linejoin:round;stroke-miterlimit:4;stroke-dasharray:none;stroke-opacity:1;paint-order:normal"
       d="m 74.353128,-21.969374 c 0,0 2.213764,2.327719 5.4693,0.85758 3.255535,-1.470137 3.35941,-5.132359 3.35941,-5.132359 0,0 2.187422,2.218328 5.442956,0.748189 3.255534,-1.470136 3.359413,-5.132358 3.359413,-5.132358 0,0 2.187421,2.218328 5.442956,0.748189 3.255537,-1.470136 3.359417,-5.132359 3.359417,-5.132359 0,0 2.18742,2.218328 5.44296,0.748189 3.25551,-1.470137 3.35939,-5.132357 3.35939,-5.132357 0,0 2.18744,2.218326 5.44298,0.748188 3.25551,-1.470136 3.3594,-5.132358 3.3594,-5.132358 0,0 2.18743,2.218327 5.44295,0.748189 3.25552,-1.470136 3.35942,-5.132358 3.35942,-5.132358 0,0 2.18742,2.218327 5.44295,0.748188 3.25552,-1.470136 3.35943,-5.132359 3.35943,-5.132359 0,0 2.1874,2.218329 5.44293,0.74819 3.25554,-1.470137 3.35943,-5.132358 3.35943,-5.132358 0,0 2.18739,2.218327 5.44294,0.748188 3.25555,-1.470136 3.35943,-5.132357 3.35943,-5.132357"
       id="path984"
       inkscape:connector-curvature="0"
       sodipodi:nodetypes="cscscscscscscscscsc" />
    <path
       sodipodi:nodetypes="cscscscscscscscsc"
       inkscape:connector-curvature="0"
       id="path986"
       d="m 76.072919,-32.552707 c 0,0 2.213764,2.327719 5.4693,0.85758 3.255535,-1.470137 3.35941,-5.132359 3.35941,-5.132359 0,0 2.187422,2.218328 5.442956,0.748189 3.255534,-1.470136 3.359413,-5.132358 3.359413,-5.132358 0,0 2.187421,2.218328 5.442956,0.748189 3.255536,-1.470136 3.359416,-5.132359 3.359416,-5.132359 0,0 2.18742,2.218328 5.44296,0.748189 3.25551,-1.470137 3.35939,-5.132357 3.35939,-5.132357 0,0 2.18744,2.218326 5.44298,0.748188 3.25551,-1.470136 3.3594,-5.132358 3.3594,-5.132358 0,0 2.18743,2.218327 5.44295,0.748189 3.25552,-1.470136 3.35942,-5.132358 3.35942,-5.132358 0,0 2.18742,2.218327 5.44295,0.748188 3.25552,-1.470136 3.35943,-5.132359 3.35943,-5.132359 0,0 2.1874,2.218329 5.44293,0.74819 3.25554,-1.470137 3.35943,-5.132358 3.35943,-5.132358"
       style="opacity:1;fill:none;fill-opacity:1;stroke:#a02c2c;stroke-width:1.0583334;stroke-linecap:round;stroke-linejoin:round;stroke-miterlimit:4;stroke-dasharray:none;stroke-opacity:1;paint-order:normal" />
    <path
       style="opacity:1;fill:none;fill-opacity:1;stroke:#a02c2c;stroke-width:1.0583334;stroke-linecap:round;stroke-linejoin:round;stroke-miterlimit:4;stroke-dasharray:none;stroke-opacity:1;paint-order:normal"
       d="m 77.792711,-43.136041 c 0,0 2.213764,2.327719 5.4693,0.85758 3.255535,-1.470137 3.35941,-5.132359 3.35941,-5.132359 0,0 2.187422,2.218328 5.442956,0.748189 3.255534,-1.470136 3.359413,-5.132358 3.359413,-5.132358 0,0 2.187421,2.218328 5.44295,0.748189 3.25553,-1.470136 3.35941,-5.132359 3.35941,-5.132359 0,0 2.18742,2.218328 5.44296,0.748189 3.25551,-1.470137 3.35939,-5.132357 3.35939,-5.132357 0,0 2.18744,2.218326 5.44298,0.748188 3.25551,-1.470136 3.3594,-5.132358 3.3594,-5.132358 0,0 2.18743,2.218327 5.44295,0.748189 3.25552,-1.470136 3.35942,-5.132358 3.35942,-5.132358 0,0 2.18742,2.218327 5.44295,0.748188 3.25552,-1.470136 3.35943,-5.132359 3.35943,-5.132359"
       id="path988"
       inkscape:connector-curvature="0"
       sodipodi:nodetypes="cscscscscscscsc" />
    <path
       sodipodi:nodetypes="cscscscscscsc"
       inkscape:connector-curvature="0"
       id="path990"
       d="m 79.512503,-53.719374 c 0,0 2.213764,2.327719 5.4693,0.85758 3.255535,-1.470137 3.35941,-5.132359 3.35941,-5.132359 0,0 2.187422,2.218328 5.442956,0.748189 3.255534,-1.470136 3.359413,-5.132358 3.359413,-5.132358 0,0 2.187421,2.218328 5.442948,0.748189 3.25553,-1.470136 3.35941,-5.132359 3.35941,-5.132359 0,0 2.18742,2.218328 5.44296,0.748189 3.25551,-1.470137 3.35939,-5.132357 3.35939,-5.132357 0,0 2.18744,2.218326 5.44298,0.748188 3.25551,-1.470136 3.3594,-5.132358 3.3594,-5.132358 0,0 2.18743,2.218327 5.44295,0.748189 3.25552,-1.470136 3.35942,-5.132358 3.35942,-5.132358"
       style="opacity:1;fill:none;fill-opacity:1;stroke:#a02c2c;stroke-width:1.0583334;stroke-linecap:round;stroke-linejoin:round;stroke-miterlimit:4;stroke-dasharray:none;stroke-opacity:1;paint-order:normal" />
    <path
       style="opacity:1;fill:none;fill-opacity:1;stroke:#a02c2c;stroke-width:1.0583334;stroke-linecap:round;stroke-linejoin:round;stroke-miterlimit:4;stroke-dasharray:none;stroke-opacity:1;paint-order:normal"
       d="m 81.232294,-64.302707 c 0,0 2.213764,2.327719 5.4693,0.85758 3.255535,-1.470137 3.35941,-5.132359 3.35941,-5.132359 0,0 2.187422,2.218328 5.442956,0.748189 3.255534,-1.470136 3.359413,-5.132358 3.359413,-5.132358 0,0 2.187417,2.218328 5.442947,0.748189 3.25553,-1.470136 3.35941,-5.132359 3.35941,-5.132359 0,0 2.18742,2.218328 5.44296,0.748189 3.25551,-1.470137 3.35939,-5.132357 3.35939,-5.132357 0,0 2.18744,2.218326 5.44298,0.748188 3.25551,-1.470136 3.3594,-5.132358 3.3594,-5.132358"
       id="path992"
       inkscape:connector-curvature="0"
       sodipodi:nodetypes="cscscscscsc" />
    <path
       sodipodi:nodetypes="cscscscsc"
       inkscape:connector-curvature="0"
       id="path994"
       d="m 82.952086,-74.886041 c 0,0 2.213764,2.327719 5.4693,0.85758 3.255535,-1.470137 3.35941,-5.132359 3.35941,-5.132359 0,0 2.187422,2.218328 5.442956,0.748189 3.255538,-1.470136 3.359418,-5.132358 3.359418,-5.132358 0,0 2.18741,2.218328 5.44294,0.748189 3.25553,-1.470136 3.35941,-5.132359 3.35941,-5.132359 0,0 2.18742,2.218328 5.44296,0.748189 3.25551,-1.470137 3.35939,-5.132357 3.35939,-5.132357"
       style="opacity:1;fill:none;fill-opacity:1;stroke:#a02c2c;stroke-width:1.0583334;stroke-linecap:round;stroke-linejoin:round;stroke-miterlimit:4;stroke-dasharray:none;stroke-opacity:1;paint-order:normal" />
    <path
       sodipodi:nodetypes="cscscscscscscsc"
       inkscape:connector-curvature="0"
       id="path996"
       d="m 70.649796,-0.86135415 c 0,0 -2.280671,2.41560665 -5.634583,0.88995978 -3.353923,-1.52564423 -3.460932,-5.32614103 -3.460932,-5.32614103 0,0 -2.253535,2.3020851 -5.607446,0.7764384 -3.353912,-1.5256442 -3.460931,-5.3261408 -3.460931,-5.3261408 0,0 -2.253524,2.3020848 -5.607448,0.7764379 -3.353912,-1.5256441 -3.460931,-5.3261411 -3.460931,-5.3261411 0,0 -2.253523,2.302085 -5.607446,0.776437 -3.353892,-1.525645 -3.460911,-5.326139 -3.460911,-5.326139 0,0 -2.253545,2.302084 -5.607467,0.776438 -3.353891,-1.525644 -3.460921,-5.326141 -3.460921,-5.326141 0,0 -2.253535,2.302084 -5.607436,0.776438 -3.353902,-1.525644 -3.460942,-5.32614 -3.460942,-5.32614 0,0 -2.253523,2.302084 -5.607436,0.776436 -3.3539022,-1.525644 -3.4609523,-5.326141 -3.4609523,-5.326141"
       style="opacity:1;fill:none;fill-opacity:1;stroke:#a02c2c;stroke-width:1.0583334;stroke-linecap:round;stroke-linejoin:round;stroke-miterlimit:4;stroke-dasharray:none;stroke-opacity:1;paint-order:normal" />
    <path
       style="opacity:1;fill:none;fill-opacity:1;stroke:#a02c2c;stroke-width:1.0583334;stroke-linecap:round;stroke-linejoin:round;stroke-miterlimit:4;stroke-dasharray:none;stroke-opacity:1;paint-order:normal"
       d="m 72.369439,-11.500464 c 0,0 -2.390595,2.5126463 -5.906159,0.925711 -3.515576,-1.586933 -3.627743,-5.540104 -3.627743,-5.540104 0,0 -2.362151,2.394565 -5.877714,0.807631 -3.515564,-1.586933 -3.627741,-5.540104 -3.627741,-5.540104 0,0 -2.36214,2.394565 -5.877717,0.807629 -3.515564,-1.586933 -3.627741,-5.540104 -3.627741,-5.540104 0,0 -2.362139,2.394565 -5.877714,0.807628 -3.515543,-1.586933 -3.627721,-5.540101 -3.627721,-5.540101 0,0 -2.362161,2.394564 -5.877736,0.807629 -3.515542,-1.586932 -3.627731,-5.540103 -3.627731,-5.540103 0,0 -2.362151,2.394564 -5.877703,0.807629 -3.515554,-1.586932 -3.627753,-5.540102 -3.627753,-5.540102"
       id="path998"
       inkscape:connector-curvature="0"
       sodipodi:nodetypes="cscscscscscsc" />
    <path
       style="opacity:1;fill:none;fill-opacity:1;stroke:#a02c2c;stroke-width:1.0583334;stroke-linecap:round;stroke-linejoin:round;stroke-miterlimit:4;stroke-dasharray:none;stroke-opacity:1;paint-order:normal"
       d="m 73.977061,-21.887768 c 0,0 -2.15163,2.182711 -5.315776,0.804156 -3.164157,-1.378552 -3.265111,-4.812631 -3.265111,-4.812631 0,0 -2.126029,2.080134 -5.290175,0.701579 -3.164146,-1.378552 -3.26511,-4.812631 -3.26511,-4.812631 0,0 -2.126019,2.080134 -5.290177,0.701579 -3.164146,-1.378552 -3.26511,-4.812631 -3.26511,-4.812631 0,0 -2.126018,2.080134 -5.290175,0.701578 -3.164128,-1.378552 -3.265091,-4.812629 -3.265091,-4.812629 0,0 -2.126039,2.080133 -5.290195,0.701579 -3.164127,-1.378552 -3.265101,-4.812631 -3.265101,-4.812631 0,0 -2.126029,2.080133 -5.290165,0.701579 -3.164137,-1.378552 -3.265121,-4.81263 -3.265121,-4.81263"
       id="path1054"
       inkscape:connector-curvature="0"
       sodipodi:nodetypes="cscscscscscsc" />
    <path
       sodipodi:nodetypes="cscscscscsc"
       inkscape:connector-curvature="0"
       id="path1056"
       d="m 75.70689,-32.567757 c 0,0 -2.261547,2.240943 -5.587335,0.82561 -3.3258,-1.41533 -3.431911,-4.941024 -3.431911,-4.941024 0,0 -2.234638,2.135628 -5.560426,0.720296 -3.325788,-1.41533 -3.43191,-4.941025 -3.43191,-4.941025 0,0 -2.234628,2.135629 -5.560429,0.720296 -3.325788,-1.415329 -3.431909,-4.941024 -3.431909,-4.941024 0,0 -2.234627,2.135629 -5.560427,0.720295 -3.325769,-1.41533 -3.431889,-4.941022 -3.431889,-4.941022 0,0 -2.234649,2.135627 -5.560448,0.720296 -3.325768,-1.41533 -3.4319,-4.941024 -3.4319,-4.941024"
       style="opacity:1;fill:none;fill-opacity:1;stroke:#a02c2c;stroke-width:1.0583334;stroke-linecap:round;stroke-linejoin:round;stroke-miterlimit:4;stroke-dasharray:none;stroke-opacity:1;paint-order:normal" />
    <path
       style="opacity:1;fill:none;fill-opacity:1;stroke:#a02c2c;stroke-width:1.05833328;stroke-linecap:round;stroke-linejoin:round;stroke-miterlimit:4;stroke-dasharray:none;stroke-opacity:1;paint-order:normal"
       d="m 77.17146,-42.615225 c 0,0 -1.960468,1.891559 -4.843493,0.69689 -2.883037,-1.194667 -2.975021,-4.170671 -2.975021,-4.170671 0,0 -1.937141,1.802663 -4.820167,0.607994 -2.883025,-1.194666 -2.975019,-4.170672 -2.975019,-4.170672 0,0 -1.937132,1.802664 -4.82017,0.607996 -2.883026,-1.194666 -2.975019,-4.170671 -2.975019,-4.170671 0,0 -1.937131,1.802664 -4.820168,0.607993 -2.883009,-1.194667 -2.975001,-4.170669 -2.975001,-4.170669 0,0 -1.93715,1.802662 -4.820186,0.607995 -2.883008,-1.194667 -2.975011,-4.170671 -2.975011,-4.170671"
       id="path1058"
       inkscape:connector-curvature="0"
       sodipodi:nodetypes="cscscscscsc" />
    <path
       sodipodi:nodetypes="cscscscsc"
       inkscape:connector-curvature="0"
       id="path1060"
       d="m 78.768264,-53.272998 c 0,0 -2.041711,1.910969 -5.04421,0.704041 -3.002513,-1.206926 -3.098308,-4.213469 -3.098308,-4.213469 0,0 -2.017418,1.821161 -5.019918,0.614233 -3.0025,-1.206925 -3.098306,-4.21347 -3.098306,-4.21347 0,0 -2.017408,1.821162 -5.019922,0.614235 -3.0025,-1.206925 -3.098305,-4.213469 -3.098305,-4.213469 0,0 -2.017408,1.821162 -5.01992,0.614232 -3.002482,-1.206927 -3.098287,-4.213467 -3.098287,-4.213467"
       style="opacity:1;fill:none;fill-opacity:1;stroke:#a02c2c;stroke-width:1.0583334;stroke-linecap:round;stroke-linejoin:round;stroke-miterlimit:4;stroke-dasharray:none;stroke-opacity:1;paint-order:normal" />
    <path
       style="opacity:1;fill:none;fill-opacity:1;stroke:#a02c2c;stroke-width:1.0583334;stroke-linecap:round;stroke-linejoin:round;stroke-miterlimit:4;stroke-dasharray:none;stroke-opacity:1;paint-order:normal"
       d="m 80.631285,-64.507502 c 0,0 -2.103839,2.008021 -5.197701,0.739797 -3.093877,-1.268222 -3.192587,-4.427458 -3.192587,-4.427458 0,0 -2.078806,1.913652 -5.172669,0.645428 -3.093864,-1.268221 -3.192585,-4.427459 -3.192585,-4.427459 0,0 -2.078796,1.913653 -5.172674,0.64543 -3.093863,-1.268221 -3.192583,-4.427458 -3.192583,-4.427458"
       id="path1062"
       inkscape:connector-curvature="0"
       sodipodi:nodetypes="cscscsc" />
    <path
       sodipodi:nodetypes="cscsc"
       inkscape:connector-curvature="0"
       id="path1064"
       d="m 82.094764,-74.749512 c 0,0 -2.295,2.231241 -5.66998,0.822036 -3.374997,-1.409203 -3.482676,-4.919632 -3.482676,-4.919632 0,0 -2.267693,2.126381 -5.642674,0.717177 -3.374983,-1.409202 -3.482674,-4.919633 -3.482674,-4.919633"
       style="opacity:1;fill:none;fill-opacity:1;stroke:#a02c2c;stroke-width:1.0583334;stroke-linecap:round;stroke-linejoin:round;stroke-miterlimit:4;stroke-dasharray:none;stroke-opacity:1;paint-order:normal" />
  </g>
</svg>
