<?xml version="1.0" encoding="UTF-8" standalone="no"?>
<!-- Created with Inkscape (http://www.inkscape.org/) -->

<svg
   width="256"
   height="192"
   viewBox="0 0 67.733332 50.800001"
   version="1.1"
   id="svg5"
   inkscape:version="1.1.2 (0a00cf5339, 2022-02-04)"
   sodipodi:docname="table1.svg"
   inkscape:export-filename="/home/victor/Projects/cogmura/data/img/block/table1.png"
   inkscape:export-xdpi="96"
   inkscape:export-ydpi="96"
   xmlns:inkscape="http://www.inkscape.org/namespaces/inkscape"
   xmlns:sodipodi="http://sodipodi.sourceforge.net/DTD/sodipodi-0.dtd"
   xmlns="http://www.w3.org/2000/svg"
   xmlns:svg="http://www.w3.org/2000/svg">
  <sodipodi:namedview
     id="namedview7"
     pagecolor="#ffffff"
     bordercolor="#666666"
     borderopacity="1.0"
     inkscape:pageshadow="2"
     inkscape:pageopacity="0.0"
     inkscape:pagecheckerboard="true"
     inkscape:document-units="px"
     showgrid="false"
     units="px"
     width="100px"
     inkscape:zoom="1"
     inkscape:cx="94"
     inkscape:cy="106"
     inkscape:window-width="1920"
     inkscape:window-height="1012"
     inkscape:window-x="0"
     inkscape:window-y="0"
     inkscape:window-maximized="1"
     inkscape:current-layer="layer1"
     inkscape:snap-global="false" />
  <defs
     id="defs2" />
  <g
     inkscape:label="Layer 1"
     inkscape:groupmode="layer"
     id="layer1">
    <path
       style="fill:#a05a2c;stroke:#502d16;stroke-width:1.05833;stroke-linecap:round;stroke-linejoin:round"
       d="m 30.725525,32.697158 c 0,0 -1.482754,2.000363 -1.482754,4.918794 0,2.918428 1.488918,5.020644 1.488918,5.020644 0,0 1.47413,1.975561 0.106426,3.702347 l 0.118135,2.476682 2.910417,1.455208 V 33.866667 Z"
       id="path7501"
       sodipodi:nodetypes="cscccccc" />
    <path
       style="fill:#a05a2c;stroke:#502d16;stroke-width:1.05833;stroke-linecap:round;stroke-linejoin:round"
       d="m 37.007807,32.697158 c 0,0 1.482754,2.000363 1.482754,4.918794 0,2.918428 -1.488918,5.020644 -1.488918,5.020644 0,0 -1.47413,1.975561 -0.106426,3.702347 l -0.118135,2.476682 -2.910417,1.455208 V 33.866667 Z"
       id="path8704"
       sodipodi:nodetypes="cscccccc" />
    <path
       style="fill:#a05a2c;stroke:#502d16;stroke-width:1.05833;stroke-linecap:round;stroke-linejoin:round"
       d="m 0.52916667,16.933333 1.32291663,2.645834 32.0145837,15.875 32.014583,-15.875 1.322917,-2.645834 z"
       id="path6945"
       sodipodi:nodetypes="cccccc" />
    <path
       style="fill:#a05a2c;stroke:#502d16;stroke-width:1.05833;stroke-linecap:round;stroke-linejoin:round"
       d="M 33.866667,0.52916667 0.52916667,16.933333 33.866667,33.3375 67.204167,16.933333 Z"
       id="path6199"
       sodipodi:nodetypes="ccccc" />
    <path
       style="fill:none;stroke:#502d16;stroke-width:0.52916667;stroke-linecap:round;stroke-linejoin:round;stroke-miterlimit:4;stroke-dasharray:none"
       d="m 30.900071,46.403453 3.062972,1.576347 3.009398,-1.460113"
       id="path2562" />
    <path
       style="fill:#a05a2c;stroke:#502d16;stroke-width:1.05833;stroke-linecap:round;stroke-linejoin:round;stroke-miterlimit:4;stroke-dasharray:none"
       d="m 2.510432,20.069869 c 0,0 -1.66389716,0.546828 -1.74940943,3.379501 -0.0855123,2.832673 0.92147733,4.441823 0.92147733,4.441823 0,0 0.5414372,1.077954 0.3233488,2.36988 C 1.824697,31.334191 0.52916667,31.8657 0.52916667,31.8657 l 0.52916663,2.351376 2.2969903,1.172354 2.2190595,-1.203643 0.562792,-2.062835 c 0,0 -1.1837943,-2.293424 -0.5963823,-5.114496 0.5204589,-2.499526 2.725169,-4.139406 2.725169,-4.139406 z"
       id="path3125"
       sodipodi:nodetypes="cscscccccscc" />
    <path
       style="fill:#a05a2c;stroke:#502d16;stroke-width:1.05833;stroke-linecap:round;stroke-linejoin:round"
       d="m 5.4423143,21.767129 c 0,0 -1.5738538,2.55868 -1.3761133,6.136326 0.1762672,3.189137 -0.7712789,4.985658 -0.7712789,4.985658 l 0.00513,2.312897"
       id="path2454"
       sodipodi:nodetypes="cscc" />
    <path
       style="fill:none;stroke:#502d16;stroke-width:0.52916667;stroke-linecap:round;stroke-linejoin:round;stroke-miterlimit:4;stroke-dasharray:none"
       d="m 0.68372034,32.001417 2.66140536,1.140069 2.6794251,-1.0502"
       id="path2876" />
    <path
       style="fill:#a05a2c;stroke:#502d16;stroke-width:1.05833;stroke-linecap:round;stroke-linejoin:round;stroke-miterlimit:4;stroke-dasharray:none"
       d="m 65.222965,20.069869 c 0,0 1.663897,0.546828 1.749409,3.379501 0.08551,2.832673 -0.921477,4.441823 -0.921477,4.441823 0,0 -0.541437,1.077954 -0.323349,2.36988 0.181152,1.073118 1.476682,1.604627 1.476682,1.604627 l -0.529166,2.351376 -2.296991,1.172354 -2.219059,-1.203643 -0.562792,-2.062835 c 0,0 1.183794,-2.293424 0.596382,-5.114496 C 61.672145,24.50893 59.467435,22.86905 59.467435,22.86905 Z"
       id="path3201"
       sodipodi:nodetypes="cscscccccscc" />
    <path
       style="fill:#a05a2c;stroke:#502d16;stroke-width:1.05833;stroke-linecap:round;stroke-linejoin:round"
       d="m 62.291083,21.767129 c 0,0 1.573854,2.55868 1.376113,6.136326 -0.176267,3.189137 0.771279,4.985658 0.771279,4.985658 l -0.0051,2.312897"
       id="path3203"
       sodipodi:nodetypes="cscc" />
    <path
       style="fill:none;stroke:#502d16;stroke-width:0.529167;stroke-linecap:round;stroke-linejoin:round;stroke-miterlimit:4;stroke-dasharray:none"
       d="m 67.049677,32.001417 -2.661406,1.140069 -2.679425,-1.0502"
       id="path3205" />
  </g>
</svg>
