<?xml version="1.0" encoding="UTF-8" standalone="no"?>
<!-- Created with Inkscape (http://www.inkscape.org/) -->

<svg
   xmlns:dc="http://purl.org/dc/elements/1.1/"
   xmlns:cc="http://creativecommons.org/ns#"
   xmlns:rdf="http://www.w3.org/1999/02/22-rdf-syntax-ns#"
   xmlns:svg="http://www.w3.org/2000/svg"
   xmlns="http://www.w3.org/2000/svg"
   xmlns:sodipodi="http://sodipodi.sourceforge.net/DTD/sodipodi-0.dtd"
   xmlns:inkscape="http://www.inkscape.org/namespaces/inkscape"
   width="384"
   height="544"
   viewBox="0 0 101.6 143.93334"
   version="1.1"
   id="svg5"
   inkscape:version="0.92.5 (2060ec1f9f, 2020-04-08)"
   sodipodi:docname="tree1.svg"
   inkscape:export-filename="/home/victor/Projects/cogmura/data/img/block/tree1.png"
   inkscape:export-xdpi="96"
   inkscape:export-ydpi="96">
  <metadata
     id="metadata3749">
    <rdf:RDF>
      <cc:Work
         rdf:about="">
        <dc:format>image/svg+xml</dc:format>
        <dc:type
           rdf:resource="http://purl.org/dc/dcmitype/StillImage" />
        <dc:title></dc:title>
      </cc:Work>
    </rdf:RDF>
  </metadata>
  <sodipodi:namedview
     id="namedview7"
     pagecolor="#ffffff"
     bordercolor="#666666"
     borderopacity="1.0"
     inkscape:pageshadow="2"
     inkscape:pageopacity="0.0"
     inkscape:pagecheckerboard="true"
     inkscape:document-units="px"
     showgrid="false"
     units="px"
     width="192px"
     inkscape:zoom="1.0059856"
     inkscape:cx="66.05145"
     inkscape:cy="126.18795"
     inkscape:window-width="1920"
     inkscape:window-height="1015"
     inkscape:window-x="0"
     inkscape:window-y="0"
     inkscape:window-maximized="1"
     inkscape:current-layer="layer1"
     inkscape:snap-global="false" />
  <defs
     id="defs2" />
  <g
     inkscape:label="Layer 1"
     inkscape:groupmode="layer"
     id="layer1"
     transform="translate(0,71.966667)">
    <path
       style="opacity:1;fill:#c87137;stroke:#784421;stroke-width:1.0609715;stroke-linecap:round;stroke-linejoin:round;stroke-miterlimit:4;stroke-dasharray:none;stroke-opacity:1"
       d="M 43.586641,-0.44195099 43.322596,55.97622 35.643918,54.136762 28.3255,56.641131 l 7.285622,1.905759 3.901463,-0.36847 -6.082365,1.24557 -4.57253,3.624986 10.026653,-0.762801 -3.908235,1.323435 -2.479333,4.701996 10.328597,-3.29773 -2.932679,3.170057 0.529339,3.252295 7.570377,-5.896772 5.927643,0.432684 6.273952,5.094601 0.867332,-6.064239 -4.072952,-3.898264 9.166237,6.211217 -1.016243,-6.237728 -4.771261,-1.792646 5.232366,-1.401304 4.374124,2.373577 -3.267841,-6.34004 -8.835693,1.910853 6.263922,-1.75664 -3.423649,-3.220415 -3.958852,3.048149 0.684518,-55.2260407 z"
       id="path8318"
       inkscape:connector-curvature="0" />
    <path
       id="path7998"
       style="opacity:1;fill:#00d400;stroke:#008000;stroke-width:1.0609709;stroke-linecap:round;stroke-linejoin:round"
       d="m 40.542016,-71.436154 a 14.178517,14.649245 0 0 0 -12.825591,8.417304 14.178517,14.649245 0 0 0 -4.554496,-0.786761 14.178517,14.649245 0 0 0 -14.1778356,14.649279 14.178517,14.649245 0 0 0 0.1534755,2.149099 14.178517,14.649245 0 0 0 -8.60708345,13.460854 14.178517,14.649245 0 0 0 9.16291435,13.695848 14.178517,14.649245 0 0 0 -0.4303542,3.546633 14.178517,14.649245 0 0 0 14.1788734,14.6492757 14.178517,14.649245 0 0 0 4.129326,-0.6356146 14.178517,14.649245 0 0 0 12.909588,8.6139934 14.178517,14.649245 0 0 0 9.995624,-4.2609286 14.178517,14.649245 0 0 0 10.043326,4.3230413 14.178517,14.649245 0 0 0 12.855663,-8.4711384 14.178517,14.649245 0 0 0 5.725265,1.2588167 14.178517,14.649245 0 0 0 14.177839,-14.6492775 14.178517,14.649245 0 0 0 -0.212585,-2.524879 14.178517,14.649245 0 0 0 8.003555,-13.186523 14.178517,14.649245 0 0 0 -5.366467,-11.47532 14.178517,14.649245 0 0 0 0.564127,-4.091154 14.178517,14.649245 0 0 0 -14.177839,-14.649279 14.178517,14.649245 0 0 0 -5.028402,0.957571 14.178517,14.649245 0 0 0 -13.372091,-9.783784 14.178517,14.649245 0 0 0 -11.159136,5.619128 14.178517,14.649245 0 0 0 -11.987696,-6.826184 z"
       inkscape:connector-curvature="0" />
  </g>
</svg>
