<?xml version="1.0" encoding="UTF-8" standalone="no"?>
<!-- Created with Inkscape (http://www.inkscape.org/) -->

<svg
   width="192"
   height="272"
   viewBox="0 0 50.799999 71.966668"
   version="1.1"
   id="svg5"
   inkscape:version="1.1.2 (0a00cf5339, 2022-02-04)"
   sodipodi:docname="tree1.svg"
   inkscape:export-filename="/home/victor/Projects/cogmura/data/img/block/tree1.png"
   inkscape:export-xdpi="96"
   inkscape:export-ydpi="96"
   xmlns:inkscape="http://www.inkscape.org/namespaces/inkscape"
   xmlns:sodipodi="http://sodipodi.sourceforge.net/DTD/sodipodi-0.dtd"
   xmlns="http://www.w3.org/2000/svg"
   xmlns:svg="http://www.w3.org/2000/svg">
  <sodipodi:namedview
     id="namedview7"
     pagecolor="#ffffff"
     bordercolor="#666666"
     borderopacity="1.0"
     inkscape:pageshadow="2"
     inkscape:pageopacity="0.0"
     inkscape:pagecheckerboard="true"
     inkscape:document-units="px"
     showgrid="false"
     units="px"
     width="192px"
     inkscape:zoom="2"
     inkscape:cx="106.5"
     inkscape:cy="122.5"
     inkscape:window-width="1920"
     inkscape:window-height="1012"
     inkscape:window-x="0"
     inkscape:window-y="0"
     inkscape:window-maximized="1"
     inkscape:current-layer="layer1"
     inkscape:snap-global="false" />
  <defs
     id="defs2" />
  <g
     inkscape:label="Layer 1"
     inkscape:groupmode="layer"
     id="layer1">
    <path
       style="opacity:1;fill:#c87137;stroke:#784421;stroke-width:0.529167;stroke-linecap:round;stroke-linejoin:round;stroke-miterlimit:4;stroke-dasharray:none;stroke-opacity:1"
       d="m 21.747509,35.717934 -0.131581,28.163228 -3.826494,-0.918234 -3.646967,1.250149 3.630624,0.95133 1.944205,-0.183935 -3.031008,0.621773 -2.278616,1.809546 4.996554,-0.38078 -1.94758,0.660641 -1.235519,2.347177 5.147021,-1.646185 -1.461434,1.582452 0.263784,1.623504 3.772525,-2.943593 2.953906,0.21599 3.126481,2.54316 0.432215,-3.027191 -2.029663,-1.945963 4.567785,3.10056 -0.506421,-3.113794 -2.377649,-0.894866 2.60743,-0.699513 2.179745,1.184859 -1.628454,-3.164866 -4.403066,0.953873 3.121482,-0.876893 -1.706097,-1.607589 -1.972804,1.521597 0.341114,-27.568133 z"
       id="path8318" />
    <path
       id="path7998"
       style="opacity:1;fill:#00d400;stroke:#008000;stroke-width:2;stroke-linecap:round;stroke-linejoin:round"
       d="M 76.460938 1.0527344 A 26.704407 27.638611 0 0 0 52.304688 16.933594 A 26.704407 27.638611 0 0 0 43.726562 15.449219 A 26.704407 27.638611 0 0 0 17.023438 43.087891 A 26.704407 27.638611 0 0 0 17.3125 47.142578 A 26.704407 27.638611 0 0 0 1.1015625 72.539062 A 26.704407 27.638611 0 0 0 18.359375 98.378906 A 26.704407 27.638611 0 0 0 17.548828 105.07031 A 26.704407 27.638611 0 0 0 44.253906 132.70898 A 26.704407 27.638611 0 0 0 52.03125 131.50977 A 26.704407 27.638611 0 0 0 76.345703 147.76172 A 26.704407 27.638611 0 0 0 95.171875 139.72266 A 26.704407 27.638611 0 0 0 114.08789 147.87891 A 26.704407 27.638611 0 0 0 138.30078 131.89648 A 26.704407 27.638611 0 0 0 149.08398 134.27148 A 26.704407 27.638611 0 0 0 175.78711 106.63281 A 26.704407 27.638611 0 0 0 175.38672 101.86914 A 26.704407 27.638611 0 0 0 190.46094 76.990234 A 26.704407 27.638611 0 0 0 180.35352 55.339844 A 26.704407 27.638611 0 0 0 181.41602 47.621094 A 26.704407 27.638611 0 0 0 154.71289 19.982422 A 26.704407 27.638611 0 0 0 145.24219 21.789062 A 26.704407 27.638611 0 0 0 120.05664 3.3300781 A 26.704407 27.638611 0 0 0 99.039062 13.931641 A 26.704407 27.638611 0 0 0 76.460938 1.0527344 z "
       transform="scale(0.26458333)" />
  </g>
</svg>
