<?xml version="1.0" encoding="UTF-8" standalone="no"?>
<!-- Created with Inkscape (http://www.inkscape.org/) -->

<svg
   xmlns:dc="http://purl.org/dc/elements/1.1/"
   xmlns:cc="http://creativecommons.org/ns#"
   xmlns:rdf="http://www.w3.org/1999/02/22-rdf-syntax-ns#"
   xmlns:svg="http://www.w3.org/2000/svg"
   xmlns="http://www.w3.org/2000/svg"
   xmlns:sodipodi="http://sodipodi.sourceforge.net/DTD/sodipodi-0.dtd"
   xmlns:inkscape="http://www.inkscape.org/namespaces/inkscape"
   width="360"
   height="168"
   viewBox="0 0 95.249998 44.450002"
   version="1.1"
   id="svg8"
   inkscape:version="0.92.5 (2060ec1f9f, 2020-04-08)"
   sodipodi:docname="arc.svg"
   inkscape:export-filename="/home/victor/Projects/cogmura/data/img/obj/arc.png"
   inkscape:export-xdpi="96"
   inkscape:export-ydpi="96">
  <defs
     id="defs2" />
  <sodipodi:namedview
     id="base"
     pagecolor="#ffffff"
     bordercolor="#666666"
     borderopacity="1.0"
     inkscape:pageopacity="0.0"
     inkscape:pageshadow="2"
     inkscape:zoom="1"
     inkscape:cx="116.52684"
     inkscape:cy="47.222754"
     inkscape:document-units="px"
     inkscape:current-layer="layer1"
     showgrid="false"
     units="px"
     inkscape:pagecheckerboard="true"
     inkscape:showpageshadow="false"
     inkscape:window-width="1920"
     inkscape:window-height="1015"
     inkscape:window-x="0"
     inkscape:window-y="0"
     inkscape:window-maximized="1"
     inkscape:snap-global="false" />
  <metadata
     id="metadata5">
    <rdf:RDF>
      <cc:Work
         rdf:about="">
        <dc:format>image/svg+xml</dc:format>
        <dc:type
           rdf:resource="http://purl.org/dc/dcmitype/StillImage" />
        <dc:title></dc:title>
      </cc:Work>
    </rdf:RDF>
  </metadata>
  <g
     inkscape:label="Layer 1"
     inkscape:groupmode="layer"
     id="layer1"
     transform="translate(0,-252.54999)">
    <path
       style="opacity:1;fill:#7d53a9;fill-opacity:1;stroke:#000000;stroke-width:1.0583334;stroke-linecap:round;stroke-linejoin:round;stroke-miterlimit:4;stroke-dasharray:none;stroke-opacity:1;paint-order:normal"
       d="m 32.279168,269.58325 c 0,0 0.02242,-15.43664 15.345835,-15.44576 15.323402,-0.01 15.345834,15.44576 15.345834,15.44576 v 21.1092 c 0,0 -0.04458,1.57788 -2.046112,1.54458 -2.001524,-0.0332 -2.04611,-1.54458 -2.04611,-1.54458 v -21.1092 c 0,0 -0.0186,-11.35502 -11.253612,-11.3269 -11.234973,0.0282 -11.253611,11.3269 -11.253611,11.3269 v 21.1092 c 0,0 -0.05678,1.52972 -2.046112,1.54458 -1.989336,0.016 -2.046112,-1.54458 -2.046112,-1.54458 z"
       id="path812"
       inkscape:connector-curvature="0"
       sodipodi:nodetypes="czcczcczcczcc" />
    <path
       style="opacity:1;fill:#ffffff;fill-opacity:1;stroke:#000000;stroke-width:1.0583334;stroke-linecap:round;stroke-linejoin:round;stroke-miterlimit:4;stroke-dasharray:none;stroke-opacity:1;paint-order:normal"
       d="m 42.538665,259.21985 c 0,0 4.930044,-2.1935 10.258746,-0.024 l 1.892384,-3.57722 c -7.653492,-3.1806 -14.055525,0.012 -14.055525,0.012 z"
       id="path814"
       inkscape:connector-curvature="0"
       sodipodi:nodetypes="ccccc" />
    <path
       style="opacity:1;fill:#ff0000;fill-opacity:1;stroke:#000000;stroke-width:0.5291667;stroke-linecap:round;stroke-linejoin:round;stroke-miterlimit:4;stroke-dasharray:none;stroke-opacity:1;paint-order:normal"
       d="m 44.830509,255.57235 c 0,0 -0.369708,-0.9075 -1.503476,-0.52538 -1.13377,0.3821 -0.591532,1.60008 -0.591532,1.60008 0,0 0.616182,1.38514 2.76048,1.45678 0,0 1.651358,-1.17022 1.577414,-2.57924 -0.09862,-1.40902 -1.281648,-1.14632 -1.281648,-1.14632 0,0 -1.059826,0.1194 -0.961238,1.19408 z"
       id="path823"
       inkscape:connector-curvature="0"
       sodipodi:nodetypes="csccccc" />
    <path
       sodipodi:type="star"
       style="opacity:1;fill:#003bff;fill-opacity:1;stroke:#000000;stroke-width:0.22587511;stroke-linecap:round;stroke-linejoin:round;stroke-miterlimit:4;stroke-dasharray:none;stroke-opacity:1;paint-order:normal"
       id="path825"
       sodipodi:sides="5"
       sodipodi:cx="25.061901"
       sodipodi:cy="276.64038"
       sodipodi:r1="0.97934973"
       sodipodi:r2="0.50553346"
       sodipodi:arg1="1.1304908"
       sodipodi:arg2="1.7588093"
       inkscape:flatsided="false"
       inkscape:rounded="0"
       inkscape:randomized="0"
       d="m 25.479315,277.52632 -0.511902,-0.38931 -0.619104,0.17413 0.212076,-0.60716 -0.356922,-0.53499 0.642972,0.0141 0.398514,-0.50477 0.185303,0.61585 0.603217,0.22303 -0.528448,0.36654 z"
       inkscape:transform-center-x="-0.13419472"
       inkscape:transform-center-y="-0.08810589"
       transform="matrix(2.3723992,0,0,2.3134518,-9.2518719,-383.68447)" />
    <path
       sodipodi:nodetypes="czcczcczcczcc"
       inkscape:connector-curvature="0"
       id="path826"
       d="m 4.7639791,264.29159 c 0,0 -0.3724414,-11.20332 11.1109989,-11.21244 11.483442,-0.01 11.111,18.62076 11.111,18.62076 v 23.22588 c 0,0 -0.04458,1.57788 -2.045836,1.54458 -2.001254,-0.0332 -2.045834,-1.54458 -2.045834,-1.54458 v -23.22588 c 0,0 0.03956,-14.5301 -7.01933,-14.5019 -7.0588857,0.0282 -7.0193281,7.09358 -7.0193281,7.09358 v 22.16752 c 0,0 -0.056772,1.52972 -2.0458354,1.54458 -1.989067,0.016 -2.0458354,-1.54458 -2.0458354,-1.54458 z"
       style="opacity:1;fill:#7d53a9;fill-opacity:1;stroke:#000000;stroke-width:1.0583334;stroke-linecap:round;stroke-linejoin:round;stroke-miterlimit:4;stroke-dasharray:none;stroke-opacity:1;paint-order:normal" />
    <path
       sodipodi:nodetypes="ccccc"
       inkscape:connector-curvature="0"
       id="path828"
       d="m 12.724172,257.71889 c 0,0 5.090447,-2.06074 7.12646,1.7698 0.246318,-2.03532 0.867458,-3.4573 1.863418,-3.95926 -3.901757,-4.1532 -10.248536,-1.7352 -10.248536,-1.7352 -0.159716,1.206 0.05539,2.75274 1.258658,3.92466 z"
       style="opacity:1;fill:#ffffff;fill-opacity:1;stroke:#000000;stroke-width:1.0583334;stroke-linecap:round;stroke-linejoin:round;stroke-miterlimit:4;stroke-dasharray:none;stroke-opacity:1;paint-order:normal" />
    <path
       sodipodi:nodetypes="csccccc"
       inkscape:connector-curvature="0"
       id="path830"
       d="m 14.021179,254.29779 c 0,0 -0.264194,-0.966 -1.074386,-0.76328 -0.810192,0.20256 -0.422709,1.50646 -0.422709,1.50646 0,0 0.440324,1.48262 1.972641,1.8936 0,0 1.180062,-0.90888 1.127222,-2.3296 -0.07047,-1.42464 -0.915867,-1.34914 -0.915867,-1.34914 0,0 -0.757353,-0.0484 -0.686901,1.04196 z"
       style="opacity:1;fill:#ff0000;fill-opacity:1;stroke:#000000;stroke-width:0.5291667;stroke-linecap:round;stroke-linejoin:round;stroke-miterlimit:4;stroke-dasharray:none;stroke-opacity:1;paint-order:normal" />
    <path
       transform="matrix(1.6953182,0.37542488,0,2.3134518,-24.898726,-393.99448)"
       inkscape:transform-center-y="0.024609255"
       inkscape:transform-center-x="-0.095896521"
       d="m 25.479315,277.52632 -0.511902,-0.38931 -0.619104,0.17413 0.212076,-0.60716 -0.356922,-0.53499 0.642972,0.0141 0.398514,-0.50477 0.185303,0.61585 0.603217,0.22303 -0.528448,0.36654 z"
       inkscape:randomized="0"
       inkscape:rounded="0"
       inkscape:flatsided="false"
       sodipodi:arg2="1.7588093"
       sodipodi:arg1="1.1304908"
       sodipodi:r2="0.50553346"
       sodipodi:r1="0.97934973"
       sodipodi:cy="276.64038"
       sodipodi:cx="25.061901"
       sodipodi:sides="5"
       id="path832"
       style="opacity:1;fill:#003bff;fill-opacity:1;stroke:#000000;stroke-width:0.26720011;stroke-linecap:round;stroke-linejoin:round;stroke-miterlimit:4;stroke-dasharray:none;stroke-opacity:1;paint-order:normal"
       sodipodi:type="star" />
    <path
       style="opacity:1;fill:#7d53a9;fill-opacity:1;stroke:#000000;stroke-width:1.0583334;stroke-linecap:round;stroke-linejoin:round;stroke-miterlimit:4;stroke-dasharray:none;stroke-opacity:1;paint-order:normal"
       d="m 90.486023,264.29159 c 0,0 0.372442,-11.20332 -11.111,-11.21244 -11.48344,-0.01 -11.110998,18.62076 -11.110998,18.62076 v 23.22588 c 0,0 0.04458,1.57788 2.045836,1.54458 2.001254,-0.0332 2.045834,-1.54458 2.045834,-1.54458 v -23.22588 c 0,0 -0.03956,-14.5301 7.019328,-14.5019 7.058886,0.0282 7.01933,7.09358 7.01933,7.09358 v 22.16752 c 0,0 0.05678,1.52972 2.045834,1.54458 1.989068,0.016 2.045836,-1.54458 2.045836,-1.54458 z"
       id="path842"
       inkscape:connector-curvature="0"
       sodipodi:nodetypes="czcczcczcczcc" />
    <path
       style="opacity:1;fill:#ffffff;fill-opacity:1;stroke:#000000;stroke-width:1.0583334;stroke-linecap:round;stroke-linejoin:round;stroke-miterlimit:4;stroke-dasharray:none;stroke-opacity:1;paint-order:normal"
       d="m 82.525831,257.71889 c 0,0 -5.090448,-2.06074 -7.126462,1.7698 -0.246316,-2.03532 -0.867456,-3.4573 -1.863416,-3.95926 3.901756,-4.1532 10.248534,-1.7352 10.248534,-1.7352 0.15972,1.206 -0.05538,2.75274 -1.258656,3.92466 z"
       id="path844"
       inkscape:connector-curvature="0"
       sodipodi:nodetypes="ccccc" />
    <path
       style="opacity:1;fill:#ff0000;fill-opacity:1;stroke:#000000;stroke-width:0.5291667;stroke-linecap:round;stroke-linejoin:round;stroke-miterlimit:4;stroke-dasharray:none;stroke-opacity:1;paint-order:normal"
       d="m 77.934743,254.49127 c 0,0 0.059,-1.09578 0.83263,-1.29106 0.773604,-0.1954 0.665916,1.2988 0.665916,1.2988 0,0 -0.1222,1.69894 -1.436598,2.86266 0,0 -1.241706,-0.3292 -1.459762,-1.77588 -0.202772,-1.45926 0.57899,-1.79904 0.57899,-1.79904 0,0 0.678624,-0.42044 0.818824,0.70452 z"
       id="path846"
       inkscape:connector-curvature="0"
       sodipodi:nodetypes="csccccc" />
    <path
       sodipodi:type="star"
       style="opacity:1;fill:#003bff;fill-opacity:1;stroke:#000000;stroke-width:0.27892685;stroke-linecap:round;stroke-linejoin:round;stroke-miterlimit:4;stroke-dasharray:none;stroke-opacity:1;paint-order:normal"
       id="path848"
       sodipodi:sides="5"
       sodipodi:cx="25.061901"
       sodipodi:cy="276.64038"
       sodipodi:r1="0.97934973"
       sodipodi:r2="0.50553346"
       sodipodi:arg1="1.1304908"
       sodipodi:arg2="1.7588093"
       inkscape:flatsided="false"
       inkscape:rounded="0"
       inkscape:randomized="0"
       d="m 25.479315,277.52632 -0.511902,-0.38931 -0.619104,0.17413 0.212076,-0.60716 -0.356922,-0.53499 0.642972,0.0141 0.398514,-0.50477 0.185303,0.61585 0.603217,0.22303 -0.528448,0.36654 z"
       inkscape:transform-center-x="-0.087195172"
       inkscape:transform-center-y="-0.13465745"
       transform="matrix(-1.5150241,-0.65815191,-0.58157881,2.1230154,280.3642,-315.57316)" />
  </g>
</svg>
