<?xml version="1.0" encoding="UTF-8" standalone="no"?>
<!-- Created with Inkscape (http://www.inkscape.org/) -->

<svg
   xmlns:dc="http://purl.org/dc/elements/1.1/"
   xmlns:cc="http://creativecommons.org/ns#"
   xmlns:rdf="http://www.w3.org/1999/02/22-rdf-syntax-ns#"
   xmlns:svg="http://www.w3.org/2000/svg"
   xmlns="http://www.w3.org/2000/svg"
   xmlns:sodipodi="http://sodipodi.sourceforge.net/DTD/sodipodi-0.dtd"
   xmlns:inkscape="http://www.inkscape.org/namespaces/inkscape"
   width="128"
   height="80"
   viewBox="0 0 33.866666 21.166668"
   version="1.1"
   id="svg8"
   inkscape:version="0.92.5 (2060ec1f9f, 2020-04-08)"
   sodipodi:docname="bush1.svg"
   inkscape:export-filename="/home/victor/Projects/cogmura/data/img/obj/bush1.png"
   inkscape:export-xdpi="96"
   inkscape:export-ydpi="96">
  <defs
     id="defs2" />
  <sodipodi:namedview
     id="base"
     pagecolor="#ffffff"
     bordercolor="#666666"
     borderopacity="1.0"
     inkscape:pageopacity="0.0"
     inkscape:pageshadow="2"
     inkscape:zoom="1"
     inkscape:cx="20.668608"
     inkscape:cy="18.159581"
     inkscape:document-units="px"
     inkscape:current-layer="layer1"
     showgrid="false"
     units="px"
     inkscape:pagecheckerboard="true"
     inkscape:showpageshadow="false"
     inkscape:window-width="1920"
     inkscape:window-height="1015"
     inkscape:window-x="0"
     inkscape:window-y="0"
     inkscape:window-maximized="1"
     inkscape:snap-global="false" />
  <metadata
     id="metadata5">
    <rdf:RDF>
      <cc:Work
         rdf:about="">
        <dc:format>image/svg+xml</dc:format>
        <dc:type
           rdf:resource="http://purl.org/dc/dcmitype/StillImage" />
        <dc:title></dc:title>
      </cc:Work>
    </rdf:RDF>
  </metadata>
  <g
     inkscape:label="Layer 1"
     inkscape:groupmode="layer"
     id="layer1"
     transform="translate(0,-275.83333)">
    <path
       style="opacity:1;fill:#00d400;fill-opacity:1;stroke:#008000;stroke-width:1.05833912;stroke-linecap:round;stroke-linejoin:round;stroke-miterlimit:4;stroke-dasharray:none;stroke-opacity:1;paint-order:normal"
       d="m 5.6638717,296.47082 21.6847023,-0.0662 c 0,0 5.134072,-0.4623 5.87716,-4.3589 0.74309,-3.8966 -2.364373,-5.21747 -2.364373,-5.21747 0,0 -1.823948,-0.66046 -2.567038,0.39624 0,0 2.094161,-2.97193 -0.675536,-5.15136 -2.769697,-2.17946 -4.998965,-0.26419 -4.998965,-0.26419 0,0 0.810643,-1.38692 0.270216,-2.83989 -0.540429,-1.45295 -1.756396,-2.11341 -1.756396,-2.11341 0,0 -2.229267,-1.12273 -4.931411,0 -2.702143,1.12274 -2.094161,3.83054 -2.094161,3.83054 0,0 -0.878197,-2.04735 -3.039912,-1.05669 -2.1617144,0.99065 -0.675535,2.64178 -0.675535,2.64178 0,0 -2.2968224,-2.11341 -5.1340731,-0.39629 -2.8372508,1.71715 -0.8781966,5.21749 -0.8781966,5.21749 0,0 -3.78300091,-0.26416 -3.85055449,4.16079 -0.0675536,4.42494 5.13407289,5.21746 5.13407289,5.21746 z"
       id="path1493"
       inkscape:connector-curvature="0" />
    <path
       style="opacity:1;fill:none;fill-opacity:1;stroke:#008000;stroke-width:1.05833912;stroke-linecap:round;stroke-linejoin:round;stroke-miterlimit:4;stroke-dasharray:none;stroke-opacity:1;paint-order:normal"
       d="m 7.272838,290.73727 c 0,0 -1.2121396,-2.08757 0.4713879,-3.56908 1.6835269,-1.4815 3.2997131,-0.74074 3.2997131,-0.74074 0,0 0.06734,-4.10782 4.107807,-2.42429"
       id="path1495"
       inkscape:connector-curvature="0" />
    <path
       style="opacity:1;fill:none;fill-opacity:1;stroke:#008000;stroke-width:1.05833912;stroke-linecap:round;stroke-linejoin:round;stroke-miterlimit:4;stroke-dasharray:none;stroke-opacity:1;paint-order:normal"
       d="m 18.653483,283.12773 c 0,0 0.808093,-2.69365 3.905783,-1.07746 3.097691,1.61618 0.606069,3.29971 0.606069,3.29971"
       id="path1497"
       inkscape:connector-curvature="0" />
    <path
       style="opacity:1;fill:none;fill-opacity:1;stroke:#008000;stroke-width:1.05833912;stroke-linecap:round;stroke-linejoin:round;stroke-miterlimit:4;stroke-dasharray:none;stroke-opacity:1;paint-order:normal"
       d="m 21.953195,288.78438 c 0,0 1.414163,-2.02023 2.828327,-0.94278 1.414164,1.07746 0.336706,2.28961 0.336706,2.28961 0,0 1.616185,0.80808 1.279481,2.42427 -0.336706,1.61619 -1.952893,1.75087 -1.952893,1.75087"
       id="path1499"
       inkscape:connector-curvature="0" />
    <path
       style="opacity:1;fill:none;fill-opacity:1;stroke:#008000;stroke-width:1.05833912;stroke-linecap:round;stroke-linejoin:round;stroke-miterlimit:4;stroke-dasharray:none;stroke-opacity:1;paint-order:normal"
       d="m 7.3401793,293.90231 c 0,0 -0.4040468,-2.49163 1.4141629,-3.36706 1.8182098,-0.87544 2.8283258,0.53872 2.8283258,0.53872 0,0 -0.202023,-1.81821 1.616186,-1.68352 1.81821,0.1346 1.21214,1.88555 1.21214,1.88555"
       id="path1501"
       inkscape:connector-curvature="0" />
  </g>
</svg>
