<?xml version="1.0" encoding="UTF-8" standalone="no"?>
<!-- Created with Inkscape (http://www.inkscape.org/) -->

<svg
   width="792"
   height="168"
   viewBox="0 0 209.55 44.450002"
   version="1.1"
   id="svg8"
   inkscape:version="1.1.2 (0a00cf5339, 2022-02-04)"
   sodipodi:docname="door2.svg"
   inkscape:export-filename="/home/victor/Projects/cogmura/data/img/obj/door2.png"
   inkscape:export-xdpi="96"
   inkscape:export-ydpi="96"
   xmlns:inkscape="http://www.inkscape.org/namespaces/inkscape"
   xmlns:sodipodi="http://sodipodi.sourceforge.net/DTD/sodipodi-0.dtd"
   xmlns="http://www.w3.org/2000/svg"
   xmlns:svg="http://www.w3.org/2000/svg"
   xmlns:rdf="http://www.w3.org/1999/02/22-rdf-syntax-ns#"
   xmlns:cc="http://creativecommons.org/ns#"
   xmlns:dc="http://purl.org/dc/elements/1.1/">
  <defs
     id="defs2" />
  <sodipodi:namedview
     id="base"
     pagecolor="#ffffff"
     bordercolor="#666666"
     borderopacity="1.0"
     inkscape:pageopacity="0.0"
     inkscape:pageshadow="2"
     inkscape:zoom="1"
     inkscape:cx="475"
     inkscape:cy="83"
     inkscape:document-units="px"
     inkscape:current-layer="layer1"
     showgrid="false"
     units="px"
     inkscape:pagecheckerboard="true"
     inkscape:showpageshadow="false"
     inkscape:window-width="1920"
     inkscape:window-height="1012"
     inkscape:window-x="0"
     inkscape:window-y="0"
     inkscape:window-maximized="1"
     inkscape:snap-global="false" />
  <metadata
     id="metadata5">
    <rdf:RDF>
      <cc:Work
         rdf:about="">
        <dc:format>image/svg+xml</dc:format>
        <dc:type
           rdf:resource="http://purl.org/dc/dcmitype/StillImage" />
      </cc:Work>
    </rdf:RDF>
  </metadata>
  <g
     inkscape:label="Layer 1"
     inkscape:groupmode="layer"
     id="layer1"
     transform="translate(0,-261.01665)">
    <path
       style="opacity:1;fill:#a05a2c;fill-opacity:1;stroke:#502d16;stroke-width:1.05833;stroke-linecap:round;stroke-linejoin:round;stroke-miterlimit:4;stroke-dasharray:none;stroke-opacity:1;paint-order:normal"
       d="M 0.52916671,304.93749 H 51.858332 v -33.60208 c 0,0 -7.408332,-9.78959 -25.664582,-9.78959 -18.2562495,0 -25.66458329,9.78959 -25.66458329,9.78959 z"
       id="path1521"
       inkscape:connector-curvature="0"
       sodipodi:nodetypes="cccscc" />
    <path
       style="opacity:1;fill:none;fill-opacity:1;stroke:#502d16;stroke-width:1.05833;stroke-linecap:round;stroke-linejoin:round;stroke-miterlimit:4;stroke-dasharray:none;stroke-opacity:1;paint-order:normal"
       d="M 0.66145871,271.3354 H 51.726042"
       id="path1523"
       inkscape:connector-curvature="0"
       sodipodi:nodetypes="cc" />
    <path
       style="opacity:1;fill:none;fill-opacity:1;stroke:#502d16;stroke-width:1.05833;stroke-linecap:round;stroke-linejoin:round;stroke-miterlimit:4;stroke-dasharray:none;stroke-opacity:1;paint-order:normal"
       d="m 26.193697,271.34292 v 33.58704"
       id="path1525"
       inkscape:connector-curvature="0"
       sodipodi:nodetypes="cc" />
    <path
       style="opacity:1;fill:none;fill-opacity:1;stroke:#502d16;stroke-width:1.05833;stroke-linecap:round;stroke-linejoin:round;stroke-miterlimit:4;stroke-dasharray:none;stroke-opacity:1;paint-order:normal"
       d="m 5.9002066,277.19704 c 0,0 0.094058,1.81288 2.0692866,1.81285 2.4455208,-2e-5 2.4455208,-2.17542 2.4455208,-2.17542 0,0 0.187118,-3.2495 -3.386105,-3.26313 -3.7634847,-0.0144 -3.9504577,3.35378 -3.9504577,3.35378 0,0 -0.3762337,5.25726 3.7623409,10.96774 4.1385728,5.71049 3.5742218,11.0584 3.5742218,11.0584 0,0 -0.376234,3.17249 -3.5742232,3.17249 -3.3861059,0 -3.5742213,-2.9912 -3.5742213,-2.9912 0,0 -0.2821767,-2.53799 2.3514619,-2.53799 2.2574034,0 2.2574034,2.3567 2.2574034,2.3567"
       id="path1533"
       inkscape:connector-curvature="0"
       sodipodi:nodetypes="cscscccscsc" />
    <path
       style="opacity:1;fill:none;fill-opacity:1;stroke:#502d16;stroke-width:1.05833;stroke-linecap:round;stroke-linejoin:round;stroke-miterlimit:4;stroke-dasharray:none;stroke-opacity:1;paint-order:normal"
       d="m 24.252246,284.98282 c 0,0 -1.292705,2.39146 0,4.86834"
       id="path1537"
       inkscape:connector-curvature="0" />
    <path
       sodipodi:nodetypes="cc"
       inkscape:connector-curvature="0"
       id="path1541"
       d="m 12.964532,271.34292 v 33.58704"
       style="opacity:1;fill:none;fill-opacity:1;stroke:#502d16;stroke-width:1.05833;stroke-linecap:round;stroke-linejoin:round;stroke-miterlimit:4;stroke-dasharray:none;stroke-opacity:1;paint-order:normal" />
    <path
       sodipodi:nodetypes="cc"
       inkscape:connector-curvature="0"
       id="path1543"
       d="m 39.422862,271.34292 v 33.58704"
       style="opacity:1;fill:none;fill-opacity:1;stroke:#502d16;stroke-width:1.05833;stroke-linecap:round;stroke-linejoin:round;stroke-miterlimit:4;stroke-dasharray:none;stroke-opacity:1;paint-order:normal" />
    <path
       style="opacity:1;fill:none;fill-opacity:1;stroke:#502d16;stroke-width:1.05833;stroke-linecap:round;stroke-linejoin:round;stroke-miterlimit:4;stroke-dasharray:none;stroke-opacity:1;paint-order:normal"
       d="m 46.502668,277.19704 c 0,0 -0.09406,1.81288 -2.069286,1.81285 -2.44552,-2e-5 -2.44552,-2.17542 -2.44552,-2.17542 0,0 -0.187118,-3.2495 3.386104,-3.26313 3.763484,-0.0144 3.950457,3.35378 3.950457,3.35378 0,0 0.376234,5.25726 -3.76234,10.96774 -4.138572,5.71049 -3.574221,11.0584 -3.574221,11.0584 0,0 0.376234,3.17249 3.574223,3.17249 3.386105,0 3.57422,-2.9912 3.57422,-2.9912 0,0 0.282177,-2.53799 -2.351461,-2.53799 -2.257403,0 -2.257403,2.3567 -2.257403,2.3567"
       id="path3823"
       inkscape:connector-curvature="0"
       sodipodi:nodetypes="cscscccscsc" />
    <path
       style="opacity:1;fill:none;fill-opacity:1;stroke:#502d16;stroke-width:1.05833;stroke-linecap:round;stroke-linejoin:round;stroke-miterlimit:4;stroke-dasharray:none;stroke-opacity:1;paint-order:normal"
       d="m 28.178124,284.98282 c 0,0 1.292705,2.39146 0,4.86834"
       id="path4232"
       inkscape:connector-curvature="0" />
    <path
       id="path4267"
       style="fill:#afe9dd;stroke:#502d16;stroke-width:3.99999;stroke-linecap:round;stroke-linejoin:round"
       d="M 99.349609,9.7675781 C 87.610449,9.7605034 77.485081,10.725785 68.775391,12.242188 l 30.123047,19.746093 h 0.203124 L 129.29102,12.199219 C 120.78117,10.718773 110.87349,9.7747469 99.349609,9.7675781 Z m 42.947271,5.3632809 -26.97071,16.871094 58.72266,0.04492 c 0,0 -8.4923,-10.323795 -31.75195,-16.916016 z m -86.544927,0.03125 C 32.32242,21.721716 23.265625,31.929688 23.265625,31.929688 l 59.367187,0.04687 z"
       transform="matrix(0.26458334,0,0,0.26458334,0,261.01665)" />
    <path
       style="opacity:1;fill:#a05a2c;fill-opacity:1;stroke:#502d16;stroke-width:1.05833;stroke-linecap:round;stroke-linejoin:round;stroke-miterlimit:4;stroke-dasharray:none;stroke-opacity:1;paint-order:normal"
       d="m 52.916666,304.93749 h 12.435419 l 9.789583,-3.43959 v -30.1625 h 6.879167 v 30.1625 l 9.789584,3.43959 h 12.435411 v -33.60208 c 0,0 -7.408331,-9.78959 -25.664581,-9.78959 -18.256249,0 -25.664583,9.78959 -25.664583,9.78959 z"
       id="path4838"
       inkscape:connector-curvature="0"
       sodipodi:nodetypes="cccccccccscc" />
    <path
       style="opacity:1;fill:none;fill-opacity:1;stroke:#502d16;stroke-width:1.05833;stroke-linecap:round;stroke-linejoin:round;stroke-miterlimit:4;stroke-dasharray:none;stroke-opacity:1;paint-order:normal"
       d="M 53.048958,271.3354 H 104.11354"
       id="path4840"
       inkscape:connector-curvature="0"
       sodipodi:nodetypes="cc" />
    <path
       style="opacity:1;fill:none;fill-opacity:1;stroke:#502d16;stroke-width:1.05833;stroke-linecap:round;stroke-linejoin:round;stroke-miterlimit:4;stroke-dasharray:none;stroke-opacity:1;paint-order:normal"
       d="m 58.287706,277.19704 c 0,0 0.09406,1.81288 2.069287,1.81285 2.44552,-2e-5 2.44552,-2.17542 2.44552,-2.17542 0,0 0.187118,-3.2495 -3.386105,-3.26313 -3.763484,-0.0144 -3.950457,3.35378 -3.950457,3.35378 0,0 -0.376234,5.25726 3.762341,10.96774 4.138572,5.71049 3.574221,11.0584 3.574221,11.0584 0,0 -0.376234,3.17249 -3.574223,3.17249 -3.386106,0 -3.574221,-2.9912 -3.574221,-2.9912 0,0 -0.282177,-2.53799 2.351462,-2.53799 2.257403,0 2.257403,2.3567 2.257403,2.3567"
       id="path4844"
       inkscape:connector-curvature="0"
       sodipodi:nodetypes="cscscccscsc" />
    <path
       style="opacity:1;fill:none;fill-opacity:1;stroke:#502d16;stroke-width:1.05833;stroke-linecap:round;stroke-linejoin:round;stroke-miterlimit:4;stroke-dasharray:none;stroke-opacity:1;paint-order:normal"
       d="m 73.464749,284.18908 c 0,0 -1.292705,2.39146 0,4.86834"
       id="path4846"
       inkscape:connector-curvature="0" />
    <path
       sodipodi:nodetypes="cc"
       inkscape:connector-curvature="0"
       id="path4848"
       d="m 65.352031,271.34292 v 33.58704"
       style="opacity:1;fill:none;fill-opacity:1;stroke:#502d16;stroke-width:1.05833;stroke-linecap:round;stroke-linejoin:round;stroke-miterlimit:4;stroke-dasharray:none;stroke-opacity:1;paint-order:normal" />
    <path
       sodipodi:nodetypes="cc"
       inkscape:connector-curvature="0"
       id="path4850"
       d="m 91.810361,271.34292 v 33.58704"
       style="opacity:1;fill:none;fill-opacity:1;stroke:#502d16;stroke-width:1.05833;stroke-linecap:round;stroke-linejoin:round;stroke-miterlimit:4;stroke-dasharray:none;stroke-opacity:1;paint-order:normal" />
    <path
       style="opacity:1;fill:none;fill-opacity:1;stroke:#502d16;stroke-width:1.05833;stroke-linecap:round;stroke-linejoin:round;stroke-miterlimit:4;stroke-dasharray:none;stroke-opacity:1;paint-order:normal"
       d="m 98.890167,277.19704 c 0,0 -0.09406,1.81288 -2.069286,1.81285 -2.44552,-2e-5 -2.44552,-2.17542 -2.44552,-2.17542 0,0 -0.187118,-3.2495 3.386104,-3.26313 3.763485,-0.0144 3.950455,3.35378 3.950455,3.35378 0,0 0.37624,5.25726 -3.762338,10.96774 -4.138572,5.71049 -3.574221,11.0584 -3.574221,11.0584 0,0 0.376234,3.17249 3.574223,3.17249 3.386106,0 3.574216,-2.9912 3.574216,-2.9912 0,0 0.28218,-2.53799 -2.351457,-2.53799 -2.257403,0 -2.257403,2.3567 -2.257403,2.3567"
       id="path4852"
       inkscape:connector-curvature="0"
       sodipodi:nodetypes="cscscccscsc" />
    <path
       style="opacity:1;fill:none;fill-opacity:1;stroke:#502d16;stroke-width:1.05833;stroke-linecap:round;stroke-linejoin:round;stroke-miterlimit:4;stroke-dasharray:none;stroke-opacity:1;paint-order:normal"
       d="m 83.740622,284.18908 c 0,0 1.292705,2.39146 0,4.86834"
       id="path4854"
       inkscape:connector-curvature="0" />
    <path
       id="path4856"
       style="fill:#afe9dd;stroke:#502d16;stroke-width:1.05833;stroke-linecap:round;stroke-linejoin:round"
       d="m 78.673751,263.60099 c -3.105986,-0.002 -5.78499,0.25352 -8.089429,0.65474 l 7.970057,5.22449 h 0.05374 l 7.987627,-5.23586 c -2.251564,-0.3917 -4.872971,-0.64147 -7.921998,-0.64337 z m 11.363132,1.41903 -7.136,4.46381 15.537037,0.0119 c 0,0 -2.246921,-2.7315 -8.401037,-4.4757 z m -22.898346,0.008 c -6.199064,1.73556 -8.595341,4.43642 -8.595341,4.43642 l 15.707569,0.0124 z" />
    <path
       style="opacity:1;fill:#a05a2c;fill-opacity:1;stroke:#502d16;stroke-width:1.05833;stroke-linecap:round;stroke-linejoin:round;stroke-miterlimit:4;stroke-dasharray:none;stroke-opacity:1;paint-order:normal"
       d="m 105.30417,304.93749 h 12.43542 l 7.9375,-4.7625 V 271.3354 h 10.58333 v 28.83959 l 7.9375,4.7625 h 12.43541 v -33.60208 c 0,0 -7.40833,-9.78959 -25.66458,-9.78959 -18.25625,0 -25.66458,9.78959 -25.66458,9.78959 z"
       id="path6823"
       inkscape:connector-curvature="0"
       sodipodi:nodetypes="cccccccccscc" />
    <path
       style="opacity:1;fill:none;fill-opacity:1;stroke:#502d16;stroke-width:1.05833;stroke-linecap:round;stroke-linejoin:round;stroke-miterlimit:4;stroke-dasharray:none;stroke-opacity:1;paint-order:normal"
       d="m 105.43646,271.3354 h 51.06458"
       id="path6825"
       inkscape:connector-curvature="0"
       sodipodi:nodetypes="cc" />
    <path
       style="opacity:1;fill:none;fill-opacity:1;stroke:#502d16;stroke-width:1.05833;stroke-linecap:round;stroke-linejoin:round;stroke-miterlimit:4;stroke-dasharray:none;stroke-opacity:1;paint-order:normal"
       d="m 110.67521,277.19704 c 0,0 0.0941,1.81288 2.06928,1.81285 2.44552,-2e-5 2.44552,-2.17542 2.44552,-2.17542 0,0 0.18712,-3.2495 -3.3861,-3.26313 -3.76348,-0.0144 -3.95046,3.35378 -3.95046,3.35378 0,0 -0.37623,5.25726 3.76234,10.96774 4.13858,5.71049 3.57422,11.0584 3.57422,11.0584 0,0 -0.37623,3.17249 -3.57422,3.17249 -3.3861,0 -3.57422,-2.9912 -3.57422,-2.9912 0,0 -0.28218,-2.53799 2.35146,-2.53799 2.25741,0 2.25741,2.3567 2.25741,2.3567"
       id="path6827"
       inkscape:connector-curvature="0"
       sodipodi:nodetypes="cscscccscsc" />
    <path
       style="opacity:1;fill:none;fill-opacity:1;stroke:#502d16;stroke-width:1.05833;stroke-linecap:round;stroke-linejoin:round;stroke-miterlimit:4;stroke-dasharray:none;stroke-opacity:1;paint-order:normal"
       d="m 124.17981,283.39534 c 0,0 -0.88972,2.39146 0,4.86834"
       id="path6829"
       inkscape:connector-curvature="0" />
    <path
       sodipodi:nodetypes="cc"
       inkscape:connector-curvature="0"
       id="path6831"
       d="m 117.73953,271.34292 v 33.58704"
       style="opacity:1;fill:none;fill-opacity:1;stroke:#502d16;stroke-width:1.05833;stroke-linecap:round;stroke-linejoin:round;stroke-miterlimit:4;stroke-dasharray:none;stroke-opacity:1;paint-order:normal" />
    <path
       sodipodi:nodetypes="cc"
       inkscape:connector-curvature="0"
       id="path6833"
       d="m 144.19786,271.34292 v 33.58704"
       style="opacity:1;fill:none;fill-opacity:1;stroke:#502d16;stroke-width:1.05833;stroke-linecap:round;stroke-linejoin:round;stroke-miterlimit:4;stroke-dasharray:none;stroke-opacity:1;paint-order:normal" />
    <path
       style="opacity:1;fill:none;fill-opacity:1;stroke:#502d16;stroke-width:1.05833;stroke-linecap:round;stroke-linejoin:round;stroke-miterlimit:4;stroke-dasharray:none;stroke-opacity:1;paint-order:normal"
       d="m 151.27767,277.19704 c 0,0 -0.0941,1.81288 -2.06929,1.81285 -2.44552,-2e-5 -2.44552,-2.17542 -2.44552,-2.17542 0,0 -0.18712,-3.2495 3.38611,-3.26313 3.76348,-0.0144 3.95045,3.35378 3.95045,3.35378 0,0 0.37624,5.25726 -3.76234,10.96774 -4.13857,5.71049 -3.57422,11.0584 -3.57422,11.0584 0,0 0.37624,3.17249 3.57423,3.17249 3.3861,0 3.57421,-2.9912 3.57421,-2.9912 0,0 0.28218,-2.53799 -2.35146,-2.53799 -2.2574,0 -2.2574,2.3567 -2.2574,2.3567"
       id="path6835"
       inkscape:connector-curvature="0"
       sodipodi:nodetypes="cscscccscsc" />
    <path
       style="opacity:1;fill:none;fill-opacity:1;stroke:#502d16;stroke-width:1.05833;stroke-linecap:round;stroke-linejoin:round;stroke-miterlimit:4;stroke-dasharray:none;stroke-opacity:1;paint-order:normal"
       d="m 137.7156,283.39534 c 0,0 0.88976,2.39146 0,4.86834"
       id="path6837"
       inkscape:connector-curvature="0" />
    <path
       id="path6839"
       style="fill:#afe9dd;stroke:#502d16;stroke-width:1.05833;stroke-linecap:round;stroke-linejoin:round"
       d="m 131.06125,263.60099 c -3.10598,-0.002 -5.78499,0.25352 -8.08943,0.65474 l 7.97006,5.22449 h 0.0537 l 7.98763,-5.23586 c -2.25157,-0.3917 -4.87297,-0.64147 -7.922,-0.64337 z m 11.36313,1.41903 -7.136,4.46381 15.53704,0.0119 c 0,0 -2.24692,-2.7315 -8.40104,-4.4757 z m -22.89834,0.008 c -6.19907,1.73556 -8.59534,4.43642 -8.59534,4.43642 l 15.70757,0.0124 z" />
    <path
       style="opacity:1;fill:#a05a2c;fill-opacity:1;stroke:#502d16;stroke-width:1.05833;stroke-linecap:round;stroke-linejoin:round;stroke-miterlimit:4;stroke-dasharray:none;stroke-opacity:1;paint-order:normal"
       d="m 157.69167,304.93749 h 12.43542 l 4.7625,-5.82083 V 271.3354 h 16.93333 v 27.78126 l 4.7625,5.82083 h 12.43541 v -33.60208 c 0,0 -7.40833,-9.78959 -25.66458,-9.78959 -18.25625,0 -25.66458,9.78959 -25.66458,9.78959 z"
       id="path8012"
       inkscape:connector-curvature="0"
       sodipodi:nodetypes="cccccccccscc" />
    <path
       style="opacity:1;fill:none;fill-opacity:1;stroke:#502d16;stroke-width:1.05833;stroke-linecap:round;stroke-linejoin:round;stroke-miterlimit:4;stroke-dasharray:none;stroke-opacity:1;paint-order:normal"
       d="m 157.82396,271.3354 h 51.06458"
       id="path8014"
       inkscape:connector-curvature="0"
       sodipodi:nodetypes="cc" />
    <path
       style="opacity:1;fill:none;fill-opacity:1;stroke:#502d16;stroke-width:1.05833;stroke-linecap:round;stroke-linejoin:round;stroke-miterlimit:4;stroke-dasharray:none;stroke-opacity:1;paint-order:normal"
       d="m 163.06271,277.19704 c 0,0 0.0941,1.81288 2.06928,1.81285 2.44552,-2e-5 2.44552,-2.17542 2.44552,-2.17542 0,0 0.18712,-3.2495 -3.3861,-3.26313 -3.76348,-0.0144 -3.95046,3.35378 -3.95046,3.35378 0,0 -0.37623,5.25726 3.76234,10.96774 4.13858,5.71049 3.57422,11.0584 3.57422,11.0584 0,0 -0.37623,3.17249 -3.57422,3.17249 -3.3861,0 -3.57422,-2.9912 -3.57422,-2.9912 0,0 -0.28218,-2.53799 2.35146,-2.53799 2.25741,0 2.25741,2.3567 2.25741,2.3567"
       id="path8016"
       inkscape:connector-curvature="0"
       sodipodi:nodetypes="cscscccscsc" />
    <path
       style="opacity:1;fill:none;fill-opacity:1;stroke:#502d16;stroke-width:1.05833;stroke-linecap:round;stroke-linejoin:round;stroke-miterlimit:4;stroke-dasharray:none;stroke-opacity:1;paint-order:normal"
       d="m 173.74747,282.6016 c 0,0 -0.71067,2.39146 0,4.86834"
       id="path8018"
       inkscape:connector-curvature="0" />
    <path
       sodipodi:nodetypes="cc"
       inkscape:connector-curvature="0"
       id="path8020"
       d="m 170.12703,271.34292 v 33.58704"
       style="opacity:1;fill:none;fill-opacity:1;stroke:#502d16;stroke-width:1.05833;stroke-linecap:round;stroke-linejoin:round;stroke-miterlimit:4;stroke-dasharray:none;stroke-opacity:1;paint-order:normal" />
    <path
       sodipodi:nodetypes="cc"
       inkscape:connector-curvature="0"
       id="path8022"
       d="m 196.58536,271.34292 v 33.58704"
       style="opacity:1;fill:none;fill-opacity:1;stroke:#502d16;stroke-width:1.05833;stroke-linecap:round;stroke-linejoin:round;stroke-miterlimit:4;stroke-dasharray:none;stroke-opacity:1;paint-order:normal" />
    <path
       style="opacity:1;fill:none;fill-opacity:1;stroke:#502d16;stroke-width:1.05833;stroke-linecap:round;stroke-linejoin:round;stroke-miterlimit:4;stroke-dasharray:none;stroke-opacity:1;paint-order:normal"
       d="m 203.66517,277.19704 c 0,0 -0.0941,1.81288 -2.06929,1.81285 -2.44552,-2e-5 -2.44552,-2.17542 -2.44552,-2.17542 0,0 -0.18712,-3.2495 3.38611,-3.26313 3.76348,-0.0144 3.95045,3.35378 3.95045,3.35378 0,0 0.37624,5.25726 -3.76234,10.96774 -4.13857,5.71049 -3.57422,11.0584 -3.57422,11.0584 0,0 0.37624,3.17249 3.57423,3.17249 3.3861,0 3.57421,-2.9912 3.57421,-2.9912 0,0 0.28218,-2.53799 -2.35146,-2.53799 -2.2574,0 -2.2574,2.3567 -2.2574,2.3567"
       id="path8024"
       inkscape:connector-curvature="0"
       sodipodi:nodetypes="cscscccscsc" />
    <path
       style="opacity:1;fill:none;fill-opacity:1;stroke:#502d16;stroke-width:1.05833;stroke-linecap:round;stroke-linejoin:round;stroke-miterlimit:4;stroke-dasharray:none;stroke-opacity:1;paint-order:normal"
       d="m 193.01351,282.6016 c 0,0 0.71068,2.39146 0,4.86834"
       id="path8026"
       inkscape:connector-curvature="0" />
    <path
       id="path8028"
       style="fill:#afe9dd;stroke:#502d16;stroke-width:1.05833;stroke-linecap:round;stroke-linejoin:round"
       d="m 183.44875,263.60099 c -3.10598,-0.002 -5.78499,0.25352 -8.08943,0.65474 l 7.97006,5.22449 h 0.0537 l 7.98763,-5.23586 c -2.25157,-0.3917 -4.87297,-0.64147 -7.922,-0.64337 z m 11.36313,1.41903 -7.136,4.46381 15.53704,0.0119 c 0,0 -2.24692,-2.7315 -8.40104,-4.4757 z m -22.89834,0.008 c -6.19907,1.73556 -8.59534,4.43642 -8.59534,4.43642 l 15.70757,0.0124 z" />
  </g>
</svg>
