<?xml version="1.0" encoding="UTF-8" standalone="no"?>
<!-- Created with Inkscape (http://www.inkscape.org/) -->

<svg
   xmlns:dc="http://purl.org/dc/elements/1.1/"
   xmlns:cc="http://creativecommons.org/ns#"
   xmlns:rdf="http://www.w3.org/1999/02/22-rdf-syntax-ns#"
   xmlns:svg="http://www.w3.org/2000/svg"
   xmlns="http://www.w3.org/2000/svg"
   xmlns:sodipodi="http://sodipodi.sourceforge.net/DTD/sodipodi-0.dtd"
   xmlns:inkscape="http://www.inkscape.org/namespaces/inkscape"
   width="790"
   height="136"
   viewBox="0 0 209.02083 35.983335"
   version="1.1"
   id="svg8"
   inkscape:version="0.92.5 (2060ec1f9f, 2020-04-08)"
   sodipodi:docname="door2.svg"
   inkscape:export-filename="/home/victor/Projects/cogmura/data/img/obj/door2.png"
   inkscape:export-xdpi="96"
   inkscape:export-ydpi="96">
  <defs
     id="defs2" />
  <sodipodi:namedview
     id="base"
     pagecolor="#ffffff"
     bordercolor="#666666"
     borderopacity="1.0"
     inkscape:pageopacity="0.0"
     inkscape:pageshadow="2"
     inkscape:zoom="1"
     inkscape:cx="538.14333"
     inkscape:cy="67.586408"
     inkscape:document-units="px"
     inkscape:current-layer="layer1"
     showgrid="false"
     units="px"
     inkscape:pagecheckerboard="true"
     inkscape:showpageshadow="false"
     inkscape:window-width="1920"
     inkscape:window-height="1015"
     inkscape:window-x="0"
     inkscape:window-y="0"
     inkscape:window-maximized="1"
     inkscape:snap-global="false" />
  <metadata
     id="metadata5">
    <rdf:RDF>
      <cc:Work
         rdf:about="">
        <dc:format>image/svg+xml</dc:format>
        <dc:type
           rdf:resource="http://purl.org/dc/dcmitype/StillImage" />
        <dc:title></dc:title>
      </cc:Work>
    </rdf:RDF>
  </metadata>
  <g
     inkscape:label="Layer 1"
     inkscape:groupmode="layer"
     id="layer1"
     transform="translate(0,-261.01665)">
    <path
       inkscape:connector-curvature="0"
       id="path1493"
       d="m 42.333334,296.47082 h 9.789583 l 8.202084,-2.64584 V 271.3354 h 4.7625 v 22.48958 l 8.202083,2.64584 h 9.789583 v -25.13541 c 0,0 -2.116666,-9.78959 -20.372916,-9.78959 -18.25625,0 -20.372917,9.78959 -20.372917,9.78959 z"
       style="opacity:1;fill:#a05a2c;fill-opacity:1;stroke:#502d16;stroke-width:1.0583334;stroke-linecap:round;stroke-linejoin:round;stroke-miterlimit:4;stroke-dasharray:none;stroke-opacity:1;paint-order:normal"
       sodipodi:nodetypes="cccccccccscc" />
    <path
       sodipodi:nodetypes="cc"
       inkscape:connector-curvature="0"
       id="path1495"
       d="m 42.465626,271.3354 h 40.48125"
       style="opacity:1;fill:none;fill-opacity:1;stroke:#502d16;stroke-width:1.0583334;stroke-linecap:round;stroke-linejoin:round;stroke-miterlimit:4;stroke-dasharray:none;stroke-opacity:1;paint-order:normal" />
    <path
       sodipodi:nodetypes="cccc"
       inkscape:connector-curvature="0"
       id="path1503"
       d="m 60.04863,269.79915 -14.690347,0.0474 c 0,0 1.990305,-3.60151 8.435102,-5.35487 z"
       style="opacity:1;fill:#afe9dd;fill-opacity:1;stroke:#502d16;stroke-width:1.0583334;stroke-linecap:round;stroke-linejoin:round;stroke-miterlimit:4;stroke-dasharray:none;stroke-opacity:1;paint-order:normal" />
    <path
       sodipodi:nodetypes="cccsc"
       inkscape:connector-curvature="0"
       id="path1505"
       d="m 56.826231,263.82823 5.828751,5.35487 5.970915,-5.26009 c 0,0 -2.179858,-0.61605 -5.970915,-0.61605 -3.791057,0 -5.828751,0.52127 -5.828751,0.52127 z"
       style="opacity:1;fill:#afe9dd;fill-opacity:1;stroke:#502d16;stroke-width:1.0583334;stroke-linecap:round;stroke-linejoin:round;stroke-miterlimit:4;stroke-dasharray:none;stroke-opacity:1;paint-order:normal" />
    <path
       style="opacity:1;fill:#afe9dd;fill-opacity:1;stroke:#502d16;stroke-width:1.0583334;stroke-linecap:round;stroke-linejoin:round;stroke-miterlimit:4;stroke-dasharray:none;stroke-opacity:1;paint-order:normal"
       d="m 65.466562,269.79915 14.690346,0.0474 c 0,0 -1.990305,-3.60151 -8.435101,-5.35487 z"
       id="path1507"
       inkscape:connector-curvature="0"
       sodipodi:nodetypes="cccc" />
    <path
       sodipodi:nodetypes="cscscccscsc"
       inkscape:connector-curvature="0"
       id="path1509"
       d="m 46.623851,276.24857 c 0,0 0.06694,1.33882 1.472681,1.3388 1.740442,-2e-5 1.740442,-1.60656 1.740442,-1.60656 0,0 0.133169,-2.39978 -2.409842,-2.40984 -2.678417,-0.0106 -2.811483,2.47678 -2.811483,2.47678 0,0 -0.26776,3.88252 2.677603,8.09974 2.945362,4.21723 2.543722,8.16669 2.543722,8.16669 0,0 -0.267761,2.3429 -2.543723,2.3429 -2.409842,0 -2.543721,-2.20902 -2.543721,-2.20902 0,0 -0.200821,-1.87432 1.673501,-1.87432 1.606561,0 1.606561,1.74044 1.606561,1.74044"
       style="opacity:1;fill:none;fill-opacity:1;stroke:#502d16;stroke-width:1.0583334;stroke-linecap:round;stroke-linejoin:round;stroke-miterlimit:4;stroke-dasharray:none;stroke-opacity:1;paint-order:normal" />
    <path
       style="opacity:1;fill:none;fill-opacity:1;stroke:#502d16;stroke-width:1.0583334;stroke-linecap:round;stroke-linejoin:round;stroke-miterlimit:4;stroke-dasharray:none;stroke-opacity:1;paint-order:normal"
       d="m 78.795964,276.24857 c 0,0 -0.06694,1.33882 -1.472681,1.3388 -1.740442,-2e-5 -1.740442,-1.60656 -1.740442,-1.60656 0,0 -0.133169,-2.39978 2.409842,-2.40984 2.678416,-0.0106 2.811482,2.47678 2.811482,2.47678 0,0 0.26776,3.88252 -2.677602,8.09974 -2.945362,4.21723 -2.543722,8.16669 -2.543722,8.16669 0,0 0.267761,2.3429 2.543722,2.3429 2.409842,0 2.543721,-2.20902 2.543721,-2.20902 0,0 0.200821,-1.87432 -1.673501,-1.87432 -1.60656,0 -1.60656,1.74044 -1.60656,1.74044"
       id="path1511"
       inkscape:connector-curvature="0"
       sodipodi:nodetypes="cscscccscsc" />
    <path
       inkscape:connector-curvature="0"
       id="path1513"
       d="m 58.832358,281.27861 c 0,0 -0.870221,1.87432 0,3.81559"
       style="opacity:1;fill:none;fill-opacity:1;stroke:#502d16;stroke-width:1.0583334;stroke-linecap:round;stroke-linejoin:round;stroke-miterlimit:4;stroke-dasharray:none;stroke-opacity:1;paint-order:normal" />
    <path
       style="opacity:1;fill:none;fill-opacity:1;stroke:#502d16;stroke-width:1.0583334;stroke-linecap:round;stroke-linejoin:round;stroke-miterlimit:4;stroke-dasharray:none;stroke-opacity:1;paint-order:normal"
       d="m 66.466536,281.27861 c 0,0 0.870221,1.87432 0,3.81559"
       id="path1515"
       inkscape:connector-curvature="0" />
    <path
       style="opacity:1;fill:none;fill-opacity:1;stroke:#502d16;stroke-width:1.0583334;stroke-linecap:round;stroke-linejoin:round;stroke-miterlimit:4;stroke-dasharray:none;stroke-opacity:1;paint-order:normal"
       d="m 52.122866,271.34292 v 25.12037"
       id="path1517"
       inkscape:connector-curvature="0"
       sodipodi:nodetypes="cc" />
    <path
       style="opacity:1;fill:none;fill-opacity:1;stroke:#502d16;stroke-width:1.0583334;stroke-linecap:round;stroke-linejoin:round;stroke-miterlimit:4;stroke-dasharray:none;stroke-opacity:1;paint-order:normal"
       d="m 73.28953,271.34292 v 25.12037"
       id="path1519"
       inkscape:connector-curvature="0"
       sodipodi:nodetypes="cc" />
    <path
       style="opacity:1;fill:#a05a2c;fill-opacity:1;stroke:#502d16;stroke-width:1.0583334;stroke-linecap:round;stroke-linejoin:round;stroke-miterlimit:4;stroke-dasharray:none;stroke-opacity:1;paint-order:normal"
       d="M 0.5291667,296.47082 H 41.275 v -25.13541 c 0,0 -2.116666,-9.78959 -20.372916,-9.78959 -18.2562503,0 -20.3729173,9.78959 -20.3729173,9.78959 z"
       id="path1521"
       inkscape:connector-curvature="0" />
    <path
       style="opacity:1;fill:none;fill-opacity:1;stroke:#502d16;stroke-width:1.0583334;stroke-linecap:round;stroke-linejoin:round;stroke-miterlimit:4;stroke-dasharray:none;stroke-opacity:1;paint-order:normal"
       d="M 0.6614587,271.3354 H 41.142709"
       id="path1523"
       inkscape:connector-curvature="0"
       sodipodi:nodetypes="cc" />
    <path
       style="opacity:1;fill:none;fill-opacity:1;stroke:#502d16;stroke-width:1.0583334;stroke-linecap:round;stroke-linejoin:round;stroke-miterlimit:4;stroke-dasharray:none;stroke-opacity:1;paint-order:normal"
       d="m 20.902031,271.34292 v 25.12037"
       id="path1525"
       inkscape:connector-curvature="0"
       sodipodi:nodetypes="cc" />
    <path
       style="opacity:1;fill:#afe9dd;fill-opacity:1;stroke:#502d16;stroke-width:1.0583334;stroke-linecap:round;stroke-linejoin:round;stroke-miterlimit:4;stroke-dasharray:none;stroke-opacity:1;paint-order:normal"
       d="m 18.244463,269.79915 -14.6903473,0.0474 c 0,0 1.990305,-3.60151 8.4351023,-5.35487 z"
       id="path1527"
       inkscape:connector-curvature="0"
       sodipodi:nodetypes="cccc" />
    <path
       style="opacity:1;fill:#afe9dd;fill-opacity:1;stroke:#502d16;stroke-width:1.0583334;stroke-linecap:round;stroke-linejoin:round;stroke-miterlimit:4;stroke-dasharray:none;stroke-opacity:1;paint-order:normal"
       d="m 15.022064,263.82823 5.828751,5.35487 5.970915,-5.26009 c 0,0 -2.179858,-0.61605 -5.970915,-0.61605 -3.791057,0 -5.828751,0.52127 -5.828751,0.52127 z"
       id="path1529"
       inkscape:connector-curvature="0"
       sodipodi:nodetypes="cccsc" />
    <path
       sodipodi:nodetypes="cccc"
       inkscape:connector-curvature="0"
       id="path1531"
       d="m 23.662395,269.79915 14.690346,0.0474 c 0,0 -1.990305,-3.60151 -8.435101,-5.35487 z"
       style="opacity:1;fill:#afe9dd;fill-opacity:1;stroke:#502d16;stroke-width:1.0583334;stroke-linecap:round;stroke-linejoin:round;stroke-miterlimit:4;stroke-dasharray:none;stroke-opacity:1;paint-order:normal" />
    <path
       style="opacity:1;fill:none;fill-opacity:1;stroke:#502d16;stroke-width:1.0583334;stroke-linecap:round;stroke-linejoin:round;stroke-miterlimit:4;stroke-dasharray:none;stroke-opacity:1;paint-order:normal"
       d="m 4.8196837,276.24857 c 0,0 0.06694,1.33882 1.472681,1.3388 1.740442,-2e-5 1.740442,-1.60656 1.740442,-1.60656 0,0 0.133169,-2.39978 -2.409842,-2.40984 -2.678417,-0.0106 -2.811483,2.47678 -2.811483,2.47678 0,0 -0.26776,3.88252 2.677603,8.09974 2.945362,4.21723 2.543722,8.16669 2.543722,8.16669 0,0 -0.267761,2.3429 -2.543723,2.3429 -2.409842,0 -2.543721,-2.20902 -2.543721,-2.20902 0,0 -0.200821,-1.87432 1.673501,-1.87432 1.606561,0 1.606561,1.74044 1.606561,1.74044"
       id="path1533"
       inkscape:connector-curvature="0"
       sodipodi:nodetypes="cscscccscsc" />
    <path
       sodipodi:nodetypes="cscscccscsc"
       inkscape:connector-curvature="0"
       id="path1535"
       d="m 36.991797,276.24857 c 0,0 -0.06694,1.33882 -1.472681,1.3388 -1.740442,-2e-5 -1.740442,-1.60656 -1.740442,-1.60656 0,0 -0.133169,-2.39978 2.409842,-2.40984 2.678416,-0.0106 2.811482,2.47678 2.811482,2.47678 0,0 0.26776,3.88252 -2.677602,8.09974 -2.945362,4.21723 -2.543722,8.16669 -2.543722,8.16669 0,0 0.267761,2.3429 2.543722,2.3429 2.409842,0 2.543721,-2.20902 2.543721,-2.20902 0,0 0.200821,-1.87432 -1.673501,-1.87432 -1.60656,0 -1.60656,1.74044 -1.60656,1.74044"
       style="opacity:1;fill:none;fill-opacity:1;stroke:#502d16;stroke-width:1.0583334;stroke-linecap:round;stroke-linejoin:round;stroke-miterlimit:4;stroke-dasharray:none;stroke-opacity:1;paint-order:normal" />
    <path
       style="opacity:1;fill:none;fill-opacity:1;stroke:#502d16;stroke-width:1.0583334;stroke-linecap:round;stroke-linejoin:round;stroke-miterlimit:4;stroke-dasharray:none;stroke-opacity:1;paint-order:normal"
       d="m 19.144855,282.07235 c 0,0 -0.870221,1.87432 0,3.81559"
       id="path1537"
       inkscape:connector-curvature="0" />
    <path
       inkscape:connector-curvature="0"
       id="path1539"
       d="m 22.545705,282.07235 c 0,0 0.870221,1.87432 0,3.81559"
       style="opacity:1;fill:none;fill-opacity:1;stroke:#502d16;stroke-width:1.0583334;stroke-linecap:round;stroke-linejoin:round;stroke-miterlimit:4;stroke-dasharray:none;stroke-opacity:1;paint-order:normal" />
    <path
       sodipodi:nodetypes="cc"
       inkscape:connector-curvature="0"
       id="path1541"
       d="m 10.318699,271.34292 v 25.12037"
       style="opacity:1;fill:none;fill-opacity:1;stroke:#502d16;stroke-width:1.0583334;stroke-linecap:round;stroke-linejoin:round;stroke-miterlimit:4;stroke-dasharray:none;stroke-opacity:1;paint-order:normal" />
    <path
       sodipodi:nodetypes="cc"
       inkscape:connector-curvature="0"
       id="path1543"
       d="m 31.485363,271.34292 v 25.12037"
       style="opacity:1;fill:none;fill-opacity:1;stroke:#502d16;stroke-width:1.0583334;stroke-linecap:round;stroke-linejoin:round;stroke-miterlimit:4;stroke-dasharray:none;stroke-opacity:1;paint-order:normal" />
    <path
       sodipodi:nodetypes="cccccccccscc"
       style="opacity:1;fill:#a05a2c;fill-opacity:1;stroke:#502d16;stroke-width:1.0583334;stroke-linecap:round;stroke-linejoin:round;stroke-miterlimit:4;stroke-dasharray:none;stroke-opacity:1;paint-order:normal"
       d="m 84.137501,296.47082 h 9.789583 l 7.408336,-4.23334 V 271.3354 h 6.35 v 20.90208 l 7.40833,4.23334 h 9.78958 v -25.13541 c 0,0 -2.11666,-9.78959 -20.37291,-9.78959 -18.256252,0 -20.372919,9.78959 -20.372919,9.78959 z"
       id="path1545"
       inkscape:connector-curvature="0" />
    <path
       style="opacity:1;fill:none;fill-opacity:1;stroke:#502d16;stroke-width:1.0583334;stroke-linecap:round;stroke-linejoin:round;stroke-miterlimit:4;stroke-dasharray:none;stroke-opacity:1;paint-order:normal"
       d="M 84.269793,271.3354 H 124.75104"
       id="path1547"
       inkscape:connector-curvature="0"
       sodipodi:nodetypes="cc" />
    <path
       style="opacity:1;fill:#afe9dd;fill-opacity:1;stroke:#502d16;stroke-width:1.0583334;stroke-linecap:round;stroke-linejoin:round;stroke-miterlimit:4;stroke-dasharray:none;stroke-opacity:1;paint-order:normal"
       d="m 101.8528,269.79915 -14.69035,0.0474 c 0,0 1.990305,-3.60151 8.435102,-5.35487 z"
       id="path1549"
       inkscape:connector-curvature="0"
       sodipodi:nodetypes="cccc" />
    <path
       style="opacity:1;fill:#afe9dd;fill-opacity:1;stroke:#502d16;stroke-width:1.0583334;stroke-linecap:round;stroke-linejoin:round;stroke-miterlimit:4;stroke-dasharray:none;stroke-opacity:1;paint-order:normal"
       d="m 98.630398,263.82823 5.828752,5.35487 5.97091,-5.26009 c 0,0 -2.17985,-0.61605 -5.97091,-0.61605 -3.79106,0 -5.828752,0.52127 -5.828752,0.52127 z"
       id="path1551"
       inkscape:connector-curvature="0"
       sodipodi:nodetypes="cccsc" />
    <path
       sodipodi:nodetypes="cccc"
       inkscape:connector-curvature="0"
       id="path1553"
       d="m 107.27073,269.79915 14.69035,0.0474 c 0,0 -1.99031,-3.60151 -8.43511,-5.35487 z"
       style="opacity:1;fill:#afe9dd;fill-opacity:1;stroke:#502d16;stroke-width:1.0583334;stroke-linecap:round;stroke-linejoin:round;stroke-miterlimit:4;stroke-dasharray:none;stroke-opacity:1;paint-order:normal" />
    <path
       style="opacity:1;fill:none;fill-opacity:1;stroke:#502d16;stroke-width:1.0583334;stroke-linecap:round;stroke-linejoin:round;stroke-miterlimit:4;stroke-dasharray:none;stroke-opacity:1;paint-order:normal"
       d="m 88.428018,276.24857 c 0,0 0.06694,1.33882 1.472681,1.3388 1.740442,-2e-5 1.740442,-1.60656 1.740442,-1.60656 0,0 0.133169,-2.39978 -2.409842,-2.40984 -2.678417,-0.0106 -2.811483,2.47678 -2.811483,2.47678 0,0 -0.26776,3.88252 2.677603,8.09974 2.945362,4.21723 2.543722,8.16669 2.543722,8.16669 0,0 -0.267761,2.3429 -2.543723,2.3429 -2.409842,0 -2.543721,-2.20902 -2.543721,-2.20902 0,0 -0.200821,-1.87432 1.673501,-1.87432 1.606561,0 1.606561,1.74044 1.606561,1.74044"
       id="path1555"
       inkscape:connector-curvature="0"
       sodipodi:nodetypes="cscscccscsc" />
    <path
       sodipodi:nodetypes="cscscccscsc"
       inkscape:connector-curvature="0"
       id="path1557"
       d="m 120.60013,276.24857 c 0,0 -0.0669,1.33882 -1.47268,1.3388 -1.74044,-2e-5 -1.74044,-1.60656 -1.74044,-1.60656 0,0 -0.13317,-2.39978 2.40984,-2.40984 2.67842,-0.0106 2.81148,2.47678 2.81148,2.47678 0,0 0.26776,3.88252 -2.6776,8.09974 -2.94536,4.21723 -2.54372,8.16669 -2.54372,8.16669 0,0 0.26776,2.3429 2.54372,2.3429 2.40984,0 2.54372,-2.20902 2.54372,-2.20902 0,0 0.20082,-1.87432 -1.6735,-1.87432 -1.60656,0 -1.60656,1.74044 -1.60656,1.74044"
       style="opacity:1;fill:none;fill-opacity:1;stroke:#502d16;stroke-width:1.0583334;stroke-linecap:round;stroke-linejoin:round;stroke-miterlimit:4;stroke-dasharray:none;stroke-opacity:1;paint-order:normal" />
    <path
       style="opacity:1;fill:none;fill-opacity:1;stroke:#502d16;stroke-width:1.0583334;stroke-linecap:round;stroke-linejoin:round;stroke-miterlimit:4;stroke-dasharray:none;stroke-opacity:1;paint-order:normal"
       d="m 99.842787,280.74945 c 0,0 -0.870232,1.87432 0,3.81559"
       id="path1559"
       inkscape:connector-curvature="0" />
    <path
       inkscape:connector-curvature="0"
       id="path1561"
       d="m 109.06444,280.74945 c 0,0 0.87022,1.87432 0,3.81559"
       style="opacity:1;fill:none;fill-opacity:1;stroke:#502d16;stroke-width:1.0583334;stroke-linecap:round;stroke-linejoin:round;stroke-miterlimit:4;stroke-dasharray:none;stroke-opacity:1;paint-order:normal" />
    <path
       sodipodi:nodetypes="cc"
       inkscape:connector-curvature="0"
       id="path1563"
       d="m 93.927033,271.34292 v 25.12037"
       style="opacity:1;fill:none;fill-opacity:1;stroke:#502d16;stroke-width:1.0583334;stroke-linecap:round;stroke-linejoin:round;stroke-miterlimit:4;stroke-dasharray:none;stroke-opacity:1;paint-order:normal" />
    <path
       sodipodi:nodetypes="cc"
       inkscape:connector-curvature="0"
       id="path1565"
       d="m 115.0937,271.34292 v 25.12037"
       style="opacity:1;fill:none;fill-opacity:1;stroke:#502d16;stroke-width:1.0583334;stroke-linecap:round;stroke-linejoin:round;stroke-miterlimit:4;stroke-dasharray:none;stroke-opacity:1;paint-order:normal" />
    <path
       inkscape:connector-curvature="0"
       id="path1567"
       d="m 125.94167,296.47082 h 9.78958 l 5.82084,-5.29167 V 271.3354 h 9.525 v 19.84375 l 5.82083,5.29167 h 9.78958 v -25.13541 c 0,0 -2.11666,-9.78959 -20.37291,-9.78959 -18.25625,0 -20.37292,9.78959 -20.37292,9.78959 z"
       style="opacity:1;fill:#a05a2c;fill-opacity:1;stroke:#502d16;stroke-width:1.0583334;stroke-linecap:round;stroke-linejoin:round;stroke-miterlimit:4;stroke-dasharray:none;stroke-opacity:1;paint-order:normal"
       sodipodi:nodetypes="cccccccccscc" />
    <path
       sodipodi:nodetypes="cc"
       inkscape:connector-curvature="0"
       id="path1569"
       d="m 126.07396,271.3354 h 40.48125"
       style="opacity:1;fill:none;fill-opacity:1;stroke:#502d16;stroke-width:1.0583334;stroke-linecap:round;stroke-linejoin:round;stroke-miterlimit:4;stroke-dasharray:none;stroke-opacity:1;paint-order:normal" />
    <path
       sodipodi:nodetypes="cccc"
       inkscape:connector-curvature="0"
       id="path1571"
       d="m 143.65697,269.79915 -14.69035,0.0474 c 0,0 1.9903,-3.60151 8.4351,-5.35487 z"
       style="opacity:1;fill:#afe9dd;fill-opacity:1;stroke:#502d16;stroke-width:1.0583334;stroke-linecap:round;stroke-linejoin:round;stroke-miterlimit:4;stroke-dasharray:none;stroke-opacity:1;paint-order:normal" />
    <path
       sodipodi:nodetypes="cccsc"
       inkscape:connector-curvature="0"
       id="path1573"
       d="m 140.43457,263.82823 5.82875,5.35487 5.97091,-5.26009 c 0,0 -2.17985,-0.61605 -5.97091,-0.61605 -3.79106,0 -5.82875,0.52127 -5.82875,0.52127 z"
       style="opacity:1;fill:#afe9dd;fill-opacity:1;stroke:#502d16;stroke-width:1.0583334;stroke-linecap:round;stroke-linejoin:round;stroke-miterlimit:4;stroke-dasharray:none;stroke-opacity:1;paint-order:normal" />
    <path
       style="opacity:1;fill:#afe9dd;fill-opacity:1;stroke:#502d16;stroke-width:1.0583334;stroke-linecap:round;stroke-linejoin:round;stroke-miterlimit:4;stroke-dasharray:none;stroke-opacity:1;paint-order:normal"
       d="m 149.0749,269.79915 14.69035,0.0474 c 0,0 -1.99031,-3.60151 -8.43511,-5.35487 z"
       id="path1575"
       inkscape:connector-curvature="0"
       sodipodi:nodetypes="cccc" />
    <path
       sodipodi:nodetypes="cscscccscsc"
       inkscape:connector-curvature="0"
       id="path1577"
       d="m 130.23219,276.24857 c 0,0 0.0669,1.33882 1.47268,1.3388 1.74044,-2e-5 1.74044,-1.60656 1.74044,-1.60656 0,0 0.13317,-2.39978 -2.40984,-2.40984 -2.67842,-0.0106 -2.81149,2.47678 -2.81149,2.47678 0,0 -0.26776,3.88252 2.67761,8.09974 2.94536,4.21723 2.54372,8.16669 2.54372,8.16669 0,0 -0.26776,2.3429 -2.54372,2.3429 -2.40985,0 -2.54373,-2.20902 -2.54373,-2.20902 0,0 -0.20082,-1.87432 1.67351,-1.87432 1.60656,0 1.60656,1.74044 1.60656,1.74044"
       style="opacity:1;fill:none;fill-opacity:1;stroke:#502d16;stroke-width:1.0583334;stroke-linecap:round;stroke-linejoin:round;stroke-miterlimit:4;stroke-dasharray:none;stroke-opacity:1;paint-order:normal" />
    <path
       style="opacity:1;fill:none;fill-opacity:1;stroke:#502d16;stroke-width:1.0583334;stroke-linecap:round;stroke-linejoin:round;stroke-miterlimit:4;stroke-dasharray:none;stroke-opacity:1;paint-order:normal"
       d="m 162.4043,276.24857 c 0,0 -0.0669,1.33882 -1.47268,1.3388 -1.74044,-2e-5 -1.74044,-1.60656 -1.74044,-1.60656 0,0 -0.13317,-2.39978 2.40984,-2.40984 2.67842,-0.0106 2.81148,2.47678 2.81148,2.47678 0,0 0.26776,3.88252 -2.6776,8.09974 -2.94536,4.21723 -2.54372,8.16669 -2.54372,8.16669 0,0 0.26776,2.3429 2.54372,2.3429 2.40984,0 2.54372,-2.20902 2.54372,-2.20902 0,0 0.20082,-1.87432 -1.6735,-1.87432 -1.60656,0 -1.60656,1.74044 -1.60656,1.74044"
       id="path1579"
       inkscape:connector-curvature="0"
       sodipodi:nodetypes="cscscccscsc" />
    <path
       inkscape:connector-curvature="0"
       id="path1581"
       d="m 140.32405,279.95571 c 0,0 -0.66941,2.0082 0,3.81559"
       style="opacity:1;fill:none;fill-opacity:1;stroke:#502d16;stroke-width:1.0583334;stroke-linecap:round;stroke-linejoin:round;stroke-miterlimit:4;stroke-dasharray:none;stroke-opacity:1;paint-order:normal"
       sodipodi:nodetypes="cc" />
    <path
       style="opacity:1;fill:none;fill-opacity:1;stroke:#502d16;stroke-width:1.0583334;stroke-linecap:round;stroke-linejoin:round;stroke-miterlimit:4;stroke-dasharray:none;stroke-opacity:1;paint-order:normal"
       d="m 152.27092,279.95571 c 0,0 0.6694,1.94126 0,3.81559"
       id="path1583"
       inkscape:connector-curvature="0"
       sodipodi:nodetypes="cc" />
    <path
       style="opacity:1;fill:none;fill-opacity:1;stroke:#502d16;stroke-width:1.0583334;stroke-linecap:round;stroke-linejoin:round;stroke-miterlimit:4;stroke-dasharray:none;stroke-opacity:1;paint-order:normal"
       d="m 135.7312,271.34292 v 25.12037"
       id="path1585"
       inkscape:connector-curvature="0"
       sodipodi:nodetypes="cc" />
    <path
       style="opacity:1;fill:none;fill-opacity:1;stroke:#502d16;stroke-width:1.0583334;stroke-linecap:round;stroke-linejoin:round;stroke-miterlimit:4;stroke-dasharray:none;stroke-opacity:1;paint-order:normal"
       d="m 156.89787,271.34292 v 25.12037"
       id="path1587"
       inkscape:connector-curvature="0"
       sodipodi:nodetypes="cc" />
    <path
       sodipodi:nodetypes="cccccccccscc"
       style="opacity:1;fill:#a05a2c;fill-opacity:1;stroke:#502d16;stroke-width:1.0583334;stroke-linecap:round;stroke-linejoin:round;stroke-miterlimit:4;stroke-dasharray:none;stroke-opacity:1;paint-order:normal"
       d="m 167.74579,296.47082 h 9.78958 l 3.17501,-5.82084 V 271.3354 h 14.81666 v 19.31458 l 3.175,5.82084 h 9.78958 v -25.13541 c 0,0 -2.11666,-9.78959 -20.37291,-9.78959 -18.25625,0 -20.37292,9.78959 -20.37292,9.78959 z"
       id="path1611"
       inkscape:connector-curvature="0" />
    <path
       style="opacity:1;fill:none;fill-opacity:1;stroke:#502d16;stroke-width:1.0583334;stroke-linecap:round;stroke-linejoin:round;stroke-miterlimit:4;stroke-dasharray:none;stroke-opacity:1;paint-order:normal"
       d="m 167.87808,271.3354 h 40.48125"
       id="path1613"
       inkscape:connector-curvature="0"
       sodipodi:nodetypes="cc" />
    <path
       style="opacity:1;fill:#afe9dd;fill-opacity:1;stroke:#502d16;stroke-width:1.0583334;stroke-linecap:round;stroke-linejoin:round;stroke-miterlimit:4;stroke-dasharray:none;stroke-opacity:1;paint-order:normal"
       d="m 185.46109,269.79915 -14.69035,0.0474 c 0,0 1.9903,-3.60151 8.4351,-5.35487 z"
       id="path1615"
       inkscape:connector-curvature="0"
       sodipodi:nodetypes="cccc" />
    <path
       style="opacity:1;fill:#afe9dd;fill-opacity:1;stroke:#502d16;stroke-width:1.0583334;stroke-linecap:round;stroke-linejoin:round;stroke-miterlimit:4;stroke-dasharray:none;stroke-opacity:1;paint-order:normal"
       d="m 182.23869,263.82823 5.82875,5.35487 5.97091,-5.26009 c 0,0 -2.17985,-0.61605 -5.97091,-0.61605 -3.79106,0 -5.82875,0.52127 -5.82875,0.52127 z"
       id="path1617"
       inkscape:connector-curvature="0"
       sodipodi:nodetypes="cccsc" />
    <path
       sodipodi:nodetypes="cccc"
       inkscape:connector-curvature="0"
       id="path1619"
       d="m 190.87902,269.79915 14.69035,0.0474 c 0,0 -1.99031,-3.60151 -8.43511,-5.35487 z"
       style="opacity:1;fill:#afe9dd;fill-opacity:1;stroke:#502d16;stroke-width:1.0583334;stroke-linecap:round;stroke-linejoin:round;stroke-miterlimit:4;stroke-dasharray:none;stroke-opacity:1;paint-order:normal" />
    <path
       style="opacity:1;fill:none;fill-opacity:1;stroke:#502d16;stroke-width:1.0583334;stroke-linecap:round;stroke-linejoin:round;stroke-miterlimit:4;stroke-dasharray:none;stroke-opacity:1;paint-order:normal"
       d="m 172.03631,276.24857 c 0,0 0.0669,1.33882 1.47268,1.3388 1.74044,-2e-5 1.74044,-1.60656 1.74044,-1.60656 0,0 0.13317,-2.39978 -2.40984,-2.40984 -2.67842,-0.0106 -2.81149,2.47678 -2.81149,2.47678 0,0 -0.26776,3.88252 2.67761,8.09974 2.94536,4.21723 2.54372,8.16669 2.54372,8.16669 0,0 -0.26776,2.3429 -2.54372,2.3429 -2.40985,0 -2.54373,-2.20902 -2.54373,-2.20902 0,0 -0.20082,-1.87432 1.67351,-1.87432 1.60656,0 1.60656,1.74044 1.60656,1.74044"
       id="path1621"
       inkscape:connector-curvature="0"
       sodipodi:nodetypes="cscscccscsc" />
    <path
       sodipodi:nodetypes="cscscccscsc"
       inkscape:connector-curvature="0"
       id="path1623"
       d="m 204.20842,276.24857 c 0,0 -0.0669,1.33882 -1.47268,1.3388 -1.74044,-2e-5 -1.74044,-1.60656 -1.74044,-1.60656 0,0 -0.13317,-2.39978 2.40984,-2.40984 2.67842,-0.0106 2.81148,2.47678 2.81148,2.47678 0,0 0.26776,3.88252 -2.6776,8.09974 -2.94536,4.21723 -2.54372,8.16669 -2.54372,8.16669 0,0 0.26776,2.3429 2.54372,2.3429 2.40984,0 2.54372,-2.20902 2.54372,-2.20902 0,0 0.20082,-1.87432 -1.6735,-1.87432 -1.60656,0 -1.60656,1.74044 -1.60656,1.74044"
       style="opacity:1;fill:none;fill-opacity:1;stroke:#502d16;stroke-width:1.0583334;stroke-linecap:round;stroke-linejoin:round;stroke-miterlimit:4;stroke-dasharray:none;stroke-opacity:1;paint-order:normal" />
    <path
       style="opacity:1;fill:none;fill-opacity:1;stroke:#502d16;stroke-width:1.0583334;stroke-linecap:round;stroke-linejoin:round;stroke-miterlimit:4;stroke-dasharray:none;stroke-opacity:1;paint-order:normal"
       d="m 180.0115,279.95571 c 0,0 -0.46859,1.94126 0,3.81559"
       id="path1625"
       inkscape:connector-curvature="0"
       sodipodi:nodetypes="cc" />
    <path
       sodipodi:nodetypes="cc"
       inkscape:connector-curvature="0"
       id="path1629"
       d="m 177.53532,271.34292 v 25.12037"
       style="opacity:1;fill:none;fill-opacity:1;stroke:#502d16;stroke-width:1.0583334;stroke-linecap:round;stroke-linejoin:round;stroke-miterlimit:4;stroke-dasharray:none;stroke-opacity:1;paint-order:normal" />
    <path
       sodipodi:nodetypes="cc"
       inkscape:connector-curvature="0"
       id="path1631"
       d="m 198.70199,271.34292 v 25.12037"
       style="opacity:1;fill:none;fill-opacity:1;stroke:#502d16;stroke-width:1.0583334;stroke-linecap:round;stroke-linejoin:round;stroke-miterlimit:4;stroke-dasharray:none;stroke-opacity:1;paint-order:normal" />
    <path
       sodipodi:nodetypes="cc"
       inkscape:connector-curvature="0"
       id="path1633"
       d="m 196.20656,279.95571 c 0,0 0.46859,1.94126 0,3.81559"
       style="opacity:1;fill:none;fill-opacity:1;stroke:#502d16;stroke-width:1.0583334;stroke-linecap:round;stroke-linejoin:round;stroke-miterlimit:4;stroke-dasharray:none;stroke-opacity:1;paint-order:normal" />
  </g>
</svg>
