<?xml version="1.0" encoding="UTF-8" standalone="no"?>
<!-- Created with Inkscape (http://www.inkscape.org/) -->

<svg
   xmlns:dc="http://purl.org/dc/elements/1.1/"
   xmlns:cc="http://creativecommons.org/ns#"
   xmlns:rdf="http://www.w3.org/1999/02/22-rdf-syntax-ns#"
   xmlns:svg="http://www.w3.org/2000/svg"
   xmlns="http://www.w3.org/2000/svg"
   xmlns:sodipodi="http://sodipodi.sourceforge.net/DTD/sodipodi-0.dtd"
   xmlns:inkscape="http://www.inkscape.org/namespaces/inkscape"
   width="800"
   height="528"
   viewBox="0 0 211.66666 139.7"
   version="1.1"
   id="svg8"
   inkscape:version="0.92.5 (2060ec1f9f, 2020-04-08)"
   sodipodi:docname="font.svg">
  <defs
     id="defs2" />
  <sodipodi:namedview
     id="base"
     pagecolor="#ffffff"
     bordercolor="#666666"
     borderopacity="1.0"
     inkscape:pageopacity="0.0"
     inkscape:pageshadow="2"
     inkscape:zoom="1"
     inkscape:cx="366.20549"
     inkscape:cy="300.11475"
     inkscape:document-units="px"
     inkscape:current-layer="layer1"
     showgrid="false"
     units="px"
     inkscape:pagecheckerboard="true"
     inkscape:showpageshadow="false"
     inkscape:window-width="1920"
     inkscape:window-height="1015"
     inkscape:window-x="0"
     inkscape:window-y="0"
     inkscape:window-maximized="1"
     inkscape:snap-global="false"
     showguides="false" />
  <metadata
     id="metadata5">
    <rdf:RDF>
      <cc:Work
         rdf:about="">
        <dc:format>image/svg+xml</dc:format>
        <dc:type
           rdf:resource="http://purl.org/dc/dcmitype/StillImage" />
        <dc:title />
      </cc:Work>
    </rdf:RDF>
  </metadata>
  <g
     inkscape:label="Layer 1"
     inkscape:groupmode="layer"
     id="layer1"
     transform="translate(0,-157.29999)">
    <rect
       style="opacity:0.3;fill:#000000;fill-opacity:1;stroke:none;stroke-width:0.98436582;stroke-linecap:round;stroke-linejoin:round;stroke-miterlimit:4;stroke-dasharray:none;stroke-opacity:1;paint-order:normal"
       id="rect906"
       width="12.7"
       height="23.283333"
       x="44.450054"
       y="203.86655" />
    <rect
       transform="translate(0,157.29999)"
       style="opacity:0.15;fill:#000000;fill-opacity:1;stroke:none;stroke-width:0.98436582;stroke-linecap:round;stroke-linejoin:round;stroke-miterlimit:4;stroke-dasharray:none;stroke-opacity:1;paint-order:normal"
       id="rect812"
       width="12.7"
       height="23.283333"
       x="0"
       y="1.4195962e-07" />
    <rect
       transform="translate(0,157.29999)"
       y="1.4195962e-07"
       x="12.699999"
       height="23.283333"
       width="12.7"
       id="rect835"
       style="opacity:0.3;fill:#000000;fill-opacity:1;stroke:none;stroke-width:0.98436582;stroke-linecap:round;stroke-linejoin:round;stroke-miterlimit:4;stroke-dasharray:none;stroke-opacity:1;paint-order:normal" />
    <path
       style="opacity:1;fill:#000000;fill-opacity:1;stroke:none;stroke-width:1.99999988;stroke-linecap:round;stroke-linejoin:round;stroke-miterlimit:4;stroke-dasharray:none;stroke-opacity:1;paint-order:normal"
       d="m 48,16 v 56 h 26 c 0,0 14.069506,-0.0359 14,-14 -0.06951,-13.964088 -10,-14 -10,-14 0,0 9.962998,0.0381 10,-14 C 88.037039,15.961901 74,16 74,16 Z m 8,8 h 16 c 0,0 7.909745,0.05765 8,8 0.09025,7.942362 -8,8 -8,8 H 56 Z m 0,24 h 16 c 0,0 7.909745,0.05765 8,8 0.09025,7.94236 -8,8 -8,8 H 56 Z"
       id="path837"
       inkscape:connector-curvature="0"
       sodipodi:nodetypes="cccsccccccscccccsccc"
       transform="matrix(0.26458333,0,0,0.26458333,0,157.29999)" />
    <rect
       transform="translate(0,157.29999)"
       y="1.4195962e-07"
       x="25.4"
       height="23.283333"
       width="12.7"
       id="rect864"
       style="opacity:0.15;fill:#000000;fill-opacity:1;stroke:none;stroke-width:0.98436582;stroke-linecap:round;stroke-linejoin:round;stroke-miterlimit:4;stroke-dasharray:none;stroke-opacity:1;paint-order:normal" />
    <rect
       transform="translate(0,157.29999)"
       style="opacity:0.3;fill:#000000;fill-opacity:1;stroke:none;stroke-width:0.98436582;stroke-linecap:round;stroke-linejoin:round;stroke-miterlimit:4;stroke-dasharray:none;stroke-opacity:1;paint-order:normal"
       id="rect868"
       width="12.7"
       height="23.283333"
       x="38.099998"
       y="1.4195962e-07" />
    <path
       style="opacity:1;fill:#000000;fill-opacity:1;stroke:none;stroke-width:1.99999988;stroke-linecap:round;stroke-linejoin:round;stroke-miterlimit:4;stroke-dasharray:none;stroke-opacity:1;paint-order:normal"
       d="m 144,16 v 56 h 16 c 0,0 24,0.02079 24,-28 0,-28.020952 -24,-28 -24,-28 z m 8,8 h 7 c 0,0 17,0.02049 17,20 0,19.979515 -17,20 -17,20 h -7 z"
       id="path870"
       inkscape:connector-curvature="0"
       sodipodi:nodetypes="cccscccczccc"
       transform="matrix(0.26458333,0,0,0.26458333,0,157.29999)" />
    <rect
       transform="translate(0,157.29999)"
       style="opacity:0.15;fill:#000000;fill-opacity:1;stroke:none;stroke-width:0.98436582;stroke-linecap:round;stroke-linejoin:round;stroke-miterlimit:4;stroke-dasharray:none;stroke-opacity:1;paint-order:normal"
       id="rect875"
       width="12.7"
       height="23.283333"
       x="50.799992"
       y="1.4195962e-07" />
    <path
       transform="translate(0,157.29999)"
       style="opacity:1;fill:#000000;fill-opacity:1;stroke:none;stroke-width:0.52916664;stroke-linecap:round;stroke-linejoin:round;stroke-miterlimit:4;stroke-dasharray:none;stroke-opacity:1;paint-order:normal"
       d="M 50.799999,4.2333333 V 19.05 H 61.383332 V 16.933333 H 52.916666 V 12.7 h 6.35 v -2.116667 h -6.35 V 6.3499999 h 8.466666 V 4.2333333 Z"
       id="path877"
       inkscape:connector-curvature="0"
       sodipodi:nodetypes="ccccccccccccc" />
    <rect
       transform="translate(0,157.29999)"
       y="1.4195962e-07"
       x="63.499992"
       height="23.283333"
       width="12.7"
       id="rect879"
       style="opacity:0.3;fill:#000000;fill-opacity:1;stroke:none;stroke-width:0.98436582;stroke-linecap:round;stroke-linejoin:round;stroke-miterlimit:4;stroke-dasharray:none;stroke-opacity:1;paint-order:normal" />
    <path
       transform="translate(0,157.29999)"
       sodipodi:nodetypes="ccccccccccc"
       inkscape:connector-curvature="0"
       id="path881"
       d="M 63.499998,4.2333333 V 19.05 l 2.116667,0 V 12.7 h 6.35 v -2.116667 h -6.35 V 6.3499999 h 8.466666 V 4.2333333 Z"
       style="opacity:1;fill:#000000;fill-opacity:1;stroke:none;stroke-width:0.52916664;stroke-linecap:round;stroke-linejoin:round;stroke-miterlimit:4;stroke-dasharray:none;stroke-opacity:1;paint-order:normal" />
    <rect
       transform="translate(0,157.29999)"
       y="1.4195962e-07"
       x="76.200012"
       height="23.283333"
       width="12.7"
       id="rect883"
       style="opacity:0.15;fill:#000000;fill-opacity:1;stroke:none;stroke-width:0.98436582;stroke-linecap:round;stroke-linejoin:round;stroke-miterlimit:4;stroke-dasharray:none;stroke-opacity:1;paint-order:normal" />
    <rect
       transform="translate(0,157.29999)"
       style="opacity:0.3;fill:#000000;fill-opacity:1;stroke:none;stroke-width:0.98436582;stroke-linecap:round;stroke-linejoin:round;stroke-miterlimit:4;stroke-dasharray:none;stroke-opacity:1;paint-order:normal"
       id="rect887"
       width="12.7"
       height="23.283333"
       x="88.900032"
       y="1.4195962e-07" />
    <path
       transform="translate(0,157.29999)"
       style="opacity:1;fill:#000000;fill-opacity:1;stroke:none;stroke-width:0.52916664;stroke-linecap:round;stroke-linejoin:round;stroke-miterlimit:4;stroke-dasharray:none;stroke-opacity:1;paint-order:normal"
       d="M 88.899999,4.2333333 V 19.05 h 2.116666 V 12.7 h 6.35 v 6.35 h 2.116667 V 4.2333333 h -2.116667 v 6.3499997 h -6.35 V 4.2333333 Z"
       id="path889"
       inkscape:connector-curvature="0"
       sodipodi:nodetypes="ccccccccccccc" />
    <rect
       transform="translate(0,157.29999)"
       style="opacity:0.15;fill:#000000;fill-opacity:1;stroke:none;stroke-width:0.56832385;stroke-linecap:round;stroke-linejoin:round;stroke-miterlimit:4;stroke-dasharray:none;stroke-opacity:1;paint-order:normal"
       id="rect893"
       width="4.2333331"
       height="23.283333"
       x="101.60006"
       y="1.4195962e-07" />
    <path
       transform="translate(0,157.29999)"
       style="opacity:1;fill:#000000;fill-opacity:1;stroke:none;stroke-width:0.70707405;stroke-linecap:round;stroke-linejoin:round;stroke-miterlimit:4;stroke-dasharray:none;stroke-opacity:1;paint-order:normal"
       d="m 101.6,4.2333331 h 2.11667 V 19.05 H 101.6 Z"
       id="rect895" />
    <rect
       transform="translate(0,157.29999)"
       y="1.4195962e-07"
       x="105.8334"
       height="23.283333"
       width="12.7"
       id="rect898"
       style="opacity:0.3;fill:#000000;fill-opacity:1;stroke:none;stroke-width:0.98436582;stroke-linecap:round;stroke-linejoin:round;stroke-miterlimit:4;stroke-dasharray:none;stroke-opacity:1;paint-order:normal" />
    <path
       style="opacity:1;fill:#000000;fill-opacity:1;stroke:none;stroke-width:1.99999988;stroke-linecap:round;stroke-linejoin:round;stroke-miterlimit:4;stroke-dasharray:none;stroke-opacity:1;paint-order:normal"
       d="M 24,16 H 16 L 0,72 h 8 l 5.5,-18 h 13 L 32,72 h 8 z m -4,12 4.5,18 h -9 z"
       id="path814"
       inkscape:connector-curvature="0"
       sodipodi:nodetypes="ccccccccccccc"
       transform="matrix(0.26458333,0,0,0.26458333,0,157.29999)" />
    <path
       style="opacity:1;fill:#000000;fill-opacity:1;stroke:none;stroke-width:0.52916664;stroke-linecap:round;stroke-linejoin:round;stroke-miterlimit:4;stroke-dasharray:none;stroke-opacity:1;paint-order:normal"
       d="m 114.3,161.53332 v 9.525 c 0,0 -0.0442,3.17473 -3.175,3.175 -3.1308,2.8e-4 -3.175,-3.175 -3.175,-3.175 h -2.11667 c 0,0 -0.0258,5.29194 5.29167,5.29167 5.31751,-2.7e-4 5.29166,-5.29167 5.29166,-5.29167 v -9.525 z"
       id="path920"
       inkscape:connector-curvature="0"
       sodipodi:nodetypes="cczcczccc" />
    <rect
       style="opacity:0.15;fill:#000000;fill-opacity:1;stroke:none;stroke-width:0.98436582;stroke-linecap:round;stroke-linejoin:round;stroke-miterlimit:4;stroke-dasharray:none;stroke-opacity:1;paint-order:normal"
       id="rect837"
       width="12.7"
       height="23.283333"
       x="118.53337"
       y="157.29999" />
    <path
       style="opacity:1;fill:#000000;fill-opacity:1;stroke:none;stroke-width:0.52916664;stroke-linecap:round;stroke-linejoin:round;stroke-miterlimit:4;stroke-dasharray:none;stroke-opacity:1;paint-order:normal"
       d="m 118.53333,161.53332 v 14.81667 H 120.65 v -5.82083 l 5.82083,5.82083 h 2.64583 l -7.40833,-7.40833 7.40833,-7.40834 h -2.64583 l -5.82083,5.82084 v -5.82084 z"
       id="path839"
       inkscape:connector-curvature="0"
       sodipodi:nodetypes="cccccccccccc" />
    <rect
       style="opacity:0.3;fill:#000000;fill-opacity:1;stroke:none;stroke-width:0.98436582;stroke-linecap:round;stroke-linejoin:round;stroke-miterlimit:4;stroke-dasharray:none;stroke-opacity:1;paint-order:normal"
       id="rect841"
       width="12.7"
       height="23.283333"
       x="131.23338"
       y="157.29999" />
    <path
       style="opacity:1;fill:#000000;fill-opacity:1;stroke:none;stroke-width:0.52916664;stroke-linecap:round;stroke-linejoin:round;stroke-miterlimit:4;stroke-dasharray:none;stroke-opacity:1;paint-order:normal"
       d="m 131.23333,161.53332 0,14.81667 h 10.58333 v -2.11667 H 133.35 v -12.7 z"
       id="path843"
       inkscape:connector-curvature="0"
       sodipodi:nodetypes="ccccccc" />
    <rect
       y="157.29999"
       x="143.93333"
       height="23.283333"
       width="12.7"
       id="rect845"
       style="opacity:0.15;fill:#000000;fill-opacity:1;stroke:none;stroke-width:0.98436582;stroke-linecap:round;stroke-linejoin:round;stroke-miterlimit:4;stroke-dasharray:none;stroke-opacity:1;paint-order:normal" />
    <path
       style="opacity:1;fill:#000000;fill-opacity:1;stroke:none;stroke-width:0.52916664;stroke-linecap:round;stroke-linejoin:round;stroke-miterlimit:4;stroke-dasharray:none;stroke-opacity:1;paint-order:normal"
       d="m 143.93333,176.34999 v -14.81667 h 2.38125 l 2.91042,8.46667 2.91041,-8.46667 h 2.38125 v 14.81667 H 152.4 v -8.99583 l -1.98438,5.82083 h -2.38125 L 146.05,167.35416 v 8.99583 z"
       id="path847"
       inkscape:connector-curvature="0"
       sodipodi:nodetypes="cccccccccccccc" />
    <rect
       y="157.29999"
       x="156.63332"
       height="23.283333"
       width="12.7"
       id="rect849"
       style="opacity:0.3;fill:#000000;fill-opacity:1;stroke:none;stroke-width:0.98436582;stroke-linecap:round;stroke-linejoin:round;stroke-miterlimit:4;stroke-dasharray:none;stroke-opacity:1;paint-order:normal" />
    <path
       style="opacity:1;fill:#000000;fill-opacity:1;stroke:none;stroke-width:0.52916664;stroke-linecap:round;stroke-linejoin:round;stroke-miterlimit:4;stroke-dasharray:none;stroke-opacity:1;paint-order:normal"
       d="m 156.63333,176.34999 v -14.81667 h 2.38125 l 6.08542,11.1125 v -11.1125 h 2.11666 v 14.81667 h -2.38125 L 158.75,165.23749 v 11.1125 z"
       id="path851"
       inkscape:connector-curvature="0"
       sodipodi:nodetypes="ccccccccccc" />
    <rect
       style="opacity:0.15;fill:#000000;fill-opacity:1;stroke:none;stroke-width:0.98436582;stroke-linecap:round;stroke-linejoin:round;stroke-miterlimit:4;stroke-dasharray:none;stroke-opacity:1;paint-order:normal"
       id="rect853"
       width="12.7"
       height="23.283333"
       x="169.33327"
       y="157.29999" />
    <path
       style="opacity:1;fill:#000000;fill-opacity:1;stroke:none;stroke-width:1.96112227;stroke-linecap:round;stroke-linejoin:round;stroke-miterlimit:4;stroke-dasharray:none;stroke-opacity:1;paint-order:normal"
       d="M 660 16 A 19.999996 28.000002 0 0 0 640 44 A 19.999996 28.000002 0 0 0 660 72 A 19.999996 28.000002 0 0 0 680 44 A 19.999996 28.000002 0 0 0 660 16 z M 660 24 A 12.000001 19.999997 0 0 1 672 44 A 12.000001 19.999997 0 0 1 660 64 A 12.000001 19.999997 0 0 1 648 44 A 12.000001 19.999997 0 0 1 660 24 z "
       transform="matrix(0.26458333,0,0,0.26458333,0,157.29999)"
       id="path855" />
    <rect
       style="opacity:0.3;fill:#000000;fill-opacity:1;stroke:none;stroke-width:0.98436582;stroke-linecap:round;stroke-linejoin:round;stroke-miterlimit:4;stroke-dasharray:none;stroke-opacity:1;paint-order:normal"
       id="rect861"
       width="12.7"
       height="23.283333"
       x="182.03328"
       y="157.29999" />
    <path
       sodipodi:nodetypes="ccccczccccsccc"
       inkscape:connector-curvature="0"
       id="path863"
       d="m 182.03322,161.53332 v 14.81667 H 184.15 v -6.35 h 4.7625 c 0,0 3.69414,-0.0477 3.70404,-4.23333 0.01,-4.18565 -3.70416,-4.23334 -3.70416,-4.23334 z m 2.11667,2.11667 h 4.23332 c 0,0 2.09279,0.0153 2.11667,2.11667 0.0239,2.10141 -2.11667,2.11666 -2.11667,2.11666 h -4.23332 z"
       style="opacity:1;fill:#000000;fill-opacity:1;stroke:none;stroke-width:0.52916664;stroke-linecap:round;stroke-linejoin:round;stroke-miterlimit:4;stroke-dasharray:none;stroke-opacity:1;paint-order:normal" />
    <rect
       y="157.29999"
       x="194.7332"
       height="23.283333"
       width="12.7"
       id="rect865"
       style="opacity:0.15;fill:#000000;fill-opacity:1;stroke:none;stroke-width:0.98436582;stroke-linecap:round;stroke-linejoin:round;stroke-miterlimit:4;stroke-dasharray:none;stroke-opacity:1;paint-order:normal" />
    <path
       style="opacity:1;fill:#000000;fill-opacity:1;stroke:none;stroke-width:1.96112227;stroke-linecap:round;stroke-linejoin:round;stroke-miterlimit:4;stroke-dasharray:none;stroke-opacity:1;paint-order:normal"
       d="M 756 16 A 19.999996 28.000002 0 0 0 736 44 A 19.999996 28.000002 0 0 0 756 72 A 19.999996 28.000002 0 0 0 765.82227 68.371094 L 768 72 L 776 72 L 770.63281 63.054688 A 19.999996 28.000002 0 0 0 776 44 A 19.999996 28.000002 0 0 0 756 16 z M 756 24 A 12.000001 19.999997 0 0 1 768 44 A 12.000001 19.999997 0 0 1 765.93164 55.21875 L 764 52 L 756 52 L 761.73047 61.550781 A 12.000001 19.999997 0 0 1 756 64 A 12.000001 19.999997 0 0 1 744 44 A 12.000001 19.999997 0 0 1 756 24 z "
       transform="matrix(0.26458333,0,0,0.26458333,0,157.29999)"
       id="path867" />
    <rect
       y="180.58327"
       x="5.9418944e-05"
       height="23.283333"
       width="12.7"
       id="rect872"
       style="opacity:0.3;fill:#000000;fill-opacity:1;stroke:none;stroke-width:0.98436582;stroke-linecap:round;stroke-linejoin:round;stroke-miterlimit:4;stroke-dasharray:none;stroke-opacity:1;paint-order:normal" />
    <path
       style="opacity:1;fill:#000000;fill-opacity:1;stroke:none;stroke-width:0.52916664;stroke-linecap:round;stroke-linejoin:round;stroke-miterlimit:4;stroke-dasharray:none;stroke-opacity:1;paint-order:normal"
       d="m 0,184.81663 v 14.81667 h 2.11678 v -6.35 l 5.5561366,6.35002 H 10.583333 L 5.0271966,193.2833 H 6.87928 c 0,0 3.69414,-0.0477 3.70404,-4.23333 0.01,-4.18565 -3.70416,-4.23334 -3.70416,-4.23334 z m 2.11667,2.11667 h 4.23332 c 0,0 2.09279,0.0153 2.11667,2.11667 0.0239,2.10141 -2.11667,2.11666 -2.11667,2.11666 H 2.11667 Z"
       id="path874"
       inkscape:connector-curvature="0"
       sodipodi:nodetypes="cccccccczccccsccc" />
    <rect
       style="opacity:0.15;fill:#000000;fill-opacity:1;stroke:none;stroke-width:0.98436582;stroke-linecap:round;stroke-linejoin:round;stroke-miterlimit:4;stroke-dasharray:none;stroke-opacity:1;paint-order:normal"
       id="rect876"
       width="12.7"
       height="23.283333"
       x="12.699999"
       y="180.58327" />
    <path
       style="opacity:1;fill:#000000;fill-opacity:1;stroke:none;stroke-width:0.52916664;stroke-linecap:round;stroke-linejoin:round;stroke-miterlimit:4;stroke-dasharray:none;stroke-opacity:1;paint-order:normal"
       d="m 23.283333,187.46249 c 0,0 -1.990425,-2.64583 -5.291667,-2.64583 -5.353587,0 -5.291666,4.23333 -5.291666,4.23333 0,0 0.0054,4.23333 5.291666,4.23333 3.165015,-4e-5 3.175,2.11667 3.175,2.11667 0,0 0.09103,2.11667 -3.175,2.11667 -2.424265,4e-5 -3.704166,-1.5875 -3.704166,-1.5875 L 12.7,196.98749 c 0,0 2.025641,2.64583 5.291666,2.64583 5.319918,-4e-5 5.291667,-4.23333 5.291667,-4.23333 0,0 0.0297,-4.17839 -5.291667,-4.23333 -3.19869,-0.033 -3.175,-2.11667 -3.175,-2.11667 0,0 0.01,-2.11667 3.175,-2.11667 2.424266,0 3.704167,1.5875 3.704167,1.5875 z"
       id="path878"
       inkscape:connector-curvature="0"
       sodipodi:nodetypes="csccccccccscscc" />
    <rect
       style="opacity:0.3;fill:#000000;fill-opacity:1;stroke:none;stroke-width:0.98436582;stroke-linecap:round;stroke-linejoin:round;stroke-miterlimit:4;stroke-dasharray:none;stroke-opacity:1;paint-order:normal"
       id="rect4584"
       width="12.7"
       height="23.283333"
       x="25.400063"
       y="180.58327" />
    <path
       style="opacity:1;fill:#000000;fill-opacity:1;stroke:none;stroke-width:1.86286294;stroke-linecap:round;stroke-linejoin:round;stroke-miterlimit:4;stroke-dasharray:none;stroke-opacity:1;paint-order:normal"
       d="M 96 104 L 96 112 L 112 112 L 112 160 L 120 160 L 120 112 L 136 112 L 136 104 L 96 104 z "
       transform="matrix(0.26458333,0,0,0.26458333,0,157.29999)"
       id="rect4586" />
    <rect
       y="180.58327"
       x="38.100002"
       height="23.283333"
       width="12.7"
       id="rect4593"
       style="opacity:0.15;fill:#000000;fill-opacity:1;stroke:none;stroke-width:0.98436582;stroke-linecap:round;stroke-linejoin:round;stroke-miterlimit:4;stroke-dasharray:none;stroke-opacity:1;paint-order:normal" />
    <path
       sodipodi:nodetypes="cczcccczccc"
       inkscape:connector-curvature="0"
       id="path4595"
       d="m 46.566689,184.8166 v 9.525 c 0,0 -0.0442,3.17473 -3.175003,3.175 -3.130803,2.8e-4 -3.175003,-3.175 -3.175003,-3.175 l -1.7e-5,-9.52494 h -2.116667 l 1.1e-5,9.52494 c 0,0 -0.0258,5.29194 5.291676,5.29167 5.317516,-2.7e-4 5.291666,-5.29167 5.291666,-5.29167 v -9.525 z"
       style="opacity:1;fill:#000000;fill-opacity:1;stroke:none;stroke-width:0.52916664;stroke-linecap:round;stroke-linejoin:round;stroke-miterlimit:4;stroke-dasharray:none;stroke-opacity:1;paint-order:normal" />
    <rect
       y="180.58327"
       x="50.800053"
       height="23.283333"
       width="12.7"
       id="rect4597"
       style="opacity:0.3;fill:#000000;fill-opacity:1;stroke:none;stroke-width:0.98436582;stroke-linecap:round;stroke-linejoin:round;stroke-miterlimit:4;stroke-dasharray:none;stroke-opacity:1;paint-order:normal" />
    <path
       sodipodi:nodetypes="cccccccc"
       inkscape:connector-curvature="0"
       id="path4599"
       d="m 57.149993,199.6333 h -2.116666 l -4.233333,-14.81666 h 2.116666 l 3.175006,11.11252 3.174994,-11.11252 h 2.116666 z"
       style="opacity:1;fill:#000000;fill-opacity:1;stroke:none;stroke-width:0.52916664;stroke-linecap:round;stroke-linejoin:round;stroke-miterlimit:4;stroke-dasharray:none;stroke-opacity:1;paint-order:normal" />
    <rect
       style="opacity:0.15;fill:#000000;fill-opacity:1;stroke:none;stroke-width:0.98436582;stroke-linecap:round;stroke-linejoin:round;stroke-miterlimit:4;stroke-dasharray:none;stroke-opacity:1;paint-order:normal"
       id="rect4601"
       width="12.7"
       height="23.283333"
       x="63.5"
       y="180.58327" />
    <path
       style="opacity:1;fill:#000000;fill-opacity:1;stroke:none;stroke-width:0.52916664;stroke-linecap:round;stroke-linejoin:round;stroke-miterlimit:4;stroke-dasharray:none;stroke-opacity:1;paint-order:normal"
       d="m 63.499999,184.81666 2.116667,14.81666 h 2.116666 l 1.058334,-6.35 1.058333,6.35 h 2.116667 l 2.116666,-14.81666 h -2.116666 l -1.190625,8.46666 -0.926042,-4.7625 h -2.116667 l -0.926041,4.7625 -1.190625,-8.46666 z"
       id="path4603"
       inkscape:connector-curvature="0"
       sodipodi:nodetypes="cccccccccccccc" />
    <rect
       style="opacity:0.3;fill:#000000;fill-opacity:1;stroke:none;stroke-width:0.98436582;stroke-linecap:round;stroke-linejoin:round;stroke-miterlimit:4;stroke-dasharray:none;stroke-opacity:1;paint-order:normal"
       id="rect4605"
       width="12.7"
       height="23.283333"
       x="76.200035"
       y="180.58327" />
    <path
       style="opacity:1;fill:#000000;fill-opacity:1;stroke:none;stroke-width:1.99999988;stroke-linecap:round;stroke-linejoin:round;stroke-miterlimit:4;stroke-dasharray:none;stroke-opacity:1;paint-order:normal"
       d="M 288 104 L 303.5 132 L 288 160 L 297 160 L 308 140.12891 L 319 160 L 328 160 L 312.5 132 L 328 104 L 319 104 L 308 123.87109 L 297 104 L 288 104 z "
       transform="matrix(0.26458333,0,0,0.26458333,0,157.29999)"
       id="path4607" />
    <rect
       y="180.58327"
       x="88.90004"
       height="23.283333"
       width="12.7"
       id="rect4612"
       style="opacity:0.15;fill:#000000;fill-opacity:1;stroke:none;stroke-width:0.98436582;stroke-linecap:round;stroke-linejoin:round;stroke-miterlimit:4;stroke-dasharray:none;stroke-opacity:1;paint-order:normal" />
    <path
       id="path4614"
       d="m 88.899998,184.81666 4.233334,7.67291 -10e-7,7.14375 h 2.116667 v -7.14375 l 4.233336,-7.67291 h -2.381252 l -2.910417,5.25756 -2.910417,-5.25756 z"
       style="opacity:1;fill:#000000;fill-opacity:1;stroke:none;stroke-width:0.52916664;stroke-linecap:round;stroke-linejoin:round;stroke-miterlimit:4;stroke-dasharray:none;stroke-opacity:1;paint-order:normal"
       inkscape:connector-curvature="0"
       sodipodi:nodetypes="cccccccccc" />
    <rect
       y="180.58327"
       x="101.60007"
       height="23.283333"
       width="12.7"
       id="rect4616"
       style="opacity:0.3;fill:#000000;fill-opacity:1;stroke:none;stroke-width:0.98436582;stroke-linecap:round;stroke-linejoin:round;stroke-miterlimit:4;stroke-dasharray:none;stroke-opacity:1;paint-order:normal" />
    <path
       style="opacity:1;fill:#000000;fill-opacity:1;stroke:none;stroke-width:1.86417854;stroke-linecap:round;stroke-linejoin:round;stroke-miterlimit:4;stroke-dasharray:none;stroke-opacity:1;paint-order:normal"
       d="M 384 104 L 384 112 L 415 112 L 384 152 L 384 160 L 424 160 L 424 152 L 393 152 L 424 112 L 424 104 L 384 104 z "
       transform="matrix(0.26458333,0,0,0.26458333,0,157.29999)"
       id="rect4618" />
    <rect
       style="opacity:0.15;fill:#000000;fill-opacity:1;stroke:none;stroke-width:0.98436582;stroke-linecap:round;stroke-linejoin:round;stroke-miterlimit:4;stroke-dasharray:none;stroke-opacity:1;paint-order:normal"
       id="rect4626"
       width="12.7"
       height="23.283333"
       x="114.30006"
       y="180.58327" />
    <path
       style="opacity:1;fill:#000000;fill-opacity:1;stroke:none;stroke-width:2.0462234;stroke-linecap:round;stroke-linejoin:round;stroke-miterlimit:4;stroke-dasharray:none;stroke-opacity:1;paint-order:normal"
       d="M 452 120 A 20 20 0 0 0 432 140 A 20 20 0 0 0 452 160 A 20 20 0 0 0 464 155.96875 L 464 160 L 472 160 L 472 140 L 472 120 L 464 120 L 464 124.02539 A 20 20 0 0 0 452 120 z M 452 128 A 12.000003 11.999992 0 0 1 464 140 A 12.000003 11.999992 0 0 1 452 152 A 12.000003 11.999992 0 0 1 440 140 A 12.000003 11.999992 0 0 1 452 128 z "
       transform="matrix(0.26458333,0,0,0.26458333,0,157.29999)"
       id="path4628" />
    <rect
       style="opacity:0.3;fill:#000000;fill-opacity:1;stroke:none;stroke-width:0.98436582;stroke-linecap:round;stroke-linejoin:round;stroke-miterlimit:4;stroke-dasharray:none;stroke-opacity:1;paint-order:normal"
       id="rect4637"
       width="12.7"
       height="23.283333"
       x="127.00008"
       y="180.58327" />
    <path
       id="path4639"
       d="m 132.29166,189.04999 c 2.92251,0 5.29167,2.36916 5.29167,5.29167 0,2.92251 -2.36916,5.29166 -5.29167,5.29166 -1.1459,-0.002 -2.26007,-0.37667 -3.175,-1.0666 v 1.0666 h -2.11667 v -5.29166 -9.525 h 2.11667 v 5.29838 c 0.91513,-0.68937 2.02927,-1.06311 3.175,-1.06505 z m 0,2.11667 c -1.75351,0 -3.175,1.4215 -3.175,3.175 0,1.7535 1.42149,3.175 3.175,3.175 1.75351,0 3.175,-1.4215 3.175,-3.175 0,-1.7535 -1.42149,-3.175 -3.175,-3.175 z"
       style="opacity:1;fill:#000000;fill-opacity:1;stroke:none;stroke-width:0.54139662;stroke-linecap:round;stroke-linejoin:round;stroke-miterlimit:4;stroke-dasharray:none;stroke-opacity:1;paint-order:normal"
       inkscape:connector-curvature="0"
       sodipodi:nodetypes="cscccccccccscscs" />
    <rect
       y="180.58327"
       x="139.70003"
       height="23.283333"
       width="12.7"
       id="rect4641"
       style="opacity:0.15;fill:#000000;fill-opacity:1;stroke:none;stroke-width:0.98436582;stroke-linecap:round;stroke-linejoin:round;stroke-miterlimit:4;stroke-dasharray:none;stroke-opacity:1;paint-order:normal" />
    <rect
       y="180.58327"
       x="152.40001"
       height="23.283333"
       width="12.7"
       id="rect4645"
       style="opacity:0.3;fill:#000000;fill-opacity:1;stroke:none;stroke-width:0.98436582;stroke-linecap:round;stroke-linejoin:round;stroke-miterlimit:4;stroke-dasharray:none;stroke-opacity:1;paint-order:normal" />
    <path
       sodipodi:nodetypes="cscccccccccscscs"
       inkscape:connector-curvature="0"
       style="opacity:1;fill:#000000;fill-opacity:1;stroke:none;stroke-width:0.54139662;stroke-linecap:round;stroke-linejoin:round;stroke-miterlimit:4;stroke-dasharray:none;stroke-opacity:1;paint-order:normal"
       d="m 157.69164,189.04999 c -2.92251,0 -5.29167,2.36916 -5.29167,5.29167 0,2.92251 2.36916,5.29166 5.29167,5.29166 1.1459,-0.002 2.26007,-0.37667 3.175,-1.0666 v 1.0666 h 2.11667 v -5.29166 -9.525 h -2.11667 v 5.29838 c -0.91513,-0.68937 -2.02927,-1.06311 -3.175,-1.06505 z m 0,2.11667 c 1.75351,0 3.175,1.4215 3.175,3.175 0,1.7535 -1.42149,3.175 -3.175,3.175 -1.75351,0 -3.175,-1.4215 -3.175,-3.175 0,-1.7535 1.42149,-3.175 3.175,-3.175 z"
       id="path4647" />
    <path
       style="opacity:1;fill:#000000;fill-opacity:1;stroke:none;stroke-width:1.96112227;stroke-linecap:round;stroke-linejoin:round;stroke-miterlimit:4;stroke-dasharray:none;stroke-opacity:1;paint-order:normal"
       d="M 116 16 A 19.999996 28.000002 0 0 0 96 44 A 19.999996 28.000002 0 0 0 116 72 A 19.999996 28.000002 0 0 0 134.25781 55.345703 L 126.82812 52.560547 A 12.000001 19.999997 0 0 1 116 64 A 12.000001 19.999997 0 0 1 104 44 A 12.000001 19.999997 0 0 1 116 24 A 12.000001 19.999997 0 0 1 126.83203 35.4375 L 134.26758 32.650391 A 19.999996 28.000002 0 0 0 116 16 z "
       transform="matrix(0.26458333,0,0,0.26458333,0,157.29999)"
       id="path4649" />
    <path
       style="opacity:1;fill:#000000;fill-opacity:1;stroke:none;stroke-width:1.96112227;stroke-linecap:round;stroke-linejoin:round;stroke-miterlimit:4;stroke-dasharray:none;stroke-opacity:1;paint-order:normal"
       d="M 308 16 A 19.999996 28.000002 0 0 0 288 44 A 19.999996 28.000002 0 0 0 308 72 A 19.999996 28.000002 0 0 0 328 44 L 324 44 L 320 44 L 308 44 L 308 52 L 318.99219 52 A 12.000001 19.999997 0 0 1 308 64 A 12.000001 19.999997 0 0 1 296 44 A 12.000001 19.999997 0 0 1 308 24 A 12.000001 19.999997 0 0 1 318.83203 35.4375 L 326.26758 32.650391 A 19.999996 28.000002 0 0 0 308 16 z "
       transform="matrix(0.26458333,0,0,0.26458333,0,157.29999)"
       id="path4655" />
    <path
       style="opacity:1;fill:#000000;fill-opacity:1;stroke:none;stroke-width:2.00861073;stroke-linecap:round;stroke-linejoin:round;stroke-miterlimit:4;stroke-dasharray:none;stroke-opacity:1;paint-order:normal"
       d="M 548 120 A 20 20 0 0 0 528 140 A 20 20 0 0 0 548 160 A 20 20 0 0 0 565.70312 149.2832 L 557.86133 146.83203 A 12.000003 12.000004 0 0 1 548 152 A 12.000003 12.000004 0 0 1 536 140 A 12.000003 12.000004 0 0 1 548 128 A 12.000003 12.000004 0 0 1 557.85156 133.17188 L 565.69922 130.71875 A 20 20 0 0 0 548 120 z "
       transform="matrix(0.26458333,0,0,0.26458333,0,157.29999)"
       id="path4663" />
    <rect
       style="opacity:0.15;fill:#000000;fill-opacity:1;stroke:none;stroke-width:0.98436582;stroke-linecap:round;stroke-linejoin:round;stroke-miterlimit:4;stroke-dasharray:none;stroke-opacity:1;paint-order:normal"
       id="rect4672"
       width="12.7"
       height="23.283333"
       x="165.09996"
       y="180.58327" />
    <path
       style="opacity:1;fill:#000000;fill-opacity:1;stroke:none;stroke-width:1.98156047;stroke-linecap:round;stroke-linejoin:round;stroke-miterlimit:4;stroke-dasharray:none;stroke-opacity:1;paint-order:normal"
       d="M 644 120 A 20 20 0 0 0 624 140 A 20 20 0 0 0 644 160 A 20 20 0 0 0 660.86523 150.74609 L 653.21289 147.68555 A 12.000003 11.999992 0 0 1 644 152 A 12.000003 11.999992 0 0 1 632.70117 144 L 655.29883 144 L 660 144 L 663.57422 144 A 20 20 0 0 0 664 140 A 20 20 0 0 0 644 120 z M 644 128 A 12.000003 11.999992 0 0 1 655.29883 136 L 632.70117 136 A 12.000003 11.999992 0 0 1 644 128 z "
       transform="matrix(0.26458333,0,0,0.26458333,0,157.29999)"
       id="path4674" />
    <rect
       style="opacity:0.3;fill:#000000;fill-opacity:1;stroke:none;stroke-width:0.80373132;stroke-linecap:round;stroke-linejoin:round;stroke-miterlimit:4;stroke-dasharray:none;stroke-opacity:1;paint-order:normal"
       id="rect4691"
       width="8.4666662"
       height="23.283333"
       x="177.79994"
       y="180.58327" />
    <path
       style="opacity:1;fill:#000000;fill-opacity:1;stroke:none;stroke-width:0.52916664;stroke-linecap:round;stroke-linejoin:round;stroke-miterlimit:4;stroke-dasharray:none;stroke-opacity:1;paint-order:normal"
       d="m 179.91666,199.63332 v -8.46666 H 177.8 v -2.11667 h 2.11666 c 0,0 -0.0438,-4.24714 4.23334,-4.23333 v 2.11666 c 0,0 -2.083,-0.0474 -2.11667,2.11667 H 184.15 v 2.11667 h -2.11667 v 8.46666 z"
       id="path4693"
       inkscape:connector-curvature="0"
       sodipodi:nodetypes="ccccccccccccc" />
    <rect
       y="180.58327"
       x="186.26659"
       height="23.283333"
       width="12.7"
       id="rect4695"
       style="opacity:0.15;fill:#000000;fill-opacity:1;stroke:none;stroke-width:0.98436582;stroke-linecap:round;stroke-linejoin:round;stroke-miterlimit:4;stroke-dasharray:none;stroke-opacity:1;paint-order:normal" />
    <rect
       style="opacity:0.3;fill:#000000;fill-opacity:1;stroke:none;stroke-width:0.98436582;stroke-linecap:round;stroke-linejoin:round;stroke-miterlimit:4;stroke-dasharray:none;stroke-opacity:1;paint-order:normal"
       id="rect4697"
       width="12.7"
       height="23.283333"
       x="198.96657"
       y="180.58327" />
    <path
       style="opacity:1;fill:#000000;fill-opacity:1;stroke:none;stroke-width:2.0462234;stroke-linecap:round;stroke-linejoin:round;stroke-miterlimit:4;stroke-dasharray:none;stroke-opacity:1;paint-order:normal"
       d="M 724 120 A 20 20 0 0 0 704 140 A 20 20 0 0 0 724 160 A 20 20 0 0 0 736 155.96875 L 736 160 C 736 160 735.84504 167.94531 724 168 C 718.19205 168.02687 715.20489 166.10377 713.6582 164.13672 L 706.05664 167.17773 C 708.37792 171.42088 713.32733 175.97398 724 176 C 743.99476 176.04876 744 160 744 160 L 744 140 L 744 120 L 736 120 L 736 124.02539 A 20 20 0 0 0 724 120 z M 724 128 A 12.000003 11.999992 0 0 1 736 140 A 12.000003 11.999992 0 0 1 724 152 A 12.000003 11.999992 0 0 1 712 140 A 12.000003 11.999992 0 0 1 724 128 z "
       transform="matrix(0.26458333,0,0,0.26458333,0,157.29999)"
       id="path4699" />
    <path
       style="opacity:1;fill:#000000;fill-opacity:1;stroke:none;stroke-width:2.21711159;stroke-linecap:round;stroke-linejoin:round;stroke-miterlimit:4;stroke-dasharray:none;stroke-opacity:1;paint-order:normal"
       d="M 752 104 L 752 140 L 752 160 L 760 160 L 760 140 C 760 140 759.93575 128 772 128 C 784.06433 128 784 140 784 140 L 784 160 L 792 160 L 792 140 C 792 140 792.08619 119.9836 772 120 C 766.73032 120.00397 762.8586 121.3884 760 123.41992 L 760 104 L 752 104 z "
       transform="matrix(0.26458333,0,0,0.26458333,0,157.29999)"
       id="path4708" />
    <rect
       y="203.86655"
       x="-1.0631426e-06"
       height="23.283333"
       width="4.2333331"
       id="rect4715"
       style="opacity:0.15;fill:#000000;fill-opacity:1;stroke:none;stroke-width:0.56832385;stroke-linecap:round;stroke-linejoin:round;stroke-miterlimit:4;stroke-dasharray:none;stroke-opacity:1;paint-order:normal" />
    <rect
       style="opacity:1;fill:#000000;fill-opacity:1;stroke:none;stroke-width:0.53673959;stroke-linecap:round;stroke-linejoin:round;stroke-miterlimit:4;stroke-dasharray:none;stroke-opacity:1;paint-order:normal"
       id="rect4717"
       width="2.1166666"
       height="10.583333"
       x="0"
       y="212.33331" />
    <circle
       style="opacity:1;fill:#000000;fill-opacity:1;stroke:none;stroke-width:0.52809405;stroke-linecap:round;stroke-linejoin:round;stroke-miterlimit:4;stroke-dasharray:none;stroke-opacity:1;paint-order:normal"
       id="path4719"
       cx="1.0583333"
       cy="209.15833"
       r="1.0583333" />
    <rect
       y="203.86655"
       x="4.2333384"
       height="23.283333"
       width="6.3499999"
       id="rect4724"
       style="opacity:0.3;fill:#000000;fill-opacity:1;stroke:none;stroke-width:0.69605178;stroke-linecap:round;stroke-linejoin:round;stroke-miterlimit:4;stroke-dasharray:none;stroke-opacity:1;paint-order:normal" />
    <path
       sodipodi:nodetypes="ccccccc"
       inkscape:connector-curvature="0"
       id="path4726"
       d="m 8.4667837,212.33328 v 10.58333 c 0,0 0.0438,4.24714 -4.2333424,4.23333 v -2.11666 c 0,0 2.0829991,0.0474 2.1166691,-2.11667 v -10.58333 z"
       style="opacity:1;fill:#000000;fill-opacity:1;stroke:none;stroke-width:0.52916664;stroke-linecap:round;stroke-linejoin:round;stroke-miterlimit:4;stroke-dasharray:none;stroke-opacity:1;paint-order:normal" />
    <circle
       r="1.0583333"
       cy="209.15833"
       cx="7.4083323"
       id="circle4728"
       style="opacity:1;fill:#000000;fill-opacity:1;stroke:none;stroke-width:0.52809405;stroke-linecap:round;stroke-linejoin:round;stroke-miterlimit:4;stroke-dasharray:none;stroke-opacity:1;paint-order:normal" />
    <rect
       y="203.86655"
       x="10.583333"
       height="23.283333"
       width="10.583333"
       id="rect4730"
       style="opacity:0.15;fill:#000000;fill-opacity:1;stroke:none;stroke-width:0.89859897;stroke-linecap:round;stroke-linejoin:round;stroke-miterlimit:4;stroke-dasharray:none;stroke-opacity:1;paint-order:normal" />
    <path
       style="opacity:1;fill:#000000;fill-opacity:1;stroke:none;stroke-width:0.52916664;stroke-linecap:round;stroke-linejoin:round;stroke-miterlimit:4;stroke-dasharray:none;stroke-opacity:1;paint-order:normal"
       d="m 10.583333,208.09999 v 14.81667 H 12.7 v -3.70417 l 3.704166,3.70417 H 19.05 l -5.159375,-5.29167 5.159375,-5.29167 -2.645833,0 L 12.7,216.03749 v -7.9375 z"
       id="path892"
       inkscape:connector-curvature="0"
       sodipodi:nodetypes="cccccccccccc" />
    <rect
       style="opacity:0.3;fill:#000000;fill-opacity:1;stroke:none;stroke-width:0.69605178;stroke-linecap:round;stroke-linejoin:round;stroke-miterlimit:4;stroke-dasharray:none;stroke-opacity:1;paint-order:normal"
       id="rect894"
       width="6.3499999"
       height="23.283333"
       x="21.166674"
       y="203.86655" />
    <path
       style="opacity:1;fill:#000000;fill-opacity:1;stroke:none;stroke-width:0.52916664;stroke-linecap:round;stroke-linejoin:round;stroke-miterlimit:4;stroke-dasharray:none;stroke-opacity:1;paint-order:normal"
       d="m 21.16679,208.09994 v 10.58333 c 0,0 -0.0438,4.24714 4.233342,4.23333 v -2.11666 c 0,0 -2.082999,0.0474 -2.116669,-2.11667 v -10.58333 z"
       id="path896"
       inkscape:connector-curvature="0"
       sodipodi:nodetypes="ccccccc" />
    <rect
       style="opacity:0.15;fill:#000000;fill-opacity:1;stroke:none;stroke-width:1.1366477;stroke-linecap:round;stroke-linejoin:round;stroke-miterlimit:4;stroke-dasharray:none;stroke-opacity:1;paint-order:normal"
       id="rect900"
       width="16.933332"
       height="23.283333"
       x="27.51667"
       y="203.86655" />
    <path
       sodipodi:nodetypes="cccccscccccccc"
       inkscape:connector-curvature="0"
       style="opacity:1;fill:#000000;fill-opacity:1;stroke:none;stroke-width:0.58661079;stroke-linecap:round;stroke-linejoin:round;stroke-miterlimit:4;stroke-dasharray:none;stroke-opacity:1;paint-order:normal"
       d="m 44.450125,212.3333 v 5.29167 5.29167 h 2.116673 v -5.29167 c 0,0 -0.017,-3.175 3.175003,-3.175 3.192023,0 3.175003,3.175 3.175003,3.175 v 5.29167 h 2.116673 v -5.29167 c 0,0 0.0228,-5.29601 -5.291676,-5.29167 -1.394273,0.001 -2.418663,0.36735 -3.175003,0.90486 v -0.90486 z"
       id="path904" />
    <path
       style="opacity:1;fill:#000000;fill-opacity:1;stroke:none;stroke-width:1.99999988;stroke-linecap:round;stroke-linejoin:round;stroke-miterlimit:4;stroke-dasharray:none;stroke-opacity:1;paint-order:normal"
       d="M 104 208 L 104 228 L 104 248 L 112 248 L 112 228 C 112 228 111.95582 216 120 216 C 128.04418 216 128 228 128 228 L 128 248 L 136 248 L 136 228 C 136 228 135.95582 216 144 216 C 152.04418 216 152 228 152 228 L 152 248 L 160 248 L 160 228 C 160 228 159.96977 208.01255 144 208 C 138.07273 207.99579 134.34524 210.75136 131.99609 214.2168 C 129.64649 210.75737 125.92079 208.00465 120 208 C 116.69487 207.99765 114.08068 208.8607 112 210.21875 L 112 208 L 104 208 z "
       transform="matrix(0.26458333,0,0,0.26458333,0,157.29999)"
       id="path908" />
    <rect
       y="203.86655"
       x="57.150002"
       height="23.283333"
       width="12.7"
       id="rect921"
       style="opacity:0.15;fill:#000000;fill-opacity:1;stroke:none;stroke-width:0.98436582;stroke-linecap:round;stroke-linejoin:round;stroke-miterlimit:4;stroke-dasharray:none;stroke-opacity:1;paint-order:normal" />
    <path
       style="opacity:1;fill:#000000;fill-opacity:1;stroke:none;stroke-width:1.96842301;stroke-linecap:round;stroke-linejoin:round;stroke-miterlimit:4;stroke-dasharray:none;stroke-opacity:1;paint-order:normal"
       d="M 236 208 A 20 20.000007 0 0 0 216 228 A 20 20.000007 0 0 0 236 248 A 20 20.000007 0 0 0 256 228 A 20 20.000007 0 0 0 236 208 z M 236 216 A 12 12.000008 0 0 1 248 228 A 12 12.000008 0 0 1 236 240 A 12 12.000008 0 0 1 224 228 A 12 12.000008 0 0 1 236 216 z "
       transform="matrix(0.26458333,0,0,0.26458333,0,157.29999)"
       id="path923" />
    <rect
       y="203.86655"
       x="69.850021"
       height="23.283333"
       width="12.7"
       id="rect929"
       style="opacity:0.3;fill:#000000;fill-opacity:1;stroke:none;stroke-width:0.98436582;stroke-linecap:round;stroke-linejoin:round;stroke-miterlimit:4;stroke-dasharray:none;stroke-opacity:1;paint-order:normal" />
    <path
       sodipodi:nodetypes="cscccccccccscscs"
       inkscape:connector-curvature="0"
       style="opacity:1;fill:#000000;fill-opacity:1;stroke:none;stroke-width:0.54139662;stroke-linecap:round;stroke-linejoin:round;stroke-miterlimit:4;stroke-dasharray:none;stroke-opacity:1;paint-order:normal"
       d="m 75.141702,222.91664 c 2.922513,0 5.291676,-2.36916 5.291676,-5.29167 0,-2.92251 -2.369163,-5.29166 -5.291676,-5.29166 -1.145903,0.002 -2.260073,0.37667 -3.175003,1.0666 v -1.0666 h -2.116673 v 5.29166 9.525 h 2.116673 v -5.29838 c 0.91513,0.68937 2.02927,1.06311 3.175003,1.06505 z m 0,-2.11667 c -1.753513,0 -3.175003,-1.4215 -3.175003,-3.175 0,-1.7535 1.42149,-3.175 3.175003,-3.175 1.75351,0 3.175003,1.4215 3.175003,3.175 0,1.7535 -1.421493,3.175 -3.175003,3.175 z"
       id="path931" />
    <rect
       style="opacity:0.15;fill:#000000;fill-opacity:1;stroke:none;stroke-width:0.98436582;stroke-linecap:round;stroke-linejoin:round;stroke-miterlimit:4;stroke-dasharray:none;stroke-opacity:1;paint-order:normal"
       id="rect933"
       width="12.7"
       height="23.283333"
       x="82.550034"
       y="203.86655" />
    <path
       id="path935"
       d="m 87.841701,222.91664 c -2.922513,0 -5.291676,-2.36916 -5.291676,-5.29167 0,-2.92251 2.369163,-5.29166 5.291676,-5.29166 1.145903,0.002 2.260073,0.37667 3.175003,1.0666 v -1.0666 h 2.116673 v 5.29166 9.525 h -2.116673 v -5.29838 c -0.91513,0.68937 -2.02927,1.06311 -3.175003,1.06505 z m 0,-2.11667 c 1.753513,0 3.175003,-1.4215 3.175003,-3.175 0,-1.7535 -1.42149,-3.175 -3.175003,-3.175 -1.75351,0 -3.175003,1.4215 -3.175003,3.175 0,1.7535 1.421493,3.175 3.175003,3.175 z"
       style="opacity:1;fill:#000000;fill-opacity:1;stroke:none;stroke-width:0.54139662;stroke-linecap:round;stroke-linejoin:round;stroke-miterlimit:4;stroke-dasharray:none;stroke-opacity:1;paint-order:normal"
       inkscape:connector-curvature="0"
       sodipodi:nodetypes="cscccccccccscscs" />
    <rect
       style="opacity:0.3;fill:#000000;fill-opacity:1;stroke:none;stroke-width:0.89859897;stroke-linecap:round;stroke-linejoin:round;stroke-miterlimit:4;stroke-dasharray:none;stroke-opacity:1;paint-order:normal"
       id="rect937"
       width="10.583333"
       height="23.283333"
       x="95.250061"
       y="203.86655" />
    <path
       id="path939"
       d="m 95.250118,212.3333 v 5.29167 5.29167 h 2.116673 v -5.29167 c 0,0 -0.017,-3.175 3.174999,-3.175 0.94158,0 1.60393,0.27627 2.06986,0.66581 l 1.23816,-1.78637 c -0.76747,-0.58958 -1.83185,-0.99732 -3.30802,-0.99611 -1.394269,0.001 -2.418659,0.36735 -3.174999,0.90486 v -0.90486 z"
       style="opacity:1;fill:#000000;fill-opacity:1;stroke:none;stroke-width:0.58661079;stroke-linecap:round;stroke-linejoin:round;stroke-miterlimit:4;stroke-dasharray:none;stroke-opacity:1;paint-order:normal"
       inkscape:connector-curvature="0"
       sodipodi:nodetypes="cccccscccccc" />
  </g>
</svg>
