<?xml version="1.0" encoding="UTF-8" standalone="no"?>
<!-- Created with Inkscape (http://www.inkscape.org/) -->

<svg
   xmlns:dc="http://purl.org/dc/elements/1.1/"
   xmlns:cc="http://creativecommons.org/ns#"
   xmlns:rdf="http://www.w3.org/1999/02/22-rdf-syntax-ns#"
   xmlns:svg="http://www.w3.org/2000/svg"
   xmlns="http://www.w3.org/2000/svg"
   xmlns:sodipodi="http://sodipodi.sourceforge.net/DTD/sodipodi-0.dtd"
   xmlns:inkscape="http://www.inkscape.org/namespaces/inkscape"
   width="96"
   height="96"
   viewBox="0 0 25.4 25.400002"
   version="1.1"
   id="svg8"
   inkscape:version="0.92.5 (2060ec1f9f, 2020-04-08)"
   sodipodi:docname="arrow.svg"
   inkscape:export-filename="/home/victor/Projects/cogmura/data/img/ui/arrow.png"
   inkscape:export-xdpi="96"
   inkscape:export-ydpi="96">
  <defs
     id="defs2">
    <clipPath
       clipPathUnits="userSpaceOnUse"
       id="clipPath1629">
      <path
         style="opacity:1;fill:#000000;fill-opacity:1;stroke:none;stroke-width:0.5291667;stroke-linecap:round;stroke-linejoin:round;stroke-miterlimit:4;stroke-dasharray:none;stroke-opacity:1;paint-order:normal"
         d="m 12.7,279.80208 v 17.19791 l 12.700001,-6.08541 v -17.19792 z"
         id="path1631"
         inkscape:connector-curvature="0"
         sodipodi:nodetypes="ccccc" />
    </clipPath>
    <clipPath
       clipPathUnits="userSpaceOnUse"
       id="clipPath1633">
      <path
         sodipodi:nodetypes="ccccc"
         inkscape:connector-curvature="0"
         id="path1635"
         d="m 25.399999,279.80208 v 17.19791 l 12.700002,-6.08541 v -17.19792 z"
         style="opacity:1;fill:#000000;fill-opacity:1;stroke:none;stroke-width:0.5291667;stroke-linecap:round;stroke-linejoin:round;stroke-miterlimit:4;stroke-dasharray:none;stroke-opacity:1;paint-order:normal" />
    </clipPath>
    <clipPath
       clipPathUnits="userSpaceOnUse"
       id="clipPath1637">
      <path
         style="opacity:1;fill:#000000;fill-opacity:1;stroke:none;stroke-width:0.5291667;stroke-linecap:round;stroke-linejoin:round;stroke-miterlimit:4;stroke-dasharray:none;stroke-opacity:1;paint-order:normal"
         d="m 38.099998,279.80208 v 17.19791 l 12.700001,-6.08541 v -17.19792 z"
         id="path1639"
         inkscape:connector-curvature="0"
         sodipodi:nodetypes="ccccc" />
    </clipPath>
    <clipPath
       clipPathUnits="userSpaceOnUse"
       id="clipPath1641">
      <path
         sodipodi:nodetypes="ccccc"
         inkscape:connector-curvature="0"
         id="path1643"
         d="m 50.799996,279.80208 v 17.19791 l 12.700003,-6.08541 v -17.19792 z"
         style="opacity:1;fill:#000000;fill-opacity:1;stroke:none;stroke-width:0.5291667;stroke-linecap:round;stroke-linejoin:round;stroke-miterlimit:4;stroke-dasharray:none;stroke-opacity:1;paint-order:normal" />
    </clipPath>
  </defs>
  <sodipodi:namedview
     id="base"
     pagecolor="#ffffff"
     bordercolor="#666666"
     borderopacity="1.0"
     inkscape:pageopacity="0.0"
     inkscape:pageshadow="2"
     inkscape:zoom="1"
     inkscape:cx="25.421871"
     inkscape:cy="23.776079"
     inkscape:document-units="px"
     inkscape:current-layer="layer1"
     showgrid="false"
     units="px"
     inkscape:pagecheckerboard="true"
     inkscape:showpageshadow="false"
     inkscape:window-width="1920"
     inkscape:window-height="1015"
     inkscape:window-x="0"
     inkscape:window-y="0"
     inkscape:window-maximized="1"
     inkscape:snap-global="false" />
  <metadata
     id="metadata5">
    <rdf:RDF>
      <cc:Work
         rdf:about="">
        <dc:format>image/svg+xml</dc:format>
        <dc:type
           rdf:resource="http://purl.org/dc/dcmitype/StillImage" />
        <dc:title></dc:title>
      </cc:Work>
    </rdf:RDF>
  </metadata>
  <g
     inkscape:label="Layer 1"
     inkscape:groupmode="layer"
     id="layer1"
     transform="translate(0,-271.59999)">
    <path
       style="opacity:1;fill:#e6e6e6;fill-opacity:1;stroke:none;stroke-width:1.05833292;stroke-linecap:round;stroke-linejoin:round;stroke-miterlimit:4;stroke-dasharray:none;stroke-opacity:1;paint-order:normal"
       d="m 5.302478,272.7389 -4.46322004,4.46286 c 0,0 -0.31009153,0.29216 -0.31009153,0.74824 0,1.06938 1.05833287,1.05834 1.05833287,1.05834 h 2.645832 v 3.70415 c 0,0 0.00438,1.05834 1.0583329,1.05834 H 7.40833 c 0,0 1.0583329,0.0294 1.0583329,-1.05834 v -3.70415 h 2.6458321 c 0,0 1.058333,0.016 1.058333,-1.05834 0,-0.4611 -0.310092,-0.74824 -0.310092,-0.74824 L 7.4153972,272.7382 c -0.774257,-0.79186 -1.299407,-0.80492 -2.1129192,7e-4 z"
       id="path1664"
       inkscape:connector-curvature="0"
       sodipodi:nodetypes="ccsccccccccsccc" />
    <path
       style="opacity:1;fill:#ffffff;fill-opacity:1;stroke:none;stroke-width:1.05833292;stroke-linecap:round;stroke-linejoin:round;stroke-miterlimit:4;stroke-dasharray:none;stroke-opacity:1;paint-order:normal"
       d="m 1.4775163,278.5266 5.7292678,-5.65434 -0.9471773,-0.80774 -5.68306405,5.0081 0.0462038,1.08472 z"
       id="path1666"
       inkscape:connector-curvature="0" />
    <path
       style="opacity:1;fill:#b3b3b3;fill-opacity:1;stroke:none;stroke-width:1.05833292;stroke-linecap:round;stroke-linejoin:round;stroke-miterlimit:4;stroke-dasharray:none;stroke-opacity:1;paint-order:normal"
       d="m 4.3480931,282.68251 2.9547813,-0.072 -0.048042,-4.20395 0.6726334,-0.52848 3.0508722,-0.024 0.600565,-0.88884 0.55252,0.60058 0.02402,1.12906 -0.744701,0.38436 -2.8106459,0.048 v 4.01177 l -0.7927462,0.69666 -3.0268493,-0.1682 z"
       id="path1670"
       inkscape:connector-curvature="0" />
    <path
       sodipodi:nodetypes="ccsccccccccsccc"
       inkscape:connector-curvature="0"
       id="path1668"
       d="m 5.302478,272.73862 -4.46322004,4.46286 c 0,0 -0.31009153,0.29216 -0.31009153,0.74824 0,1.06938 1.05833287,1.05834 1.05833287,1.05834 h 2.645832 v 3.70415 c 0,0 0.00438,1.05834 1.0583329,1.05834 H 7.40833 c 0,0 1.0583329,0.0294 1.0583329,-1.05834 v -3.70415 h 2.6458321 c 0,0 1.058333,0.016 1.058333,-1.05834 0,-0.4611 -0.310092,-0.74824 -0.310092,-0.74824 l -4.4453388,-4.46356 c -0.774257,-0.79186 -1.299407,-0.80492 -2.1129192,7e-4 z"
       style="opacity:1;fill:none;fill-opacity:1;stroke:#000000;stroke-width:1.05833292;stroke-linecap:round;stroke-linejoin:round;stroke-miterlimit:4;stroke-dasharray:none;stroke-opacity:1;paint-order:normal" />
    <path
       sodipodi:nodetypes="ccsccccccccsccc"
       inkscape:connector-curvature="0"
       id="path1672"
       d="m 24.261366,276.90248 -4.462859,-4.46322 c 0,0 -0.29216,-0.3101 -0.748239,-0.3101 -1.06938,0 -1.05834,1.05834 -1.05834,1.05834 v 2.64584 H 14.28777 c 0,0 -1.058339,0.004 -1.058339,1.05832 v 2.11668 c 0,0 -0.0294,1.05831 1.058339,1.05831 h 3.704158 v 2.64584 c 0,0 -0.016,1.05834 1.05834,1.05834 0.461099,0 0.748239,-0.3101 0.748239,-0.3101 l 4.463559,-4.44533 c 0.79186,-0.77426 0.80492,-1.2994 -7e-4,-2.11292 z"
       style="opacity:1;fill:#e6e6e6;fill-opacity:1;stroke:none;stroke-width:1.05833292;stroke-linecap:round;stroke-linejoin:round;stroke-miterlimit:4;stroke-dasharray:none;stroke-opacity:1;paint-order:normal" />
    <path
       style="opacity:1;fill:#e6e6e6;fill-opacity:1;stroke:none;stroke-width:1.05833292;stroke-linecap:round;stroke-linejoin:round;stroke-miterlimit:4;stroke-dasharray:none;stroke-opacity:1;paint-order:normal"
       d="m 13.828575,289.60247 4.462859,-4.46322 c 0,0 0.29216,-0.3101 0.74824,-0.3101 1.069378,0 1.058338,1.05834 1.058338,1.05834 v 2.64584 h 3.704158 c 0,0 1.05834,0.004 1.05834,1.05832 v 2.11668 c 0,0 0.0294,1.05832 -1.05834,1.05832 h -3.704158 v 2.64584 c 0,0 0.016,1.05834 -1.058338,1.05834 -0.4611,0 -0.74824,-0.3101 -0.74824,-0.3101 l -4.463559,-4.44534 c -0.791859,-0.77426 -0.804919,-1.2994 7e-4,-2.11292 z"
       id="path1676"
       inkscape:connector-curvature="0"
       sodipodi:nodetypes="ccsccccccccsccc" />
    <path
       sodipodi:nodetypes="ccsccccccccsccc"
       inkscape:connector-curvature="0"
       id="path1680"
       d="m 5.302484,295.87141 -4.4632177,-4.46286 c 0,0 -0.31009985,-0.29216 -0.31009985,-0.74824 0,-1.06938 1.05833945,-1.05834 1.05833945,-1.05834 h 2.6458386 v -3.70416 c 0,0 0.004,-1.05834 1.0583195,-1.05834 h 2.116679 c 0,0 1.0583195,-0.0294 1.0583195,1.05834 v 3.70416 h 2.6458385 c 0,0 1.05834,-0.016 1.05834,1.05834 0,0.4611 -0.3101,0.74824 -0.3101,0.74824 l -4.445338,4.46356 c -0.7742596,0.79186 -1.2993994,0.80492 -2.112919,-7e-4 z"
       style="opacity:1;fill:#e6e6e6;fill-opacity:1;stroke:none;stroke-width:1.05833292;stroke-linecap:round;stroke-linejoin:round;stroke-miterlimit:4;stroke-dasharray:none;stroke-opacity:1;paint-order:normal" />
    <path
       style="opacity:1;fill:#ffffff;fill-opacity:1;stroke:none;stroke-width:1.05833292;stroke-linecap:round;stroke-linejoin:round;stroke-miterlimit:4;stroke-dasharray:none;stroke-opacity:1;paint-order:normal"
       d="m 13.311651,277.01558 h 5.521117 l 0.406463,-0.6097 0.03387,-4.40334 -1.050028,0.54194 -0.270975,3.28558 -4.233986,0.0678 z"
       id="path1684"
       inkscape:connector-curvature="0" />
    <path
       style="opacity:1;fill:#b3b3b3;fill-opacity:1;stroke:none;stroke-width:1.05833292;stroke-linecap:round;stroke-linejoin:round;stroke-miterlimit:4;stroke-dasharray:none;stroke-opacity:1;paint-order:normal"
       d="m 18.155331,283.24799 6.198555,-6.40177 0.643566,1.38874 -5.351758,5.55499 -0.982285,0.0338 z"
       id="path1686"
       inkscape:connector-curvature="0" />
    <path
       style="opacity:1;fill:#ffffff;fill-opacity:1;stroke:none;stroke-width:1.05833292;stroke-linecap:round;stroke-linejoin:round;stroke-miterlimit:4;stroke-dasharray:none;stroke-opacity:1;paint-order:normal"
       d="m 4.8775516,284.90773 -0.6435659,0.64356 -0.1016159,4.03076 -2.9807259,0.0678 -0.74518147,0.67744 0.23710323,0.54194 3.99688244,-0.0338 0.8129254,-0.77906 0.033872,-4.06462 2.8452384,0.0338 -0.4064628,-1.05002 z"
       id="path1688"
       inkscape:connector-curvature="0" />
    <path
       style="opacity:1;fill:#b3b3b3;fill-opacity:1;stroke:none;stroke-width:1.05833292;stroke-linecap:round;stroke-linejoin:round;stroke-miterlimit:4;stroke-dasharray:none;stroke-opacity:1;paint-order:normal"
       d="m 5.4195018,295.88221 6.0969392,-6.09694 0.609694,0.30486 0.06774,1.05002 -5.3517575,5.25014 -0.948413,0.1016 z"
       id="path1690"
       inkscape:connector-curvature="0" />
    <path
       style="opacity:1;fill:#ffffff;fill-opacity:1;stroke:none;stroke-width:1.05833292;stroke-linecap:round;stroke-linejoin:round;stroke-miterlimit:4;stroke-dasharray:none;stroke-opacity:1;paint-order:normal"
       d="m 13.379395,290.15787 5.21627,-5.3179 1.050029,-0.1354 0.508078,0.71132 -6.198555,6.3679 -0.745182,-0.81292 z"
       id="path1692"
       inkscape:connector-curvature="0" />
    <path
       style="opacity:1;fill:#b3b3b3;fill-opacity:1;stroke:none;stroke-width:1.05833292;stroke-linecap:round;stroke-linejoin:round;stroke-miterlimit:4;stroke-dasharray:none;stroke-opacity:1;paint-order:normal"
       d="m 18.663409,296.08545 0.101616,-3.8614 0.609694,-0.67744 h 4.301729 l -0.101619,-2.94686 0.982285,0.1016 0.440334,2.33716 -0.609694,1.65972 -4.166242,0.20324 -0.237103,2.87912 -0.643566,0.60968 z"
       id="path1694"
       inkscape:connector-curvature="0" />
    <path
       style="opacity:1;fill:none;fill-opacity:1;stroke:#000000;stroke-width:1.05833292;stroke-linecap:round;stroke-linejoin:round;stroke-miterlimit:4;stroke-dasharray:none;stroke-opacity:1;paint-order:normal"
       d="m 24.261366,276.90248 -4.462859,-4.46322 c 0,0 -0.29216,-0.3101 -0.748239,-0.3101 -1.06938,0 -1.05834,1.05834 -1.05834,1.05834 v 2.64584 H 14.28777 c 0,0 -1.058339,0.004 -1.058339,1.05832 v 2.11668 c 0,0 -0.0294,1.05831 1.058339,1.05831 h 3.704158 v 2.64584 c 0,0 -0.016,1.05834 1.05834,1.05834 0.461099,0 0.748239,-0.3101 0.748239,-0.3101 l 4.463559,-4.44533 c 0.79186,-0.77426 0.80492,-1.2994 -7e-4,-2.11292 z"
       id="path1674"
       inkscape:connector-curvature="0"
       sodipodi:nodetypes="ccsccccccccsccc" />
    <path
       sodipodi:nodetypes="ccsccccccccsccc"
       inkscape:connector-curvature="0"
       id="path1678"
       d="m 13.828575,289.60247 4.462859,-4.46322 c 0,0 0.29216,-0.3101 0.74824,-0.3101 1.069378,0 1.058338,1.05834 1.058338,1.05834 v 2.64584 h 3.704158 c 0,0 1.05834,0.004 1.05834,1.05832 v 2.11668 c 0,0 0.0294,1.05832 -1.05834,1.05832 h -3.704158 v 2.64584 c 0,0 0.016,1.05834 -1.058338,1.05834 -0.4611,0 -0.74824,-0.3101 -0.74824,-0.3101 l -4.463559,-4.44534 c -0.791859,-0.77426 -0.804919,-1.2994 7e-4,-2.11292 z"
       style="opacity:1;fill:none;fill-opacity:1;stroke:#000000;stroke-width:1.05833292;stroke-linecap:round;stroke-linejoin:round;stroke-miterlimit:4;stroke-dasharray:none;stroke-opacity:1;paint-order:normal" />
    <path
       style="opacity:1;fill:none;fill-opacity:1;stroke:#000000;stroke-width:1.05833292;stroke-linecap:round;stroke-linejoin:round;stroke-miterlimit:4;stroke-dasharray:none;stroke-opacity:1;paint-order:normal"
       d="m 5.302484,295.87141 -4.4632177,-4.46286 c 0,0 -0.31009985,-0.29216 -0.31009985,-0.74824 0,-1.06938 1.05833945,-1.05834 1.05833945,-1.05834 h 2.6458386 v -3.70416 c 0,0 0.004,-1.05834 1.0583195,-1.05834 h 2.116679 c 0,0 1.0583195,-0.0294 1.0583195,1.05834 v 3.70416 h 2.6458385 c 0,0 1.05834,-0.016 1.05834,1.05834 0,0.4611 -0.3101,0.74824 -0.3101,0.74824 l -4.445338,4.46356 c -0.7742596,0.79186 -1.2993994,0.80492 -2.112919,-7e-4 z"
       id="path1682"
       inkscape:connector-curvature="0"
       sodipodi:nodetypes="ccsccccccccsccc" />
  </g>
</svg>
