<?xml version="1.0" encoding="UTF-8" standalone="no"?>
<!-- Created with Inkscape (http://www.inkscape.org/) -->

<svg
   xmlns:dc="http://purl.org/dc/elements/1.1/"
   xmlns:cc="http://creativecommons.org/ns#"
   xmlns:rdf="http://www.w3.org/1999/02/22-rdf-syntax-ns#"
   xmlns:svg="http://www.w3.org/2000/svg"
   xmlns="http://www.w3.org/2000/svg"
   xmlns:sodipodi="http://sodipodi.sourceforge.net/DTD/sodipodi-0.dtd"
   xmlns:inkscape="http://www.inkscape.org/namespaces/inkscape"
   width="88"
   height="88"
   viewBox="0 0 23.283334 23.283336"
   version="1.1"
   id="svg8"
   inkscape:version="0.92.5 (2060ec1f9f, 2020-04-08)"
   sodipodi:docname="lifeMush.svg"
   inkscape:export-filename="/home/victor/Projects/cogmura/data/img/icon/lifeMush.png"
   inkscape:export-xdpi="96"
   inkscape:export-ydpi="96">
  <defs
     id="defs2" />
  <sodipodi:namedview
     id="base"
     pagecolor="#ffffff"
     bordercolor="#666666"
     borderopacity="1.0"
     inkscape:pageopacity="0.0"
     inkscape:pageshadow="2"
     inkscape:zoom="1"
     inkscape:cx="24.457589"
     inkscape:cy="24.040669"
     inkscape:document-units="px"
     inkscape:current-layer="layer1"
     showgrid="false"
     units="px"
     inkscape:pagecheckerboard="true"
     inkscape:showpageshadow="false"
     inkscape:window-width="1920"
     inkscape:window-height="1015"
     inkscape:window-x="0"
     inkscape:window-y="0"
     inkscape:window-maximized="1"
     inkscape:snap-global="false" />
  <metadata
     id="metadata5">
    <rdf:RDF>
      <cc:Work
         rdf:about="">
        <dc:format>image/svg+xml</dc:format>
        <dc:type
           rdf:resource="http://purl.org/dc/dcmitype/StillImage" />
        <dc:title></dc:title>
      </cc:Work>
    </rdf:RDF>
  </metadata>
  <g
     inkscape:label="Layer 1"
     inkscape:groupmode="layer"
     id="layer1"
     transform="translate(0,-273.71664)">
    <path
       style="opacity:1;fill:#ffeeaa;fill-opacity:1;stroke:#000000;stroke-width:1.0583334;stroke-linecap:butt;stroke-linejoin:round;stroke-miterlimit:4;stroke-dasharray:none;stroke-opacity:1;paint-order:normal"
       d="m 6.7675122,284.42397 0.1823535,8.87926 c 0,0 0.6838273,2.15118 4.7867923,2.19695 4.102965,0.0458 4.741204,-2.24271 4.741204,-2.24271 l 0.273531,-9.01657 z"
       id="path937"
       inkscape:connector-curvature="0" />
    <path
       style="opacity:1;fill:#ff80b2;fill-opacity:1;stroke:#000000;stroke-width:1.0583334;stroke-linecap:butt;stroke-linejoin:round;stroke-miterlimit:4;stroke-dasharray:none;stroke-opacity:1;paint-order:normal"
       d="m 0.52916539,284.27158 c 0,0 1.16535611,4.17275 10.94602361,4.12928 9.780666,-0.0433 11.27898,-4.17274 11.27898,-4.17274 0,0 -1.331834,-9.01199 -11.070881,-9.01199 -9.7390473,0 -11.15412261,9.05545 -11.15412261,9.05545 z"
       id="path935"
       inkscape:connector-curvature="0"
       sodipodi:nodetypes="cccsc" />
    <path
       style="opacity:1;fill:#ff0000;fill-opacity:1;stroke:#000000;stroke-width:1.0583334;stroke-linecap:butt;stroke-linejoin:round;stroke-miterlimit:4;stroke-dasharray:none;stroke-opacity:1;paint-order:normal"
       d="m 8.7609414,277.40605 c -0.1682583,-0.004 -0.3466575,0.002 -0.5347104,0.0228 -3.0088405,0.32035 -2.7347164,3.43294 -2.7347164,3.43294 0,0 0.041292,3.15782 6.1501524,4.85129 6.108859,-1.69347 6.150153,-4.85129 6.150153,-4.85129 0,0 0.274124,-3.11259 -2.734716,-3.43294 -3.008841,-0.3204 -3.415437,2.60887 -3.415437,2.60887 0,0 -0.356859,-2.57385 -2.8807256,-2.63166 z"
       id="path939"
       inkscape:connector-curvature="0" />
  </g>
</svg>
