<?xml version="1.0" encoding="UTF-8" standalone="no"?>
<!-- Created with Inkscape (http://www.inkscape.org/) -->

<svg
   width="88"
   height="88"
   viewBox="0 0 23.283332 23.283334"
   version="1.1"
   id="svg8"
   inkscape:version="1.1.2 (0a00cf5339, 2022-02-04)"
   sodipodi:docname="money.svg"
   inkscape:export-filename="/home/victor/Projects/cogmura/data/img/icon/money.png"
   inkscape:export-xdpi="96"
   inkscape:export-ydpi="96"
   xmlns:inkscape="http://www.inkscape.org/namespaces/inkscape"
   xmlns:sodipodi="http://sodipodi.sourceforge.net/DTD/sodipodi-0.dtd"
   xmlns:xlink="http://www.w3.org/1999/xlink"
   xmlns="http://www.w3.org/2000/svg"
   xmlns:svg="http://www.w3.org/2000/svg"
   xmlns:rdf="http://www.w3.org/1999/02/22-rdf-syntax-ns#"
   xmlns:cc="http://creativecommons.org/ns#"
   xmlns:dc="http://purl.org/dc/elements/1.1/">
  <defs
     id="defs2">
    <linearGradient
       inkscape:collect="always"
       id="linearGradient897">
      <stop
         style="stop-color:#ffffff;stop-opacity:1"
         offset="0"
         id="stop893" />
      <stop
         style="stop-color:#ffe300;stop-opacity:1"
         offset="1"
         id="stop895" />
    </linearGradient>
    <linearGradient
       inkscape:collect="always"
       id="linearGradient832">
      <stop
         style="stop-color:#fffdfd;stop-opacity:1"
         offset="0"
         id="stop828" />
      <stop
         style="stop-color:#ff0000;stop-opacity:1"
         offset="1"
         id="stop830" />
    </linearGradient>
    <radialGradient
       inkscape:collect="always"
       xlink:href="#linearGradient832"
       id="radialGradient834"
       cx="5.7519679"
       cy="6.1204057"
       fx="5.7519679"
       fy="6.1204057"
       r="11.000058"
       gradientTransform="matrix(0.00619697,1.044901,-1.2396551,0.00735199,13.303515,0.95239194)"
       gradientUnits="userSpaceOnUse" />
    <radialGradient
       inkscape:collect="always"
       xlink:href="#linearGradient897"
       id="radialGradient899"
       cx="5.8701167"
       cy="5.552217"
       fx="5.8701167"
       fy="5.552217"
       r="11.000269"
       gradientTransform="matrix(-0.00742725,1.2703088,-1.3540643,-0.00791947,13.502457,283.53341)"
       gradientUnits="userSpaceOnUse" />
  </defs>
  <sodipodi:namedview
     id="base"
     pagecolor="#ffffff"
     bordercolor="#666666"
     borderopacity="1.0"
     inkscape:pageopacity="0.0"
     inkscape:pageshadow="2"
     inkscape:zoom="1"
     inkscape:cx="6"
     inkscape:cy="12"
     inkscape:document-units="px"
     inkscape:current-layer="layer1"
     showgrid="false"
     units="px"
     inkscape:pagecheckerboard="true"
     inkscape:showpageshadow="false"
     inkscape:window-width="1920"
     inkscape:window-height="1012"
     inkscape:window-x="0"
     inkscape:window-y="0"
     inkscape:window-maximized="1"
     inkscape:snap-global="false" />
  <metadata
     id="metadata5">
    <rdf:RDF>
      <cc:Work
         rdf:about="">
        <dc:format>image/svg+xml</dc:format>
        <dc:type
           rdf:resource="http://purl.org/dc/dcmitype/StillImage" />
      </cc:Work>
    </rdf:RDF>
  </metadata>
  <g
     inkscape:label="Layer 1"
     inkscape:groupmode="layer"
     id="layer1"
     transform="translate(0,-285.35832)">
    <path
       style="opacity:1;fill:url(#radialGradient899);fill-opacity:1;stroke:#000000;stroke-width:1.05832;stroke-linecap:round;stroke-linejoin:round;stroke-miterlimit:4;stroke-dasharray:none;stroke-opacity:1;paint-order:normal"
       d="m 11.640469,285.88749 c -0.893453,0 -1.6559578,0.55767 -2.0094771,1.36084 -3.0148228,0.21504 -8.5302596,1.10296 -8.5804258,4.79446 -0.0545503,4.01394 5.1800669,5.30502 8.3677597,5.73203 v 5.44992 c -2.167345,-0.16968 -5.1116293,-0.66087 -5.5314883,-2.08795 0,0 -0.6566484,-1.49641 -2.08543,-1.0418 -1.6538509,0.47817 -1.22174489,1.94035 -1.22174489,1.94035 0,0 0.49546649,4.22499 9.06000949,4.73369 0.3569729,0.79351 1.1139769,1.34346 2.0007969,1.34346 0.901745,0 1.671299,-0.56726 2.020328,-1.38256 9.18045,-0.73307 9.090391,-5.86878 9.090391,-5.86878 0,0 0.525373,-5.53824 -8.888575,-6.23343 v -4.06081 c 4.224076,0.20706 4.943402,1.27185 4.943402,1.27185 0,0 1.126911,1.3282 2.404428,0.89636 1.577912,-0.89708 0.826795,-2.05972 0.826795,-2.05972 0,0 -0.911086,-3.04067 -8.400312,-3.45093 -0.358321,-0.78968 -1.11229,-1.33698 -1.996457,-1.33698 z m -2.2221432,4.74452 v 3.70054 c -4.1497501,-0.59552 -4.1209482,-2.13566 -4.1209482,-2.13566 0,0 0.1599858,-1.2198 4.1209482,-1.56488 z m 4.4442872,7.52048 c 1.938272,0.23646 4.564047,0.84071 4.587511,2.39614 -0.02347,1.9183 -2.63694,2.51748 -4.587511,2.69782 z"
       id="path888"
       inkscape:connector-curvature="0" />
  </g>
</svg>
