<?xml version="1.0" encoding="UTF-8" standalone="no"?>
<!-- Created with Inkscape (http://www.inkscape.org/) -->

<svg
   xmlns:dc="http://purl.org/dc/elements/1.1/"
   xmlns:cc="http://creativecommons.org/ns#"
   xmlns:rdf="http://www.w3.org/1999/02/22-rdf-syntax-ns#"
   xmlns:svg="http://www.w3.org/2000/svg"
   xmlns="http://www.w3.org/2000/svg"
   xmlns:xlink="http://www.w3.org/1999/xlink"
   xmlns:sodipodi="http://sodipodi.sourceforge.net/DTD/sodipodi-0.dtd"
   xmlns:inkscape="http://www.inkscape.org/namespaces/inkscape"
   width="44"
   height="44"
   viewBox="0 0 11.641666 11.641667"
   version="1.1"
   id="svg8"
   inkscape:version="0.92.5 (2060ec1f9f, 2020-04-08)"
   sodipodi:docname="money.svg"
   inkscape:export-filename="/home/victor/Projects/cogmura/data/img/icon/money.png"
   inkscape:export-xdpi="96"
   inkscape:export-ydpi="96">
  <defs
     id="defs2">
    <linearGradient
       inkscape:collect="always"
       id="linearGradient897">
      <stop
         style="stop-color:#ffffff;stop-opacity:1"
         offset="0"
         id="stop893" />
      <stop
         style="stop-color:#ffe300;stop-opacity:1"
         offset="1"
         id="stop895" />
    </linearGradient>
    <linearGradient
       inkscape:collect="always"
       id="linearGradient832">
      <stop
         style="stop-color:#fffdfd;stop-opacity:1"
         offset="0"
         id="stop828" />
      <stop
         style="stop-color:#ff0000;stop-opacity:1"
         offset="1"
         id="stop830" />
    </linearGradient>
    <radialGradient
       inkscape:collect="always"
       xlink:href="#linearGradient832"
       id="radialGradient834"
       cx="5.7519679"
       cy="6.1204057"
       fx="5.7519679"
       fy="6.1204057"
       r="11.000058"
       gradientTransform="matrix(0.00619697,1.044901,-1.2396551,0.00735199,13.303515,0.95239194)"
       gradientUnits="userSpaceOnUse" />
    <radialGradient
       inkscape:collect="always"
       xlink:href="#linearGradient897"
       id="radialGradient899"
       cx="5.8701167"
       cy="5.552217"
       fx="5.8701167"
       fy="5.552217"
       r="11.000269"
       gradientTransform="matrix(-0.00353726,0.60490933,-0.64487933,-0.00377118,6.7075455,284.76649)"
       gradientUnits="userSpaceOnUse" />
  </defs>
  <sodipodi:namedview
     id="base"
     pagecolor="#ffffff"
     bordercolor="#666666"
     borderopacity="1.0"
     inkscape:pageopacity="0.0"
     inkscape:pageshadow="2"
     inkscape:zoom="1"
     inkscape:cx="5.3090828"
     inkscape:cy="11.80178"
     inkscape:document-units="px"
     inkscape:current-layer="layer1"
     showgrid="false"
     units="px"
     inkscape:pagecheckerboard="true"
     inkscape:showpageshadow="false"
     inkscape:window-width="1920"
     inkscape:window-height="1015"
     inkscape:window-x="0"
     inkscape:window-y="0"
     inkscape:window-maximized="1"
     inkscape:snap-global="false" />
  <metadata
     id="metadata5">
    <rdf:RDF>
      <cc:Work
         rdf:about="">
        <dc:format>image/svg+xml</dc:format>
        <dc:type
           rdf:resource="http://purl.org/dc/dcmitype/StillImage" />
        <dc:title></dc:title>
      </cc:Work>
    </rdf:RDF>
  </metadata>
  <g
     inkscape:label="Layer 1"
     inkscape:groupmode="layer"
     id="layer1"
     transform="translate(0,-285.35832)">
    <path
       style="opacity:1;fill:url(#radialGradient899);fill-opacity:1;stroke:#000000;stroke-width:1.0583204;stroke-linecap:round;stroke-linejoin:round;stroke-miterlimit:4;stroke-dasharray:none;stroke-opacity:1;paint-order:normal"
       d="m 5.8207651,285.88748 c -0.4255114,0 -0.7886576,0.26556 -0.9570228,0.64802 -1.4358232,0.1024 -4.06257529,0.52522 -4.08646717,2.28308 -0.0259798,1.9114 2.46703067,2.5262 3.98518397,2.72954 v 2.5952 c -1.032208,-0.0808 -2.4344369,-0.3147 -2.6343967,-0.99426 0,0 -0.3127318,-0.71258 -0.9931956,-0.4961 -0.78765407,0.2277 -0.5818616,0.92398 -0.5818616,0.92398 0,0 0.23596817,2.0119 4.3148711,2.25414 0.17001,0.37786 0.5305364,0.63974 0.9528888,0.63974 0.4294602,0 0.7959637,-0.27012 0.9621903,-0.65836 4.3722316,-0.34908 4.3293406,-2.79466 4.3293406,-2.79466 0,0 0.250211,-2.63726 -4.2332248,-2.9683 v -1.93372 c 2.0117358,0.0986 2.3543178,0.60564 2.3543178,0.60564 0,0 0.5366967,0.63248 1.14512,0.42684 0.751488,-0.42718 0.393765,-0.98082 0.393765,-0.98082 0,0 -0.433909,-1.44794 -4.000687,-1.6433 -0.170652,-0.37604 -0.5297335,-0.63666 -0.9508219,-0.63666 z m -1.058306,2.2593 v 1.76216 c -1.9763375,-0.28358 -1.9626205,-1.01698 -1.9626205,-1.01698 0,0 0.076194,-0.58086 1.9626205,-0.74518 z m 2.1166121,3.58118 c 0.9231108,0.1126 2.1736486,0.40034 2.1848232,1.14102 -0.01118,0.91348 -1.2558548,1.1988 -2.1848232,1.28468 z"
       id="path888"
       inkscape:connector-curvature="0" />
  </g>
</svg>
