<?xml version="1.0" encoding="UTF-8" standalone="no"?>
<!-- Created with Inkscape (http://www.inkscape.org/) -->

<svg
   xmlns:dc="http://purl.org/dc/elements/1.1/"
   xmlns:cc="http://creativecommons.org/ns#"
   xmlns:rdf="http://www.w3.org/1999/02/22-rdf-syntax-ns#"
   xmlns:svg="http://www.w3.org/2000/svg"
   xmlns="http://www.w3.org/2000/svg"
   xmlns:xlink="http://www.w3.org/1999/xlink"
   xmlns:sodipodi="http://sodipodi.sourceforge.net/DTD/sodipodi-0.dtd"
   xmlns:inkscape="http://www.inkscape.org/namespaces/inkscape"
   width="22"
   height="22"
   viewBox="0 0 5.8208332 5.8208336"
   version="1.1"
   id="svg8"
   inkscape:version="0.92.5 (2060ec1f9f, 2020-04-08)"
   sodipodi:docname="money.svg"
   inkscape:export-filename="/home/victor/Projects/cogmura/data/img/icon/money.png"
   inkscape:export-xdpi="96"
   inkscape:export-ydpi="96">
  <defs
     id="defs2">
    <linearGradient
       inkscape:collect="always"
       id="linearGradient897">
      <stop
         style="stop-color:#ffffff;stop-opacity:1"
         offset="0"
         id="stop893" />
      <stop
         style="stop-color:#ffe300;stop-opacity:1"
         offset="1"
         id="stop895" />
    </linearGradient>
    <linearGradient
       inkscape:collect="always"
       id="linearGradient832">
      <stop
         style="stop-color:#fffdfd;stop-opacity:1"
         offset="0"
         id="stop828" />
      <stop
         style="stop-color:#ff0000;stop-opacity:1"
         offset="1"
         id="stop830" />
    </linearGradient>
    <radialGradient
       inkscape:collect="always"
       xlink:href="#linearGradient832"
       id="radialGradient834"
       cx="5.7519679"
       cy="6.1204057"
       fx="5.7519679"
       fy="6.1204057"
       r="11.000058"
       gradientTransform="matrix(0.00619697,1.044901,-1.2396551,0.00735199,13.303515,0.95239194)"
       gradientUnits="userSpaceOnUse" />
    <radialGradient
       inkscape:collect="always"
       xlink:href="#linearGradient897"
       id="radialGradient899"
       cx="5.8701167"
       cy="5.552217"
       fx="5.8701167"
       fy="5.552217"
       r="11.000269"
       gradientTransform="matrix(-0.00668475,1.1431344,-1.218701,-0.00712664,12.675849,-1.118414)"
       gradientUnits="userSpaceOnUse" />
  </defs>
  <sodipodi:namedview
     id="base"
     pagecolor="#ffffff"
     bordercolor="#666666"
     borderopacity="1.0"
     inkscape:pageopacity="0.0"
     inkscape:pageshadow="2"
     inkscape:zoom="1"
     inkscape:cx="5.3090828"
     inkscape:cy="11.80178"
     inkscape:document-units="px"
     inkscape:current-layer="layer1"
     showgrid="false"
     units="px"
     inkscape:pagecheckerboard="true"
     inkscape:showpageshadow="false"
     inkscape:window-width="1920"
     inkscape:window-height="1015"
     inkscape:window-x="0"
     inkscape:window-y="0"
     inkscape:window-maximized="1"
     inkscape:snap-global="false" />
  <metadata
     id="metadata5">
    <rdf:RDF>
      <cc:Work
         rdf:about="">
        <dc:format>image/svg+xml</dc:format>
        <dc:type
           rdf:resource="http://purl.org/dc/dcmitype/StillImage" />
        <dc:title></dc:title>
      </cc:Work>
    </rdf:RDF>
  </metadata>
  <g
     inkscape:label="Layer 1"
     inkscape:groupmode="layer"
     id="layer1"
     transform="translate(0,-291.17915)">
    <path
       style="opacity:1;fill:url(#radialGradient899);fill-opacity:1;stroke:#000000;stroke-width:2;stroke-linecap:round;stroke-linejoin:round;stroke-miterlimit:4;stroke-dasharray:none;stroke-opacity:1;paint-order:normal"
       d="M 11 1 C 10.195863 1 9.5095849 1.5018331 9.1914062 2.2246094 C 6.4779699 2.4180151 1.5139012 3.2171424 1.46875 6.5390625 C 1.419653 10.151151 6.130975 11.312987 9 11.697266 L 9 16.601562 C 7.0493208 16.448964 4.3993709 16.006863 4.0214844 14.722656 C 4.0214844 14.722656 3.4304802 13.37606 2.1445312 13.785156 C 0.65601275 14.215455 1.0449219 15.53125 1.0449219 15.53125 C 1.0449219 15.53125 1.4908575 19.333257 9.1992188 19.791016 C 9.5205062 20.505106 10.201833 21 11 21 C 11.811599 21 12.504222 20.48952 12.818359 19.755859 C 21.081057 19.096166 21 14.474609 21 14.474609 C 21 14.474609 21.472853 9.4908284 13 8.8652344 L 13 5.2109375 C 16.801803 5.3972926 17.449219 6.3554688 17.449219 6.3554688 C 17.449219 6.3554688 18.463475 7.5507204 19.613281 7.1621094 C 21.033452 6.3548401 20.357422 5.3085938 20.357422 5.3085938 C 20.357422 5.3085938 19.537417 2.572316 12.796875 2.203125 C 12.474374 1.4925066 11.795778 1 11 1 z M 9 5.2695312 L 9 8.5996094 C 5.2650931 8.0636944 5.2910156 6.6777344 5.2910156 6.6777344 C 5.2910156 6.6777344 5.4350093 5.5800492 9 5.2695312 z M 13 12.037109 C 14.744506 12.250035 17.107788 12.793677 17.128906 14.193359 C 17.107777 15.919627 14.755576 16.45882 13 16.621094 L 13 12.037109 z "
       transform="matrix(0.26458334,0,0,0.26458334,0,291.17915)"
       id="path888" />
  </g>
</svg>
