<?xml version="1.0" encoding="UTF-8" standalone="no"?>
<!-- Created with Inkscape (http://www.inkscape.org/) -->

<svg
   xmlns:dc="http://purl.org/dc/elements/1.1/"
   xmlns:cc="http://creativecommons.org/ns#"
   xmlns:rdf="http://www.w3.org/1999/02/22-rdf-syntax-ns#"
   xmlns:svg="http://www.w3.org/2000/svg"
   xmlns="http://www.w3.org/2000/svg"
   xmlns:sodipodi="http://sodipodi.sourceforge.net/DTD/sodipodi-0.dtd"
   xmlns:inkscape="http://www.inkscape.org/namespaces/inkscape"
   width="72"
   height="300"
   viewBox="0 0 19.05 79.375002"
   version="1.1"
   id="svg5"
   inkscape:version="0.92.5 (2060ec1f9f, 2020-04-08)"
   sodipodi:docname="bruk.svg"
   inkscape:export-filename="/home/victor/Projects/cogmura/data/img/char/bruk.png"
   inkscape:export-xdpi="96"
   inkscape:export-ydpi="96">
  <metadata
     id="metadata3934">
    <rdf:RDF>
      <cc:Work
         rdf:about="">
        <dc:format>image/svg+xml</dc:format>
        <dc:type
           rdf:resource="http://purl.org/dc/dcmitype/StillImage" />
        <dc:title></dc:title>
      </cc:Work>
    </rdf:RDF>
  </metadata>
  <sodipodi:namedview
     id="namedview7"
     pagecolor="#ffffff"
     bordercolor="#666666"
     borderopacity="1.0"
     inkscape:pageshadow="2"
     inkscape:pageopacity="0.0"
     inkscape:pagecheckerboard="true"
     inkscape:document-units="px"
     showgrid="false"
     units="px"
     width="36px"
     inkscape:zoom="1"
     inkscape:cx="-204"
     inkscape:cy="126"
     inkscape:window-width="1920"
     inkscape:window-height="1015"
     inkscape:window-x="0"
     inkscape:window-y="0"
     inkscape:window-maximized="1"
     inkscape:current-layer="layer1"
     inkscape:snap-global="false" />
  <defs
     id="defs2" />
  <g
     inkscape:label="Layer 1"
     inkscape:groupmode="layer"
     id="layer1"
     sodipodi:insensitive="true"
     style="display:none"
     transform="translate(0,39.6875)">
    <rect
       style="opacity:0.15;fill:#000000;stroke:none;stroke-width:0.529167;stroke-linecap:round;stroke-linejoin:round;stroke-miterlimit:4;stroke-dasharray:none;stroke-opacity:1"
       id="rect8570"
       width="9.5249996"
       height="7.9375"
       x="0"
       y="7.9374995" />
    <rect
       style="opacity:0.15;fill:#000000;stroke:none;stroke-width:0.529167;stroke-linecap:round;stroke-linejoin:round;stroke-miterlimit:4;stroke-dasharray:none;stroke-opacity:1"
       id="rect8718"
       width="9.5249996"
       height="7.9375"
       x="0"
       y="23.8125" />
  </g>
  <g
     inkscape:groupmode="layer"
     id="layer2"
     inkscape:label="Layer 2"
     transform="translate(0,39.6875)">
    <path
       style="opacity:1;fill:#ff0000;stroke:#000000;stroke-width:1.06410491;stroke-linecap:round;stroke-linejoin:round;stroke-miterlimit:4;stroke-dasharray:none;stroke-opacity:1"
       d="m 5.4178679,17.190978 c 0,0 2.0164621,-7.9787254 4.174947,-7.8967341 2.1584851,0.082004 4.1069911,8.7278261 4.1069911,8.7278261 0,0 -0.934945,4.646415 -4.1684572,4.665049 -3.2335114,0.01868 -4.1134809,-5.496141 -4.1134809,-5.496141 z"
       id="path13407"
       inkscape:connector-curvature="0" />
    <path
       style="opacity:1;fill:#ff0000;stroke:#000000;stroke-width:1.06410491;stroke-linecap:round;stroke-linejoin:round;stroke-miterlimit:4;stroke-dasharray:none;stroke-opacity:1"
       d="m 6.2735581,-1.4949464 c 0,0 -2.0740924,3.2579047 0.6955136,6.3147915 2.6442912,2.9185737 5.8526423,2.4266498 5.8526423,2.4266498 0,0 3.399018,0.2057415 4.596425,-2.638049 1.067324,-2.5348448 -0.787028,-2.0123669 -0.787028,-2.0123669 0,0 -1.747527,-0.3617308 -2.382479,-1.5147813 -0.634952,-1.15305049 -4.041766,-3.0216092 -4.041766,-3.0216092 z"
       id="path11782"
       sodipodi:nodetypes="cscscscc"
       inkscape:connector-curvature="0" />
    <path
       style="opacity:1;fill:#ff0000;stroke:#000000;stroke-width:1.06410491;stroke-linecap:round;stroke-linejoin:round;stroke-miterlimit:4;stroke-dasharray:none;stroke-opacity:1"
       d="m 6.1966885,-14.493495 c 0,0 -0.8205266,2.315575 -0.1181244,3.505265 1.4672539,2.4851505 2.9489183,2.1769359 2.9489183,2.1769359 0,0 2.6542246,0.252178 5.6322266,-3.1012399 2.117639,-2.384596 3.053802,-7.674844 3.053802,-7.674844 0,0 -0.131215,-2.303381 -2.429846,-1.356816 -2.29863,0.946562 -5.5871131,2.530178 -5.5871131,2.530178 z"
       id="path10535"
       sodipodi:nodetypes="cscscscc"
       inkscape:connector-curvature="0" />
    <path
       style="opacity:1;fill:#ff0000;stroke:#000000;stroke-width:1.06410491;stroke-linecap:round;stroke-linejoin:round;stroke-miterlimit:4;stroke-dasharray:none;stroke-opacity:1"
       d="m 5.9388496,-32.851621 c 0,0 -0.8917708,1.472363 -0.8575462,3.832112 0.034225,2.359747 1.6476737,3.589549 1.6476737,3.589549 0,0 0.9790408,0.882231 4.2444289,0.90859 3.265388,0.02636 7.195132,-4.551211 7.195132,-4.551211 0,0 0.826481,-2.73653 -0.100769,-2.084912 -0.927248,0.651617 -3.036094,0.351892 -3.036094,0.351892 0,0 -2.931558,-0.260251 -4.506162,-1.955566 -1.5746052,-1.695314 -4.5866634,-0.09045 -4.5866634,-0.09045 z"
       id="path8754"
       sodipodi:nodetypes="cscscscsc"
       inkscape:connector-curvature="0" />
    <path
       style="opacity:1;fill:#999999;stroke:#000000;stroke-width:1.06410491;stroke-linecap:round;stroke-linejoin:round;stroke-miterlimit:4;stroke-dasharray:none;stroke-opacity:1"
       d="m 12.681474,-32.020297 c 0,0 0.909147,-0.888317 0.874923,-3.248065 -0.03422,-2.359748 -1.583852,-3.225373 -1.583852,-3.225373 0,0 -0.541529,-0.635248 -3.8069181,-0.661606 -3.2653881,-0.02636 -7.34073086,5.368507 -7.34073086,5.368507 0,0 -0.74329105,2.64389 0.18395846,1.992273 0.9272494,-0.651618 3.2158085,-1.085294 3.2158085,-1.085294 0,0 2.798586,-0.521815 4.6579853,0.856934 1.9063767,1.413581 3.5019867,0.193291 3.7988257,0.0026 z"
       id="path9074"
       sodipodi:nodetypes="cscccscsc"
       inkscape:connector-curvature="0" />
    <path
       style="opacity:1;fill:#999999;stroke:#000000;stroke-width:1.06410491;stroke-linecap:round;stroke-linejoin:round;stroke-miterlimit:4;stroke-dasharray:none;stroke-opacity:1"
       d="m 6.3889511,-35.497856 2.6855416,-0.410027 0.711359,-1.311123 z"
       id="path10247"
       sodipodi:nodetypes="cccc"
       inkscape:connector-curvature="0" />
    <path
       style="opacity:1;fill:#999999;stroke:#000000;stroke-width:1.06410491;stroke-linecap:round;stroke-linejoin:round;stroke-miterlimit:4;stroke-dasharray:none;stroke-opacity:1"
       d="m 9.4678,-22.608852 c 0,0 -3.0564473,-0.724488 -4.9162918,1.570359 -1.5654889,1.931645 -2.7238792,5.95503 -2.7238792,5.95503 0,0 -0.89295669,3.273253 0.8675301,2.636673 1.7604863,-0.636579 5.7693548,-3.204703 5.7693548,-3.204703 0,0 3.8642271,-0.661169 4.2896651,-2.422688 0.76748,-3.17773 -3.286379,-4.534671 -3.286379,-4.534671 z"
       id="path10533"
       sodipodi:nodetypes="cscscsc"
       inkscape:connector-curvature="0" />
    <path
       style="opacity:1;fill:#999999;stroke:#000000;stroke-width:1.06410491;stroke-linecap:round;stroke-linejoin:round;stroke-miterlimit:4;stroke-dasharray:none;stroke-opacity:1"
       d="m 9.2609821,-19.27893 -2.7360484,2.246674 2.1228373,-0.688691 z"
       id="path10650"
       inkscape:connector-curvature="0" />
    <path
       style="opacity:1;fill:#999999;stroke:#000000;stroke-width:1.06410491;stroke-linecap:round;stroke-linejoin:round;stroke-miterlimit:4;stroke-dasharray:none;stroke-opacity:1"
       d="m 3.8818801,-17.587439 0.8535711,-3.682495 -1.0400995,1.90076 z"
       id="path10652"
       sodipodi:nodetypes="cccc"
       inkscape:connector-curvature="0" />
    <path
       style="opacity:1;fill:#999999;stroke:#000000;stroke-width:1.06410491;stroke-linecap:round;stroke-linejoin:round;stroke-miterlimit:4;stroke-dasharray:none;stroke-opacity:1"
       d="m 2.0163035,-5.2504729 c 0,0 1.0154784,-1.5979234 2.6871509,-1.6770347 1.6716729,-0.079111 3.1591494,0.2651041 3.1591494,0.2651041 0,0 4.2826732,1.096325 4.6921262,3.3997105 0.409453,2.30338555 -1.717485,3.7158242 -1.717485,3.7158242 0,0 -2.375014,1.3617264 -4.0542853,-0.0590272 -0.9532616,-0.8065113 -1.5060414,-2.1377218 -1.5060414,-2.1377218 0,0 -1.2376023,-2.0317741 -2.5507359,-2.5089624 0,0 -0.7098789,-0.1121095 -0.7098789,-0.9978887 z"
       id="path11667"
       sodipodi:nodetypes="cscscsccsc"
       inkscape:connector-curvature="0" />
    <path
       style="opacity:1;fill:#999999;stroke:#000000;stroke-width:1.06410491;stroke-linecap:round;stroke-linejoin:round;stroke-miterlimit:4;stroke-dasharray:none;stroke-opacity:1"
       d="M 5.4500769,-4.1345018 7.6563279,-2.9315844 6.3177084,-3.118461 Z"
       id="path12470"
       sodipodi:nodetypes="cccc"
       inkscape:connector-curvature="0" />
    <path
       style="opacity:1;fill:#999999;stroke:#000000;stroke-width:1.06410491;stroke-linecap:round;stroke-linejoin:round;stroke-miterlimit:4;stroke-dasharray:none;stroke-opacity:1"
       d="m 5.5173731,14.624847 c 0,0 1.0854936,-2.940799 4.3538674,-2.969653 3.2683735,-0.02884 3.9729695,3.077829 3.9729695,3.077829 0,0 -1.024162,6.240671 -4.3592429,6.226127 -3.3350808,-0.01467 -3.967594,-6.334303 -3.967594,-6.334303 z"
       id="path13292"
       inkscape:connector-curvature="0" />
    <path
       style="opacity:1;fill:#ff0000;stroke:#000000;stroke-width:1.06410491;stroke-linecap:round;stroke-linejoin:round;stroke-miterlimit:4;stroke-dasharray:none;stroke-opacity:1"
       d="m 11.18643,18.266361 0.855686,-3.553351 0.01419,1.868723 z"
       id="path13555"
       inkscape:connector-curvature="0" />
    <path
       style="opacity:1;fill:#ff0000;stroke:#000000;stroke-width:1.06410491;stroke-linecap:round;stroke-linejoin:round;stroke-miterlimit:4;stroke-dasharray:none;stroke-opacity:1"
       d="M 8.2238296,18.228235 7.3681439,14.674884 7.3539494,16.543608 Z"
       id="path13637"
       inkscape:connector-curvature="0" />
    <path
       style="opacity:1;fill:#ff0000;stroke:#000000;stroke-width:1.06410301;stroke-linecap:round;stroke-linejoin:round;stroke-miterlimit:4;stroke-dasharray:none;stroke-opacity:1"
       d="m 5.754945,33.901571 c 0,0 0.9173608,5.315399 4.0536978,5.253363 3.1363382,-0.06202 3.4627022,-5.13655 3.4627022,-5.13655 0,0 0.423471,-4.963244 -3.7405679,-5.001121 -4.164038,-0.03788 -3.7758321,4.884308 -3.7758321,4.884308 z"
       id="path13674"
       inkscape:connector-curvature="0" />
    <path
       style="opacity:1;fill:#999999;stroke:#000000;stroke-width:1.06410491;stroke-linecap:round;stroke-linejoin:round;stroke-miterlimit:4;stroke-dasharray:none;stroke-opacity:1"
       d="m 6.2831986,29.08432 c 0,0 1.4291103,-4.474485 3.2454612,-4.552981 1.8163512,-0.07851 3.2300862,4.347991 3.2300862,4.347991 0,0 0.07365,3.976012 -3.0112369,3.975039 C 6.6626273,32.853269 6.2831986,29.08432 6.2831986,29.08432 Z"
       id="path13672"
       inkscape:connector-curvature="0" />
    <path
       style="opacity:1;fill:#999999;stroke:#000000;stroke-width:1.06410491;stroke-linecap:round;stroke-linejoin:round;stroke-miterlimit:4;stroke-dasharray:none;stroke-opacity:1"
       d="M 7.7143082,27.48012 7.4979361,26.628707 8.0120838,25.768063 Z"
       id="path13807"
       sodipodi:nodetypes="cccc"
       inkscape:connector-curvature="0" />
    <path
       style="opacity:1;fill:#999999;stroke:#000000;stroke-width:1.06410491;stroke-linecap:round;stroke-linejoin:round;stroke-miterlimit:4;stroke-dasharray:none;stroke-opacity:1"
       d="m 11.453172,27.45859 0.216372,-0.851413 -0.514148,-0.860644 z"
       id="path14140"
       sodipodi:nodetypes="cccc"
       inkscape:connector-curvature="0" />
  </g>
</svg>
