<?xml version="1.0" encoding="UTF-8" standalone="no"?>
<!-- Created with Inkscape (http://www.inkscape.org/) -->

<svg
   width="36"
   height="150"
   viewBox="0 0 9.5249999 39.687501"
   version="1.1"
   id="svg5"
   inkscape:version="1.1.2 (0a00cf5339, 2022-02-04)"
   sodipodi:docname="bruk.svg"
   inkscape:export-filename="/home/victor/Projects/cogmura/data/img/char/bruk.png"
   inkscape:export-xdpi="96"
   inkscape:export-ydpi="96"
   xmlns:inkscape="http://www.inkscape.org/namespaces/inkscape"
   xmlns:sodipodi="http://sodipodi.sourceforge.net/DTD/sodipodi-0.dtd"
   xmlns="http://www.w3.org/2000/svg"
   xmlns:svg="http://www.w3.org/2000/svg">
  <sodipodi:namedview
     id="namedview7"
     pagecolor="#ffffff"
     bordercolor="#666666"
     borderopacity="1.0"
     inkscape:pageshadow="2"
     inkscape:pageopacity="0.0"
     inkscape:pagecheckerboard="true"
     inkscape:document-units="px"
     showgrid="false"
     units="px"
     width="36px"
     inkscape:zoom="1"
     inkscape:cx="-204"
     inkscape:cy="126"
     inkscape:window-width="1920"
     inkscape:window-height="1012"
     inkscape:window-x="0"
     inkscape:window-y="0"
     inkscape:window-maximized="1"
     inkscape:current-layer="layer1"
     inkscape:snap-global="false" />
  <defs
     id="defs2" />
  <g
     inkscape:label="Layer 1"
     inkscape:groupmode="layer"
     id="layer1"
     sodipodi:insensitive="true"
     style="display:none">
    <rect
       style="opacity:0.15;fill:#000000;stroke:none;stroke-width:0.529167;stroke-linecap:round;stroke-linejoin:round;stroke-miterlimit:4;stroke-dasharray:none;stroke-opacity:1"
       id="rect8570"
       width="9.5249996"
       height="7.9375"
       x="0"
       y="7.9374995" />
    <rect
       style="opacity:0.15;fill:#000000;stroke:none;stroke-width:0.529167;stroke-linecap:round;stroke-linejoin:round;stroke-miterlimit:4;stroke-dasharray:none;stroke-opacity:1"
       id="rect8718"
       width="9.5249996"
       height="7.9375"
       x="0"
       y="23.8125" />
  </g>
  <g
     inkscape:groupmode="layer"
     id="layer2"
     inkscape:label="Layer 2">
    <path
       style="opacity:1;fill:#ff0000;stroke:#000000;stroke-width:0.529167;stroke-linecap:round;stroke-linejoin:round;stroke-miterlimit:4;stroke-dasharray:none;stroke-opacity:1"
       d="m 2.7082061,28.403189 c 0,0 1.0015187,-3.972657 2.073576,-3.931833 1.0720573,0.04083 2.0398243,4.345639 2.0398243,4.345639 0,0 -0.4643606,2.313479 -2.0703527,2.322757 -1.6059921,0.0093 -2.0430476,-2.736563 -2.0430476,-2.736563 z"
       id="path13407" />
    <path
       style="opacity:1;fill:#ff0000;stroke:#000000;stroke-width:0.529167;stroke-linecap:round;stroke-linejoin:round;stroke-miterlimit:4;stroke-dasharray:none;stroke-opacity:1"
       d="m 3.1332028,19.099351 c 0,0 -1.030142,1.622131 0.3454416,3.144174 1.3133433,1.453176 2.9068385,1.208244 2.9068385,1.208244 0,0 1.6881945,0.10244 2.2829123,-1.313501 0.530109,-1.262115 -0.3908945,-1.00197 -0.3908945,-1.00197 0,0 -0.867946,-0.180108 -1.1833084,-0.754219 C 6.7788299,19.807968 5.0867631,18.877601 5.0867631,18.877601 Z"
       id="path11782"
       sodipodi:nodetypes="cscscscc" />
    <path
       style="opacity:1;fill:#ff0000;stroke:#000000;stroke-width:0.529167;stroke-linecap:round;stroke-linejoin:round;stroke-miterlimit:4;stroke-dasharray:none;stroke-opacity:1"
       d="m 3.0950239,12.627293 c 0,0 -0.407532,1.152939 -0.058669,1.745293 0.7287428,1.237372 1.4646428,1.08391 1.4646428,1.08391 0,0 1.3182767,0.125561 2.7973645,-1.544127 1.0517702,-1.187305 1.5167359,-3.821352 1.5167359,-3.821352 0,0 -0.065171,-1.1468677 -1.2068346,-0.6755678 C 6.4666,9.8867489 4.8333053,10.675241 4.8333053,10.675241 Z"
       id="path10535"
       sodipodi:nodetypes="cscscscc" />
    <path
       style="opacity:1;fill:#ff0000;stroke:#000000;stroke-width:0.529167;stroke-linecap:round;stroke-linejoin:round;stroke-miterlimit:4;stroke-dasharray:none;stroke-opacity:1"
       d="m 2.9669627,3.486668 c 0,0 -0.4429169,0.7330983 -0.4259185,1.9080317 0.016999,1.1749334 0.8183521,1.7872587 0.8183521,1.7872587 0,0 0.4862614,0.4392689 2.1080856,0.452393 1.6218243,0.013123 3.573615,-2.2660764 3.573615,-2.2660764 0,0 0.4104892,-1.3625349 -0.050049,-1.0380906 -0.460538,0.3244443 -1.5079405,0.1752092 -1.5079405,0.1752092 0,0 -1.4560207,-0.1295807 -2.2380811,-0.9736882 C 4.4629653,2.687598 2.9669627,3.486668 2.9669627,3.486668 Z"
       id="path8754"
       sodipodi:nodetypes="cscscscsc" />
    <path
       style="opacity:1;fill:#999999;stroke:#000000;stroke-width:0.529167;stroke-linecap:round;stroke-linejoin:round;stroke-miterlimit:4;stroke-dasharray:none;stroke-opacity:1"
       d="m 6.3158298,3.9005889 c 0,0 0.4515476,-0.4422982 0.4345492,-1.6172316 C 6.73338,1.1084239 5.9637251,0.67742383 5.9637251,0.67742383 c 0,0 -0.268962,-0.31629362 -1.8907862,-0.32941772 -1.6218243,-0.013123 -3.6459297,2.67301269 -3.6459297,2.67301269 0,0 -0.36917127,1.3164096 0.0913669,0.9919653 C 0.97891412,3.6885398 2.1155756,3.4726093 2.1155756,3.4726093 c 0,0 1.3899771,-0.2598144 2.3134872,0.4266729 0.9468422,0.7038311 1.7393358,0.096241 1.886767,0.00131 z"
       id="path9074"
       sodipodi:nodetypes="cscccscsc" />
    <path
       style="opacity:1;fill:#999999;stroke:#000000;stroke-width:0.529167;stroke-linecap:round;stroke-linejoin:round;stroke-miterlimit:4;stroke-dasharray:none;stroke-opacity:1"
       d="M 3.1905152,2.1690905 4.5243464,1.9649358 4.8776579,1.3121197 Z"
       id="path10247"
       sodipodi:nodetypes="cccc" />
    <path
       style="opacity:1;fill:#999999;stroke:#000000;stroke-width:0.529167;stroke-linecap:round;stroke-linejoin:round;stroke-miterlimit:4;stroke-dasharray:none;stroke-opacity:1"
       d="m 4.7196908,8.5866059 c 0,0 -1.5180494,-0.3607268 -2.4417806,0.781892 -0.7775333,0.9617781 -1.35287243,2.9650461 -1.35287243,2.9650461 0,0 -0.44350586,1.629773 0.43087723,1.312816 0.8743829,-0.316957 2.8654725,-1.595642 2.8654725,-1.595642 0,0 1.9192499,-0.3292 2.1305531,-1.206271 C 6.7331257,9.2622355 4.7196908,8.5866059 4.7196908,8.5866059 Z"
       id="path10533"
       sodipodi:nodetypes="cscscsc" />
    <path
       style="opacity:1;fill:#999999;stroke:#000000;stroke-width:0.529167;stroke-linecap:round;stroke-linejoin:round;stroke-miterlimit:4;stroke-dasharray:none;stroke-opacity:1"
       d="M 4.6169703,10.244595 3.2580538,11.363228 4.312406,11.020324 Z"
       id="path10650" />
    <path
       style="opacity:1;fill:#999999;stroke:#000000;stroke-width:0.529167;stroke-linecap:round;stroke-linejoin:round;stroke-miterlimit:4;stroke-dasharray:none;stroke-opacity:1"
       d="M 1.9453252,11.086799 2.3692694,9.2532613 1.8526819,10.199662 Z"
       id="path10652"
       sodipodi:nodetypes="cccc" />
    <path
       style="opacity:1;fill:#999999;stroke:#000000;stroke-width:0.529167;stroke-linecap:round;stroke-linejoin:round;stroke-miterlimit:4;stroke-dasharray:none;stroke-opacity:1"
       d="m 1.018747,17.229451 c 0,0 0.5043589,-0.795616 1.3346305,-0.835006 0.8302718,-0.03939 1.5690586,0.131997 1.5690586,0.131997 0,0 2.1270801,0.545867 2.3304436,1.692737 0.2033636,1.14687 -0.8530252,1.850132 -0.8530252,1.850132 0,0 -1.1796009,0.678012 -2.0136466,-0.02939 -0.4734576,-0.401567 -0.7480074,-1.064385 -0.7480074,-1.064385 0,0 -0.6146814,-1.011633 -1.2668771,-1.249228 0,0 -0.3525764,-0.05582 -0.3525764,-0.496855 z"
       id="path11667"
       sodipodi:nodetypes="cscscsccsc" />
    <path
       style="opacity:1;fill:#999999;stroke:#000000;stroke-width:0.529167;stroke-linecap:round;stroke-linejoin:round;stroke-miterlimit:4;stroke-dasharray:none;stroke-opacity:1"
       d="M 2.7242034,17.7851 3.8199848,18.38404 3.155131,18.290993 Z"
       id="path12470"
       sodipodi:nodetypes="cccc" />
    <path
       style="opacity:1;fill:#999999;stroke:#000000;stroke-width:0.529167;stroke-linecap:round;stroke-linejoin:round;stroke-miterlimit:4;stroke-dasharray:none;stroke-opacity:1"
       d="m 2.7576275,27.125496 c 0,0 0.5391334,-1.464242 2.1624406,-1.478608 1.6233072,-0.01436 1.9732595,1.53247 1.9732595,1.53247 0,0 -0.5086719,3.107269 -2.1651104,3.100027 -1.6564386,-0.0073 -1.9705897,-3.153889 -1.9705897,-3.153889 z"
       id="path13292" />
    <path
       style="opacity:1;fill:#ff0000;stroke:#000000;stroke-width:0.529167;stroke-linecap:round;stroke-linejoin:round;stroke-miterlimit:4;stroke-dasharray:none;stroke-opacity:1"
       d="m 5.5732845,28.938629 0.4249944,-1.769236 0.00705,0.930449 z"
       id="path13555" />
    <path
       style="opacity:1;fill:#ff0000;stroke:#000000;stroke-width:0.529167;stroke-linecap:round;stroke-linejoin:round;stroke-miterlimit:4;stroke-dasharray:none;stroke-opacity:1"
       d="M 4.1018465,28.919646 3.6768521,27.15041 3.6698021,28.080859 Z"
       id="path13637" />
    <path
       style="opacity:1;fill:#ff0000;stroke:#000000;stroke-width:0.529166;stroke-linecap:round;stroke-linejoin:round;stroke-miterlimit:4;stroke-dasharray:none;stroke-opacity:1"
       d="m 2.8756226,36.723497 c 0,0 0.4556267,2.64657 2.013355,2.615682 1.5577283,-0.03088 1.7198241,-2.55752 1.7198241,-2.55752 0,0 0.2103257,-2.47123 -1.857832,-2.490089 -2.0681578,-0.01886 -1.8753471,2.431927 -1.8753471,2.431927 z"
       id="path13674" />
    <path
       style="opacity:1;fill:#999999;stroke:#000000;stroke-width:0.529167;stroke-linecap:round;stroke-linejoin:round;stroke-miterlimit:4;stroke-dasharray:none;stroke-opacity:1"
       d="m 3.137991,34.324958 c 0,0 0.7097979,-2.227874 1.6119271,-2.266958 0.9021292,-0.03909 1.6042908,2.164892 1.6042908,2.164892 0,0 0.036577,1.979681 -1.4955946,1.979197 C 3.3264423,36.20156 3.137991,34.324958 3.137991,34.324958 Z"
       id="path13672" />
    <path
       style="opacity:1;fill:#999999;stroke:#000000;stroke-width:0.529167;stroke-linecap:round;stroke-linejoin:round;stroke-miterlimit:4;stroke-dasharray:none;stroke-opacity:1"
       d="M 3.8487819,33.526217 3.7413161,33.102293 3.9966785,32.673773 Z"
       id="path13807"
       sodipodi:nodetypes="cccc" />
    <path
       style="opacity:1;fill:#999999;stroke:#000000;stroke-width:0.529167;stroke-linecap:round;stroke-linejoin:round;stroke-miterlimit:4;stroke-dasharray:none;stroke-opacity:1"
       d="M 5.7057676,33.515497 5.8132334,33.091573 5.557871,32.663053 Z"
       id="path14140"
       sodipodi:nodetypes="cccc" />
  </g>
</svg>
