<?xml version="1.0" encoding="UTF-8" standalone="no"?>
<!-- Created with Inkscape (http://www.inkscape.org/) -->

<svg
   width="240"
   height="80"
   viewBox="0 0 63.499999 21.166667"
   version="1.1"
   id="svg5"
   inkscape:version="1.1.2 (0a00cf5339, 2022-02-04)"
   sodipodi:docname="cogjian.svg"
   inkscape:export-filename="/home/victor/Projects/cogmura/data/img/char/cogjian.png"
   inkscape:export-xdpi="96"
   inkscape:export-ydpi="96"
   xmlns:inkscape="http://www.inkscape.org/namespaces/inkscape"
   xmlns:sodipodi="http://sodipodi.sourceforge.net/DTD/sodipodi-0.dtd"
   xmlns="http://www.w3.org/2000/svg"
   xmlns:svg="http://www.w3.org/2000/svg">
  <sodipodi:namedview
     id="namedview7"
     pagecolor="#ffffff"
     bordercolor="#666666"
     borderopacity="1.0"
     inkscape:pageshadow="2"
     inkscape:pageopacity="0.0"
     inkscape:pagecheckerboard="true"
     inkscape:document-units="px"
     showgrid="false"
     units="px"
     width="240px"
     inkscape:zoom="1"
     inkscape:cx="7"
     inkscape:cy="68"
     inkscape:window-width="1920"
     inkscape:window-height="1012"
     inkscape:window-x="0"
     inkscape:window-y="0"
     inkscape:window-maximized="1"
     inkscape:current-layer="layer1"
     inkscape:snap-global="false" />
  <defs
     id="defs2" />
  <g
     inkscape:label="Layer 1"
     inkscape:groupmode="layer"
     id="layer1">
    <path
       style="fill:#999999;stroke:#000000;stroke-width:0.529167;stroke-linecap:round;stroke-linejoin:round"
       d="m 58.63816,13.431617 c 0,0 0.348726,0.723611 0.362535,1.28027 0.0138,0.556658 -0.0509,1.002967 -0.0509,1.002967 0,0 0.07841,1.027599 -0.06635,1.447757 0,0 0.138037,1.090587 -0.06294,1.892176 0.128389,0.411345 0.177895,0.721176 0.143233,1.042759 0,0 -0.244632,0.314042 -0.54247,0.320694 -0.508246,0.0073 -0.95083,-0.527125 -0.95083,-0.527125 0,0 -0.202851,-0.723654 0.434528,-1.01525 -0.03415,-0.623368 -0.116327,-1.687116 -0.116327,-1.687116 0,0 0.05732,-0.899525 0.05128,-1.433956 0,0 0.0092,0.909221 -0.201839,1.333286 0,0 0.139111,1.179882 -0.109329,1.500502 0,0 -0.174981,0.949098 -0.13252,1.295256 0,0 0.08201,0.8752 -0.21185,0.98399 -0.293867,0.108791 -1.016672,-0.04904 -1.016672,-0.04904 0,0 -0.563877,-0.403266 -0.795113,-0.923517 -0.231238,-0.520253 0.356335,-0.734755 0.356335,-0.734755 l 0.42676,0.16451 0.01873,0.39667 c 0,0 0.121683,-1.277987 0.08173,-1.713714 0,0 -0.220846,-0.512067 -0.05996,-0.806515 0,0 -0.471324,-1.136289 -0.289725,-2.923934 0.181598,-1.787644 2.731616,-0.845909 2.731615,-0.845909 z"
       id="path1231"
       sodipodi:nodetypes="csccccccccccccscscccccscc" />
    <path
       style="fill:#999999;stroke:#000000;stroke-width:0.529167;stroke-linecap:round;stroke-linejoin:round"
       d="m 59.305854,7.5424992 c 0,0 0.92657,0.0154 1.045875,1.2791344 0.13871,1.4693114 -0.03223,2.1565304 -0.03223,2.1565304 0,0 0.06867,1.20987 -0.519241,1.932265 0,0 0.243795,0.322004 0.156969,0.625216 -0.176643,0.616873 -0.893116,0.375583 -0.893116,0.375583 0,0 -0.650543,-0.212136 -0.571454,-0.863604 0.06522,-0.537136 0.560506,-0.497636 0.560506,-0.497636 0,0 -0.0247,-1.668552 0.252279,-2.040191 0,0 -0.526003,-1.4671914 -0.562071,-2.0863751 -0.05452,-0.9359157 0.562483,-0.8809232 0.562483,-0.8809227 z"
       id="path1030"
       sodipodi:nodetypes="csccscsccsc" />
    <path
       style="fill:#999999;stroke:#000000;stroke-width:0.529167;stroke-linecap:round;stroke-linejoin:round"
       d="m 43.440569,12.789548 c 0,0 -0.502892,1.922802 -0.207079,3.441821 0.231576,1.189163 0.08402,2.465873 0.08402,2.465873 0,0 -0.533115,0.320975 -0.703785,0.49146 -0.170668,0.170486 0.02054,0.651793 0.02054,0.651793 0,0 0.312955,0.268387 0.586074,0.32448 0.273118,0.05609 0.98764,-0.51488 0.98764,-0.51488 0,0 0.146665,-0.32134 0.08171,-0.619741 -0.06495,-0.298401 0.07283,-1.843648 0.07283,-1.843648 0,0 0.0816,-0.724953 -0.02364,-1.23474 0,0 0.173709,-0.533736 0.27846,0.583986 0,0 -0.0043,0.656125 0.221698,1.581956 0.09532,0.796647 0.0375,1.376362 0.0375,1.376362 l -0.685491,0.41245 c 0,0 -0.215465,0.262137 -0.08507,0.495181 0.202708,0.362285 0.857343,0.474618 0.857343,0.474618 0,0 0.742971,-0.231882 0.968741,-0.531487 0.22577,-0.299606 0.03109,-0.847081 0.03109,-0.847081 l 0.08963,-1.380729 c 0,0 0.184044,-0.797339 0.249695,-1.592678 0,0 0.346822,-1.776496 -0.0468,-2.751741 -0.393623,-0.975244 -2.815102,-0.983255 -2.815102,-0.983255 z"
       id="path19094"
       sodipodi:nodetypes="cscscscsccccccscscccscc" />
    <path
       style="fill:#999999;stroke:#000000;stroke-width:0.529167;stroke-linecap:round;stroke-linejoin:round"
       d="m 42.520336,7.5501696 c 0,0 1.082274,-0.1986401 1.095359,1.0688813 0.01521,1.4737161 -0.253513,2.2175661 -0.253513,2.2175661 0,0 -0.04075,1.224036 -0.800728,2.100431 0,0 0.252944,0.273585 0.12104,0.604423 -0.268354,0.673077 -1.08227,0.591595 -1.08227,0.591595 0,0 -0.739714,-0.06686 -0.582009,-0.752816 0.130038,-0.565573 0.705428,-0.639709 0.705428,-0.639709 0,0 0.138084,-1.704289 0.499262,-2.149259 0,0 -0.468442,-1.3819164 -0.448666,-2.0081367 0.02989,-0.9465511 0.746096,-1.032976 0.746097,-1.0329757 z"
       id="path19059"
       sodipodi:nodetypes="csccscsccsc" />
    <path
       style="fill:#999999;stroke:#000000;stroke-width:0.529167;stroke-linecap:round;stroke-linejoin:round"
       d="m 31.016948,7.5380684 c 0,0 1.078795,-0.1805902 1.173637,1.0775501 0.11027,1.4628105 -0.112857,2.1969285 -0.112857,2.1969285 0,0 0.03774,1.214162 -0.672329,2.072311 0,0 0.272744,0.275385 0.161014,0.601705 -0.227311,0.663886 -1.053482,0.570575 -1.053482,0.570575 0,0 -0.750388,-0.07767 -0.635509,-0.756025 0.09472,-0.559311 0.670296,-0.624088 0.670296,-0.624088 0,0 0.0295,-1.689293 0.365123,-2.125379 0,0 -0.561486,-1.3786332 -0.581877,-1.9998186 -0.03082,-0.9389386 0.685984,-1.013759 0.685984,-1.013759 z"
       id="path13440"
       sodipodi:nodetypes="csccscsccsc" />
    <path
       style="fill:#999999;stroke:#000000;stroke-width:0.529167;stroke-linecap:round;stroke-linejoin:round"
       d="m 30.62526,13.658505 c 0,0 -0.302365,1.820768 -0.0091,3.402874 0.293245,1.582105 0.11975,2.308484 0.11975,2.308484 l -0.688641,0.110741 c 0,0 -0.14088,0.328853 -0.03973,0.606153 l 0.463208,0.14451 0.0199,-0.08586 0.89352,-0.08088 c 0,0 0.246348,-1.724049 4.4e-5,-2.65035 -0.246303,-0.926301 -0.229001,-2.062129 -0.229001,-2.062129 0,0 -0.0111,1.452373 0.276734,2.321757 0.287841,0.869385 -0.08,2.393534 -0.08,2.393534 l -0.864456,0.09877 c 0,0 -0.118361,0.294233 -0.01089,0.651796 0,0 1.39248,0.135683 2.267342,0.02215 0,0 0.06482,-0.373299 0.0015,-0.773543 0,0 0.190947,-1.516622 0.0033,-2.023114 0,0 0.106875,-1.113956 0.29124,-1.534046 0.378543,-1.272441 0.0036,-2.76332 0.0036,-2.76332 z"
       id="path14871"
       sodipodi:nodetypes="ccccccccscsccccccccc" />
    <path
       style="fill:#999999;stroke:#000000;stroke-width:0.529167;stroke-linecap:round;stroke-linejoin:round"
       d="m 29.718079,8.629085 c 0,0 0.176714,-0.8379628 0.98078,-0.9830144 0.804065,-0.1450517 3.081173,-0.2411482 3.371012,0.967356 l -1.071078,5.1361814 c 0,0 -1.174505,0.914848 -2.35291,10e-4 z"
       id="path10803"
       sodipodi:nodetypes="cscccc" />
    <path
       style="fill:#999999;stroke:#000000;stroke-width:0.529167;stroke-linecap:round;stroke-linejoin:round"
       d="m 9.4305675,8.1142287 c 0,0 1.4800235,0.2533971 1.5148725,1.5784668 0.03485,1.3250705 -0.260203,2.4909165 -0.260203,2.4909165 0,0 0.152256,0.825874 -0.112299,2.033403 0,0 0.280178,0.361895 0.247538,0.789029 -0.05467,0.715388 -0.9368909,0.639563 -0.9368909,0.639563 0,0 -0.7327328,-0.100742 -0.7365274,-0.796114 -0.00239,-0.437242 0.4114011,-0.679816 0.4114011,-0.679816 0,0 -0.1843478,-1.326496 0.080236,-1.969315 0,0 -0.6366598,-0.885695 -0.638628,-2.118501 z"
       id="path1551"
       sodipodi:nodetypes="csccscscccc" />
    <path
       style="fill:#999999;stroke:#000000;stroke-width:0.529167;stroke-linecap:round;stroke-linejoin:round"
       d="m 3.2417014,8.1142287 c 0,0 -1.4800245,0.2533971 -1.5148735,1.5784668 -0.03485,1.3250705 0.260203,2.4909165 0.260203,2.4909165 0,0 -0.152256,0.825874 0.112299,2.033403 0,0 -0.280178,0.361895 -0.247538,0.789029 0.05467,0.715388 0.9368925,0.639563 0.9368925,0.639563 0,0 0.732732,-0.100742 0.736527,-0.796114 0.0024,-0.437242 -0.411401,-0.679816 -0.411401,-0.679816 0,0 0.184347,-1.326496 -0.08024,-1.969315 0,0 0.636659,-0.885695 0.638628,-2.118501 z"
       id="path2325"
       sodipodi:nodetypes="csccscscccc" />
    <path
       id="path2360"
       style="fill:#999999;stroke:#000000;stroke-width:0.529167;stroke-linecap:round;stroke-linejoin:round"
       d="m 4.8363973,13.62097 c 0,0 -0.8537631,1.484189 -0.7668784,3.4401 0,0 0.2404036,1.955993 0.02439,2.335144 l -0.3961847,0.672321 c 0,0 -0.072154,0.678907 0.3912865,0.777722 0.8762024,0.110055 1.1282419,-0.255689 1.1282419,-0.255689 0,0 0.3870727,-0.350605 0.2573486,-1.030428 0,0 0.5190111,-1.609745 0.4242636,-2.517159 0,0 0.055958,-1.146909 0.4598535,-1.147212 0.4038957,2.91e-4 0.4424169,1.147212 0.4424169,1.147212 -0.094747,0.907414 0.4242636,2.517159 0.4242636,2.517159 -0.1297241,0.679823 0.2573486,1.030428 0.2573486,1.030428 0,0 0.2869686,0.345137 1.163171,0.235087 0.463441,-0.09882 0.350461,-0.807783 0.350461,-0.807783 L 8.6418527,19.391258 C 8.425839,19.012107 8.6304807,17.06107 8.6304807,17.06107 8.7173657,15.105159 7.8636024,13.62097 7.8636024,13.62097 l -1.5136027,0.04186 z"
       sodipodi:nodetypes="ccccccccccccccccccc" />
    <path
       style="fill:#999999;stroke:#000000;stroke-width:0.529167;stroke-linecap:round;stroke-linejoin:round"
       d="m 2.9552995,8.0219496 c 0,0 3.3538101,-1.1207366 6.7894009,0.00836 l -1.633081,5.7192984 c 0,0 -1.7767553,0.914848 -3.5594077,10e-4 z"
       id="path1436"
       sodipodi:nodetypes="ccccc" />
    <ellipse
       style="fill:#999999;stroke:#000000;stroke-width:0.529167;stroke-linecap:round;stroke-linejoin:round"
       id="path1321"
       cx="6.3499999"
       cy="5.7693601"
       rx="2.3908131"
       ry="2.2830188" />
    <path
       style="fill:#ff6600;stroke:none;stroke-width:0.529167;stroke-linecap:round;stroke-linejoin:round"
       d="m 6.4954198,0.26513156 c 0,0 -3.0026037,-0.14347194 -4.5522514,3.30552034 -0.3639454,0.8100197 -1.67860651,0.4382157 -1.67860651,0.4382157 0,0 0.87917001,2.2902818 6.17974961,2.2731065 5.3005795,-0.017175 5.9911185,-2.1145258 5.9911185,-2.1145258 0,0 -1.168319,0.2589367 -1.527991,-0.580352 C 9.4551363,0.19817023 6.4954198,0.26513156 6.4954198,0.26513156 Z"
       id="path39"
       sodipodi:nodetypes="cscscsc" />
    <ellipse
       style="fill:#000000;stroke:none;stroke-width:0.547916;stroke-linecap:round;stroke-linejoin:round"
       id="path5675"
       cx="5.7588744"
       cy="5.0681"
       rx="0.31290153"
       ry="0.48722407"
       transform="matrix(0.93273431,0.36056442,0,1,0,0)" />
    <ellipse
       style="fill:#000000;stroke:none;stroke-width:0.547916;stroke-linecap:round;stroke-linejoin:round"
       id="ellipse5779"
       cx="-7.8297191"
       cy="9.9676619"
       rx="0.31290153"
       ry="0.48722407"
       transform="matrix(-0.93273431,0.36056442,0,1,0,0)" />
    <path
       style="fill:none;stroke:#aa4400;stroke-width:0.529167;stroke-linecap:round;stroke-linejoin:round"
       d="m 3.9600002,5.757974 c 0,0 1.1853605,-2.0750416 2.4171804,-2.0723899 1.2318198,0.00265 2.1938765,2.2489477 2.1938765,2.2489477"
       id="path5912" />
    <path
       style="fill:none;stroke:#aa4400;stroke-width:0.529167;stroke-linecap:round;stroke-linejoin:round"
       d="m 4.6209055,4.7889611 c 0,0 -0.953412,-0.034661 -1.2891402,-0.6089906 C 2.9960371,3.6056405 2.2838964,3.2484898 2.2838964,3.2484898"
       id="path6093" />
    <path
       style="fill:none;stroke:#aa4400;stroke-width:0.529167;stroke-linecap:round;stroke-linejoin:round"
       d="m 5.3528073,4.0681943 c 0,0 -0.1742779,-1.1689839 -0.4803777,-1.2828174 C 4.5663294,2.6715436 4.0202093,1.7437936 4.0202093,1.7437936 c 0,0 -0.039676,-0.2979777 -0.2684711,-0.3876898"
       id="path6095" />
    <path
       style="fill:none;stroke:#aa4400;stroke-width:0.529167;stroke-linecap:round;stroke-linejoin:round"
       d="m 6.4519508,3.6098902 c 0,0 0.2373764,-0.7372553 0.1512323,-1.2693681 -0.086144,-0.5321128 0.066659,-1.2626752 0.066659,-1.2626752 0,0 0.064278,-0.5430048 -0.2027068,-0.7060076"
       id="path6097" />
    <path
       style="fill:none;stroke:#aa4400;stroke-width:0.529167;stroke-linecap:round;stroke-linejoin:round"
       d="m 7.5737775,4.1431439 c 0,0 0.3516198,-0.8014099 0.6553803,-0.8419605 0.3037607,-0.04055 1.1540307,-0.9609696 1.1540307,-0.9609696 0,0 0.2225982,-0.3126126 0.2235732,-0.5609694"
       id="path6099" />
    <path
       style="fill:none;stroke:#aa4400;stroke-width:0.529167;stroke-linecap:round;stroke-linejoin:round"
       d="m 8.2022639,5.2379111 c 0,0 0.7372139,-0.7664513 1.3926606,-0.6230884 0.6554465,0.1433626 1.3185325,-0.8422714 1.3185325,-0.8422714"
       id="path6101" />
    <path
       style="fill:none;stroke:#000000;stroke-width:0.529167;stroke-linecap:round;stroke-linejoin:round"
       d="m 6.4954198,0.26513156 c 0,0 -3.0026037,-0.14347194 -4.5522514,3.30552034 -0.3639454,0.8100197 -1.67860651,0.4382157 -1.67860651,0.4382157 0,0 0.87917001,2.2902818 6.17974961,2.2731065 5.3005795,-0.017175 5.9911185,-2.1145258 5.9911185,-2.1145258 0,0 -1.168319,0.2589367 -1.527991,-0.580352 C 9.4551363,0.19817023 6.4954198,0.26513156 6.4954198,0.26513156 Z"
       id="path6183"
       sodipodi:nodetypes="cscscsc" />
    <path
       style="fill:#999999;stroke:#000000;stroke-width:0.529167;stroke-linecap:round;stroke-linejoin:round"
       d="m 22.130572,8.1142343 c 0,0 1.480023,0.2387239 1.514872,1.4870642 0.03485,1.2483415 -0.260203,2.3466775 -0.260203,2.3466775 0,0 0.152256,0.778051 -0.112299,1.915657 0,0 0.280178,0.340939 0.247538,0.74334 -0.05467,0.673962 -0.93689,0.602528 -0.93689,0.602528 0,0 -0.732733,-0.09491 -0.736528,-0.750014 -0.0024,-0.411923 0.411401,-0.640451 0.411401,-0.640451 0,0 -0.184348,-1.249684 0.08024,-1.85528 0,0 -0.63666,-0.834408 -0.638628,-1.995827 z"
       id="path6221"
       sodipodi:nodetypes="csccscscccc" />
    <path
       style="fill:#999999;stroke:#000000;stroke-width:0.529167;stroke-linecap:round;stroke-linejoin:round"
       d="m 15.941706,8.1142344 c 0,0 -1.480025,0.2384185 -1.514874,1.4851615 -0.03485,1.2467441 0.260203,2.3436751 0.260203,2.3436751 0,0 -0.152256,0.777055 0.112299,1.913206 0,0 -0.280178,0.340503 -0.247538,0.742388 0.05467,0.673101 0.936893,0.601758 0.936893,0.601758 0,0 0.732732,-0.09479 0.736527,-0.749055 0.0024,-0.411396 -0.411401,-0.639631 -0.411401,-0.639631 0,0 0.184347,-1.248085 -0.08024,-1.852906 0,0 0.636659,-0.833341 0.638628,-1.9932737 z"
       id="path6223"
       sodipodi:nodetypes="csccscscccc" />
    <path
       id="path6225"
       style="fill:#999999;stroke:#000000;stroke-width:0.529167;stroke-linecap:round;stroke-linejoin:round"
       d="m 17.536402,13.62097 c 0,0 -0.806139,1.59214 -0.719255,3.548051 0,0 0.302948,2.001191 0.08693,2.380342 l -0.42437,-0.01362 c 0,0 0.03407,1.211702 0.497503,1.310517 0.876203,0.110055 1.097269,-0.087 1.097269,-0.087 0,0 0.335264,-0.362035 0.20554,-1.041858 0,0 0.413594,-1.767005 0.318846,-2.674419 0,0 0.05596,-1.146909 0.459854,-1.147212 0.403895,2.91e-4 0.442417,1.147212 0.442417,1.147212 -0.09475,0.907414 0.397631,2.64905 0.397631,2.64905 -0.129724,0.679823 0.111114,1.060601 0.111114,1.060601 0,0 0.346521,0.191443 1.222724,0.08139 0.463441,-0.09882 0.388551,-1.349285 0.388551,-1.349285 l -0.383551,0.0127 c -0.216014,-0.379151 0.09288,-2.436366 0.09288,-2.436366 0.08688,-1.955911 -0.766878,-3.4401 -0.766878,-3.4401 l -1.513603,0.04186 z"
       sodipodi:nodetypes="ccccccccccccccccccc" />
    <path
       style="fill:#999999;stroke:#000000;stroke-width:0.529167;stroke-linecap:round;stroke-linejoin:round"
       d="m 15.655304,8.0219496 c 0,0 3.35381,-1.1207366 6.789401,0.00836 l -1.633081,5.7192984 c 0,0 -1.776755,0.914848 -3.559408,10e-4 z"
       id="path6227"
       sodipodi:nodetypes="ccccc" />
    <ellipse
       style="fill:#999999;stroke:#000000;stroke-width:0.529167;stroke-linecap:round;stroke-linejoin:round"
       id="ellipse6229"
       cx="19.050005"
       cy="5.7693601"
       rx="2.3908131"
       ry="2.2830188" />
    <path
       style="fill:#ff6600;stroke:none;stroke-width:0.529167;stroke-linecap:round;stroke-linejoin:round"
       d="m 19.195424,0.26513156 c 0,0 -3.002603,-0.14347194 -4.552251,3.30552034 -0.363946,0.8100197 -1.678607,0.4382157 -1.678607,0.4382157 0,0 0.87917,2.2902818 6.17975,2.2731065 5.300579,-0.017175 5.991118,-2.1145258 5.991118,-2.1145258 0,0 -1.168319,0.2589367 -1.527991,-0.580352 C 22.155141,0.19817023 19.195424,0.26513156 19.195424,0.26513156 Z"
       id="path6231"
       sodipodi:nodetypes="cscscsc" />
    <path
       style="fill:none;stroke:#aa4400;stroke-width:0.529167;stroke-linecap:round;stroke-linejoin:round"
       d="m 14.983901,3.2484898 c 0,0 0.712141,0.3571507 1.047869,0.9314807 0.335728,0.5743296 1.28914,0.6089906 1.28914,0.6089906 0,0 0.738262,0.312284 1.012978,1.321003"
       id="path6239"
       sodipodi:nodetypes="cscc" />
    <path
       style="fill:none;stroke:#aa4400;stroke-width:0.529167;stroke-linecap:round;stroke-linejoin:round"
       d="m 16.451743,1.3561038 c 0.228791,0.089712 0.268471,0.3876898 0.268471,0.3876898 0,0 0.54612,0.92775 0.85222,1.0415833 0.3061,0.1138335 0.480378,1.2828174 0.480378,1.2828174 0,0 0.204015,0.651404 0.602796,1.1323831 0.398781,0.4809791 0.08908,0.9569039 0.08908,0.9569039"
       id="path6241"
       sodipodi:nodetypes="ccscsc" />
    <path
       style="fill:none;stroke:#aa4400;stroke-width:0.529167;stroke-linecap:round;stroke-linejoin:round"
       d="m 19.167141,0.3718393 c 0.266987,0.1630028 0.202707,0.7060076 0.202707,0.7060076 0,0 -0.1528,0.7305624 -0.06666,1.2626752 0.08614,0.5321128 -0.151233,1.2693681 -0.151233,1.2693681 0,0 -0.203819,1.0067246 -0.0042,1.3068697 0.199636,0.3001452 -0.07755,1.1958862 -0.07755,1.1958862"
       id="path6243"
       sodipodi:nodetypes="ccscsc" />
    <path
       style="fill:none;stroke:#aa4400;stroke-width:0.529167;stroke-linecap:round;stroke-linejoin:round"
       d="m 22.306766,1.7792444 c -9.75e-4,0.2483568 -0.223573,0.5609694 -0.223573,0.5609694 0,0 -0.85027,0.9204196 -1.154031,0.9609696 -0.30376,0.040551 -0.65538,0.8419605 -0.65538,0.8419605 0,0 -0.232619,0.6593834 -0.397591,0.9230007 -0.164973,0.2636172 -0.531814,1.0004916 -0.531814,1.0004916"
       id="path6245"
       sodipodi:nodetypes="ccscsc" />
    <path
       style="fill:none;stroke:#aa4400;stroke-width:0.529167;stroke-linecap:round;stroke-linejoin:round"
       d="m 23.613461,3.7725513 c 0,0 -0.663086,0.985634 -1.318532,0.8422714 -0.655447,-0.1433629 -1.392661,0.6230884 -1.392661,0.6230884 0,0 -0.590072,0.8075229 -1.297742,0.9991406"
       id="path6247"
       sodipodi:nodetypes="cscc" />
    <path
       style="fill:none;stroke:#000000;stroke-width:0.529167;stroke-linecap:round;stroke-linejoin:round"
       d="m 19.195424,0.26513156 c 0,0 -3.002603,-0.14347194 -4.552251,3.30552034 -0.363946,0.8100197 -1.678607,0.4382157 -1.678607,0.4382157 0,0 0.87917,2.2902818 6.17975,2.2731065 5.300579,-0.017175 5.991118,-2.1145258 5.991118,-2.1145258 0,0 -1.168319,0.2589367 -1.527991,-0.580352 C 22.155141,0.19817023 19.195424,0.26513156 19.195424,0.26513156 Z"
       id="path6249"
       sodipodi:nodetypes="cscscsc" />
    <ellipse
       style="fill:#999999;stroke:#000000;stroke-width:0.529167;stroke-linecap:round;stroke-linejoin:round"
       id="ellipse8717"
       cx="31.750004"
       cy="5.7693601"
       rx="2.3908131"
       ry="2.2830188" />
    <path
       style="fill:#ff6600;stroke:none;stroke-width:0.529167;stroke-linecap:round;stroke-linejoin:round"
       d="m 31.895424,0.26513156 c 0,0 -3.002603,-0.14347194 -4.552251,3.30552034 -0.363946,0.8100197 -1.678607,0.4382157 -1.678607,0.4382157 0,0 0.87917,2.2902818 6.17975,2.2731065 5.300579,-0.017175 5.991118,-2.1145258 5.991118,-2.1145258 0,0 -1.168319,0.2589367 -1.527991,-0.580352 C 34.855141,0.19817023 31.895424,0.26513156 31.895424,0.26513156 Z"
       id="path8719"
       sodipodi:nodetypes="cscscsc" />
    <ellipse
       style="fill:#000000;stroke:none;stroke-width:0.531251;stroke-linecap:round;stroke-linejoin:round"
       id="ellipse8721"
       cx="30.839567"
       cy="3.1930649"
       rx="0.29415652"
       ry="0.48722407"
       transform="matrix(0.99217244,0.1248753,0,1,0,0)" />
    <path
       style="fill:none;stroke:#aa4400;stroke-width:0.529167;stroke-linecap:round;stroke-linejoin:round"
       d="m 27.973374,2.7173229 c 0,0 0.848482,0.3587602 0.914861,3.1475817"
       id="path9332" />
    <path
       style="fill:none;stroke:#aa4400;stroke-width:0.529167;stroke-linecap:round;stroke-linejoin:round"
       d="m 28.616633,3.5127826 c 0,0 0.81796,-1.1886825 1.455892,-1.3682111 0.637934,-0.1795287 1.588781,-0.5633135 1.588781,-0.5633135 0,0 0.828136,-0.1607092 1.324647,0.2493281 0.68183,0.5630806 1.162581,0.6490499 1.162581,0.6490499 0,0 1.071784,0.5905023 1.138142,1.2142453 0.307425,0.7884551 1.930176,1.1820617 1.930176,1.1820617"
       id="path9480"
       sodipodi:nodetypes="cscsccc" />
    <path
       style="fill:none;stroke:#aa4400;stroke-width:0.529167;stroke-linecap:round;stroke-linejoin:round"
       d="m 28.904729,4.592104 c 0,0 1.477841,-0.4871361 1.756691,-0.7409517 0.278847,-0.2538155 1.420474,-0.215217 1.420474,-0.215217 0,0 0.958835,0.2269566 1.154251,0.5773549 0.195414,0.3503986 1.311506,0.633542 1.311506,0.633542 0,0 1.115176,0.1853026 1.522632,0.6715242"
       id="path9595"
       sodipodi:nodetypes="cscscc" />
    <path
       style="fill:none;stroke:#aa4400;stroke-width:0.529167;stroke-linecap:round;stroke-linejoin:round"
       d="m 28.111029,2.6933459 c 0,0 0.693552,-1.4674573 1.668902,-1.6540294 0.975349,-0.1865721 2.3041,-0.53804174 2.3041,-0.53804174 0,0 0.568436,-0.20854646 1.16459,0.20107836 0.596151,0.40962478 1.518023,1.10016218 1.518023,1.10016218 l 1.043747,0.8848031"
       id="path10721" />
    <path
       style="fill:none;stroke:#000000;stroke-width:0.529167;stroke-linecap:round;stroke-linejoin:round"
       d="m 31.895424,0.26513156 c 0,0 -3.002603,-0.14347194 -4.552251,3.30552034 -0.363946,0.8100197 -1.678607,0.4382157 -1.678607,0.4382157 0,0 0.87917,2.2902818 6.17975,2.2731065 5.300579,-0.017175 5.991118,-2.1145258 5.991118,-2.1145258 0,0 -1.168319,0.2589367 -1.527991,-0.580352 C 34.855141,0.19817023 31.895424,0.26513156 31.895424,0.26513156 Z"
       id="path8737"
       sodipodi:nodetypes="cscscsc" />
    <path
       style="fill:#999999;stroke:#000000;stroke-width:0.529167;stroke-linecap:round;stroke-linejoin:round"
       d="m 32.253097,8.7859189 c 0,0 1.078795,-0.1805902 1.173637,1.0775501 0.11027,1.462809 -0.112857,2.196927 -0.112857,2.196927 0,0 0.03774,1.214162 -0.672329,2.072311 0,0 0.272744,0.275385 0.161014,0.601705 -0.227311,0.663886 -1.053482,0.570575 -1.053482,0.570575 0,0 -0.750388,-0.07767 -0.635509,-0.756025 0.09472,-0.559311 0.670296,-0.624088 0.670296,-0.624088 0,0 0.0295,-1.689293 0.365123,-2.125379 0,0 -0.561486,-1.378632 -0.581877,-1.9998171 -0.03082,-0.9389386 0.685984,-1.013759 0.685984,-1.013759 z"
       id="path10838"
       sodipodi:nodetypes="csccscsccsc" />
    <path
       style="fill:#999999;stroke:#000000;stroke-width:0.529167;stroke-linecap:round;stroke-linejoin:round"
       d="m 41.910535,8.3472919 c 0,0 0.08542,-1.5726658 1.270443,-1.1599136 0.592513,0.2063761 2.553151,0.4729275 3.145431,0.8678189 0.592279,0.3948915 0.897388,1.0167119 0.864803,1.837315 l -1.401118,4.3594628 c 0,0 -2.216532,1.067883 -3.001161,-1.40843 z"
       id="path17813"
       sodipodi:nodetypes="csscccc" />
    <ellipse
       style="fill:#999999;stroke:#000000;stroke-width:0.529167;stroke-linecap:round;stroke-linejoin:round"
       id="ellipse16540"
       cx="44.450005"
       cy="5.7693601"
       rx="2.3908131"
       ry="2.2830188" />
    <path
       style="fill:#ff6600;stroke:none;stroke-width:0.529167;stroke-linecap:round;stroke-linejoin:round"
       d="m 44.595424,0.26513156 c 0,0 -3.002603,-0.14347194 -4.552251,3.30552034 -0.363946,0.8100197 -1.678607,0.4382157 -1.678607,0.4382157 0,0 0.87917,2.2902818 6.17975,2.2731065 5.300579,-0.017175 5.991118,-2.1145258 5.991118,-2.1145258 0,0 -1.168319,0.2589367 -1.527991,-0.580352 C 47.555141,0.19817023 44.595424,0.26513156 44.595424,0.26513156 Z"
       id="path16542"
       sodipodi:nodetypes="cscscsc" />
    <path
       style="fill:none;stroke:#aa4400;stroke-width:0.529167;stroke-linecap:round;stroke-linejoin:round"
       d="m 39.879272,5.1952032 c 0,0 0.752819,-0.5665152 0.988105,-1.1754116 0.500586,-1.2954637 1.148723,-0.8129148 1.148723,-0.8129148 0,0 0.727988,0.3053047 0.655204,1.5692749 -0.05713,0.992115 0.595653,1.3406741 0.595653,1.3406741"
       id="path16989"
       sodipodi:nodetypes="cscsc" />
    <path
       style="fill:none;stroke:#aa4400;stroke-width:0.529167;stroke-linecap:round;stroke-linejoin:round"
       d="m 42.779579,4.7584 c 0,0 1.321477,-0.8553927 2.197317,-0.5259187 0.87584,0.3294743 1.586698,-0.053572 1.586698,-0.053572 0,0 1.660483,-0.2857701 2.001764,0.010993 0.341283,0.2967636 1.128582,0.04535 1.128582,0.04535"
       id="path17573" />
    <path
       style="fill:none;stroke:#aa4400;stroke-width:0.529167;stroke-linecap:round;stroke-linejoin:round"
       d="m 42.396034,3.38245 c 0,0 0.905412,-1.0910556 1.532038,-1.0676695 0.626626,0.023386 0.989515,-0.3769172 0.989515,-0.3769172 0,0 0.633447,-0.7957756 1.389544,-0.2058372 0.756097,0.5899384 1.296569,0.6603514 1.296569,0.6603514 0,0 0.858208,0.3463349 1.0769,0.6662415"
       id="path17575" />
    <path
       style="fill:none;stroke:#aa4400;stroke-width:0.529167;stroke-linecap:round;stroke-linejoin:round"
       d="m 41.84279,3.0002686 c 0,0 0.524531,-1.6625394 1.337609,-1.8142399 0.813078,-0.1517005 1.297683,-0.54355944 1.297683,-0.54355944 0,0 0.51013,-0.37343082 1.561944,-0.003559"
       id="path17690" />
    <path
       style="fill:none;stroke:#aa4400;stroke-width:0.529167;stroke-linecap:round;stroke-linejoin:round"
       d="m 41.108595,3.5529091 c 0,0 -0.02408,-0.7221995 -0.164142,-1.2348571"
       id="path17692" />
    <path
       style="fill:none;stroke:#aa4400;stroke-width:0.529167;stroke-linecap:round;stroke-linejoin:round"
       d="m 40.552639,4.467036 c 0,0 -0.146833,-0.6135864 -0.469513,-0.7721782"
       id="path17694" />
    <path
       style="fill:none;stroke:#000000;stroke-width:0.529167;stroke-linecap:round;stroke-linejoin:round"
       d="m 44.595424,0.26513156 c 0,0 -3.002603,-0.14347194 -4.552251,3.30552034 -0.363946,0.8100197 -1.678607,0.4382157 -1.678607,0.4382157 0,0 0.87917,2.2902818 6.17975,2.2731065 5.300579,-0.017175 5.991118,-2.1145258 5.991118,-2.1145258 0,0 -1.168319,0.2589367 -1.527991,-0.580352 C 47.555141,0.19817023 44.595424,0.26513156 44.595424,0.26513156 Z"
       id="path16554"
       sodipodi:nodetypes="cscscsc" />
    <ellipse
       style="fill:#000000;stroke:none;stroke-width:0.531251;stroke-linecap:round;stroke-linejoin:round"
       id="ellipse17776"
       cx="44.355255"
       cy="1.6646744"
       rx="0.29415652"
       ry="0.48722407"
       transform="matrix(0.99217244,0.1248753,0,1,0,0)" />
    <ellipse
       style="fill:#000000;stroke:none;stroke-width:0.597154;stroke-linecap:round;stroke-linejoin:round"
       id="ellipse17778"
       cx="54.626534"
       cy="-26.808464"
       rx="0.2818267"
       ry="0.48722407"
       transform="matrix(0.7852609,0.61916502,0,1,0,0)" />
    <path
       style="fill:#999999;stroke:#000000;stroke-width:0.529167;stroke-linecap:round;stroke-linejoin:round"
       d="m 46.103011,9.3650813 c 0,0 1.027427,-0.4762042 1.255181,0.7559477 0.264805,1.432593 0.127463,2.227853 0.127463,2.227853 0,0 0.167596,1.20382 -0.428915,2.256544 0,0 0.294388,0.200647 0.221161,0.557583 -0.148978,0.726175 -0.960794,0.859253 -0.960794,0.859253 0,0 -0.736586,0.127953 -0.698277,-0.581881 0.03159,-0.585267 0.583162,-0.807764 0.583162,-0.807764 0,0 -0.153596,-1.697377 0.125065,-2.225431 0,0 -0.693603,-1.224773 -0.780398,-1.84037 -0.131193,-0.930494 0.556352,-1.2017347 0.556352,-1.2017347 z"
       id="path18975"
       sodipodi:nodetypes="csccscsccsc" />
    <path
       style="fill:#999999;stroke:#000000;stroke-width:0.529167;stroke-linecap:round;stroke-linejoin:round"
       d="m 59.893425,8.3472919 c 0,0 -0.08542,-1.5726658 -1.270443,-1.1599136 -0.592513,0.2063761 -2.553151,0.4729275 -3.145431,0.8678189 -0.592279,0.3948915 -0.897388,1.0167119 -0.864803,1.837315 l 1.401118,4.3594628 c 0,0 2.216532,1.067883 3.001161,-1.40843 z"
       id="path1032"
       sodipodi:nodetypes="csscccc" />
    <ellipse
       style="fill:#999999;stroke:#000000;stroke-width:0.529167;stroke-linecap:round;stroke-linejoin:round"
       id="ellipse144"
       cx="57.149998"
       cy="5.7693601"
       rx="2.3908131"
       ry="2.2830188" />
    <path
       style="fill:#ff6600;stroke:none;stroke-width:0.529167;stroke-linecap:round;stroke-linejoin:round"
       d="m 57.295423,0.26513156 c 0,0 -3.002603,-0.14347194 -4.552251,3.30552034 -0.363946,0.8100197 -1.678607,0.4382157 -1.678607,0.4382157 0,0 0.87917,2.2902818 6.17975,2.2731065 5.300579,-0.017175 5.991118,-2.1145258 5.991118,-2.1145258 0,0 -1.168319,0.2589367 -1.527991,-0.580352 C 60.25514,0.19817023 57.295423,0.26513156 57.295423,0.26513156 Z"
       id="path146"
       sodipodi:nodetypes="cscscsc" />
    <path
       style="fill:none;stroke:#aa4400;stroke-width:0.529167;stroke-linecap:round;stroke-linejoin:round"
       d="m 60.589987,5.7733845 c 0,0 0.187071,-1.2531646 0.525892,-1.471948 0.338817,-0.2187837 0.153664,-1.4944992 0.153664,-1.4944992"
       id="path839" />
    <path
       style="fill:none;stroke:#aa4400;stroke-width:0.529167;stroke-linecap:round;stroke-linejoin:round"
       d="m 60.529961,5.7371392 c 0,0 -0.137519,-1.5565514 0.03615,-1.798865 0.173664,-0.2423139 -0.164031,-1.3209784 -0.164031,-1.3209784 0,0 -0.422111,-0.4865551 -0.385427,-1.1436564"
       id="path940" />
    <path
       style="fill:none;stroke:#aa4400;stroke-width:0.529167;stroke-linecap:round;stroke-linejoin:round"
       d="m 60.416077,5.7831084 c 0,0 -0.412303,-1.9895465 -0.813022,-2.4300158 C 59.202332,2.912623 58.920297,1.992805 58.920297,1.992805 c 0,0 -0.657003,-0.96315 -1.240067,-1.21418145 C 57.097165,0.52759212 57.079374,0.29782071 57.079374,0.29782071"
       id="path942" />
    <path
       style="fill:none;stroke:#aa4400;stroke-width:0.529167;stroke-linecap:round;stroke-linejoin:round"
       d="m 60.385306,5.7792053 c 0,0 -1.031814,-1.7100126 -1.709439,-1.8776497 -0.677627,-0.1676371 -1.320945,-0.4925642 -1.320945,-0.4925642 0,0 -0.471239,-1.067053 -1.475494,-1.100061 -1.004255,-0.033008 -1.893493,-0.381392 -1.893493,-0.381392"
       id="path944" />
    <path
       style="fill:none;stroke:#aa4400;stroke-width:0.529167;stroke-linecap:round;stroke-linejoin:round"
       d="m 60.51774,5.89262 c 0,0 -1.601385,-0.8512127 -2.083509,-0.7888142 -0.482124,0.062398 -1.555916,0.00767 -1.555916,0.00767 0,0 -0.736325,-0.079073 -1.029365,-0.3415289 -0.293039,-0.2624561 -1.321522,-0.3580273 -1.321522,-0.3580273 0,0 -1.30769,-0.021013 -1.669029,-0.4977444"
       id="path946" />
    <path
       style="fill:none;stroke:#000000;stroke-width:0.529167;stroke-linecap:round;stroke-linejoin:round"
       d="m 57.295423,0.26513156 c 0,0 -3.002603,-0.14347194 -4.552251,3.30552034 -0.363946,0.8100197 -1.678607,0.4382157 -1.678607,0.4382157 0,0 0.87917,2.2902818 6.17975,2.2731065 5.300579,-0.017175 5.991118,-2.1145258 5.991118,-2.1145258 0,0 -1.168319,0.2589367 -1.527991,-0.580352 C 60.25514,0.19817023 57.295423,0.26513156 57.295423,0.26513156 Z"
       id="path160"
       sodipodi:nodetypes="cscscsc" />
    <path
       style="fill:#999999;stroke:#000000;stroke-width:0.529167;stroke-linecap:round;stroke-linejoin:round"
       d="m 55.141011,8.8675865 c 0,0 1.020921,0.1168742 1.118661,1.4743035 0.113642,1.57825 -0.09315,2.290843 -0.09315,2.290843 0,0 0.04337,1.294632 -0.623974,1.999428 0,0 0.260125,0.369021 0.156317,0.682192 -0.211192,0.637135 -0.994493,0.302722 -0.994493,0.302722 0,0 -0.711406,-0.29625 -0.606822,-0.980766 0.08623,-0.564391 0.631126,-0.468649 0.631126,-0.468649 0,0 0.01736,-1.777851 0.332594,-2.143203 0,0 -0.540597,-1.617994 -0.563809,-2.2806572 -0.03509,-1.0016356 0.643546,-0.8762133 0.643546,-0.8762133 z"
       id="path1036"
       sodipodi:nodetypes="csccscsccsc" />
  </g>
</svg>
