<?xml version="1.0" encoding="UTF-8" standalone="no"?>
<!-- Created with Inkscape (http://www.inkscape.org/) -->

<svg
   xmlns:dc="http://purl.org/dc/elements/1.1/"
   xmlns:cc="http://creativecommons.org/ns#"
   xmlns:rdf="http://www.w3.org/1999/02/22-rdf-syntax-ns#"
   xmlns:svg="http://www.w3.org/2000/svg"
   xmlns="http://www.w3.org/2000/svg"
   xmlns:sodipodi="http://sodipodi.sourceforge.net/DTD/sodipodi-0.dtd"
   xmlns:inkscape="http://www.inkscape.org/namespaces/inkscape"
   width="480"
   height="160"
   viewBox="0 0 127 42.333334"
   version="1.1"
   id="svg5"
   inkscape:version="0.92.5 (2060ec1f9f, 2020-04-08)"
   sodipodi:docname="cogjian.svg"
   inkscape:export-filename="/home/victor/Projects/cogmura/data/img/char/cogjian.png"
   inkscape:export-xdpi="96"
   inkscape:export-ydpi="96">
  <metadata
     id="metadata4128">
    <rdf:RDF>
      <cc:Work
         rdf:about="">
        <dc:format>image/svg+xml</dc:format>
        <dc:type
           rdf:resource="http://purl.org/dc/dcmitype/StillImage" />
        <dc:title></dc:title>
      </cc:Work>
    </rdf:RDF>
  </metadata>
  <sodipodi:namedview
     id="namedview7"
     pagecolor="#ffffff"
     bordercolor="#666666"
     borderopacity="1.0"
     inkscape:pageshadow="2"
     inkscape:pageopacity="0.0"
     inkscape:pagecheckerboard="true"
     inkscape:document-units="px"
     showgrid="false"
     units="px"
     width="240px"
     inkscape:zoom="1"
     inkscape:cx="152.11037"
     inkscape:cy="68"
     inkscape:window-width="1920"
     inkscape:window-height="1015"
     inkscape:window-x="0"
     inkscape:window-y="0"
     inkscape:window-maximized="1"
     inkscape:current-layer="layer1"
     inkscape:snap-global="false" />
  <defs
     id="defs2" />
  <g
     inkscape:label="Layer 1"
     inkscape:groupmode="layer"
     id="layer1"
     transform="translate(0,21.166667)">
    <path
       style="fill:#999999;stroke:#000000;stroke-width:1.0580796;stroke-linecap:round;stroke-linejoin:round"
       d="m 117.27642,5.6837354 c 0,0 0.69746,1.4465242 0.72508,2.5593043 0.0276,1.11278 -0.10181,2.0049653 -0.10181,2.0049653 0,0 0.15682,2.054209 -0.1327,2.894117 0,0 0.27607,2.180123 -0.12588,3.782527 0.25678,0.822294 0.3558,1.441657 0.28647,2.084512 0,0 -0.48926,0.627781 -1.08494,0.641078 -1.0165,0.01455 -1.90166,-1.053742 -1.90166,-1.053742 0,0 -0.4057,-1.446609 0.86905,-2.02952 -0.0683,-1.246134 -0.23265,-3.372602 -0.23265,-3.372602 0,0 0.11464,-1.798183 0.10256,-2.866529 0,0 0.0184,1.817564 -0.40368,2.665284 0,0 0.27822,2.358626 -0.21866,2.999557 0,0 -0.34996,1.897279 -0.26504,2.589261 0,0 0.16402,1.749556 -0.4237,1.967031 -0.58773,0.217478 -2.03335,-0.09803 -2.03335,-0.09803 0,0 -1.12775,-0.806144 -1.59022,-1.846145 -0.46248,-1.040002 0.71267,-1.468799 0.71267,-1.468799 l 0.85352,0.328861 0.0375,0.792956 c 0,0 0.24336,-2.554739 0.16346,-3.425773 0,0 -0.44169,-1.02364 -0.11992,-1.612252 0,0 -0.94265,-2.271483 -0.57945,-5.8450466 0.3632,-3.5735622 5.46324,-1.6910019 5.46324,-1.6910019 z"
       id="path1231"
       sodipodi:nodetypes="csccccccccccccscscccccscc"
       inkscape:connector-curvature="0" />
    <path
       style="fill:#999999;stroke:#000000;stroke-width:1.0580796;stroke-linecap:round;stroke-linejoin:round"
       d="m 118.61181,-6.0888169 c 0,0 1.85316,0.030785 2.09177,2.5570345 0.27742,2.93720498 -0.0644,4.31097966 -0.0644,4.31097966 0,0 0.13733,2.41857344 -1.03849,3.86266494 0,0 0.48759,0.6436977 0.31395,1.2498296 -0.3533,1.233151 -1.78626,0.7508025 -1.78626,0.7508025 0,0 -1.30109,-0.4240672 -1.1429,-1.7263734 0.13044,-1.0737534 1.12101,-0.9947932 1.12101,-0.9947932 0,0 -0.0494,-3.33549331 0.50456,-4.07841212 0,0 -1.052,-2.93296728 -1.12414,-4.17073728 -0.10904,-1.8709282 1.12496,-1.7609962 1.12496,-1.7609952 z"
       id="path1030"
       sodipodi:nodetypes="csccscsccsc"
       inkscape:connector-curvature="0" />
    <path
       style="fill:#999999;stroke:#000000;stroke-width:1.0580796;stroke-linecap:round;stroke-linejoin:round"
       d="m 86.881183,4.4002172 c 0,0 -1.005787,3.8437478 -0.41416,6.8803208 0.463154,2.377179 0.168041,4.929366 0.168041,4.929366 0,0 -1.066233,0.64164 -1.407573,0.982446 -0.341337,0.340807 0.04108,1.302956 0.04108,1.302956 0,0 0.625911,0.536517 1.17215,0.648648 0.546238,0.112134 1.975284,-1.029263 1.975284,-1.029263 0,0 0.293331,-0.642371 0.16342,-1.238883 -0.129899,-0.596515 0.145661,-3.685519 0.145661,-3.685519 0,0 0.1632,-1.449205 -0.04728,-2.468288 0,0 0.347418,-1.0669562 0.556921,1.167409 0,0 -0.0086,1.311616 0.443396,3.162385 0.190642,1.592526 0.075,2.751396 0.075,2.751396 l -1.370984,0.824502 c 0,0 -0.430931,0.524022 -0.17014,0.989884 0.405417,0.724221 1.71469,0.948777 1.71469,0.948777 0,0 1.485945,-0.46354 1.937486,-1.062459 0.45154,-0.598923 0.06218,-1.693346 0.06218,-1.693346 l 0.179261,-2.760126 c 0,0 0.368089,-1.593908 0.499391,-3.183818 0,0 0.693646,-3.5512785 -0.0936,-5.5008262 -0.78725,-1.9495477 -5.630218,-1.9655616 -5.630218,-1.9655616 z"
       id="path19094"
       sodipodi:nodetypes="cscscscsccccccscscccscc"
       inkscape:connector-curvature="0" />
    <path
       style="fill:#999999;stroke:#000000;stroke-width:1.0580796;stroke-linecap:round;stroke-linejoin:round"
       d="m 85.040713,-6.0734835 c 0,0 2.164552,-0.3970884 2.190722,2.1367311 0.03042,2.9460098 -0.507027,4.432993 -0.507027,4.432993 0,0 -0.0815,2.4468896 -1.601459,4.1988336 0,0 0.505889,0.5469072 0.24208,1.2082634 -0.53671,1.3455049 -2.164544,1.1826201 -2.164544,1.1826201 0,0 -1.479432,-0.1336512 -1.16402,-1.5049063 0.260076,-1.1306003 1.410859,-1.2788006 1.410859,-1.2788006 0,0 0.276168,-3.40693358 0.998525,-4.29644442 0,0 -0.936886,-2.76249888 -0.897334,-4.01433518 0.05978,-1.892189 1.492196,-2.0649553 1.492198,-2.0649547 z"
       id="path19059"
       sodipodi:nodetypes="csccscsccsc"
       inkscape:connector-curvature="0" />
    <path
       style="fill:#999999;stroke:#000000;stroke-width:1.0580796;stroke-linecap:round;stroke-linejoin:round"
       d="m 62.033889,-6.0976742 c 0,0 2.157594,-0.3610061 2.347279,2.1540602 0.22054,2.9242096 -0.225715,4.39173815 -0.225715,4.39173815 0,0 0.07548,2.42715215 -1.344659,4.14262135 0,0 0.545488,0.5505035 0.322028,1.2028283 -0.454624,1.3271332 -2.106969,1.1405994 -2.106969,1.1405994 0,0 -1.500778,-0.1552697 -1.27102,-1.5113193 0.189441,-1.1180816 1.340593,-1.2475747 1.340593,-1.2475747 0,0 0.059,-3.37695457 0.730248,-4.24870586 0,0 -1.122974,-2.75593654 -1.163756,-3.99770794 -0.06164,-1.8769711 1.371971,-2.0265396 1.371971,-2.0265396 z"
       id="path13440"
       sodipodi:nodetypes="csccscsccsc"
       inkscape:connector-curvature="0" />
    <path
       style="fill:#999999;stroke:#000000;stroke-width:1.0580796;stroke-linecap:round;stroke-linejoin:round"
       d="m 61.250512,6.1372928 c 0,0 -0.604732,3.6397798 -0.0182,6.8024642 0.586491,3.162684 0.2395,4.61474 0.2395,4.61474 l -1.377285,0.221376 c 0,0 -0.28176,0.657388 -0.07946,1.21172 l 0.926417,0.288881 0.0398,-0.171635 1.787044,-0.161675 c 0,0 0.492696,-3.446433 8.8e-5,-5.298141 -0.492608,-1.851709 -0.458004,-4.1222676 -0.458004,-4.1222676 0,0 -0.0222,2.9033446 0.553471,4.6412726 0.575682,1.737932 -0.160001,4.784759 -0.160001,4.784759 l -1.728917,0.197436 c 0,0 -0.236722,0.588182 -0.02177,1.302963 0,0 2.784965,0.271234 4.534693,0.04428 0,0 0.12964,-0.746238 0.003,-1.54634 0,0 0.381894,-3.031779 0.0066,-4.044276 0,0 0.213751,-2.226837 0.582482,-3.06661 0.757087,-2.5436545 0.0072,-5.5239752 0.0072,-5.5239752 z"
       id="path14871"
       sodipodi:nodetypes="ccccccccscsccccccccc"
       inkscape:connector-curvature="0" />
    <path
       style="fill:#999999;stroke:#000000;stroke-width:1.0580796;stroke-linecap:round;stroke-linejoin:round"
       d="m 59.436146,-3.9166938 c 0,0 0.353429,-1.675117 1.961564,-1.9650803 1.608133,-0.2899635 6.162359,-0.4820636 6.742038,1.9337786 L 65.997587,6.3194101 c 0,0 -2.349014,1.828815 -4.705829,0.002 z"
       id="path10803"
       sodipodi:nodetypes="cscccc"
       inkscape:connector-curvature="0" />
    <path
       style="fill:#999999;stroke:#000000;stroke-width:1.0580796;stroke-linecap:round;stroke-linejoin:round"
       d="m 18.86104,-4.9459096 c 0,0 2.960053,0.5065497 3.029751,3.1554104 0.0697,2.64886282 -0.520407,4.9794285 -0.520407,4.9794285 0,0 0.304513,1.6509509 -0.224599,4.064845 0,0 0.560357,0.7234399 0.495078,1.5772962 -0.109341,1.4300855 -1.873786,1.2785095 -1.873786,1.2785095 0,0 -1.465468,-0.2013959 -1.473057,-1.5914614 -0.0048,-0.8740606 0.822803,-1.358975 0.822803,-1.358975 0,0 -0.368696,-2.6517124 0.160472,-3.9367298 0,0 -1.273322,-1.7705359 -1.277259,-4.2349569 z"
       id="path1551"
       sodipodi:nodetypes="csccscscccc"
       inkscape:connector-curvature="0" />
    <path
       style="fill:#999999;stroke:#000000;stroke-width:1.0580796;stroke-linecap:round;stroke-linejoin:round"
       d="m 6.4832822,-4.9459096 c 0,0 -2.9600551,0.5065497 -3.0297533,3.1554104 -0.0697,2.64886282 0.5204071,4.9794285 0.5204071,4.9794285 0,0 -0.3045127,1.6509509 0.2245983,4.064845 0,0 -0.5603571,0.7234399 -0.4950769,1.5772962 0.1093402,1.4300855 1.8737889,1.2785095 1.8737889,1.2785095 0,0 1.4654669,-0.2013959 1.4730569,-1.5914614 0.0048,-0.8740606 -0.8228036,-1.358975 -0.8228036,-1.358975 0,0 0.3686948,-2.6517124 -0.1604803,-3.9367298 0,0 1.2733205,-1.7705359 1.2772585,-4.2349569 z"
       id="path2325"
       sodipodi:nodetypes="csccscscccc"
       inkscape:connector-curvature="0" />
    <path
       id="path2360"
       style="fill:#999999;stroke:#000000;stroke-width:1.0580796;stroke-linecap:round;stroke-linejoin:round"
       d="m 9.6726804,6.0622583 c 0,0 -1.7075297,2.9669474 -1.5337599,6.8768797 0,0 0.4808082,3.910099 0.04878,4.668036 l -0.792371,1.343993 c 0,0 -0.1443082,1.357159 0.7825746,1.554693 1.7524083,0.220005 2.2564889,-0.511131 2.2564889,-0.511131 0,0 0.774146,-0.700872 0.514698,-2.05986 0,0 1.038025,-3.217937 0.848529,-5.031891 0,0 0.111916,-2.29271 0.919709,-2.293316 0.807794,5.82e-4 0.884835,2.293316 0.884835,2.293316 -0.189493,1.813954 0.848529,5.031891 0.848529,5.031891 -0.259449,1.358988 0.514699,2.05986 0.514699,2.05986 0,0 0.573938,0.689942 2.326346,0.469948 0.926885,-0.197538 0.700923,-1.614788 0.700923,-1.614788 l -0.709054,-1.252622 c -0.432028,-0.757936 -0.02274,-4.658129 -0.02274,-4.658129 0.17377,-3.9099323 -1.53376,-6.8768797 -1.53376,-6.8768797 l -3.027212,0.083686 z"
       sodipodi:nodetypes="ccccccccccccccccccc"
       inkscape:connector-curvature="0" />
    <path
       style="fill:#999999;stroke:#000000;stroke-width:1.0580796;stroke-linecap:round;stroke-linejoin:round"
       d="m 5.9104771,-5.1303788 c 0,0 6.7076339,-2.2403916 13.5788299,0.01671 L 16.223138,6.319406 c 0,0 -3.553518,1.8288151 -7.1188299,0.002 z"
       id="path1436"
       sodipodi:nodetypes="ccccc"
       inkscape:connector-curvature="0" />
    <ellipse
       style="fill:#999999;stroke:#000000;stroke-width:1.0580796;stroke-linecap:round;stroke-linejoin:round"
       id="path1321"
       cx="12.699893"
       cy="-9.6333838"
       rx="4.7816358"
       ry="4.5638351" />
    <path
       style="fill:#ff6600;stroke:none;stroke-width:1.0580796;stroke-linecap:round;stroke-linejoin:round"
       d="m 12.990732,-20.636529 c 0,0 -6.0052195,-0.286806 -9.1045211,6.60785 -0.7278924,1.619258 -3.35722002,0.876009 -3.35722002,0.876009 0,0 1.75834362,4.5783532 12.35952512,4.5440194 10.60118,-0.034333 11.982261,-4.2270114 11.982261,-4.2270114 0,0 -2.336643,0.517623 -3.055988,-1.160144 -2.904612,-6.774582 -8.824057,-6.640723 -8.824057,-6.640723 z"
       id="path39"
       sodipodi:nodetypes="cscscsc"
       inkscape:connector-curvature="0" />
    <ellipse
       style="fill:#000000;stroke:none;stroke-width:1.09553432;stroke-linecap:round;stroke-linejoin:round"
       id="path5675"
       cx="11.516903"
       cy="-11.035176"
       rx="0.62576497"
       ry="0.97397798"
       transform="matrix(0.93279306,0.36041242,0,1,0,0)" />
    <ellipse
       style="fill:#000000;stroke:none;stroke-width:1.09553432;stroke-linecap:round;stroke-linejoin:round"
       id="ellipse5779"
       cx="-15.65834"
       cy="-1.2408838"
       rx="0.62576497"
       ry="0.97397798"
       transform="matrix(-0.93279306,0.36041242,0,1,0,0)" />
    <path
       style="fill:none;stroke:#aa4400;stroke-width:1.0580796;stroke-linecap:round;stroke-linejoin:round"
       d="m 7.9198826,-9.6561453 c 0,0 2.3707264,-4.1480817 4.8343704,-4.1427797 2.463645,0.0053 4.387763,4.495725 4.387763,4.495725"
       id="path5912"
       inkscape:connector-curvature="0" />
    <path
       style="fill:none;stroke:#aa4400;stroke-width:1.0580796;stroke-linecap:round;stroke-linejoin:round"
       d="m 9.2416959,-11.593237 c 0,0 -1.9068279,-0.06929 -2.5782856,-1.217393 -0.6714578,-1.148105 -2.0957421,-1.862062 -2.0957421,-1.862062"
       id="path6093"
       inkscape:connector-curvature="0" />
    <path
       style="fill:none;stroke:#aa4400;stroke-width:1.0580796;stroke-linecap:round;stroke-linejoin:round"
       d="m 10.705503,-13.034074 c 0,0 -0.348556,-2.33684 -0.9607579,-2.564397 -0.6122016,-0.227557 -1.704444,-2.082161 -1.704444,-2.082161 0,0 -0.079352,-0.595669 -0.5369433,-0.775006"
       id="path6095"
       inkscape:connector-curvature="0" />
    <path
       style="fill:none;stroke:#aa4400;stroke-width:1.0580796;stroke-linecap:round;stroke-linejoin:round"
       d="m 12.903794,-13.950241 c 0,0 0.474755,-1.473798 0.302465,-2.537511 -0.172289,-1.063712 0.133318,-2.524131 0.133318,-2.524131 0,0 0.128557,-1.085486 -0.405414,-1.411335"
       id="path6097"
       inkscape:connector-curvature="0" />
    <path
       style="fill:none;stroke:#aa4400;stroke-width:1.0580796;stroke-linecap:round;stroke-linejoin:round"
       d="m 15.147452,-12.884248 c 0,0 0.703241,-1.602046 1.310763,-1.683108 0.607523,-0.08106 2.308067,-1.921011 2.308067,-1.921011 0,0 0.445197,-0.624925 0.447147,-1.121398"
       id="path6099"
       inkscape:connector-curvature="0" />
    <path
       style="fill:none;stroke:#aa4400;stroke-width:1.0580796;stroke-linecap:round;stroke-linejoin:round"
       d="m 16.404427,-10.695769 c 0,0 1.474431,-1.532163 2.785327,-1.245576 1.310896,0.286587 2.637071,-1.683731 2.637071,-1.683731"
       id="path6101"
       inkscape:connector-curvature="0" />
    <path
       style="fill:none;stroke:#000000;stroke-width:1.0580796;stroke-linecap:round;stroke-linejoin:round"
       d="m 12.990732,-20.636529 c 0,0 -6.0052195,-0.286806 -9.1045211,6.60785 -0.7278924,1.619258 -3.35722002,0.876009 -3.35722002,0.876009 0,0 1.75834362,4.5783532 12.35952512,4.5440194 10.60118,-0.034333 11.982261,-4.2270114 11.982261,-4.2270114 0,0 -2.336643,0.517623 -3.055988,-1.160144 -2.904612,-6.774582 -8.824057,-6.640723 -8.824057,-6.640723 z"
       id="path6183"
       sodipodi:nodetypes="cscscsc"
       inkscape:connector-curvature="0" />
    <path
       style="fill:#999999;stroke:#000000;stroke-width:1.0580796;stroke-linecap:round;stroke-linejoin:round"
       d="m 44.2611,-4.9458985 c 0,0 2.960053,0.4772176 3.029751,2.9726935 0.0697,2.49547879 -0.520407,4.6910901 -0.520407,4.6910901 0,0 0.304512,1.5553524 -0.224598,3.8294653 0,0 0.560357,0.6815505 0.495077,1.485963 -0.109341,1.3472747 -1.873785,1.2044751 -1.873785,1.2044751 0,0 -1.465468,-0.189718 -1.473058,-1.4993039 -0.0048,-0.8234489 0.822803,-1.2802855 0.822803,-1.2802855 0,0 -0.368696,-2.498162 0.16048,-3.7087691 0,0 -1.273323,-1.6680114 -1.277258,-3.9897278 z"
       id="path6221"
       sodipodi:nodetypes="csccscscccc"
       inkscape:connector-curvature="0" />
    <path
       style="fill:#999999;stroke:#000000;stroke-width:1.0580796;stroke-linecap:round;stroke-linejoin:round"
       d="m 31.883343,-4.9458983 c 0,0 -2.960055,0.476607 -3.029754,2.9688899 -0.0697,2.49228545 0.520408,4.6850883 0.520408,4.6850883 0,0 -0.304514,1.5533603 0.224598,3.8245659 0,0 -0.560358,0.6806776 -0.495078,1.4840597 0.10934,1.3455533 1.873791,1.2029355 1.873791,1.2029355 0,0 1.465466,-0.1894959 1.473056,-1.4973864 0.0048,-0.8223963 -0.822803,-1.278645 -0.822803,-1.278645 0,0 0.368695,-2.4949657 -0.160481,-3.7040251 0,0 1.273322,-1.6658778 1.27726,-3.9846234 z"
       id="path6223"
       sodipodi:nodetypes="csccscscccc"
       inkscape:connector-curvature="0" />
    <path
       id="path6225"
       style="fill:#999999;stroke:#000000;stroke-width:1.0580796;stroke-linecap:round;stroke-linejoin:round"
       d="m 35.072741,6.0622583 c 0,0 -1.612281,3.1827451 -1.438513,7.0926777 0,0 0.605899,4.000452 0.173861,4.758389 l -0.848741,-0.02724 c 0,0 0.06814,2.422235 0.995007,2.619769 1.752411,0.220005 2.194544,-0.173917 2.194544,-0.173917 0,0 0.670528,-0.723721 0.411079,-2.082711 0,0 0.827191,-3.532304 0.637694,-5.346258 0,0 0.111921,-2.29271 0.91971,-2.293316 0.807792,5.82e-4 0.884836,2.293316 0.884836,2.293316 -0.189501,1.813954 0.795263,5.295544 0.795263,5.295544 -0.259447,1.358991 0.222229,2.120179 0.222229,2.120179 0,0 0.693044,0.382701 2.445453,0.162704 0.926884,-0.197536 0.777103,-2.697267 0.777103,-2.697267 l -0.767103,0.02538 c -0.432029,-0.757935 0.185761,-4.870381 0.185761,-4.870381 0.173759,-3.9099324 -1.53376,-6.8768798 -1.53376,-6.8768798 l -3.027212,0.083686 z"
       sodipodi:nodetypes="ccccccccccccccccccc"
       inkscape:connector-curvature="0" />
    <path
       style="fill:#999999;stroke:#000000;stroke-width:1.0580796;stroke-linecap:round;stroke-linejoin:round"
       d="m 31.310538,-5.1303788 c 0,0 6.707634,-2.2403916 13.57883,0.01671 L 41.623199,6.319406 c 0,0 -3.553517,1.8288151 -7.11883,0.002 z"
       id="path6227"
       sodipodi:nodetypes="ccccc"
       inkscape:connector-curvature="0" />
    <ellipse
       style="fill:#999999;stroke:#000000;stroke-width:1.0580796;stroke-linecap:round;stroke-linejoin:round"
       id="ellipse6229"
       cx="38.099957"
       cy="-9.6333838"
       rx="4.7816358"
       ry="4.5638351" />
    <path
       style="fill:#ff6600;stroke:none;stroke-width:1.0580796;stroke-linecap:round;stroke-linejoin:round"
       d="m 38.390792,-20.636529 c 0,0 -6.005218,-0.286806 -9.104519,6.60785 -0.727894,1.619258 -3.357222,0.876009 -3.357222,0.876009 0,0 1.758344,4.5783532 12.359525,4.5440194 10.601181,-0.034333 11.982261,-4.2270114 11.982261,-4.2270114 0,0 -2.336643,0.517623 -3.055988,-1.160144 -2.90461,-6.774582 -8.824057,-6.640723 -8.824057,-6.640723 z"
       id="path6231"
       sodipodi:nodetypes="cscscsc"
       inkscape:connector-curvature="0" />
    <path
       style="fill:none;stroke:#aa4400;stroke-width:1.0580796;stroke-linecap:round;stroke-linejoin:round"
       d="m 29.967729,-14.672692 c 0,0 1.424286,0.713957 2.095743,1.862062 0.671457,1.148105 2.578285,1.217393 2.578285,1.217393 0,0 1.476528,0.624268 2.02596,2.6407322"
       id="path6239"
       sodipodi:nodetypes="cscc"
       inkscape:connector-curvature="0" />
    <path
       style="fill:none;stroke:#aa4400;stroke-width:1.0580796;stroke-linecap:round;stroke-linejoin:round"
       d="m 32.90342,-18.455638 c 0.457582,0.179337 0.536942,0.775006 0.536942,0.775006 0,0 1.092243,1.854604 1.704443,2.082161 0.612203,0.227557 0.960759,2.564397 0.960759,2.564397 0,0 0.408031,1.302179 1.205595,2.263673 0.797563,0.9614945 0.17816,1.9128848 0.17816,1.9128848"
       id="path6241"
       sodipodi:nodetypes="ccscsc"
       inkscape:connector-curvature="0" />
    <path
       style="fill:none;stroke:#aa4400;stroke-width:1.0580796;stroke-linecap:round;stroke-linejoin:round"
       d="m 38.334227,-20.423218 c 0.533975,0.325849 0.405414,1.411335 0.405414,1.411335 0,0 -0.3056,1.460419 -0.13332,2.524131 0.17228,1.063713 -0.302467,2.537511 -0.302467,2.537511 0,0 -0.407638,2.012478 -0.0084,2.612479 0.399273,0.600001 -0.1551,2.3906186 -0.1551,2.3906186"
       id="path6243"
       sodipodi:nodetypes="ccscsc"
       inkscape:connector-curvature="0" />
    <path
       style="fill:none;stroke:#aa4400;stroke-width:1.0580796;stroke-linecap:round;stroke-linejoin:round"
       d="m 44.613489,-17.609765 c -0.002,0.496473 -0.447146,1.121398 -0.447146,1.121398 0,0 -1.700543,1.83995 -2.308067,1.921011 -0.607521,0.08107 -1.310763,1.683108 -1.310763,1.683108 0,0 -0.465239,1.318131 -0.795184,1.845111 -0.329946,0.52698 -1.06363,2.0000181 -1.06363,2.0000181"
       id="path6245"
       sodipodi:nodetypes="ccscsc"
       inkscape:connector-curvature="0" />
    <path
       style="fill:none;stroke:#aa4400;stroke-width:1.0580796;stroke-linecap:round;stroke-linejoin:round"
       d="m 47.226885,-13.625076 c 0,0 -1.326175,1.970318 -2.63707,1.683731 -1.310897,-0.286587 -2.785328,1.245576 -2.785328,1.245576 0,0 -1.180146,1.6142663 -2.595488,1.9973169"
       id="path6247"
       sodipodi:nodetypes="cscc"
       inkscape:connector-curvature="0" />
    <path
       style="fill:none;stroke:#000000;stroke-width:1.0580796;stroke-linecap:round;stroke-linejoin:round"
       d="m 38.390792,-20.636529 c 0,0 -6.005218,-0.286806 -9.104519,6.60785 -0.727894,1.619258 -3.357222,0.876009 -3.357222,0.876009 0,0 1.758344,4.5783532 12.359525,4.5440194 10.601181,-0.034333 11.982261,-4.2270114 11.982261,-4.2270114 0,0 -2.336643,0.517623 -3.055988,-1.160144 -2.90461,-6.774582 -8.824057,-6.640723 -8.824057,-6.640723 z"
       id="path6249"
       sodipodi:nodetypes="cscscsc"
       inkscape:connector-curvature="0" />
    <ellipse
       style="fill:#999999;stroke:#000000;stroke-width:1.0580796;stroke-linecap:round;stroke-linejoin:round"
       id="ellipse8717"
       cx="63.500004"
       cy="-9.6333838"
       rx="4.7816358"
       ry="4.5638351" />
    <path
       style="fill:#ff6600;stroke:none;stroke-width:1.0580796;stroke-linecap:round;stroke-linejoin:round"
       d="m 63.790844,-20.636529 c 0,0 -6.005218,-0.286806 -9.104521,6.60785 -0.727893,1.619258 -3.35722,0.876009 -3.35722,0.876009 0,0 1.758344,4.5783532 12.359525,4.5440194 10.60118,-0.034333 11.982262,-4.2270114 11.982262,-4.2270114 0,0 -2.336644,0.517623 -3.055989,-1.160144 -2.90461,-6.774582 -8.824057,-6.640723 -8.824057,-6.640723 z"
       id="path8719"
       sodipodi:nodetypes="cscscsc"
       inkscape:connector-curvature="0" />
    <ellipse
       style="fill:#000000;stroke:none;stroke-width:1.06224263;stroke-linecap:round;stroke-linejoin:round"
       id="ellipse8721"
       cx="61.678661"
       cy="-14.783472"
       rx="0.58830976"
       ry="0.97397798"
       transform="matrix(0.99217994,0.12481574,0,1,0,0)" />
    <path
       style="fill:none;stroke:#aa4400;stroke-width:1.0580796;stroke-linecap:round;stroke-linejoin:round"
       d="m 55.946729,-15.734514 c 0,0 1.696967,0.717175 1.829725,6.2921268"
       id="path9332"
       inkscape:connector-curvature="0" />
    <path
       style="fill:none;stroke:#aa4400;stroke-width:1.0580796;stroke-linecap:round;stroke-linejoin:round"
       d="m 57.233249,-14.144362 c 0,0 1.635924,-2.376218 2.911791,-2.735102 1.27587,-0.358884 3.177568,-1.126083 3.177568,-1.126083 0,0 1.656276,-0.321263 2.6493,0.498416 1.363662,1.125617 2.325166,1.297473 2.325166,1.297473 0,0 2.143572,1.180434 2.276288,2.427319 0.614852,1.576149 3.860361,2.362982 3.860361,2.362982"
       id="path9480"
       sodipodi:nodetypes="cscsccc"
       inkscape:connector-curvature="0" />
    <path
       style="fill:none;stroke:#aa4400;stroke-width:1.0580796;stroke-linecap:round;stroke-linejoin:round"
       d="m 57.809442,-11.986761 c 0,0 2.955689,-0.973801 3.51339,-1.481188 0.557695,-0.507386 2.840953,-0.430226 2.840953,-0.430226 0,0 1.917675,0.453693 2.308507,1.154152 0.390829,0.70046 2.623018,1.266473 2.623018,1.266473 0,0 2.230356,0.370426 3.045269,1.3424"
       id="path9595"
       sodipodi:nodetypes="cscscc"
       inkscape:connector-curvature="0" />
    <path
       style="fill:none;stroke:#aa4400;stroke-width:1.0580796;stroke-linecap:round;stroke-linejoin:round"
       d="m 56.222039,-15.782445 c 0,0 1.387106,-2.933498 3.337811,-3.306462 1.950702,-0.372964 4.608209,-1.075564 4.608209,-1.075564 0,0 1.136875,-0.416892 2.329185,0.401962 1.192305,0.818854 3.036052,2.199263 3.036052,2.199263 l 2.087498,1.768752"
       id="path10721"
       inkscape:connector-curvature="0" />
    <path
       style="fill:none;stroke:#000000;stroke-width:1.0580796;stroke-linecap:round;stroke-linejoin:round"
       d="m 63.790844,-20.636529 c 0,0 -6.005218,-0.286806 -9.104521,6.60785 -0.727893,1.619258 -3.35722,0.876009 -3.35722,0.876009 0,0 1.758344,4.5783532 12.359525,4.5440194 10.60118,-0.034333 11.982262,-4.2270114 11.982262,-4.2270114 0,0 -2.336644,0.517623 -3.055989,-1.160144 -2.90461,-6.774582 -8.824057,-6.640723 -8.824057,-6.640723 z"
       id="path8737"
       sodipodi:nodetypes="cscscsc"
       inkscape:connector-curvature="0" />
    <path
       style="fill:#999999;stroke:#000000;stroke-width:1.0580796;stroke-linecap:round;stroke-linejoin:round"
       d="m 64.506193,-3.6031774 c 0,0 2.157594,-0.3610062 2.347278,2.1540605 0.220541,2.9242055 -0.225714,4.391734 -0.225714,4.391734 0,0 0.07548,2.4271522 -1.344661,4.1426213 0,0 0.545488,0.5505056 0.322028,1.2028305 -0.454623,1.3271311 -2.106968,1.1405993 -2.106968,1.1405993 0,0 -1.500779,-0.1552698 -1.271021,-1.5113212 0.189441,-1.1180817 1.340596,-1.2475729 1.340596,-1.2475729 0,0 0.059,-3.3769565 0.730248,-4.2487079 0,0 -1.122975,-2.75593399 -1.163758,-3.9977039 -0.06164,-1.8769711 1.371972,-2.0265397 1.371972,-2.0265397 z"
       id="path10838"
       sodipodi:nodetypes="csccscsccsc"
       inkscape:connector-curvature="0" />
    <path
       style="fill:#999999;stroke:#000000;stroke-width:1.0580796;stroke-linecap:round;stroke-linejoin:round"
       d="m 83.821108,-4.4800082 c 0,0 0.17084,-3.1438139 2.540891,-2.3187079 1.185029,0.4125531 5.106313,0.9453987 6.290875,1.7348004 1.184561,0.7894019 1.794779,2.0324428 1.729609,3.6728571 l -2.802241,8.7147194 c 0,0 -4.433073,2.1347339 -6.002334,-2.8155023 z"
       id="path17813"
       sodipodi:nodetypes="csscccc"
       inkscape:connector-curvature="0" />
    <ellipse
       style="fill:#999999;stroke:#000000;stroke-width:1.0580796;stroke-linecap:round;stroke-linejoin:round"
       id="ellipse16540"
       cx="88.900063"
       cy="-9.6333838"
       rx="4.7816358"
       ry="4.5638351" />
    <path
       style="fill:#ff6600;stroke:none;stroke-width:1.0580796;stroke-linecap:round;stroke-linejoin:round"
       d="m 89.190897,-20.636529 c 0,0 -6.005219,-0.286806 -9.104522,6.60785 -0.727893,1.619258 -3.35722,0.876009 -3.35722,0.876009 0,0 1.758344,4.5783532 12.359526,4.5440194 10.601179,-0.034333 11.982259,-4.2270114 11.982259,-4.2270114 0,0 -2.336641,0.517623 -3.055987,-1.160144 -2.90461,-6.774582 -8.824056,-6.640723 -8.824056,-6.640723 z"
       id="path16542"
       sodipodi:nodetypes="cscscsc"
       inkscape:connector-curvature="0" />
    <path
       style="fill:none;stroke:#aa4400;stroke-width:1.0580796;stroke-linecap:round;stroke-linejoin:round"
       d="m 79.758574,-10.781145 c 0,0 1.50564,-1.132483 1.976213,-2.349688 1.001174,-2.589677 2.297452,-1.625046 2.297452,-1.625046 0,0 1.455978,0.610316 1.31041,3.137036 -0.11426,1.9832731 1.191308,2.6800551 1.191308,2.6800551"
       id="path16989"
       sodipodi:nodetypes="cscsc"
       inkscape:connector-curvature="0" />
    <path
       style="fill:none;stroke:#aa4400;stroke-width:1.0580796;stroke-linecap:round;stroke-linejoin:round"
       d="m 85.559199,-11.654328 c 0,0 2.64296,-1.709961 4.394644,-1.051331 1.751683,0.65863 3.173403,-0.107093 3.173403,-0.107093 0,0 3.320972,-0.571264 4.003535,0.02198 0.682568,0.593241 2.257169,0.09066 2.257169,0.09066"
       id="path17573"
       inkscape:connector-curvature="0" />
    <path
       style="fill:none;stroke:#aa4400;stroke-width:1.0580796;stroke-linecap:round;stroke-linejoin:round"
       d="m 84.792107,-14.404901 c 0,0 1.810829,-2.181059 3.064083,-2.134309 1.253255,0.04674 1.979034,-0.753471 1.979034,-0.753471 0,0 1.266897,-1.590783 2.779094,-0.411476 1.512197,1.179308 2.593144,1.320066 2.593144,1.320066 0,0 1.716418,0.692336 2.153803,1.33184"
       id="path17575"
       inkscape:connector-curvature="0" />
    <path
       style="fill:none;stroke:#aa4400;stroke-width:1.0580796;stroke-linecap:round;stroke-linejoin:round"
       d="m 83.685618,-15.168896 c 0,0 1.049063,-3.323474 2.675223,-3.626728 1.626159,-0.303255 2.595372,-1.086595 2.595372,-1.086595 0,0 1.020261,-0.746501 3.123893,-0.0071"
       id="path17690"
       inkscape:connector-curvature="0" />
    <path
       style="fill:none;stroke:#aa4400;stroke-width:1.0580796;stroke-linecap:round;stroke-linejoin:round"
       d="m 82.217225,-14.064148 c 0,0 -0.04816,-1.443702 -0.328285,-2.468522"
       id="path17692"
       inkscape:connector-curvature="0" />
    <path
       style="fill:none;stroke:#aa4400;stroke-width:1.0580796;stroke-linecap:round;stroke-linejoin:round"
       d="m 81.105311,-12.236776 c 0,0 -0.293667,-1.226581 -0.939029,-1.543611"
       id="path17694"
       inkscape:connector-curvature="0" />
    <path
       style="fill:none;stroke:#000000;stroke-width:1.0580796;stroke-linecap:round;stroke-linejoin:round"
       d="m 89.190897,-20.636529 c 0,0 -6.005219,-0.286806 -9.104522,6.60785 -0.727893,1.619258 -3.35722,0.876009 -3.35722,0.876009 0,0 1.758344,4.5783532 12.359526,4.5440194 10.601179,-0.034333 11.982259,-4.2270114 11.982259,-4.2270114 0,0 -2.336641,0.517623 -3.055987,-1.160144 -2.90461,-6.774582 -8.824056,-6.640723 -8.824056,-6.640723 z"
       id="path16554"
       sodipodi:nodetypes="cscscsc"
       inkscape:connector-curvature="0" />
    <ellipse
       style="fill:#000000;stroke:none;stroke-width:1.06224263;stroke-linecap:round;stroke-linejoin:round"
       id="ellipse17776"
       cx="88.709892"
       cy="-17.838778"
       rx="0.58830976"
       ry="0.97397798"
       transform="matrix(0.99217994,0.12481574,0,1,0,0)" />
    <ellipse
       style="fill:#000000;stroke:none;stroke-width:1.19391024;stroke-linecap:round;stroke-linejoin:round"
       id="ellipse17778"
       cx="109.23283"
       cy="-74.757492"
       rx="0.56354994"
       ry="0.97397798"
       transform="matrix(0.78540677,0.61897997,0,1,0,0)" />
    <path
       style="fill:#999999;stroke:#000000;stroke-width:1.0580796;stroke-linecap:round;stroke-linejoin:round"
       d="m 92.206077,-2.4454116 c 0,0 2.054858,-0.9519488 2.510367,1.51116619 0.529611,2.86380261 0.254927,4.45355681 0.254927,4.45355681 0,0 0.335193,2.4064772 -0.857832,4.5109087 0,0 0.588777,0.4011011 0.442323,1.1146287 -0.297957,1.4516502 -1.921592,1.7176772 -1.921592,1.7176772 0,0 -1.473176,0.255782 -1.396557,-1.1632015 0.06318,-1.1699682 1.166326,-1.6147468 1.166326,-1.6147468 0,0 -0.307192,-3.393116 0.250131,-4.448716 0,0 -1.387209,-2.4483626 -1.5608,-3.67896377 -0.262386,-1.86008973 1.112707,-2.40230953 1.112707,-2.40230953 z"
       id="path18975"
       sodipodi:nodetypes="csccscsccsc"
       inkscape:connector-curvature="0" />
    <path
       style="fill:#999999;stroke:#000000;stroke-width:1.0580796;stroke-linecap:round;stroke-linejoin:round"
       d="m 119.78696,-4.4800082 c 0,0 -0.17083,-3.1438139 -2.5409,-2.3187079 -1.18502,0.4125531 -5.1063,0.9453987 -6.29086,1.7348004 -1.18456,0.7894019 -1.79478,2.0324428 -1.72962,3.6728571 l 2.80224,8.7147194 c 0,0 4.43307,2.1347339 6.00234,-2.8155023 z"
       id="path1032"
       sodipodi:nodetypes="csscccc"
       inkscape:connector-curvature="0" />
    <ellipse
       style="fill:#999999;stroke:#000000;stroke-width:1.0580796;stroke-linecap:round;stroke-linejoin:round"
       id="ellipse144"
       cx="114.30009"
       cy="-9.6333838"
       rx="4.7816358"
       ry="4.5638351" />
    <path
       style="fill:#ff6600;stroke:none;stroke-width:1.0580796;stroke-linecap:round;stroke-linejoin:round"
       d="m 114.59095,-20.636529 c 0,0 -6.00522,-0.286806 -9.10452,6.60785 -0.72789,1.619258 -3.35723,0.876009 -3.35723,0.876009 0,0 1.75835,4.5783532 12.35953,4.5440194 10.60118,-0.034333 11.98226,-4.2270114 11.98226,-4.2270114 0,0 -2.33664,0.517623 -3.05599,-1.160144 -2.9046,-6.774582 -8.82405,-6.640723 -8.82405,-6.640723 z"
       id="path146"
       sodipodi:nodetypes="cscscsc"
       inkscape:connector-curvature="0" />
    <path
       style="fill:none;stroke:#aa4400;stroke-width:1.0580796;stroke-linecap:round;stroke-linejoin:round"
       d="m 121.18009,-9.6253392 c 0,0 0.37414,-2.5051198 1.05179,-2.9424758 0.67764,-0.437357 0.30733,-2.987557 0.30733,-2.987557"
       id="path839"
       inkscape:connector-curvature="0" />
    <path
       style="fill:none;stroke:#aa4400;stroke-width:1.0580796;stroke-linecap:round;stroke-linejoin:round"
       d="m 121.06004,-9.6977947 c 0,0 -0.27504,-3.1116013 0.0723,-3.5959943 0.34733,-0.484395 -0.32806,-2.640683 -0.32806,-2.640683 0,0 -0.84423,-0.97264 -0.77086,-2.286208"
       id="path940"
       inkscape:connector-curvature="0" />
    <path
       style="fill:none;stroke:#aa4400;stroke-width:1.0580796;stroke-linecap:round;stroke-linejoin:round"
       d="m 120.83228,-9.6059007 c 0,0 -0.82462,-3.9771733 -1.62607,-4.8576873 -0.80144,-0.880514 -1.36551,-2.719262 -1.36551,-2.719262 0,0 -1.31401,-1.925371 -2.48014,-2.427192 -1.16613,-0.50182 -1.20171,-0.961141 -1.20171,-0.961141"
       id="path942"
       inkscape:connector-curvature="0" />
    <path
       style="fill:none;stroke:#aa4400;stroke-width:1.0580796;stroke-linecap:round;stroke-linejoin:round"
       d="m 120.77073,-9.6137032 c 0,0 -2.06365,-3.4183758 -3.41889,-3.7534878 -1.35526,-0.335113 -2.6419,-0.984653 -2.6419,-0.984653 0,0 -0.94248,-2.133076 -2.95099,-2.19906 -2.00851,-0.06599 -3.78699,-0.762417 -3.78699,-0.762417"
       id="path944"
       inkscape:connector-curvature="0" />
    <path
       style="fill:none;stroke:#aa4400;stroke-width:1.0580796;stroke-linecap:round;stroke-linejoin:round"
       d="m 121.0356,-9.3869833 c 0,0 -3.20278,-1.7016037 -4.16704,-1.5768677 -0.96424,0.124735 -3.11183,0.01534 -3.11183,0.01534 0,0 -1.47265,-0.15807 -2.05874,-0.682728 -0.58607,-0.524659 -2.64304,-0.715709 -2.64304,-0.715709 0,0 -2.61539,-0.042 -3.33807,-0.995008"
       id="path946"
       inkscape:connector-curvature="0" />
    <path
       style="fill:none;stroke:#000000;stroke-width:1.0580796;stroke-linecap:round;stroke-linejoin:round"
       d="m 114.59095,-20.636529 c 0,0 -6.00522,-0.286806 -9.10452,6.60785 -0.72789,1.619258 -3.35723,0.876009 -3.35723,0.876009 0,0 1.75835,4.5783532 12.35953,4.5440194 10.60118,-0.034333 11.98226,-4.2270114 11.98226,-4.2270114 0,0 -2.33664,0.517623 -3.05599,-1.160144 -2.9046,-6.774582 -8.82405,-6.640723 -8.82405,-6.640723 z"
       id="path160"
       sodipodi:nodetypes="cscscsc"
       inkscape:connector-curvature="0" />
    <path
       style="fill:#999999;stroke:#000000;stroke-width:1.0580796;stroke-linecap:round;stroke-linejoin:round"
       d="m 110.28211,-3.4399211 c 0,0 2.04185,0.2336356 2.23733,2.94718529 0.22729,3.15497631 -0.1863,4.57947381 -0.1863,4.57947381 0,0 0.0868,2.5880145 -1.24795,3.9969264 0,0 0.52025,0.7376859 0.31264,1.3637271 -0.42239,1.2736545 -1.98899,0.6051515 -1.98899,0.6051515 0,0 -1.42282,-0.5922148 -1.21365,-1.9605848 0.17246,-1.1282383 1.26225,-0.9368473 1.26225,-0.9368473 0,0 0.0347,-3.5539864 0.6652,-4.2843381 0,0 -1.0812,-3.2344256 -1.12762,-4.5591127 -0.0702,-2.0023047 1.28709,-1.7515812 1.28709,-1.7515812 z"
       id="path1036"
       sodipodi:nodetypes="csccscsccsc"
       inkscape:connector-curvature="0" />
  </g>
</svg>
