<?xml version="1.0" encoding="UTF-8" standalone="no"?>
<!-- Created with Inkscape (http://www.inkscape.org/) -->

<svg
   width="240"
   height="320"
   viewBox="0 0 63.499999 84.666668"
   version="1.1"
   id="svg5"
   inkscape:version="1.1.2 (0a00cf5339, 2022-02-04)"
   sodipodi:docname="cogmura.svg"
   inkscape:export-filename="/home/victor/Projects/cogmura/data/img/char/cogjian.png"
   inkscape:export-xdpi="96"
   inkscape:export-ydpi="96"
   xmlns:inkscape="http://www.inkscape.org/namespaces/inkscape"
   xmlns:sodipodi="http://sodipodi.sourceforge.net/DTD/sodipodi-0.dtd"
   xmlns="http://www.w3.org/2000/svg"
   xmlns:svg="http://www.w3.org/2000/svg">
  <sodipodi:namedview
     id="namedview7"
     pagecolor="#ffffff"
     bordercolor="#666666"
     borderopacity="1.0"
     inkscape:pageshadow="2"
     inkscape:pageopacity="0.0"
     inkscape:pagecheckerboard="true"
     inkscape:document-units="px"
     showgrid="false"
     units="px"
     width="240px"
     inkscape:zoom="1"
     inkscape:cx="13"
     inkscape:cy="140"
     inkscape:window-width="1920"
     inkscape:window-height="1012"
     inkscape:window-x="0"
     inkscape:window-y="0"
     inkscape:window-maximized="1"
     inkscape:current-layer="layer1"
     inkscape:snap-global="false"
     height="320px" />
  <defs
     id="defs2" />
  <g
     inkscape:label="Layer 1"
     inkscape:groupmode="layer"
     id="layer1">
    <path
       style="fill:#b3b3b3;stroke:#000000;stroke-width:0.529167;stroke-linecap:round;stroke-linejoin:round"
       d="m 33.238161,56.166862 c 0,0 0.348726,0.678598 0.362535,1.200628 0.0138,0.52203 -0.0509,0.940575 -0.0509,0.940575 0,0 0.07841,0.963674 -0.06635,1.357696 0,0 0.138037,1.022744 -0.06294,1.774468 0.128389,0.385755 0.177895,0.676313 0.143233,0.977891 0,0 -0.244632,0.294506 -0.54247,0.300744 -0.508246,0.0068 -0.95083,-0.494334 -0.95083,-0.494334 0,0 -0.202851,-0.678637 0.434528,-0.952093 -0.03415,-0.584589 -0.116327,-1.582164 -0.116327,-1.582164 0,0 0.05732,-0.843569 0.05128,-1.344754 0,0 0.0092,0.852662 -0.201839,1.250346 0,0 0.139111,1.106484 -0.109329,1.407159 0,0 -0.174981,0.890057 -0.13252,1.214681 0,0 0.08201,0.820756 -0.21185,0.922778 -0.293867,0.102024 -1.016672,-0.04599 -1.016672,-0.04599 0,0 -0.563877,-0.37818 -0.795113,-0.866067 -0.231238,-0.487889 0.356335,-0.689048 0.356335,-0.689048 l 0.42676,0.154277 0.01873,0.371994 c 0,0 0.121683,-1.198487 0.08173,-1.607108 0,0 -0.220846,-0.480212 -0.05996,-0.756343 0,0 -0.471324,-1.065604 -0.289725,-2.742043 0.181598,-1.67644 2.731616,-0.793288 2.731615,-0.793288 z"
       id="path1231"
       sodipodi:nodetypes="csccccccccccccscscccccscc" />
    <path
       style="fill:#b3b3b3;stroke:#000000;stroke-width:0.529167;stroke-linecap:round;stroke-linejoin:round"
       d="m 33.905855,50.644093 c 0,0 0.773761,-0.0085 0.893066,1.176607 0.13871,1.37791 0.120579,2.045333 0.120579,2.045333 0,0 0.06867,1.134607 -0.519241,1.812064 0,0 0.243795,0.301973 0.156969,0.586323 -0.176643,0.578498 -0.893116,0.352219 -0.893116,0.352219 0,0 -0.650543,-0.19894 -0.571454,-0.809882 0.06522,-0.503721 0.560506,-0.46668 0.560506,-0.46668 0,0 -0.0247,-1.564754 0.252279,-1.913274 0,0 -0.526003,-1.375922 -0.562071,-1.956587 -0.05452,-0.877695 0.562483,-0.826124 0.562483,-0.826123 z"
       id="path1030"
       sodipodi:nodetypes="csccscsccsc" />
    <path
       style="fill:#b3b3b3;stroke:#000000;stroke-width:0.529167;stroke-linecap:round;stroke-linejoin:round"
       d="m 56.140569,34.412793 c 0,0 -0.502892,1.80848 -0.207079,3.237184 0.231576,1.118461 0.08402,2.319263 0.08402,2.319263 0,0 -0.533115,0.301891 -0.703785,0.462239 -0.170668,0.16035 0.02054,0.61304 0.02054,0.61304 0,0 0.312955,0.25243 0.586074,0.305188 0.273118,0.05275 0.98764,-0.484267 0.98764,-0.484267 0,0 0.146665,-0.302235 0.08171,-0.582894 -0.06495,-0.280659 0.07283,-1.734032 0.07283,-1.734032 0,0 0.0816,-0.68185 -0.02364,-1.161328 0,0 0.173709,-0.502002 0.27846,0.549265 0,0 -0.0043,0.617115 0.221698,1.487899 0.09532,0.749282 0.0375,1.29453 0.0375,1.29453 l -0.685491,0.387927 c 0,0 -0.215465,0.246551 -0.08507,0.46574 0.202708,0.340745 0.857343,0.446399 0.857343,0.446399 0,0 0.742971,-0.218096 0.968741,-0.499887 0.22577,-0.281793 0.03109,-0.796717 0.03109,-0.796717 l 0.08963,-1.298637 c 0,0 0.184044,-0.749932 0.249695,-1.497984 0,0 0.346822,-1.670872 -0.0468,-2.588133 -0.393623,-0.91726 -2.815102,-0.924795 -2.815102,-0.924795 z"
       id="path19094"
       sodipodi:nodetypes="cscscscsccccccscscccscc" />
    <path
       style="fill:#b3b3b3;stroke:#000000;stroke-width:0.529167;stroke-linecap:round;stroke-linejoin:round"
       d="m 55.220336,29.484926 c 0,0 1.082274,-0.18683 1.095359,1.005331 0.01521,1.386095 -0.253513,2.085718 -0.253513,2.085718 0,0 -0.04075,1.15126 -0.800728,1.975548 0,0 0.252944,0.257319 0.12104,0.568487 -0.268354,0.633058 -1.08227,0.556421 -1.08227,0.556421 0,0 -0.739714,-0.06289 -0.582009,-0.708057 0.130038,-0.531946 0.705428,-0.601674 0.705428,-0.601674 0,0 0.138084,-1.602959 0.499262,-2.021473 0,0 -0.246156,-1.180926 -0.22638,-1.769914 0.02989,-0.890272 0.52381,-1.090387 0.523811,-1.090387 z"
       id="path19059"
       sodipodi:nodetypes="csccscsccsc" />
    <path
       style="fill:#b3b3b3;stroke:#000000;stroke-width:0.529167;stroke-linecap:round;stroke-linejoin:round"
       d="m 18.316948,29.498492 c 0,0 1.078795,-0.169851 1.173637,1.013474 0.11027,1.375826 -0.112857,2.06629 -0.112857,2.06629 0,0 0.03774,1.141962 -0.672329,1.949082 0,0 0.272744,0.259009 0.161014,0.565925 -0.227311,0.624408 -1.053482,0.536646 -1.053482,0.536646 0,0 -0.750388,-0.07306 -0.635509,-0.711069 0.09472,-0.526051 0.670296,-0.586976 0.670296,-0.586976 0,0 0.0295,-1.58884 0.365123,-1.998995 0,0 -0.561486,-1.296654 -0.581877,-1.880901 -0.03082,-0.883105 0.685984,-0.953476 0.685984,-0.953476 z"
       id="path13440"
       sodipodi:nodetypes="csccscsccsc" />
    <path
       style="fill:#b3b3b3;stroke:#000000;stroke-width:0.529167;stroke-linecap:round;stroke-linejoin:round"
       d="m 17.92526,35.25498 c 0,0 -0.302365,1.712497 -0.0091,3.200523 0.293245,1.488027 0.11975,2.171212 0.11975,2.171212 l -0.688641,0.104156 c 0,0 -0.14088,0.309298 -0.03973,0.570108 l 0.463208,0.135916 0.0199,-0.08075 0.89352,-0.07607 c 0,0 0.246348,-1.621529 4.4e-5,-2.492749 -0.246303,-0.871218 -0.229001,-1.939504 -0.229001,-1.939504 0,0 -0.0111,1.366007 0.276734,2.183694 0.287841,0.817687 -0.08,2.251204 -0.08,2.251204 l -0.864456,0.09289 c 0,0 -0.118361,0.276737 -0.01089,0.613038 0,0 1.39248,0.127615 2.267342,0.02083 0,0 0.06482,-0.351101 0.0015,-0.727545 0,0 0.190947,-1.426436 0.0033,-1.90281 0,0 0.106875,-1.047715 0.29124,-1.442825 0.378543,-1.196775 0.0036,-2.599 0.0036,-2.599 z"
       id="path14871"
       sodipodi:nodetypes="ccccccccscsccccccccc" />
    <path
       style="fill:#b3b3b3;stroke:#000000;stroke-width:0.529167;stroke-linecap:round;stroke-linejoin:round"
       d="m 17.185106,30.668691 c 0,0 0.0097,-0.932193 0.813753,-1.068619 0.804065,-0.136426 3.062687,-0.250954 3.057372,1.176878 l -0.757438,4.563715 c 0,0 -1.174505,0.860448 -2.35291,9.42e-4 z"
       id="path10803"
       sodipodi:nodetypes="cscccc" />
    <path
       style="fill:#b3b3b3;stroke:#000000;stroke-width:0.529167;stroke-linecap:round;stroke-linejoin:round"
       d="m 9.3981504,8.8280713 c 0,0 1.3153166,0.4655977 1.3501656,1.7164927 0.03485,1.250896 -0.0955,2.125096 -0.0955,2.125096 0,0 0.152256,0.779643 -0.112299,1.919577 0,0 0.280178,0.341637 0.247538,0.744861 -0.05467,0.675343 -0.936891,0.603762 -0.936891,0.603762 0,0 -0.7327328,-0.0951 -0.7365274,-0.751549 -0.00239,-0.412766 0.4114011,-0.641762 0.4114011,-0.641762 0,0 -0.1843478,-1.252241 0.080236,-1.859077 0,0 -0.6366598,-0.836116 -0.638628,-1.999912 z"
       id="path1551"
       sodipodi:nodetypes="csccscscccc" />
    <path
       style="fill:#b3b3b3;stroke:#000000;stroke-width:0.529167;stroke-linecap:round;stroke-linejoin:round"
       d="m 3.2851906,8.8280713 c 0,0 -1.2578118,0.3124537 -1.2926608,1.5633487 -0.03485,1.250896 0.03799,2.27824 0.03799,2.27824 0,0 -0.152256,0.779643 0.112299,1.919577 0,0 -0.280178,0.341637 -0.247538,0.744861 0.05467,0.675343 0.9368925,0.603762 0.9368925,0.603762 0,0 0.732732,-0.0951 0.736527,-0.751549 0.0024,-0.412766 -0.411401,-0.641762 -0.411401,-0.641762 0,0 0.184347,-1.252241 -0.08024,-1.859077 0,0 0.636659,-0.836116 0.638628,-1.999912 z"
       id="path2325"
       sodipodi:nodetypes="csccscscccc" />
    <path
       id="path2360"
       style="fill:#b3b3b3;stroke:#000000;stroke-width:0.529167;stroke-linecap:round;stroke-linejoin:round"
       d="m 4.8363973,13.791683 c 0,0 -0.8537631,1.449219 -0.7668784,3.359046 0,0 0.2404036,1.909906 0.02439,2.280124 l -0.3961847,0.65648 c 0,0 -0.072154,0.66291 0.3912865,0.759398 0.8762024,0.107461 1.1282419,-0.249666 1.1282419,-0.249666 0,0 0.3870727,-0.342343 0.2573486,-1.006149 0,0 0.5190111,-1.571817 0.4242636,-2.457851 0,0 0.055958,-1.119885 0.4598535,-1.120181 0.4038957,2.84e-4 0.4424169,1.120181 0.4424169,1.120181 -0.094747,0.886034 0.4242636,2.457851 0.4242636,2.457851 -0.1297241,0.663806 0.2573486,1.006149 0.2573486,1.006149 0,0 0.2869686,0.337005 1.163171,0.229549 0.463441,-0.09649 0.350461,-0.78875 0.350461,-0.78875 L 8.6418527,19.426013 C 8.425839,19.055796 8.6304807,17.150729 8.6304807,17.150729 8.7173657,15.240902 7.8636024,13.791683 7.8636024,13.791683 l -1.5136027,0.04088 z"
       sodipodi:nodetypes="ccccccccccccccccccc" />
    <path
       style="fill:#b3b3b3;stroke:#000000;stroke-width:0.529167;stroke-linecap:round;stroke-linejoin:round"
       d="m 3.1400135,8.7177037 c 0,0 3.1542828,-1.0055052 6.3854809,0.0075 L 7.9895699,13.856457 c 0,0 -1.6710513,0.820785 -3.3476489,8.97e-4 z"
       id="path1436"
       sodipodi:nodetypes="ccccc" />
    <ellipse
       style="fill:#b3b3b3;stroke:#000000;stroke-width:0.529167;stroke-linecap:round;stroke-linejoin:round"
       id="path1321"
       cx="6.3499999"
       cy="6.5631094"
       rx="2.3908131"
       ry="2.2830188" />
    <path
       style="fill:#2a7fff;stroke:none;stroke-width:0.529167;stroke-linecap:round;stroke-linejoin:round"
       d="M 6.4954198,0.75875041 C 3.3690837,0.75776414 0.26021101,3.1555864 0.26458333,5.2028157 c 0,0 0.87914857,1.8908966 6.17972817,1.8728663 C 11.744891,7.057652 12.43543,5.2028157 12.43543,5.2028157 12.406131,3.2062835 9.6217559,0.75973667 6.4954198,0.75875041 Z"
       id="path39"
       sodipodi:nodetypes="zcscz" />
    <ellipse
       style="fill:#000000;stroke:none;stroke-width:0.547916;stroke-linecap:round;stroke-linejoin:round"
       id="path5675"
       cx="5.7588744"
       cy="5.8618493"
       rx="0.31290153"
       ry="0.48722407"
       transform="matrix(0.93273431,0.36056442,0,1,0,0)" />
    <ellipse
       style="fill:#000000;stroke:none;stroke-width:0.547916;stroke-linecap:round;stroke-linejoin:round"
       id="ellipse5779"
       cx="-7.8297191"
       cy="10.761413"
       rx="0.31290153"
       ry="0.48722407"
       transform="matrix(-0.93273431,0.36056442,0,1,0,0)" />
    <path
       id="path6225"
       style="fill:#b3b3b3;stroke:#000000;stroke-width:0.529167;stroke-linecap:round;stroke-linejoin:round"
       d="m 42.936402,14.020799 c 0,0 -0.806139,1.501555 -0.719255,3.346185 0,0 0.302948,1.887333 0.08693,2.244912 l -0.42437,-0.01284 c 0,0 0.03407,1.142763 0.497503,1.235956 0.876203,0.103793 1.097269,-0.08205 1.097269,-0.08205 0,0 0.335264,-0.341437 0.20554,-0.982581 0,0 0.413594,-1.666472 0.318846,-2.522258 0,0 0.05596,-1.081656 0.459854,-1.081942 0.403895,2.75e-4 0.442417,1.081942 0.442417,1.081942 -0.09475,0.855786 0.397631,2.498332 0.397631,2.498332 -0.129724,0.641145 0.111114,1.000258 0.111114,1.000258 0,0 0.346521,0.180551 1.222724,0.07676 0.463441,-0.0932 0.388551,-1.272518 0.388551,-1.272518 l -0.383551,0.01198 c -0.216014,-0.35758 0.09288,-2.29775 0.09288,-2.29775 0.08688,-1.844629 -0.766878,-3.244375 -0.766878,-3.244375 l -1.513603,0.03948 z"
       sodipodi:nodetypes="ccccccccccccccccccc" />
    <ellipse
       style="fill:#b3b3b3;stroke:#000000;stroke-width:0.529167;stroke-linecap:round;stroke-linejoin:round"
       id="ellipse8717"
       cx="19.050005"
       cy="27.68302"
       rx="2.3908131"
       ry="2.2830188" />
    <ellipse
       style="fill:#000000;stroke:none;stroke-width:0.531251;stroke-linecap:round;stroke-linejoin:round"
       id="ellipse8721"
       cx="18.039373"
       cy="26.705153"
       rx="0.29415652"
       ry="0.48722407"
       transform="matrix(0.99217244,0.1248753,0,1,0,0)" />
    <path
       style="fill:#b3b3b3;stroke:#000000;stroke-width:0.529167;stroke-linecap:round;stroke-linejoin:round"
       d="m 19.553097,30.67214 c 0,0 1.078795,-0.169852 1.173637,1.013475 0.11027,1.375823 -0.112857,2.066287 -0.112857,2.066287 0,0 0.03774,1.141963 -0.672329,1.949082 0,0 0.272744,0.259009 0.161014,0.565925 -0.227311,0.624408 -1.053482,0.536645 -1.053482,0.536645 0,0 -0.750388,-0.07305 -0.635509,-0.711067 0.09472,-0.526053 0.670296,-0.586978 0.670296,-0.586978 0,0 0.0295,-1.58884 0.365123,-1.998994 0,0 -0.561486,-1.296652 -0.581877,-1.880898 -0.03082,-0.883106 0.685984,-0.953477 0.685984,-0.953477 z"
       id="path10838"
       sodipodi:nodetypes="csccscsccsc" />
    <path
       style="fill:#b3b3b3;stroke:#000000;stroke-width:0.529167;stroke-linecap:round;stroke-linejoin:round"
       d="m 54.980462,30.405706 c 0,0 -0.105669,-1.365276 1.079354,-0.977065 0.592513,0.194106 2.374313,0.159873 2.966593,0.531286 0.592279,0.371412 0.896552,0.860611 0.863967,1.632424 l -1.400282,4.195919 c 0,0 -1.679571,0.677966 -2.723171,-1.096712 z"
       id="path17813"
       sodipodi:nodetypes="csscccc" />
    <ellipse
       style="fill:#b3b3b3;stroke:#000000;stroke-width:0.529167;stroke-linecap:round;stroke-linejoin:round"
       id="ellipse16540"
       cx="57.150005"
       cy="27.729778"
       rx="2.3908131"
       ry="2.2830188" />
    <ellipse
       style="fill:#000000;stroke:none;stroke-width:0.531251;stroke-linecap:round;stroke-linejoin:round"
       id="ellipse17776"
       cx="57.155449"
       cy="22.026663"
       rx="0.29415652"
       ry="0.48722407"
       transform="matrix(0.99217244,0.1248753,0,1,0,0)" />
    <ellipse
       style="fill:#000000;stroke:none;stroke-width:0.597154;stroke-linecap:round;stroke-linejoin:round"
       id="ellipse17778"
       cx="70.7995"
       cy="-14.861783"
       rx="0.2818267"
       ry="0.48722407"
       transform="matrix(0.7852609,0.61916502,0,1,0,0)" />
    <path
       style="fill:#b3b3b3;stroke:#000000;stroke-width:0.529167;stroke-linecap:round;stroke-linejoin:round"
       d="m 59.040769,31.003507 c 0,0 0.773557,-0.392941 1.001311,0.765952 0.264805,1.347417 0.127463,2.095394 0.127463,2.095394 0,0 0.167596,1.132246 -0.428915,2.122379 0,0 0.294388,0.188718 0.221161,0.524432 -0.148978,0.682999 -0.960794,0.808165 -0.960794,0.808165 0,0 -0.736586,0.120345 -0.698277,-0.547285 0.03159,-0.550469 0.583162,-0.759737 0.583162,-0.759737 0,0 -0.153596,-1.596458 0.125065,-2.093116 0,0 -0.482634,-1.293748 -0.569429,-1.872745 -0.131193,-0.87517 0.599253,-1.043439 0.599253,-1.043439 z"
       id="path18975"
       sodipodi:nodetypes="csccscsccsc" />
    <path
       style="fill:#b3b3b3;stroke:#000000;stroke-width:0.529167;stroke-linecap:round;stroke-linejoin:round"
       d="m 34.216461,51.501012 c 0,0 0.09036,-1.392139 -1.094667,-1.005063 -0.592513,0.193538 -2.448039,0.268122 -2.926292,0.776073 -0.454497,0.482718 -0.594346,0.826362 -0.561761,1.595917 l 1.057762,4.045248 c 0,0 1.845305,0.507928 2.809486,-1.02753 z"
       id="path1032"
       sodipodi:nodetypes="csscccc" />
    <ellipse
       style="fill:#b3b3b3;stroke:#000000;stroke-width:0.529167;stroke-linecap:round;stroke-linejoin:round"
       id="ellipse144"
       cx="31.749998"
       cy="48.896446"
       rx="2.3908131"
       ry="2.2830188" />
    <path
       style="fill:#b3b3b3;stroke:#000000;stroke-width:0.529167;stroke-linecap:round;stroke-linejoin:round"
       d="m 29.741012,51.88675 c 0,0 1.020921,0.109603 1.118661,1.38259 0.113642,1.480072 -0.09315,2.148336 -0.09315,2.148336 0,0 0.04337,1.214096 -0.623974,1.875048 0,0 0.260125,0.346065 0.156317,0.639754 -0.211192,0.5975 -0.994493,0.283891 -0.994493,0.283891 0,0 -0.711406,-0.277822 -0.606822,-0.919755 0.08623,-0.529283 0.631126,-0.439496 0.631126,-0.439496 0,0 0.01736,-1.667254 0.332594,-2.009879 0,0 -0.350745,-1.444845 -0.373957,-2.066286 -0.03509,-0.939326 0.7422,-0.797788 0.7422,-0.797788 z"
       id="path1036"
       sodipodi:nodetypes="csccscsccscc" />
    <path
       style="fill:#ffdd55;stroke:#0044aa;stroke-width:0.529167;stroke-linecap:round;stroke-linejoin:round"
       d="m 3.4169239,6.7978082 c 0,0 0.4594478,-2.4140569 2.8604495,-2.4123801 2.4010016,0.00167 2.9191267,2.4451145 2.9191267,2.4451145 0,0 -2.8730069,0.5735742 -5.7795762,-0.032734 z"
       id="path6815"
       sodipodi:nodetypes="cccc" />
    <path
       style="fill:none;stroke:#0044aa;stroke-width:0.529167;stroke-linecap:round;stroke-linejoin:round"
       d="m 4.024997,5.3928053 c 0,0 -1.7232763,-1.0680404 -2.4064028,-2.3958201"
       id="path6966"
       sodipodi:nodetypes="cc" />
    <path
       style="fill:none;stroke:#0044aa;stroke-width:0.529167;stroke-linecap:round;stroke-linejoin:round"
       d="m 5.3533661,4.4246996 c 0,0 -0.7121406,-1.5152892 -1.0044795,-3.212162"
       id="path7001"
       sodipodi:nodetypes="cc" />
    <path
       style="fill:none;stroke:#0044aa;stroke-width:0.529167;stroke-linecap:round;stroke-linejoin:round"
       d="m 8.8250313,5.4156646 c 0,0 1.7216827,-1.0908997 2.4048097,-2.4186794"
       id="path7083" />
    <path
       style="fill:none;stroke:#0044aa;stroke-width:0.529167;stroke-linecap:round;stroke-linejoin:round"
       d="m 7.4394274,4.5246251 c 0,0 0.7677825,-1.6152147 1.0601214,-3.3120875"
       id="path7085" />
    <path
       style="fill:none;stroke:#000000;stroke-width:0.529167;stroke-linecap:round;stroke-linejoin:round"
       d="M 6.4954198,0.75875041 C 3.3690837,0.75776414 0.26021101,3.1555864 0.26458333,5.2028157 c 0,0 0.87914857,1.8908966 6.17972817,1.8728663 C 11.744891,7.057652 12.43543,5.2028157 12.43543,5.2028157 12.406131,3.2062835 9.6217559,0.75973667 6.4954198,0.75875041 Z"
       id="path6744"
       sodipodi:nodetypes="zcscz" />
    <path
       style="fill:#b3b3b3;stroke:#000000;stroke-width:0.529167;stroke-linecap:round;stroke-linejoin:round"
       d="m 47.498038,8.8280713 c 0,0 1.315317,0.4655977 1.350166,1.7164927 0.03485,1.250896 -0.0955,2.125096 -0.0955,2.125096 0,0 0.152256,0.779643 -0.112299,1.919577 0,0 0.280178,0.341637 0.247538,0.744861 -0.05467,0.675343 -0.936891,0.603762 -0.936891,0.603762 0,0 -0.732733,-0.0951 -0.736527,-0.751549 -0.0024,-0.412766 0.411401,-0.641762 0.411401,-0.641762 0,0 -0.184348,-1.252241 0.08024,-1.859077 0,0 -0.63666,-0.836116 -0.638628,-1.999912 z"
       id="path8016"
       sodipodi:nodetypes="csccscscccc" />
    <path
       style="fill:#b3b3b3;stroke:#000000;stroke-width:0.529167;stroke-linecap:round;stroke-linejoin:round"
       d="m 41.385079,8.8280713 c 0,0 -1.257812,0.3124537 -1.292661,1.5633487 -0.03485,1.250896 0.03799,2.27824 0.03799,2.27824 0,0 -0.152256,0.779643 0.112299,1.919577 0,0 -0.280178,0.341637 -0.247538,0.744861 0.05467,0.675343 0.936892,0.603762 0.936892,0.603762 0,0 0.732732,-0.0951 0.736527,-0.751549 0.0024,-0.412766 -0.411401,-0.641762 -0.411401,-0.641762 0,0 0.184347,-1.252241 -0.08024,-1.859077 0,0 0.636659,-0.836116 0.638628,-1.999912 z"
       id="path8018"
       sodipodi:nodetypes="csccscscccc" />
    <path
       style="fill:#b3b3b3;stroke:#000000;stroke-width:0.529167;stroke-linecap:round;stroke-linejoin:round"
       d="m 41.239901,8.7177037 c 0,0 3.154283,-1.0055052 6.385481,0.0075 l -1.535924,5.1312533 c 0,0 -1.671051,0.820785 -3.347649,8.97e-4 z"
       id="path8020"
       sodipodi:nodetypes="ccccc" />
    <ellipse
       style="fill:#b3b3b3;stroke:#000000;stroke-width:0.529167;stroke-linecap:round;stroke-linejoin:round"
       id="ellipse6229"
       cx="44.450005"
       cy="6.5631094"
       rx="2.3908131"
       ry="2.2830188" />
    <path
       style="fill:#2a7fff;stroke:none;stroke-width:0.529167;stroke-linecap:round;stroke-linejoin:round"
       d="m 44.595425,0.75875041 c -3.126336,-9.8627e-4 -6.235209,2.39683599 -6.230837,4.44406529 0,0 0.879149,1.8908966 6.179728,1.8728663 5.30058,-0.01803 5.991119,-1.8728663 5.991119,-1.8728663 -0.0293,-1.9965322 -2.813674,-4.44307903 -5.94001,-4.44406529 z"
       id="path7806"
       sodipodi:nodetypes="zcscz" />
    <path
       style="fill:none;stroke:#0044aa;stroke-width:0.529167;stroke-linecap:round;stroke-linejoin:round"
       d="m 43.942097,6.9496042 c 0,0 -2.884407,-1.3600453 -4.223498,-3.952619"
       id="path7810"
       sodipodi:nodetypes="cc" />
    <path
       style="fill:none;stroke:#0044aa;stroke-width:0.529167;stroke-linecap:round;stroke-linejoin:round"
       d="m 44.157126,6.8613985 c 0,0 -1.447213,-3.1327915 -1.708234,-5.6488609"
       id="path7812"
       sodipodi:nodetypes="cc" />
    <path
       style="fill:none;stroke:#0044aa;stroke-width:0.529167;stroke-linecap:round;stroke-linejoin:round"
       d="m 45.112263,6.9325385 c 0,0 2.982408,-1.6088014 4.217583,-3.9355533"
       id="path7814"
       sodipodi:nodetypes="cc" />
    <path
       style="fill:none;stroke:#0044aa;stroke-width:0.529167;stroke-linecap:round;stroke-linejoin:round"
       d="m 44.615085,6.9175236 c 0,0 1.777438,-3.050173 1.984469,-5.704986"
       id="path7816"
       sodipodi:nodetypes="cc" />
    <path
       style="fill:none;stroke:#000000;stroke-width:0.529167;stroke-linecap:round;stroke-linejoin:round"
       d="m 44.595425,0.75875041 c -3.126336,-9.8627e-4 -6.235209,2.39683599 -6.230837,4.44406529 0,0 0.879149,1.8908966 6.179728,1.8728663 5.30058,-0.01803 5.991119,-1.8728663 5.991119,-1.8728663 -0.0293,-1.9965322 -2.813674,-4.44307903 -5.94001,-4.44406529 z"
       id="path7818"
       sodipodi:nodetypes="zcscz" />
    <path
       style="fill:#2a7fff;stroke:none;stroke-width:0.529167;stroke-linecap:round;stroke-linejoin:round"
       d="m 19.195425,21.925492 c -3.126336,-9.86e-4 -6.235209,2.396836 -6.230837,4.444065 0,0 0.879149,1.890897 6.179728,1.872867 5.30058,-0.01803 5.991119,-1.872867 5.991119,-1.872867 -0.0293,-1.996532 -2.813674,-4.443079 -5.94001,-4.444065 z"
       id="path9134"
       sodipodi:nodetypes="zcscz" />
    <path
       style="fill:#ffdd55;stroke:#0044aa;stroke-width:0.529167;stroke-linecap:round;stroke-linejoin:round"
       d="m 12.970883,26.359167 c 0,0 -0.02062,-1.384569 1.34838,-2.464571 0,0 1.629717,0.483192 1.286896,3.990327 0,0 -2.058053,-0.479366 -2.635276,-1.525756 z"
       id="path10364"
       sodipodi:nodetypes="cccc" />
    <path
       style="fill:none;stroke:#0044aa;stroke-width:0.529167;stroke-linecap:round;stroke-linejoin:round"
       d="m 15.635153,26.02955 c 0,0 3.256366,-1.621859 9.151286,0.653502"
       id="path11033" />
    <path
       style="fill:none;stroke:#0044aa;stroke-width:0.529167;stroke-linecap:round;stroke-linejoin:round"
       d="m 15.152693,24.533939 c 0,0 4.775891,-4.620963 9.960599,1.807541"
       id="path11068" />
    <path
       style="fill:none;stroke:#000000;stroke-width:0.529167;stroke-linecap:round;stroke-linejoin:round"
       d="m 19.195425,21.925492 c -3.126336,-9.86e-4 -6.235209,2.396836 -6.230837,4.444065 0,0 0.879149,1.890897 6.179728,1.872867 5.30058,-0.01803 5.991119,-1.872867 5.991119,-1.872867 -0.0293,-1.996532 -2.813674,-4.443079 -5.94001,-4.444065 z"
       id="path9146"
       sodipodi:nodetypes="zcscz" />
    <path
       style="fill:#2a7fff;stroke:none;stroke-width:0.529167;stroke-linecap:round;stroke-linejoin:round"
       d="m 57.295425,21.925492 c -3.126336,-9.86e-4 -6.235209,2.396836 -6.230837,4.444065 0,0 0.879149,1.890897 6.179728,1.872867 5.30058,-0.01803 5.991119,-1.872867 5.991119,-1.872867 -0.0293,-1.996532 -2.813674,-4.443079 -5.94001,-4.444065 z"
       id="path11230"
       sodipodi:nodetypes="zcscz" />
    <path
       style="fill:#ffdd55;stroke:#0044aa;stroke-width:0.529167;stroke-linecap:round;stroke-linejoin:round"
       d="m 51.78166,27.069166 c 0,0 0.150817,-2.313067 1.981771,-2.000892 1.830953,0.312174 2.673937,3.155407 2.673937,3.155407 0,0 -3.000528,-0.02036 -4.655708,-1.154515 z"
       id="path12446"
       sodipodi:nodetypes="cscc" />
    <path
       style="fill:none;stroke:#0044aa;stroke-width:0.529167;stroke-linecap:round;stroke-linejoin:round"
       d="m 55.819918,26.640872 c 0,0 4.318754,-0.127019 7.019388,-1.289619"
       id="path13178" />
    <path
       style="fill:none;stroke:#0044aa;stroke-width:0.529167;stroke-linecap:round;stroke-linejoin:round"
       d="m 54.760584,25.529214 c 0,0 1.98976,-1.84113 5.975514,-2.492583"
       id="path13180" />
    <path
       style="fill:none;stroke:#0044aa;stroke-width:0.529167;stroke-linecap:round;stroke-linejoin:round"
       d="m 53.034163,25.043479 c 0,0 0.03903,-2.076516 2.158398,-2.764543"
       id="path13182"
       sodipodi:nodetypes="cc" />
    <path
       style="fill:none;stroke:#0044aa;stroke-width:0.529167;stroke-linecap:round;stroke-linejoin:round"
       d="m 52.193107,25.700771 c 0,0 -0.559585,-0.515574 -0.312618,-1.211731"
       id="path13184" />
    <path
       style="fill:none;stroke:#000000;stroke-width:0.529167;stroke-linecap:round;stroke-linejoin:round"
       d="m 57.295425,21.925492 c -3.126336,-9.86e-4 -6.235209,2.396836 -6.230837,4.444065 0,0 0.879149,1.890897 6.179728,1.872867 5.30058,-0.01803 5.991119,-1.872867 5.991119,-1.872867 -0.0293,-1.996532 -2.813674,-4.443079 -5.94001,-4.444065 z"
       id="path11238"
       sodipodi:nodetypes="zcscz" />
    <path
       style="fill:#2a7fff;stroke:none;stroke-width:0.529167;stroke-linecap:round;stroke-linejoin:round"
       d="m 31.895425,43.092159 c -3.126336,-9.86e-4 -6.235209,2.396836 -6.230837,4.444065 0,0 0.879149,1.890897 6.179728,1.872867 5.30058,-0.01803 5.991119,-1.872867 5.991119,-1.872867 -0.0293,-1.996532 -2.813674,-4.443079 -5.94001,-4.444065 z"
       id="path15085"
       sodipodi:nodetypes="zcscz" />
    <path
       style="fill:none;stroke:#0044aa;stroke-width:0.529167;stroke-linecap:round;stroke-linejoin:round"
       d="m 36.320265,48.649842 c 0,0 0.690726,-1.256433 0.317984,-3.504021"
       id="path15368"
       sodipodi:nodetypes="cc" />
    <path
       style="fill:none;stroke:#0044aa;stroke-width:0.529167;stroke-linecap:round;stroke-linejoin:round"
       d="m 33.887827,43.45652 c 0,0 2.113627,1.914258 2.292888,5.217903"
       id="path15370"
       sodipodi:nodetypes="cc" />
    <path
       style="fill:none;stroke:#0044aa;stroke-width:0.529167;stroke-linecap:round;stroke-linejoin:round"
       d="m 29.804358,43.509273 c 0,0 2.914419,1.255928 6.370399,5.202167"
       id="path15372"
       sodipodi:nodetypes="cc" />
    <path
       style="fill:none;stroke:#0044aa;stroke-width:0.529167;stroke-linecap:round;stroke-linejoin:round"
       d="m 26.977383,45.122398 c 0,0 1.474269,2.616652 9.178729,3.633946"
       id="path15374"
       sodipodi:nodetypes="cc" />
    <path
       style="fill:none;stroke:#000000;stroke-width:0.529167;stroke-linecap:round;stroke-linejoin:round"
       d="m 31.895425,43.092159 c -3.126336,-9.86e-4 -6.235209,2.396836 -6.230837,4.444065 0,0 0.879149,1.890897 6.179728,1.872867 5.30058,-0.01803 5.991119,-1.872867 5.991119,-1.872867 -0.0293,-1.996532 -2.813674,-4.443079 -5.94001,-4.444065 z"
       id="path15093"
       sodipodi:nodetypes="zcscz" />
  </g>
</svg>
