<?xml version="1.0" encoding="UTF-8" standalone="no"?>
<!-- Created with Inkscape (http://www.inkscape.org/) -->

<svg
   xmlns:dc="http://purl.org/dc/elements/1.1/"
   xmlns:cc="http://creativecommons.org/ns#"
   xmlns:rdf="http://www.w3.org/1999/02/22-rdf-syntax-ns#"
   xmlns:svg="http://www.w3.org/2000/svg"
   xmlns="http://www.w3.org/2000/svg"
   xmlns:sodipodi="http://sodipodi.sourceforge.net/DTD/sodipodi-0.dtd"
   xmlns:inkscape="http://www.inkscape.org/namespaces/inkscape"
   width="240"
   height="320"
   viewBox="0 0 63.499999 84.666668"
   version="1.1"
   id="svg5"
   inkscape:version="0.92.5 (2060ec1f9f, 2020-04-08)"
   sodipodi:docname="cogmura.svg"
   inkscape:export-filename="/home/victor/Projects/cogmura/data/img/char/cogmura.png"
   inkscape:export-xdpi="96"
   inkscape:export-ydpi="96">
  <metadata
     id="metadata1009">
    <rdf:RDF>
      <cc:Work
         rdf:about="">
        <dc:format>image/svg+xml</dc:format>
        <dc:type
           rdf:resource="http://purl.org/dc/dcmitype/StillImage" />
        <dc:title />
      </cc:Work>
    </rdf:RDF>
  </metadata>
  <sodipodi:namedview
     id="namedview7"
     pagecolor="#ffffff"
     bordercolor="#666666"
     borderopacity="1.0"
     inkscape:pageshadow="2"
     inkscape:pageopacity="0.0"
     inkscape:pagecheckerboard="true"
     inkscape:document-units="px"
     showgrid="false"
     units="px"
     width="240px"
     inkscape:zoom="1"
     inkscape:cx="46.292248"
     inkscape:cy="78.041501"
     inkscape:window-width="1920"
     inkscape:window-height="1015"
     inkscape:window-x="0"
     inkscape:window-y="0"
     inkscape:window-maximized="1"
     inkscape:current-layer="layer1"
     inkscape:snap-global="false"
     height="320px" />
  <defs
     id="defs2" />
  <g
     inkscape:label="Layer 1"
     inkscape:groupmode="layer"
     id="layer1">
    <path
       style="fill:#aaaaaa;fill-opacity:1;stroke:#000000;stroke-width:0.52916664;stroke-linecap:round;stroke-linejoin:miter;stroke-miterlimit:4;stroke-dasharray:none;stroke-opacity:1;paint-order:normal"
       d="m 55.825463,57.73882 c 0,0 -0.804694,1.135084 -1.245804,2.022298 -0.471385,0.948106 -0.740749,2.148858 -0.740749,2.148858 0,0 -0.303031,-0.378968 -0.572396,-0.39035 -0.269361,-0.01138 -0.606065,0.65622 -0.606065,0.65622 0,0 0.606066,1.09464 1.043782,1.05842 0.437714,-0.03622 0.808088,-0.470913 0.808088,-0.470913 0,0 0.168352,-1.293404 0.437714,-1.416706 0.269362,-0.1233 0.87543,-1.14989 0.87543,-1.14989 0,0 1.717187,-0.748164 1.986552,-1.679555 0,0 -0.05986,1.688474 0.27684,1.997316 0.336704,0.308842 1.043781,1.260442 1.043781,1.260442 l -0.32942,-0.410456 c 0,0 -0.276646,0.191243 -0.377657,0.401625 -0.101012,0.210381 0.740747,1.083496 1.01011,1.162217 0.269363,0.07872 0.707078,-0.395213 0.707078,-0.395213 0,0 0.202022,-0.25241 0.03367,-0.575182 -0.279208,-0.646714 -0.673021,-1.194824 -0.728346,-1.751719 -0.04869,-0.490154 -0.355852,-1.285954 -0.381148,-1.626727 0.06478,-0.784893 -0.454564,-1.76895 -0.454564,-1.76895 0,0 -2.113489,-0.272252 -2.786896,0.928265 z"
       id="path260"
       inkscape:connector-curvature="0"
       sodipodi:nodetypes="cscccsccccsccccccsccc" />
    <path
       style="fill:#aaaaaa;fill-opacity:1;stroke:#000000;stroke-width:0.52916664;stroke-linecap:round;stroke-linejoin:miter;stroke-miterlimit:4;stroke-dasharray:none;stroke-opacity:1;paint-order:normal"
       d="m 44.48869,58.852109 c 0,0 0.02074,0.658835 -0.519036,1.120455 -0.45438,0.388586 -0.407386,0.821799 -0.407386,0.821799 0,0 -0.138629,0.434876 -0.406167,0.540623 -0.267539,0.105755 -0.925185,-0.650703 -0.925185,-0.650703 0,0 -0.240878,-0.264467 -0.04944,-0.490774 0.374636,-0.749225 0.797433,-0.437265 0.797433,-0.437265 0,0 0.240032,-0.342915 0.461431,-1.155036 0.221399,-0.81212 1.418491,-1.675137 1.418491,-1.675137 l 0.160246,1.44522 z"
       id="path234"
       inkscape:connector-curvature="0"
       sodipodi:nodetypes="cscccccsccc" />
    <path
       style="fill:#aaaaaa;fill-opacity:1;stroke:#000000;stroke-width:0.52916664;stroke-linecap:round;stroke-linejoin:miter;stroke-miterlimit:4;stroke-dasharray:none;stroke-opacity:1;paint-order:normal"
       d="m 45.589059,57.711714 c 0.268439,1.029915 0.210914,1.409587 0.139604,1.888408 0,0 0.454035,0.535459 0.49049,1.215423 0.03645,0.679964 0.615954,1.37484 0.615954,1.37484 0,0 0.218816,0.528703 0.01597,0.881371 -0.202841,0.352668 -1.072624,0.0027 -1.072624,0.0027 0,0 -0.558005,-0.398888 -0.522752,-0.76758 0.03525,-0.368693 0.522613,-0.290692 0.522613,-0.290692 0,0 -0.750751,-1.227727 -0.940096,-1.384771 -0.360972,-0.299392 -0.363447,-0.625713 -0.363447,-0.625713 0,0 -0.929114,-0.872583 -1.1405,-3.260471 -0.285041,-3.219939 2.875342,-0.504777 2.875342,-0.504777 0.165238,1.521592 -0.405584,2.24369 -0.620561,1.471297 z"
       id="path232"
       inkscape:connector-curvature="0"
       sodipodi:nodetypes="ccscscscscsccc" />
    <path
       sodipodi:nodetypes="ccscccccscccccccscccccc"
       inkscape:connector-curvature="0"
       id="path208"
       d="m 20.344847,56.905673 c 0,0 0.405952,1.249001 0.501472,2.430526 0,0 0.596994,0.425675 0.90743,1.209029 0.310436,0.783356 0.69251,1.319088 0.69251,1.319088 0,0 0.286556,0.273057 0.334316,0.553382 0.04776,0.280327 -0.811909,0.81607 -0.811909,0.81607 0,0 -0.549234,-0.01193 -0.740271,-0.392969 -0.191038,-0.381036 0.358195,-0.727297 0.358195,-0.727297 0,0 -0.769588,-0.743614 -1.48054,-1.196568 -0.310436,-0.197781 -0.501474,-0.587641 -0.501474,-0.587641 0,0 -0.621718,-0.742795 -0.764997,-1.803881 0,0 -0.02693,-0.07883 -0.137689,0.06393 -0.505814,0.584397 -0.621489,0.788618 -0.681162,1.210418 -0.311613,0.930422 -0.923517,1.814397 -0.923517,1.814397 0,0 0.04776,0.579342 -0.143278,0.604263 -0.214917,0.239837 -1.026827,0.206102 -1.026827,0.206102 0,0 -0.596992,-0.191551 -0.596992,-0.525867 0,-0.334316 0.334316,-0.491094 0.334316,-0.491094 0,0 0.04776,-0.01714 0.573112,-0.08099 0,0 0.313486,-0.831841 0.361244,-1.871128 -0.04776,-0.462539 0.238797,-0.864342 0.238797,-0.864342 0,0 0.326017,-1.333888 1.334214,-2.560129 z"
       style="fill:#aaaaaa;fill-opacity:1;stroke:#000000;stroke-width:0.52916664;stroke-linecap:round;stroke-linejoin:miter;stroke-miterlimit:4;stroke-dasharray:none;stroke-opacity:1;paint-order:normal" />
    <path
       sodipodi:nodetypes="cccccscscc"
       inkscape:connector-curvature="0"
       id="path174"
       d="m 6.453136,59.344443 c 0,0 0.262676,0.564942 0.835789,0.601393 0.573112,0.03645 1.122344,0.41664 1.122344,0.41664 0,0 -0.1432761,0.246334 -0.2387961,0.666113 -0.09552,0.419782 0.477593,0.289075 0.477593,0.289075 0,0 0.5344481,-0.506948 0.9074291,-1.288246 0.238796,-0.500215 -0.310436,-0.474454 -0.310436,-0.474454 0,0 -0.751033,-0.181461 -0.883549,-0.582537 C 8.229357,58.566393 7.62324,58.07065 7.62324,58.07065 Z"
       style="fill:#aaaaaa;fill-opacity:1;stroke:#000000;stroke-width:0.5291667;stroke-linecap:round;stroke-linejoin:miter;stroke-miterlimit:4;stroke-dasharray:none;stroke-opacity:1;paint-order:normal" />
    <path
       style="fill:#b3b3b3;stroke:#000000;stroke-width:0.529167;stroke-linecap:round;stroke-linejoin:round"
       d="m 33.905855,50.644093 c 0,0 0.773761,-0.0085 0.893066,1.176607 0.13871,1.37791 0.120579,2.045333 0.120579,2.045333 0,0 0.06867,1.134607 -0.519241,1.812064 0,0 0.243795,0.301973 0.156969,0.586323 -0.176643,0.578498 -0.893116,0.352219 -0.893116,0.352219 0,0 -0.650543,-0.19894 -0.571454,-0.809882 0.06522,-0.503721 0.560506,-0.46668 0.560506,-0.46668 0,0 -0.0247,-1.564754 0.252279,-1.913274 0,0 -0.526003,-1.375922 -0.562071,-1.956587 -0.05452,-0.877695 0.562483,-0.826124 0.562483,-0.826123 z"
       id="path1030"
       sodipodi:nodetypes="csccscsccsc" />
    <path
       style="fill:#aaaaaa;fill-opacity:1;stroke:#000000;stroke-width:0.52916664;stroke-linecap:round;stroke-linejoin:miter;stroke-miterlimit:4;stroke-dasharray:none;stroke-opacity:1;paint-order:normal"
       d="m 45.634089,35.713659 c 0,0 0.835787,1.599938 0.931307,2.746163 0,0 0.764151,0.286558 1.074587,0.955189 0.310436,0.668632 0.596992,0.859669 0.596992,0.859669 0,0 0.286556,0.191038 0.334316,0.453713 0.04776,0.262677 -0.76415,0.979068 -0.76415,0.979068 0,0 -0.549234,0.191038 -0.740271,-0.119399 -0.191038,-0.310436 0.358195,-0.859669 0.358195,-0.859669 0,0 -0.505836,-0.633906 -1.170104,-0.907428 -0.405955,-0.167158 -0.620872,-0.525353 -0.620872,-0.525353 0,0 -1.289503,-1.313384 -1.57606,-2.244692 0,0 0.262677,0.692513 0.477594,0.931309 0,0 -0.931309,0.573112 -1.337263,0.931308 0,0 0.146579,0.677671 -0.09552,1.265624 -0.167158,0.405954 -0.238796,1.074586 -0.238796,1.074586 0,0 -0.04776,0.549233 -0.238797,0.644752 -0.191037,0.09552 -1.122345,-0.286557 -1.122345,-0.286557 0,0 -0.453714,-0.262676 -0.453714,-0.596992 0,-0.334316 0.286556,-0.405955 0.286556,-0.405955 0,0 0.405955,0 0.620872,0.07164 0,0 -0.119398,-1.050707 -0.02388,-1.671579 -0.02388,-0.596992 0.310437,-0.907427 0.310437,-0.907427 0,0 0.429834,-1.026827 1.217864,-2.459609 z"
       id="path1163"
       inkscape:connector-curvature="0"
       sodipodi:nodetypes="ccscccccsccccscccscccccc" />
    <path
       style="fill:#aaaaaa;fill-opacity:1;stroke:#000000;stroke-width:0.5291667;stroke-linecap:round;stroke-linejoin:miter;stroke-miterlimit:4;stroke-dasharray:none;stroke-opacity:1;paint-order:normal"
       d="m 31.464835,38.457383 c 0,0 0.262676,0.668629 0.835789,0.931308 0.573112,0.262675 1.122344,0.859668 1.122344,0.859668 0,0 -0.382073,0.286555 -0.477593,0.668629 -0.09552,0.382077 0.477593,0.477597 0.477593,0.477597 0,0 0.773245,-0.392759 1.146226,-1.026828 0.238796,-0.405954 -0.310436,-0.596994 -0.310436,-0.596994 0,0 -0.751033,-0.47792 -0.883549,-0.931305 -0.134153,-0.458989 -0.74027,-1.193987 -0.74027,-1.193987 z"
       id="path1135"
       inkscape:connector-curvature="0"
       sodipodi:nodetypes="cccccscscc" />
    <path
       style="fill:#aaaaaa;fill-opacity:1;stroke:#000000;stroke-width:0.5291667;stroke-linecap:round;stroke-linejoin:miter;stroke-miterlimit:4;stroke-dasharray:none;stroke-opacity:1;paint-order:normal"
       d="m 31.391366,36.927462 c 0,0 -1.382465,0.942501 -1.716165,1.934608 0,0 -0.333696,1.264937 -0.786572,1.909806 0,0 -0.619726,-0.223225 -1.072602,-0.223225 -0.452876,0 -0.238356,0.694475 -0.238356,0.694475 0,0 0.929588,0.694474 1.596984,0.744079 0.667398,0.04961 0.643562,-0.694474 0.643562,-0.694474 0,0 0.286027,-0.84329 0.548219,-0.942501 0.548747,-0.457405 0.64356,-1.016909 0.64356,-1.016909 0,0 1.818636,-1.195309 2.073698,-1.825245 0.357798,-0.883666 0.07129,-1.760989 0.07129,-1.760989 0,0 -0.977039,0.857942 -2.407175,0.163467 0,0 -0.21452,0.719279 0.02384,1.438556 z"
       id="path1133"
       inkscape:connector-curvature="0"
       sodipodi:nodetypes="cccscccccscccc" />
    <path
       style="fill:#b3b3b3;stroke:#000000;stroke-width:0.529167;stroke-linecap:round;stroke-linejoin:round"
       d="m 33.498172,56.10096 c 0,0 0.157689,0.726357 0.171498,1.248387 0.0138,0.52203 -0.07478,0.916695 -0.07478,0.916695 0,0 0.0068,1.059193 -0.137989,1.453215 0,0 0.233556,0.927225 0.03258,1.678949 0.128389,0.385755 0.177895,0.676313 0.143233,0.977891 0,0 -0.244632,0.294506 -0.54247,0.300744 -0.508246,0.0068 -0.95083,-0.542093 -0.95083,-0.542093 0,0 -0.370009,-0.559239 0.26737,-0.832695 -0.03415,-0.584589 -0.187966,-1.629923 -0.187966,-1.629923 0,0 0.224478,-0.652532 0.194558,-1.273115 0,0 0.0092,0.852662 -0.201839,1.250346 0,0 0.139111,1.106484 -0.109329,1.407159 0,0 -0.174981,0.890057 -0.13252,1.214681 0,0 0.08201,0.820756 -0.21185,0.922778 -0.293867,0.102024 -1.016672,-0.04599 -1.016672,-0.04599 0,0 -0.563877,-0.37818 -0.795113,-0.866067 -0.231238,-0.487889 0.356335,-0.689048 0.356335,-0.689048 l 0.42676,0.154277 0.01873,0.371994 c 0,0 0.121683,-1.198487 0.08173,-1.607108 0,0 -0.220846,-0.480212 -0.05996,-0.756343 0,0 -0.471324,-1.065604 -0.289725,-2.742043 0.181598,-1.67644 1.68091,-1.342521 1.680909,-1.342521 z"
       id="path1231"
       sodipodi:nodetypes="csccccccccccccscscccccscc"
       inkscape:connector-curvature="0" />
    <path
       style="fill:#b3b3b3;stroke:#000000;stroke-width:0.529167;stroke-linecap:round;stroke-linejoin:round"
       d="m 56.140569,34.024882 c 0,0 -0.536562,2.010502 -0.240749,3.439206 0.231576,1.118461 0.01668,2.285593 0.01668,2.285593 0,0 -0.533115,0.301891 -0.703785,0.462239 -0.170668,0.16035 0.02054,0.61304 0.02054,0.61304 0,0 0.312955,0.25243 0.586074,0.305188 0.273118,0.05275 0.98764,-0.484267 0.98764,-0.484267 0,0 0.146665,-0.302235 0.08171,-0.582894 -0.06495,-0.280659 0.173841,-1.902384 0.173841,-1.902384 0,0 0.0816,-0.68185 -0.02364,-1.161328 0,0 0.173709,-0.502002 0.27846,0.549265 0,0 0.130381,0.920148 0.356379,1.790932 0.09532,0.749282 0.306863,1.429212 0.306863,1.429212 l -0.685491,0.387927 c 0,0 -0.215465,0.246551 -0.08507,0.46574 0.202708,0.340745 0.857343,0.446399 0.857343,0.446399 0,0 0.742971,-0.218096 0.968741,-0.499887 0.22577,-0.281793 0.03109,-0.796717 0.03109,-0.796717 l -0.179733,-1.433319 c 0,0 0.04936,-1.052965 0.115014,-1.801017 0,0 0.346822,-1.670872 -0.0468,-2.588133 -0.393623,-0.91726 -2.815102,-0.924795 -2.815102,-0.924795 z"
       id="path19094"
       sodipodi:nodetypes="cscscscsccccccscscccscc"
       inkscape:connector-curvature="0" />
    <path
       style="fill:#b3b3b3;stroke:#000000;stroke-width:0.529167;stroke-linecap:round;stroke-linejoin:round"
       d="m 55.220336,29.484926 c 0,0 1.082274,-0.18683 1.095359,1.005331 0.01521,1.386095 -0.253513,2.085718 -0.253513,2.085718 0,0 -0.04075,1.15126 -0.800728,1.975548 0,0 0.252944,0.257319 0.12104,0.568487 -0.268354,0.633058 -1.08227,0.556421 -1.08227,0.556421 0,0 -0.739714,-0.06289 -0.582009,-0.708057 0.130038,-0.531946 0.705428,-0.601674 0.705428,-0.601674 0,0 0.138084,-1.602959 0.499262,-2.021473 0,0 -0.246156,-1.180926 -0.22638,-1.769914 0.02989,-0.890272 0.52381,-1.090387 0.523811,-1.090387 z"
       id="path19059"
       sodipodi:nodetypes="csccscsccsc" />
    <path
       style="fill:#b3b3b3;stroke:#000000;stroke-width:0.529167;stroke-linecap:round;stroke-linejoin:round"
       d="m 18.316948,29.498492 c 0,0 1.078795,-0.169851 1.173637,1.013474 0.11027,1.375826 -0.112857,2.06629 -0.112857,2.06629 0,0 0.03774,1.141962 -0.672329,1.949082 0,0 0.272744,0.259009 0.161014,0.565925 -0.227311,0.624408 -1.053482,0.536646 -1.053482,0.536646 0,0 -0.750388,-0.07306 -0.635509,-0.711069 0.09472,-0.526051 0.670296,-0.586976 0.670296,-0.586976 0,0 0.0295,-1.58884 0.365123,-1.998995 0,0 -0.561486,-1.296654 -0.581877,-1.880901 -0.03082,-0.883105 0.685984,-0.953476 0.685984,-0.953476 z"
       id="path13440"
       sodipodi:nodetypes="csccscsccsc" />
    <path
       style="fill:#b3b3b3;stroke:#000000;stroke-width:0.529167;stroke-linecap:round;stroke-linejoin:round"
       d="m 17.92526,35.25498 c 0,0 -0.302365,1.712497 -0.0091,3.200523 0.293245,1.488027 0.11975,2.171212 0.11975,2.171212 l -0.688641,0.104156 c 0,0 -0.14088,0.309298 -0.03973,0.570108 l 0.463208,0.135916 0.0199,-0.08075 0.89352,-0.07607 c 0,0 0.246348,-1.621529 4.4e-5,-2.492749 -0.246303,-0.871218 -0.229001,-1.939504 -0.229001,-1.939504 0,0 -0.0111,1.366007 0.276734,2.183694 0.287841,0.817687 -0.08,2.251204 -0.08,2.251204 l -0.864456,0.09289 c 0,0 -0.118361,0.276737 -0.01089,0.613038 0,0 1.39248,0.127615 2.267342,0.02083 0,0 0.06482,-0.351101 0.0015,-0.727545 0,0 0.190947,-1.426436 0.0033,-1.90281 0,0 0.106875,-1.047715 0.29124,-1.442825 0.378543,-1.196775 0.0036,-2.599 0.0036,-2.599 z"
       id="path14871"
       sodipodi:nodetypes="ccccccccscsccccccccc" />
    <path
       style="fill:#b3b3b3;stroke:#000000;stroke-width:0.529167;stroke-linecap:round;stroke-linejoin:round"
       d="m 17.185106,30.668691 c 0,0 0.0097,-0.932193 0.813753,-1.068619 0.804065,-0.136426 3.062687,-0.250954 3.057372,1.176878 l -0.757438,4.563715 c 0,0 -1.174505,0.860448 -2.35291,9.42e-4 z"
       id="path10803"
       sodipodi:nodetypes="cscccc" />
    <path
       style="fill:#b3b3b3;stroke:#000000;stroke-width:0.529167;stroke-linecap:round;stroke-linejoin:round"
       d="m 9.3981504,8.8280713 c 0,0 1.3153166,0.4655977 1.3501656,1.7164927 0.03485,1.250896 -0.0955,2.125096 -0.0955,2.125096 0,0 0.152256,0.779643 -0.112299,1.919577 0,0 0.280178,0.341637 0.247538,0.744861 -0.05467,0.675343 -0.936891,0.603762 -0.936891,0.603762 0,0 -0.7327328,-0.0951 -0.7365274,-0.751549 -0.00239,-0.412766 0.4114011,-0.641762 0.4114011,-0.641762 0,0 -0.1843478,-1.252241 0.080236,-1.859077 0,0 -0.6366598,-0.836116 -0.638628,-1.999912 z"
       id="path1551"
       sodipodi:nodetypes="csccscscccc" />
    <path
       style="fill:#b3b3b3;stroke:#000000;stroke-width:0.529167;stroke-linecap:round;stroke-linejoin:round"
       d="m 3.2851906,8.8280713 c 0,0 -1.2578118,0.3124537 -1.2926608,1.5633487 -0.03485,1.250896 0.03799,2.27824 0.03799,2.27824 0,0 -0.152256,0.779643 0.112299,1.919577 0,0 -0.280178,0.341637 -0.247538,0.744861 0.05467,0.675343 0.9368925,0.603762 0.9368925,0.603762 0,0 0.732732,-0.0951 0.736527,-0.751549 0.0024,-0.412766 -0.411401,-0.641762 -0.411401,-0.641762 0,0 0.184347,-1.252241 -0.08024,-1.859077 0,0 0.636659,-0.836116 0.638628,-1.999912 z"
       id="path2325"
       sodipodi:nodetypes="csccscscccc" />
    <path
       id="path2360"
       style="fill:#b3b3b3;stroke:#000000;stroke-width:0.529167;stroke-linecap:round;stroke-linejoin:round"
       d="m 4.8363973,13.791683 c 0,0 -0.8537631,1.449219 -0.7668784,3.359046 0,0 0.2404036,1.909906 0.02439,2.280124 l -0.3961847,0.65648 c 0,0 -0.072154,0.66291 0.3912865,0.759398 0.8762024,0.107461 1.1282419,-0.249666 1.1282419,-0.249666 0,0 0.3870727,-0.342343 0.2573486,-1.006149 0,0 0.5190111,-1.571817 0.4242636,-2.457851 0,0 0.055958,-1.119885 0.4598535,-1.120181 0.4038957,2.84e-4 0.4424169,1.120181 0.4424169,1.120181 -0.094747,0.886034 0.4242636,2.457851 0.4242636,2.457851 -0.1297241,0.663806 0.2573486,1.006149 0.2573486,1.006149 0,0 0.2869686,0.337005 1.163171,0.229549 0.463441,-0.09649 0.350461,-0.78875 0.350461,-0.78875 L 8.6418527,19.426013 C 8.425839,19.055796 8.6304807,17.150729 8.6304807,17.150729 8.7173657,15.240902 7.8636024,13.791683 7.8636024,13.791683 l -1.5136027,0.04088 z"
       sodipodi:nodetypes="ccccccccccccccccccc" />
    <path
       style="fill:#b3b3b3;stroke:#000000;stroke-width:0.529167;stroke-linecap:round;stroke-linejoin:round"
       d="m 3.1400135,8.7177037 c 0,0 3.1542828,-1.0055052 6.3854809,0.0075 L 7.9895699,13.856457 c 0,0 -1.6710513,0.820785 -3.3476489,8.97e-4 z"
       id="path1436"
       sodipodi:nodetypes="ccccc" />
    <ellipse
       style="fill:#b3b3b3;stroke:#000000;stroke-width:0.529167;stroke-linecap:round;stroke-linejoin:round"
       id="path1321"
       cx="6.3499999"
       cy="6.5631094"
       rx="2.3908131"
       ry="2.2830188" />
    <path
       style="fill:#2a7fff;stroke:none;stroke-width:0.529167;stroke-linecap:round;stroke-linejoin:round"
       d="M 6.4954198,0.75875041 C 3.3690837,0.75776414 0.26021101,3.1555864 0.26458333,5.2028157 c 0,0 0.87914857,1.8908966 6.17972817,1.8728663 C 11.744891,7.057652 12.43543,5.2028157 12.43543,5.2028157 12.406131,3.2062835 9.6217559,0.75973667 6.4954198,0.75875041 Z"
       id="path39"
       sodipodi:nodetypes="zcscz" />
    <ellipse
       style="fill:#000000;stroke:none;stroke-width:0.547916;stroke-linecap:round;stroke-linejoin:round"
       id="path5675"
       cx="5.7588744"
       cy="5.8618493"
       rx="0.31290153"
       ry="0.48722407"
       transform="matrix(0.93273431,0.36056442,0,1,0,0)" />
    <ellipse
       style="fill:#000000;stroke:none;stroke-width:0.547916;stroke-linecap:round;stroke-linejoin:round"
       id="ellipse5779"
       cx="-7.8297191"
       cy="10.761413"
       rx="0.31290153"
       ry="0.48722407"
       transform="matrix(-0.93273431,0.36056442,0,1,0,0)" />
    <path
       id="path6225"
       style="fill:#b3b3b3;stroke:#000000;stroke-width:0.529167;stroke-linecap:round;stroke-linejoin:round"
       d="m 42.936402,14.020799 c 0,0 -0.806139,1.501555 -0.719255,3.346185 0,0 0.302948,1.887333 0.08693,2.244912 l -0.42437,-0.01284 c 0,0 0.03407,1.142763 0.497503,1.235956 0.876203,0.103793 1.097269,-0.08205 1.097269,-0.08205 0,0 0.335264,-0.341437 0.20554,-0.982581 0,0 0.413594,-1.666472 0.318846,-2.522258 0,0 0.05596,-1.081656 0.459854,-1.081942 0.403895,2.75e-4 0.442417,1.081942 0.442417,1.081942 -0.09475,0.855786 0.397631,2.498332 0.397631,2.498332 -0.129724,0.641145 0.111114,1.000258 0.111114,1.000258 0,0 0.346521,0.180551 1.222724,0.07676 0.463441,-0.0932 0.388551,-1.272518 0.388551,-1.272518 l -0.383551,0.01198 c -0.216014,-0.35758 0.09288,-2.29775 0.09288,-2.29775 0.08688,-1.844629 -0.766878,-3.244375 -0.766878,-3.244375 l -1.513603,0.03948 z"
       sodipodi:nodetypes="ccccccccccccccccccc" />
    <ellipse
       style="fill:#b3b3b3;stroke:#000000;stroke-width:0.529167;stroke-linecap:round;stroke-linejoin:round"
       id="ellipse8717"
       cx="19.050005"
       cy="27.68302"
       rx="2.3908131"
       ry="2.2830188" />
    <ellipse
       style="fill:#000000;stroke:none;stroke-width:0.531251;stroke-linecap:round;stroke-linejoin:round"
       id="ellipse8721"
       cx="18.039373"
       cy="26.705153"
       rx="0.29415652"
       ry="0.48722407"
       transform="matrix(0.99217244,0.1248753,0,1,0,0)" />
    <path
       style="fill:#b3b3b3;stroke:#000000;stroke-width:0.529167;stroke-linecap:round;stroke-linejoin:round"
       d="m 19.553097,30.67214 c 0,0 1.078795,-0.169852 1.173637,1.013475 0.11027,1.375823 -0.112857,2.066287 -0.112857,2.066287 0,0 0.03774,1.141963 -0.672329,1.949082 0,0 0.272744,0.259009 0.161014,0.565925 -0.227311,0.624408 -1.053482,0.536645 -1.053482,0.536645 0,0 -0.750388,-0.07305 -0.635509,-0.711067 0.09472,-0.526053 0.670296,-0.586978 0.670296,-0.586978 0,0 0.0295,-1.58884 0.365123,-1.998994 0,0 -0.561486,-1.296652 -0.581877,-1.880898 -0.03082,-0.883106 0.685984,-0.953477 0.685984,-0.953477 z"
       id="path10838"
       sodipodi:nodetypes="csccscsccsc" />
    <path
       style="fill:#b3b3b3;stroke:#000000;stroke-width:0.529167;stroke-linecap:round;stroke-linejoin:round"
       d="m 54.980462,30.389593 c 0,0 -0.105669,-1.344238 1.079354,-0.962009 0.592513,0.191115 2.374313,0.15741 2.966593,0.523099 0.592279,0.365689 0.896552,0.84735 0.863967,1.60727 l -1.400282,4.131262 c 0,0 -1.679571,0.667519 -2.723171,-1.079812 z"
       id="path17813"
       sodipodi:nodetypes="csscccc"
       inkscape:connector-curvature="0" />
    <ellipse
       style="fill:#b3b3b3;stroke:#000000;stroke-width:0.529167;stroke-linecap:round;stroke-linejoin:round"
       id="ellipse16540"
       cx="57.150005"
       cy="27.729778"
       rx="2.3908131"
       ry="2.2830188" />
    <ellipse
       style="fill:#000000;stroke:none;stroke-width:0.531251;stroke-linecap:round;stroke-linejoin:round"
       id="ellipse17776"
       cx="57.155449"
       cy="22.026663"
       rx="0.29415652"
       ry="0.48722407"
       transform="matrix(0.99217244,0.1248753,0,1,0,0)" />
    <ellipse
       style="fill:#000000;stroke:none;stroke-width:0.597154;stroke-linecap:round;stroke-linejoin:round"
       id="ellipse17778"
       cx="70.7995"
       cy="-14.861783"
       rx="0.2818267"
       ry="0.48722407"
       transform="matrix(0.7852609,0.61916502,0,1,0,0)" />
    <path
       style="fill:#b3b3b3;stroke:#000000;stroke-width:0.529167;stroke-linecap:round;stroke-linejoin:round"
       d="m 59.040769,31.003507 c 0,0 0.773557,-0.392941 1.001311,0.765952 0.264805,1.347417 0.127463,2.095394 0.127463,2.095394 0,0 0.167596,1.132246 -0.428915,2.122379 0,0 0.294388,0.188718 0.221161,0.524432 -0.148978,0.682999 -0.960794,0.808165 -0.960794,0.808165 0,0 -0.736586,0.120345 -0.698277,-0.547285 0.03159,-0.550469 0.583162,-0.759737 0.583162,-0.759737 0,0 -0.153596,-1.596458 0.125065,-2.093116 0,0 -0.482634,-1.293748 -0.569429,-1.872745 -0.131193,-0.87517 0.599253,-1.043439 0.599253,-1.043439 z"
       id="path18975"
       sodipodi:nodetypes="csccscsccsc" />
    <path
       style="fill:#b3b3b3;stroke:#000000;stroke-width:0.529167;stroke-linecap:round;stroke-linejoin:round"
       d="m 34.216461,51.501012 c 0,0 0.09036,-1.392139 -1.094667,-1.005063 -0.592513,0.193538 -2.448039,0.268122 -2.926292,0.776073 -0.454497,0.482718 -0.594346,0.826362 -0.561761,1.595917 l 1.057762,4.045248 c 0,0 1.845305,0.507928 2.809486,-1.02753 z"
       id="path1032"
       sodipodi:nodetypes="csscccc" />
    <ellipse
       style="fill:#b3b3b3;stroke:#000000;stroke-width:0.529167;stroke-linecap:round;stroke-linejoin:round"
       id="ellipse144"
       cx="31.749998"
       cy="48.896446"
       rx="2.3908131"
       ry="2.2830188" />
    <path
       style="fill:#b3b3b3;stroke:#000000;stroke-width:0.529167;stroke-linecap:round;stroke-linejoin:round"
       d="m 29.741012,51.88675 c 0,0 1.020921,0.109603 1.118661,1.38259 0.113642,1.480072 -0.09315,2.148336 -0.09315,2.148336 0,0 0.04337,1.214096 -0.623974,1.875048 0,0 0.260125,0.346065 0.156317,0.639754 -0.211192,0.5975 -0.994493,0.283891 -0.994493,0.283891 0,0 -0.711406,-0.277822 -0.606822,-0.919755 0.08623,-0.529283 0.631126,-0.439496 0.631126,-0.439496 0,0 0.01736,-1.667254 0.332594,-2.009879 0,0 -0.350745,-1.444845 -0.373957,-2.066286 -0.03509,-0.939326 0.7422,-0.797788 0.7422,-0.797788 z"
       id="path1036"
       sodipodi:nodetypes="csccscsccscc" />
    <path
       style="fill:#ffdd55;stroke:#0044aa;stroke-width:0.529167;stroke-linecap:round;stroke-linejoin:round"
       d="m 3.4169239,6.7978082 c 0,0 0.4594478,-2.4140569 2.8604495,-2.4123801 2.4010016,0.00167 2.9191267,2.4451145 2.9191267,2.4451145 0,0 -2.8730069,0.5735742 -5.7795762,-0.032734 z"
       id="path6815"
       sodipodi:nodetypes="cccc" />
    <path
       style="fill:none;stroke:#0044aa;stroke-width:0.529167;stroke-linecap:round;stroke-linejoin:round"
       d="m 4.024997,5.3928053 c 0,0 -1.7232763,-1.0680404 -2.4064028,-2.3958201"
       id="path6966"
       sodipodi:nodetypes="cc" />
    <path
       style="fill:none;stroke:#0044aa;stroke-width:0.529167;stroke-linecap:round;stroke-linejoin:round"
       d="m 5.3533661,4.4246996 c 0,0 -0.7121406,-1.5152892 -1.0044795,-3.212162"
       id="path7001"
       sodipodi:nodetypes="cc" />
    <path
       style="fill:none;stroke:#0044aa;stroke-width:0.529167;stroke-linecap:round;stroke-linejoin:round"
       d="m 8.8250313,5.4156646 c 0,0 1.7216827,-1.0908997 2.4048097,-2.4186794"
       id="path7083" />
    <path
       style="fill:none;stroke:#0044aa;stroke-width:0.529167;stroke-linecap:round;stroke-linejoin:round"
       d="m 7.4394274,4.5246251 c 0,0 0.7677825,-1.6152147 1.0601214,-3.3120875"
       id="path7085" />
    <path
       style="fill:none;stroke:#000000;stroke-width:0.529167;stroke-linecap:round;stroke-linejoin:round"
       d="M 6.4954198,0.75875041 C 3.3690837,0.75776414 0.26021101,3.1555864 0.26458333,5.2028157 c 0,0 0.87914857,1.8908966 6.17972817,1.8728663 C 11.744891,7.057652 12.43543,5.2028157 12.43543,5.2028157 12.406131,3.2062835 9.6217559,0.75973667 6.4954198,0.75875041 Z"
       id="path6744"
       sodipodi:nodetypes="zcscz" />
    <path
       style="fill:#b3b3b3;stroke:#000000;stroke-width:0.529167;stroke-linecap:round;stroke-linejoin:round"
       d="m 47.498038,8.8280713 c 0,0 1.315317,0.4655977 1.350166,1.7164927 0.03485,1.250896 -0.0955,2.125096 -0.0955,2.125096 0,0 0.152256,0.779643 -0.112299,1.919577 0,0 0.280178,0.341637 0.247538,0.744861 -0.05467,0.675343 -0.936891,0.603762 -0.936891,0.603762 0,0 -0.732733,-0.0951 -0.736527,-0.751549 -0.0024,-0.412766 0.411401,-0.641762 0.411401,-0.641762 0,0 -0.184348,-1.252241 0.08024,-1.859077 0,0 -0.63666,-0.836116 -0.638628,-1.999912 z"
       id="path8016"
       sodipodi:nodetypes="csccscscccc" />
    <path
       style="fill:#b3b3b3;stroke:#000000;stroke-width:0.529167;stroke-linecap:round;stroke-linejoin:round"
       d="m 41.385079,8.8280713 c 0,0 -1.257812,0.3124537 -1.292661,1.5633487 -0.03485,1.250896 0.03799,2.27824 0.03799,2.27824 0,0 -0.152256,0.779643 0.112299,1.919577 0,0 -0.280178,0.341637 -0.247538,0.744861 0.05467,0.675343 0.936892,0.603762 0.936892,0.603762 0,0 0.732732,-0.0951 0.736527,-0.751549 0.0024,-0.412766 -0.411401,-0.641762 -0.411401,-0.641762 0,0 0.184347,-1.252241 -0.08024,-1.859077 0,0 0.636659,-0.836116 0.638628,-1.999912 z"
       id="path8018"
       sodipodi:nodetypes="csccscscccc" />
    <path
       style="fill:#b3b3b3;stroke:#000000;stroke-width:0.529167;stroke-linecap:round;stroke-linejoin:round"
       d="m 41.239901,8.7177037 c 0,0 3.154283,-1.0055052 6.385481,0.0075 l -1.535924,5.1312533 c 0,0 -1.671051,0.820785 -3.347649,8.97e-4 z"
       id="path8020"
       sodipodi:nodetypes="ccccc" />
    <ellipse
       style="fill:#b3b3b3;stroke:#000000;stroke-width:0.529167;stroke-linecap:round;stroke-linejoin:round"
       id="ellipse6229"
       cx="44.450005"
       cy="6.5631094"
       rx="2.3908131"
       ry="2.2830188" />
    <path
       style="fill:#2a7fff;stroke:none;stroke-width:0.529167;stroke-linecap:round;stroke-linejoin:round"
       d="m 44.595425,0.75875041 c -3.126336,-9.8627e-4 -6.235209,2.39683599 -6.230837,4.44406529 0,0 0.879149,1.8908966 6.179728,1.8728663 5.30058,-0.01803 5.991119,-1.8728663 5.991119,-1.8728663 -0.0293,-1.9965322 -2.813674,-4.44307903 -5.94001,-4.44406529 z"
       id="path7806"
       sodipodi:nodetypes="zcscz" />
    <path
       style="fill:none;stroke:#0044aa;stroke-width:0.529167;stroke-linecap:round;stroke-linejoin:round"
       d="m 43.942097,6.9496042 c 0,0 -2.884407,-1.3600453 -4.223498,-3.952619"
       id="path7810"
       sodipodi:nodetypes="cc" />
    <path
       style="fill:none;stroke:#0044aa;stroke-width:0.529167;stroke-linecap:round;stroke-linejoin:round"
       d="m 44.157126,6.8613985 c 0,0 -1.447213,-3.1327915 -1.708234,-5.6488609"
       id="path7812"
       sodipodi:nodetypes="cc" />
    <path
       style="fill:none;stroke:#0044aa;stroke-width:0.529167;stroke-linecap:round;stroke-linejoin:round"
       d="m 45.112263,6.9325385 c 0,0 2.982408,-1.6088014 4.217583,-3.9355533"
       id="path7814"
       sodipodi:nodetypes="cc" />
    <path
       style="fill:none;stroke:#0044aa;stroke-width:0.529167;stroke-linecap:round;stroke-linejoin:round"
       d="m 44.615085,6.9175236 c 0,0 1.777438,-3.050173 1.984469,-5.704986"
       id="path7816"
       sodipodi:nodetypes="cc" />
    <path
       style="fill:none;stroke:#000000;stroke-width:0.529167;stroke-linecap:round;stroke-linejoin:round"
       d="m 44.595425,0.75875041 c -3.126336,-9.8627e-4 -6.235209,2.39683599 -6.230837,4.44406529 0,0 0.879149,1.8908966 6.179728,1.8728663 5.30058,-0.01803 5.991119,-1.8728663 5.991119,-1.8728663 -0.0293,-1.9965322 -2.813674,-4.44307903 -5.94001,-4.44406529 z"
       id="path7818"
       sodipodi:nodetypes="zcscz" />
    <path
       style="fill:#2a7fff;stroke:none;stroke-width:0.529167;stroke-linecap:round;stroke-linejoin:round"
       d="m 19.195425,21.925492 c -3.126336,-9.86e-4 -6.235209,2.396836 -6.230837,4.444065 0,0 0.879149,1.890897 6.179728,1.872867 5.30058,-0.01803 5.991119,-1.872867 5.991119,-1.872867 -0.0293,-1.996532 -2.813674,-4.443079 -5.94001,-4.444065 z"
       id="path9134"
       sodipodi:nodetypes="zcscz" />
    <path
       style="fill:#ffdd55;stroke:#0044aa;stroke-width:0.529167;stroke-linecap:round;stroke-linejoin:round"
       d="m 12.970883,26.359167 c 0,0 -0.02062,-1.384569 1.34838,-2.464571 0,0 1.629717,0.483192 1.286896,3.990327 0,0 -2.058053,-0.479366 -2.635276,-1.525756 z"
       id="path10364"
       sodipodi:nodetypes="cccc" />
    <path
       style="fill:none;stroke:#0044aa;stroke-width:0.529167;stroke-linecap:round;stroke-linejoin:round"
       d="m 15.635153,26.02955 c 0,0 3.256366,-1.621859 9.151286,0.653502"
       id="path11033" />
    <path
       style="fill:none;stroke:#0044aa;stroke-width:0.529167;stroke-linecap:round;stroke-linejoin:round"
       d="m 15.152693,24.533939 c 0,0 4.775891,-4.620963 9.960599,1.807541"
       id="path11068" />
    <path
       style="fill:none;stroke:#000000;stroke-width:0.529167;stroke-linecap:round;stroke-linejoin:round"
       d="m 19.195425,21.925492 c -3.126336,-9.86e-4 -6.235209,2.396836 -6.230837,4.444065 0,0 0.879149,1.890897 6.179728,1.872867 5.30058,-0.01803 5.991119,-1.872867 5.991119,-1.872867 -0.0293,-1.996532 -2.813674,-4.443079 -5.94001,-4.444065 z"
       id="path9146"
       sodipodi:nodetypes="zcscz" />
    <path
       style="fill:#2a7fff;stroke:none;stroke-width:0.529167;stroke-linecap:round;stroke-linejoin:round"
       d="m 57.295425,21.925492 c -3.126336,-9.86e-4 -6.235209,2.396836 -6.230837,4.444065 0,0 0.879149,1.890897 6.179728,1.872867 5.30058,-0.01803 5.991119,-1.872867 5.991119,-1.872867 -0.0293,-1.996532 -2.813674,-4.443079 -5.94001,-4.444065 z"
       id="path11230"
       sodipodi:nodetypes="zcscz" />
    <path
       style="fill:#ffdd55;stroke:#0044aa;stroke-width:0.529167;stroke-linecap:round;stroke-linejoin:round"
       d="m 51.78166,27.069166 c 0,0 0.150817,-2.313067 1.981771,-2.000892 1.830953,0.312174 2.673937,3.155407 2.673937,3.155407 0,0 -3.000528,-0.02036 -4.655708,-1.154515 z"
       id="path12446"
       sodipodi:nodetypes="cscc" />
    <path
       style="fill:none;stroke:#0044aa;stroke-width:0.529167;stroke-linecap:round;stroke-linejoin:round"
       d="m 55.819918,26.640872 c 0,0 4.318754,-0.127019 7.019388,-1.289619"
       id="path13178" />
    <path
       style="fill:none;stroke:#0044aa;stroke-width:0.529167;stroke-linecap:round;stroke-linejoin:round"
       d="m 54.760584,25.529214 c 0,0 1.98976,-1.84113 5.975514,-2.492583"
       id="path13180" />
    <path
       style="fill:none;stroke:#0044aa;stroke-width:0.529167;stroke-linecap:round;stroke-linejoin:round"
       d="m 53.034163,25.043479 c 0,0 0.03903,-2.076516 2.158398,-2.764543"
       id="path13182"
       sodipodi:nodetypes="cc" />
    <path
       style="fill:none;stroke:#0044aa;stroke-width:0.529167;stroke-linecap:round;stroke-linejoin:round"
       d="m 52.193107,25.700771 c 0,0 -0.559585,-0.515574 -0.312618,-1.211731"
       id="path13184" />
    <path
       style="fill:none;stroke:#000000;stroke-width:0.529167;stroke-linecap:round;stroke-linejoin:round"
       d="m 57.295425,21.925492 c -3.126336,-9.86e-4 -6.235209,2.396836 -6.230837,4.444065 0,0 0.879149,1.890897 6.179728,1.872867 5.30058,-0.01803 5.991119,-1.872867 5.991119,-1.872867 -0.0293,-1.996532 -2.813674,-4.443079 -5.94001,-4.444065 z"
       id="path11238"
       sodipodi:nodetypes="zcscz" />
    <path
       style="fill:#2a7fff;stroke:none;stroke-width:0.529167;stroke-linecap:round;stroke-linejoin:round"
       d="m 31.895425,43.092159 c -3.126336,-9.86e-4 -6.235209,2.396836 -6.230837,4.444065 0,0 0.879149,1.890897 6.179728,1.872867 5.30058,-0.01803 5.991119,-1.872867 5.991119,-1.872867 -0.0293,-1.996532 -2.813674,-4.443079 -5.94001,-4.444065 z"
       id="path15085"
       sodipodi:nodetypes="zcscz" />
    <path
       style="fill:none;stroke:#0044aa;stroke-width:0.529167;stroke-linecap:round;stroke-linejoin:round"
       d="m 36.320265,48.649842 c 0,0 0.690726,-1.256433 0.317984,-3.504021"
       id="path15368"
       sodipodi:nodetypes="cc" />
    <path
       style="fill:none;stroke:#0044aa;stroke-width:0.529167;stroke-linecap:round;stroke-linejoin:round"
       d="m 33.887827,43.45652 c 0,0 2.113627,1.914258 2.292888,5.217903"
       id="path15370"
       sodipodi:nodetypes="cc" />
    <path
       style="fill:none;stroke:#0044aa;stroke-width:0.529167;stroke-linecap:round;stroke-linejoin:round"
       d="m 29.804358,43.509273 c 0,0 2.914419,1.255928 6.370399,5.202167"
       id="path15372"
       sodipodi:nodetypes="cc" />
    <path
       style="fill:none;stroke:#0044aa;stroke-width:0.529167;stroke-linecap:round;stroke-linejoin:round"
       d="m 26.977383,45.122398 c 0,0 1.474269,2.616652 9.178729,3.633946"
       id="path15374"
       sodipodi:nodetypes="cc" />
    <path
       style="fill:none;stroke:#000000;stroke-width:0.529167;stroke-linecap:round;stroke-linejoin:round"
       d="m 31.895425,43.092159 c -3.126336,-9.86e-4 -6.235209,2.396836 -6.230837,4.444065 0,0 0.879149,1.890897 6.179728,1.872867 5.30058,-0.01803 5.991119,-1.872867 5.991119,-1.872867 -0.0293,-1.996532 -2.813674,-4.443079 -5.94001,-4.444065 z"
       id="path15093"
       sodipodi:nodetypes="zcscz" />
    <path
       sodipodi:nodetypes="csccscscccc"
       id="path1011"
       d="m 22.091501,9.138578 c 0,0 1.333508,0.4165501 1.368839,1.535672 0.03533,1.119123 -0.09682,1.901231 -0.09682,1.901231 0,0 0.154362,0.697513 -0.113852,1.717363 0,0 0.284053,0.305648 0.250961,0.666395 -0.05543,0.6042 -0.949848,0.54016 -0.949848,0.54016 0,0 -0.742867,-0.08508 -0.746713,-0.672379 -0.0024,-0.369284 0.417091,-0.574157 0.417091,-0.574157 0,0 -0.186898,-1.120325 0.08135,-1.663235 0,0 -0.645465,-0.748037 -0.64746,-1.789235 z"
       style="fill:#b3b3b3;stroke:#000000;stroke-width:0.50396872;stroke-linecap:round;stroke-linejoin:round"
       inkscape:connector-curvature="0" />
    <path
       sodipodi:nodetypes="csccscscccc"
       id="path1013"
       d="m 15.982165,9.1569016 c 0,0 -1.249889,0.3282209 -1.284518,1.6422394 -0.03463,1.314019 0.03775,2.393206 0.03775,2.393206 0,0 -0.151297,0.818985 0.111592,2.016443 0,0 -0.278413,0.358877 -0.245979,0.782449 0.05433,0.709422 0.930991,0.634229 0.930991,0.634229 0,0 0.728116,-0.0999 0.731888,-0.789474 0.0024,-0.433595 -0.40881,-0.674147 -0.40881,-0.674147 0,0 0.183186,-1.315432 -0.07973,-1.95289 0,0 0.632649,-0.878309 0.634606,-2.100833 z"
       style="fill:#b3b3b3;stroke:#000000;stroke-width:0.54064339;stroke-linecap:round;stroke-linejoin:round"
       inkscape:connector-curvature="0" />
    <path
       sodipodi:nodetypes="ccccccccccccccccccc"
       d="m 17.536402,13.982507 c 0,0 -0.55073,0.742141 -0.295493,2.685638 0,0 0.408755,1.606873 0.192742,1.977091 l -0.396185,0.65648 c 0,0 -0.07215,0.66291 0.391287,0.759398 0.876202,0.107461 1.128242,-0.249666 1.128242,-0.249666 0,0 0.387072,-0.342343 0.257348,-1.006149 0,0 0.114967,-0.93208 0.02022,-1.818114 0,0 -0.179733,-0.783181 0.22416,-0.783477 0.403896,2.84e-4 0.442417,1.120181 0.442417,1.120181 -0.09475,0.886034 0.188571,2.491521 0.188571,2.491521 -0.129724,0.663806 0.156337,0.804127 0.156337,0.804127 0,0 0.219629,0.370676 1.095831,0.26322 0.463441,-0.09649 0.518812,-0.620399 0.518812,-0.620399 l -0.354526,-0.611851 c -0.216014,-0.370217 0.08964,-2.477306 0.08964,-2.477306 0.08688,-2.145519 -0.632198,-3.190694 -0.632198,-3.190694 l -1.513602,0.04088 z"
       style="fill:#b3b3b3;stroke:#000000;stroke-width:0.529167;stroke-linecap:round;stroke-linejoin:round"
       id="path1015"
       inkscape:connector-curvature="0" />
    <path
       sodipodi:nodetypes="ccccc"
       id="path1017"
       d="m 15.840018,9.0408003 c 0,0 3.154283,-1.0055052 6.385481,0.0075 l -1.535924,5.1312537 c 0,0 -1.671051,0.820785 -3.347649,8.97e-4 z"
       style="fill:#b3b3b3;stroke:#000000;stroke-width:0.529167;stroke-linecap:round;stroke-linejoin:round"
       inkscape:connector-curvature="0" />
    <ellipse
       ry="2.2830188"
       rx="2.3908131"
       cy="6.8861756"
       cx="19.050005"
       id="ellipse1019"
       style="fill:#b3b3b3;stroke:#000000;stroke-width:0.529167;stroke-linecap:round;stroke-linejoin:round" />
    <path
       sodipodi:nodetypes="zcscz"
       id="path1021"
       d="m 19.195425,1.0818165 c -3.126336,-9.863e-4 -6.235209,2.3968359 -6.230837,4.4440652 0,0 0.879149,1.8908966 6.179728,1.8728663 5.30058,-0.01803 5.991119,-1.8728663 5.991119,-1.8728663 -0.0293,-1.9965322 -2.813674,-4.443079 -5.94001,-4.4440652 z"
       style="fill:#2a7fff;stroke:none;stroke-width:0.529167;stroke-linecap:round;stroke-linejoin:round"
       inkscape:connector-curvature="0" />
    <ellipse
       transform="matrix(0.93273431,0.36056442,0,1,0,0)"
       ry="0.48722407"
       rx="0.31290153"
       cy="1.2755109"
       cx="19.374762"
       id="ellipse1023"
       style="fill:#000000;stroke:none;stroke-width:0.547916;stroke-linecap:round;stroke-linejoin:round" />
    <ellipse
       transform="matrix(-0.93273431,0.36056442,0,1,0,0)"
       ry="0.48722407"
       rx="0.31290153"
       cy="15.993883"
       cx="-21.445606"
       id="ellipse1025"
       style="fill:#000000;stroke:none;stroke-width:0.547916;stroke-linecap:round;stroke-linejoin:round" />
    <path
       sodipodi:nodetypes="cccc"
       id="path1027"
       d="m 16.116929,7.1208742 c 0,0 0.459448,-2.4140569 2.860449,-2.4123801 2.401002,0.00167 2.919127,2.4451145 2.919127,2.4451145 0,0 -2.873007,0.5735742 -5.779576,-0.032734 z"
       style="fill:#ffdd55;stroke:#0044aa;stroke-width:0.529167;stroke-linecap:round;stroke-linejoin:round"
       inkscape:connector-curvature="0" />
    <path
       sodipodi:nodetypes="cc"
       id="path1029"
       d="m 16.725002,5.7158713 c 0,0 -1.723276,-1.0680404 -2.406403,-2.3958201"
       style="fill:none;stroke:#0044aa;stroke-width:0.529167;stroke-linecap:round;stroke-linejoin:round"
       inkscape:connector-curvature="0" />
    <path
       sodipodi:nodetypes="cc"
       id="path1031"
       d="m 18.053371,4.7477656 c 0,0 -0.712141,-1.5152892 -1.004479,-3.212162"
       style="fill:none;stroke:#0044aa;stroke-width:0.529167;stroke-linecap:round;stroke-linejoin:round"
       inkscape:connector-curvature="0" />
    <path
       id="path1033"
       d="m 21.525036,5.7387306 c 0,0 1.721683,-1.0908997 2.40481,-2.4186794"
       style="fill:none;stroke:#0044aa;stroke-width:0.529167;stroke-linecap:round;stroke-linejoin:round"
       inkscape:connector-curvature="0" />
    <path
       id="path1035"
       d="m 20.139432,4.8476911 c 0,0 0.767783,-1.6152147 1.060122,-3.3120875"
       style="fill:none;stroke:#0044aa;stroke-width:0.529167;stroke-linecap:round;stroke-linejoin:round"
       inkscape:connector-curvature="0" />
    <path
       sodipodi:nodetypes="zcscz"
       id="path1037"
       d="m 19.195425,1.0818075 c -3.126336,-9.863e-4 -6.235209,2.3968359 -6.230837,4.4440652 0,0 0.879149,1.8908966 6.179728,1.8728663 5.30058,-0.01803 5.991119,-1.8728663 5.991119,-1.8728663 -0.0293,-1.9965322 -2.813674,-4.443079 -5.94001,-4.4440652 z"
       style="fill:none;stroke:#000000;stroke-width:0.529167;stroke-linecap:round;stroke-linejoin:round"
       inkscape:connector-curvature="0" />
    <path
       inkscape:connector-curvature="0"
       style="fill:#b3b3b3;stroke:#000000;stroke-width:0.50396872;stroke-linecap:round;stroke-linejoin:round"
       d="m 28.691999,9.138578 c 0,0 -1.333508,0.4165501 -1.368839,1.535672 -0.03533,1.119123 0.09682,1.901231 0.09682,1.901231 0,0 -0.154362,0.697513 0.113852,1.717363 0,0 -0.284053,0.305648 -0.250961,0.666395 0.05543,0.6042 0.949848,0.54016 0.949848,0.54016 0,0 0.742867,-0.08508 0.746713,-0.672379 0.0024,-0.369284 -0.417091,-0.574157 -0.417091,-0.574157 0,0 0.186898,-1.120325 -0.08135,-1.663235 0,0 0.645465,-0.748037 0.64746,-1.789235 z"
       id="path1039"
       sodipodi:nodetypes="csccscscccc" />
    <path
       inkscape:connector-curvature="0"
       style="fill:#b3b3b3;stroke:#000000;stroke-width:0.54064339;stroke-linecap:round;stroke-linejoin:round"
       d="m 34.801335,9.1569016 c 0,0 1.249889,0.3282209 1.284518,1.6422394 0.03463,1.314019 -0.03775,2.393206 -0.03775,2.393206 0,0 0.151297,0.818985 -0.111592,2.016443 0,0 0.278413,0.358877 0.245979,0.782449 -0.05433,0.709422 -0.930991,0.634229 -0.930991,0.634229 0,0 -0.728116,-0.0999 -0.731888,-0.789474 -0.0024,-0.433595 0.40881,-0.674147 0.40881,-0.674147 0,0 -0.183186,-1.315432 0.07973,-1.95289 0,0 -0.632649,-0.878309 -0.634606,-2.100833 z"
       id="path1041"
       sodipodi:nodetypes="csccscscccc" />
    <path
       inkscape:connector-curvature="0"
       id="path1043"
       style="fill:#b3b3b3;stroke:#000000;stroke-width:0.529167;stroke-linecap:round;stroke-linejoin:round"
       d="m 33.247098,13.982507 c 0,0 0.55073,0.742141 0.295493,2.685638 0,0 -0.408755,1.606873 -0.192742,1.977091 l 0.396185,0.65648 c 0,0 0.07215,0.66291 -0.391287,0.759398 -0.876202,0.107461 -1.128242,-0.249666 -1.128242,-0.249666 0,0 -0.387072,-0.342343 -0.257348,-1.006149 0,0 -0.114967,-0.93208 -0.02022,-1.818114 0,0 0.179733,-0.783181 -0.22416,-0.783477 -0.403896,2.84e-4 -0.442417,1.120181 -0.442417,1.120181 0.09475,0.886034 -0.188571,2.491521 -0.188571,2.491521 0.129724,0.663806 -0.156337,0.804127 -0.156337,0.804127 0,0 -0.219629,0.370676 -1.095831,0.26322 -0.463441,-0.09649 -0.518812,-0.620399 -0.518812,-0.620399 l 0.354526,-0.611851 c 0.216014,-0.370217 -0.08964,-2.477306 -0.08964,-2.477306 -0.08688,-2.145519 0.632198,-3.190694 0.632198,-3.190694 l 1.513602,0.04088 z"
       sodipodi:nodetypes="ccccccccccccccccccc" />
    <path
       inkscape:connector-curvature="0"
       style="fill:#b3b3b3;stroke:#000000;stroke-width:0.529167;stroke-linecap:round;stroke-linejoin:round"
       d="m 34.943482,9.0408003 c 0,0 -3.154283,-1.0055052 -6.385481,0.0075 l 1.535924,5.1312537 c 0,0 1.671051,0.820785 3.347649,8.97e-4 z"
       id="path1045"
       sodipodi:nodetypes="ccccc" />
    <ellipse
       style="fill:#b3b3b3;stroke:#000000;stroke-width:0.529167;stroke-linecap:round;stroke-linejoin:round"
       id="ellipse1047"
       cx="31.750006"
       cy="6.8861756"
       rx="2.3908131"
       ry="2.2830188" />
    <path
       inkscape:connector-curvature="0"
       style="fill:#2a7fff;stroke:none;stroke-width:0.529167;stroke-linecap:round;stroke-linejoin:round"
       d="m 31.895425,1.0818165 c -3.126336,-9.863e-4 -6.235209,2.3968359 -6.230837,4.4440652 0,0 0.879149,1.8908966 6.179728,1.8728663 5.30058,-0.01803 5.991119,-1.8728663 5.991119,-1.8728663 -0.0293,-1.9965322 -2.813674,-4.443079 -5.94001,-4.4440652 z"
       id="path1049"
       sodipodi:nodetypes="zcscz" />
    <ellipse
       style="fill:#000000;stroke:none;stroke-width:0.547916;stroke-linecap:round;stroke-linejoin:round"
       id="ellipse1051"
       cx="32.990643"
       cy="-3.6338916"
       rx="0.31290153"
       ry="0.48722407"
       transform="matrix(0.93273431,0.36056442,0,1,0,0)" />
    <ellipse
       style="fill:#000000;stroke:none;stroke-width:0.547916;stroke-linecap:round;stroke-linejoin:round"
       id="ellipse1053"
       cx="-35.061489"
       cy="20.903286"
       rx="0.31290153"
       ry="0.48722407"
       transform="matrix(-0.93273431,0.36056442,0,1,0,0)" />
    <path
       inkscape:connector-curvature="0"
       style="fill:#ffdd55;stroke:#0044aa;stroke-width:0.529167;stroke-linecap:round;stroke-linejoin:round"
       d="m 28.816929,7.1208742 c 0,0 0.459448,-2.4140569 2.860449,-2.4123801 2.401002,0.00167 2.919127,2.4451145 2.919127,2.4451145 0,0 -2.873007,0.5735742 -5.779576,-0.032734 z"
       id="path1055"
       sodipodi:nodetypes="cccc" />
    <path
       inkscape:connector-curvature="0"
       style="fill:none;stroke:#0044aa;stroke-width:0.529167;stroke-linecap:round;stroke-linejoin:round"
       d="m 29.425002,5.7158713 c 0,0 -1.723276,-1.0680404 -2.406403,-2.3958201"
       id="path1057"
       sodipodi:nodetypes="cc" />
    <path
       inkscape:connector-curvature="0"
       style="fill:none;stroke:#0044aa;stroke-width:0.529167;stroke-linecap:round;stroke-linejoin:round"
       d="m 30.753371,4.7477656 c 0,0 -0.712141,-1.5152892 -1.004479,-3.212162"
       id="path1059"
       sodipodi:nodetypes="cc" />
    <path
       inkscape:connector-curvature="0"
       style="fill:none;stroke:#0044aa;stroke-width:0.529167;stroke-linecap:round;stroke-linejoin:round"
       d="m 34.225036,5.7387306 c 0,0 1.721683,-1.0908997 2.40481,-2.4186794"
       id="path1061" />
    <path
       inkscape:connector-curvature="0"
       style="fill:none;stroke:#0044aa;stroke-width:0.529167;stroke-linecap:round;stroke-linejoin:round"
       d="m 32.839432,4.8476911 c 0,0 0.767783,-1.6152147 1.060122,-3.3120875"
       id="path1063" />
    <path
       inkscape:connector-curvature="0"
       style="fill:none;stroke:#000000;stroke-width:0.529167;stroke-linecap:round;stroke-linejoin:round"
       d="m 31.895425,1.0818075 c -3.126336,-9.863e-4 -6.235209,2.3968359 -6.230837,4.4440652 0,0 0.879149,1.8908966 6.179728,1.8728663 5.30058,-0.01803 5.991119,-1.8728663 5.991119,-1.8728663 -0.0293,-1.9965322 -2.813674,-4.443079 -5.94001,-4.4440652 z"
       id="path1065"
       sodipodi:nodetypes="zcscz" />
    <path
       inkscape:connector-curvature="0"
       style="fill:#b3b3b3;stroke:#000000;stroke-width:0.50396872;stroke-linecap:round;stroke-linejoin:round"
       d="m 60.191609,9.138578 c 0,0 1.333508,0.4165501 1.368839,1.535672 0.03533,1.119123 -0.09682,1.901231 -0.09682,1.901231 0,0 0.154362,0.697513 -0.113852,1.717363 0,0 0.284053,0.305648 0.250961,0.666395 -0.05543,0.6042 -0.949848,0.54016 -0.949848,0.54016 0,0 -0.742867,-0.08508 -0.746713,-0.672379 -0.0024,-0.369284 0.417091,-0.574157 0.417091,-0.574157 0,0 -0.186898,-1.120325 0.08135,-1.663235 0,0 -0.645465,-0.748037 -0.64746,-1.789235 z"
       id="path1081"
       sodipodi:nodetypes="csccscscccc" />
    <path
       inkscape:connector-curvature="0"
       style="fill:#b3b3b3;stroke:#000000;stroke-width:0.54064339;stroke-linecap:round;stroke-linejoin:round"
       d="m 54.082273,9.1569016 c 0,0 -1.249889,0.3282209 -1.284518,1.6422394 -0.03463,1.314019 0.03775,2.393206 0.03775,2.393206 0,0 -0.151297,0.818985 0.111592,2.016443 0,0 -0.278413,0.358877 -0.245979,0.782449 0.05433,0.709422 0.930991,0.634229 0.930991,0.634229 0,0 0.728116,-0.0999 0.731888,-0.789474 0.0024,-0.433595 -0.40881,-0.674147 -0.40881,-0.674147 0,0 0.183186,-1.315432 -0.07973,-1.95289 0,0 0.632649,-0.878309 0.634606,-2.100833 z"
       id="path1083"
       sodipodi:nodetypes="csccscscccc" />
    <path
       inkscape:connector-curvature="0"
       id="path1085"
       style="fill:#b3b3b3;stroke:#000000;stroke-width:0.529167;stroke-linecap:round;stroke-linejoin:round"
       d="m 55.63651,13.982507 c 0,0 -0.55073,0.742141 -0.295493,2.685638 0,0 0.408755,1.606873 0.192742,1.977091 l -0.420065,-0.01215 c 0,0 -0.02439,1.140503 0.439047,1.236991 0.876202,0.107461 1.104362,-0.05863 1.104362,-0.05863 0,0 0.387072,-0.342343 0.257348,-1.006149 0,0 0.114967,-0.93208 0.02022,-1.818114 0,0 -0.179733,-0.783181 0.22416,-0.783477 0.403896,2.84e-4 0.442417,1.120181 0.442417,1.120181 -0.09475,0.886034 0.188571,2.491521 0.188571,2.491521 -0.129724,0.663806 0.275735,0.923525 0.275735,0.923525 0,0 0.267389,0.203519 1.143591,0.09606 0.463441,-0.09649 0.375534,-1.169632 0.375534,-1.169632 l -0.378406,-0.01486 c -0.216014,-0.370217 0.08964,-2.477306 0.08964,-2.477306 0.08688,-2.145519 -0.632198,-3.190694 -0.632198,-3.190694 l -1.513602,0.04088 z"
       sodipodi:nodetypes="ccccccccccccccccccc" />
    <path
       inkscape:connector-curvature="0"
       style="fill:#b3b3b3;stroke:#000000;stroke-width:0.529167;stroke-linecap:round;stroke-linejoin:round"
       d="m 53.940126,9.0408003 c 0,0 3.154283,-1.0055052 6.385481,0.0075 l -1.535924,5.1312537 c 0,0 -1.671051,0.820785 -3.347649,8.97e-4 z"
       id="path1087"
       sodipodi:nodetypes="ccccc" />
    <ellipse
       ry="2.2830188"
       rx="2.3908131"
       cy="6.8861165"
       cx="57.150005"
       id="ellipse1067"
       style="fill:#b3b3b3;stroke:#000000;stroke-width:0.529167;stroke-linecap:round;stroke-linejoin:round" />
    <path
       sodipodi:nodetypes="zcscz"
       id="path1069"
       d="m 57.295425,1.0817574 c -3.126336,-9.862e-4 -6.235209,2.396836 -6.230837,4.4440653 0,0 0.879149,1.8908966 6.179728,1.8728663 5.30058,-0.01803 5.991119,-1.8728663 5.991119,-1.8728663 -0.0293,-1.9965322 -2.813674,-4.443079 -5.94001,-4.4440653 z"
       style="fill:#2a7fff;stroke:none;stroke-width:0.529167;stroke-linecap:round;stroke-linejoin:round"
       inkscape:connector-curvature="0" />
    <path
       sodipodi:nodetypes="cc"
       id="path1071"
       d="m 56.642097,7.2726112 c 0,0 -2.884407,-1.3600453 -4.223498,-3.952619"
       style="fill:none;stroke:#0044aa;stroke-width:0.529167;stroke-linecap:round;stroke-linejoin:round"
       inkscape:connector-curvature="0" />
    <path
       sodipodi:nodetypes="cc"
       id="path1073"
       d="m 56.857126,7.1844055 c 0,0 -1.447213,-3.1327915 -1.708234,-5.6488609"
       style="fill:none;stroke:#0044aa;stroke-width:0.529167;stroke-linecap:round;stroke-linejoin:round"
       inkscape:connector-curvature="0" />
    <path
       sodipodi:nodetypes="cc"
       id="path1075"
       d="m 57.812263,7.2555455 c 0,0 2.982408,-1.6088014 4.217583,-3.9355533"
       style="fill:none;stroke:#0044aa;stroke-width:0.529167;stroke-linecap:round;stroke-linejoin:round"
       inkscape:connector-curvature="0" />
    <path
       sodipodi:nodetypes="cc"
       id="path1077"
       d="m 57.315085,7.2405306 c 0,0 1.777438,-3.050173 1.984469,-5.704986"
       style="fill:none;stroke:#0044aa;stroke-width:0.529167;stroke-linecap:round;stroke-linejoin:round"
       inkscape:connector-curvature="0" />
    <path
       sodipodi:nodetypes="zcscz"
       id="path1079"
       d="m 57.295425,1.0817574 c -3.126336,-9.862e-4 -6.235209,2.396836 -6.230837,4.4440653 0,0 0.879149,1.8908966 6.179728,1.8728663 5.30058,-0.01803 5.991119,-1.8728663 5.991119,-1.8728663 -0.0293,-1.9965322 -2.813674,-4.443079 -5.94001,-4.4440653 z"
       style="fill:none;stroke:#000000;stroke-width:0.529167;stroke-linecap:round;stroke-linejoin:round"
       inkscape:connector-curvature="0" />
    <path
       sodipodi:nodetypes="csccscscccc"
       id="path1089"
       d="m 3.2921075,30.305262 c 0,0 -1.3335077,0.41655 -1.3688387,1.535672 -0.03533,1.119123 0.09682,1.901231 0.09682,1.901231 0,0 -0.154362,0.697513 0.113852,1.717363 0,0 -0.284053,0.305648 -0.250961,0.666395 0.05543,0.6042 0.9498477,0.54016 0.9498477,0.54016 0,0 0.742867,-0.08508 0.746713,-0.672379 0.0024,-0.369284 -0.417091,-0.574157 -0.417091,-0.574157 0,0 0.186898,-1.120325 -0.08135,-1.663235 0,0 0.645465,-0.748037 0.64746,-1.789235 z"
       style="fill:#b3b3b3;stroke:#000000;stroke-width:0.50396872;stroke-linecap:round;stroke-linejoin:round"
       inkscape:connector-curvature="0" />
    <path
       sodipodi:nodetypes="csccscscccc"
       id="path1091"
       d="m 9.4014435,30.323585 c 0,0 1.2498885,0.328221 1.2845175,1.64224 0.03463,1.314019 -0.03775,2.393206 -0.03775,2.393206 0,0 0.151297,0.818985 -0.111592,2.016443 0,0 0.278413,0.358877 0.245979,0.782449 -0.05433,0.709422 -0.9309905,0.634229 -0.9309905,0.634229 0,0 -0.728116,-0.0999 -0.731888,-0.789474 -0.0024,-0.433595 0.40881,-0.674147 0.40881,-0.674147 0,0 -0.183186,-1.315432 0.07973,-1.95289 0,0 -0.632649,-0.878309 -0.634606,-2.100833 z"
       style="fill:#b3b3b3;stroke:#000000;stroke-width:0.54064339;stroke-linecap:round;stroke-linejoin:round"
       inkscape:connector-curvature="0" />
    <path
       sodipodi:nodetypes="ccccccccccccccccccc"
       d="m 7.8472065,35.149191 c 0,0 0.55073,0.742141 0.295493,2.685638 0,0 -0.408755,1.606873 -0.192742,1.977091 l 0.420065,-0.01215 c 0,0 0.02439,1.140503 -0.439047,1.236991 -0.876202,0.107461 -1.104362,-0.05863 -1.104362,-0.05863 0,0 -0.387072,-0.342343 -0.257348,-1.006149 0,0 -0.114967,-0.93208 -0.02022,-1.818114 0,0 0.179733,-0.783181 -0.22416,-0.783477 -0.403896,2.84e-4 -0.442417,1.120181 -0.442417,1.120181 0.09475,0.886034 -0.188571,2.491521 -0.188571,2.491521 0.129724,0.663806 -0.275735,0.923525 -0.275735,0.923525 0,0 -0.267389,0.203519 -1.143591,0.09606 -0.463441,-0.09649 -0.375534,-1.169632 -0.375534,-1.169632 l 0.378406,-0.01486 c 0.216014,-0.370217 -0.08964,-2.477306 -0.08964,-2.477306 -0.08688,-2.145519 0.632198,-3.190694 0.632198,-3.190694 l 1.513602,0.04088 z"
       style="fill:#b3b3b3;stroke:#000000;stroke-width:0.529167;stroke-linecap:round;stroke-linejoin:round"
       id="path1093"
       inkscape:connector-curvature="0" />
    <path
       sodipodi:nodetypes="ccccc"
       id="path1095"
       d="m 9.5435905,30.207484 c 0,0 -3.154283,-1.005505 -6.385481,0.0075 l 1.535924,5.131254 c 0,0 1.671051,0.820785 3.347649,8.97e-4 z"
       style="fill:#b3b3b3;stroke:#000000;stroke-width:0.529167;stroke-linecap:round;stroke-linejoin:round"
       inkscape:connector-curvature="0" />
    <ellipse
       style="fill:#b3b3b3;stroke:#000000;stroke-width:0.529167;stroke-linecap:round;stroke-linejoin:round"
       id="ellipse1097"
       cx="6.3500056"
       cy="28.052801"
       rx="2.3908131"
       ry="2.2830188" />
    <path
       inkscape:connector-curvature="0"
       style="fill:#2a7fff;stroke:none;stroke-width:0.529167;stroke-linecap:round;stroke-linejoin:round"
       d="m 6.4954253,22.248441 c -3.126336,-9.86e-4 -6.23520897,2.396836 -6.23083697,4.444066 0,0 0.87914897,1.890896 6.17972797,1.872866 5.3005797,-0.01803 5.9911187,-1.872866 5.9911187,-1.872866 -0.0293,-1.996533 -2.8136737,-4.443079 -5.9400097,-4.444066 z"
       id="path1099"
       sodipodi:nodetypes="zcscz" />
    <path
       inkscape:connector-curvature="0"
       style="fill:none;stroke:#0044aa;stroke-width:0.529167;stroke-linecap:round;stroke-linejoin:round"
       d="m 5.8420973,28.439295 c 0,0 -2.884407,-1.360045 -4.223498,-3.952619"
       id="path1101"
       sodipodi:nodetypes="cc" />
    <path
       inkscape:connector-curvature="0"
       style="fill:none;stroke:#0044aa;stroke-width:0.529167;stroke-linecap:round;stroke-linejoin:round"
       d="m 6.0571263,28.351089 c 0,0 -1.447213,-3.132791 -1.708234,-5.648861"
       id="path1103"
       sodipodi:nodetypes="cc" />
    <path
       inkscape:connector-curvature="0"
       style="fill:none;stroke:#0044aa;stroke-width:0.529167;stroke-linecap:round;stroke-linejoin:round"
       d="m 7.0122633,28.422229 c 0,0 2.982408,-1.608801 4.2175827,-3.935553"
       id="path1105"
       sodipodi:nodetypes="cc" />
    <path
       inkscape:connector-curvature="0"
       style="fill:none;stroke:#0044aa;stroke-width:0.529167;stroke-linecap:round;stroke-linejoin:round"
       d="m 6.5150853,28.407214 c 0,0 1.777438,-3.050173 1.984469,-5.704986"
       id="path1107"
       sodipodi:nodetypes="cc" />
    <path
       inkscape:connector-curvature="0"
       style="fill:none;stroke:#000000;stroke-width:0.529167;stroke-linecap:round;stroke-linejoin:round"
       d="m 6.4954253,22.248441 c -3.126336,-9.86e-4 -6.23520897,2.396836 -6.23083697,4.444066 0,0 0.87914897,1.890896 6.17972797,1.872866 5.3005797,-0.01803 5.9911187,-1.872866 5.9911187,-1.872866 -0.0293,-1.996533 -2.8136737,-4.443079 -5.9400097,-4.444066 z"
       id="path1109"
       sodipodi:nodetypes="zcscz" />
    <path
       sodipodi:nodetypes="csccscsccsc"
       id="path1111"
       d="m 31.32234,30.289278 c 0,0 1.081025,0.155029 0.823556,1.313891 -0.299355,1.347384 -0.715731,1.941654 -0.715731,1.941654 0,0 -0.299876,1.102532 -1.215965,1.665046 0,0 0.184479,0.327784 -0.0126,0.58825 -0.400942,0.529906 -1.164736,0.202982 -1.164736,0.202982 0,0 -0.69569,-0.290579 -0.398203,-0.86656 0.245284,-0.474908 0.813313,-0.363812 0.813313,-0.363812 0,0 0.495605,-1.509854 0.937037,-1.803124 0,0 -0.155186,-1.404456 -0.0028,-1.968848 0.230339,-0.853094 0.936125,-0.709479 0.936125,-0.709479 z"
       style="fill:#b3b3b3;stroke:#000000;stroke-width:0.529167;stroke-linecap:round;stroke-linejoin:round"
       inkscape:connector-curvature="0" />
    <path
       sodipodi:nodetypes="cscccc"
       id="path1115"
       d="m 29.885106,31.068977 c 0,0 0.0097,-0.932193 0.813753,-1.068619 0.804065,-0.136426 3.062687,-0.250954 3.057372,1.176878 l -0.757438,4.563715 c 0,0 -1.174505,0.860448 -2.35291,9.42e-4 z"
       style="fill:#b3b3b3;stroke:#000000;stroke-width:0.529167;stroke-linecap:round;stroke-linejoin:round"
       inkscape:connector-curvature="0" />
    <ellipse
       ry="2.2830188"
       rx="2.3908131"
       cy="28.083307"
       cx="31.750006"
       id="ellipse1117"
       style="fill:#b3b3b3;stroke:#000000;stroke-width:0.529167;stroke-linecap:round;stroke-linejoin:round" />
    <ellipse
       transform="matrix(0.99217244,0.1248753,0,1,0,0)"
       ry="0.48722407"
       rx="0.29415652"
       cy="25.507011"
       cx="30.839567"
       id="ellipse1119"
       style="fill:#000000;stroke:none;stroke-width:0.53125101;stroke-linecap:round;stroke-linejoin:round" />
    <path
       sodipodi:nodetypes="csccscsccsc"
       id="path1121"
       d="m 31.923105,31.235149 c 0,0 0.891359,-0.630973 1.501505,0.387349 0.7094,1.183977 0.815874,1.901744 0.815874,1.901744 0,0 0.540617,1.006596 0.2625,2.045003 0,0 0.359361,0.111063 0.395444,0.435685 0.07341,0.660429 -0.705894,0.948433 -0.705894,0.948433 0,0 -0.704864,0.267556 -0.885066,-0.355172 -0.148579,-0.513447 0.340173,-0.823481 0.340173,-0.823481 0,0 -0.678684,-1.436897 -0.559947,-1.953395 0,0 -1.078611,-0.912782 -1.35617,-1.427292 -0.419537,-0.777698 0.191581,-1.158874 0.191581,-1.158874 z"
       style="fill:#b3b3b3;stroke:#000000;stroke-width:0.529167;stroke-linecap:round;stroke-linejoin:round"
       inkscape:connector-curvature="0" />
    <path
       sodipodi:nodetypes="zcscz"
       id="path1123"
       d="m 31.895425,22.325778 c -3.126336,-9.86e-4 -6.235209,2.396836 -6.230837,4.444065 0,0 0.879149,1.890897 6.179728,1.872867 5.30058,-0.01803 5.991119,-1.872867 5.991119,-1.872867 -0.0293,-1.996532 -2.813674,-4.443079 -5.94001,-4.444065 z"
       style="fill:#2a7fff;stroke:none;stroke-width:0.529167;stroke-linecap:round;stroke-linejoin:round"
       inkscape:connector-curvature="0" />
    <path
       sodipodi:nodetypes="cccc"
       id="path1125"
       d="m 25.670883,26.759453 c 0,0 -0.02062,-1.384569 1.34838,-2.464571 0,0 1.629717,0.483192 1.286896,3.990327 0,0 -2.058053,-0.479366 -2.635276,-1.525756 z"
       style="fill:#ffdd55;stroke:#0044aa;stroke-width:0.529167;stroke-linecap:round;stroke-linejoin:round"
       inkscape:connector-curvature="0" />
    <path
       id="path1127"
       d="m 28.335153,26.429836 c 0,0 3.256366,-1.621859 9.151286,0.653502"
       style="fill:none;stroke:#0044aa;stroke-width:0.529167;stroke-linecap:round;stroke-linejoin:round"
       inkscape:connector-curvature="0" />
    <path
       id="path1129"
       d="m 27.852693,24.934225 c 0,0 4.775891,-4.620963 9.960599,1.807541"
       style="fill:none;stroke:#0044aa;stroke-width:0.529167;stroke-linecap:round;stroke-linejoin:round"
       inkscape:connector-curvature="0" />
    <path
       sodipodi:nodetypes="zcscz"
       id="path1131"
       d="m 31.895425,22.325778 c -3.126336,-9.86e-4 -6.235209,2.396836 -6.230837,4.444065 0,0 0.879149,1.890897 6.179728,1.872867 5.30058,-0.01803 5.991119,-1.872867 5.991119,-1.872867 -0.0293,-1.996532 -2.813674,-4.443079 -5.94001,-4.444065 z"
       style="fill:none;stroke:#000000;stroke-width:0.529167;stroke-linecap:round;stroke-linejoin:round"
       inkscape:connector-curvature="0" />
    <path
       inkscape:connector-curvature="0"
       style="fill:#b3b3b3;stroke:#000000;stroke-width:0.529167;stroke-linecap:round;stroke-linejoin:round"
       d="m 43.526045,30.629264 c 0,0 0.789349,-0.754704 1.542042,0.163286 0.875138,1.067328 1.085577,1.761764 1.085577,1.761764 0,0 0.682198,0.916574 0.559148,1.984516 0,0 0.371751,0.05724 0.454982,0.37308 0.169334,0.642558 -0.559392,1.041581 -0.559392,1.041581 0,0 -0.658088,0.367887 -0.927538,-0.221732 -0.222167,-0.486152 0.215913,-0.864418 0.215913,-0.864418 0,0 -0.88179,-1.322016 -0.839972,-1.850335 0,0 -1.200655,-0.744988 -1.550569,-1.213304 -0.528902,-0.707876 0.01981,-1.174435 0.01981,-1.174435 z"
       id="path1141"
       sodipodi:nodetypes="csccscsccsc" />
    <path
       inkscape:connector-curvature="0"
       style="fill:#b3b3b3;stroke:#000000;stroke-width:0.529167;stroke-linecap:round;stroke-linejoin:round"
       d="m 42.585106,31.068977 c 0,0 0.0097,-0.932193 0.813753,-1.068619 0.804065,-0.136426 3.062687,-0.250954 3.057372,1.176878 l -0.757438,4.563715 c 0,0 -1.174505,0.860448 -2.35291,9.42e-4 z"
       id="path1143"
       sodipodi:nodetypes="cscccc" />
    <ellipse
       style="fill:#b3b3b3;stroke:#000000;stroke-width:0.529167;stroke-linecap:round;stroke-linejoin:round"
       id="ellipse1145"
       cx="44.450005"
       cy="28.083307"
       rx="2.3908131"
       ry="2.2830188" />
    <ellipse
       style="fill:#000000;stroke:none;stroke-width:0.53125101;stroke-linecap:round;stroke-linejoin:round"
       id="ellipse1147"
       cx="43.639763"
       cy="23.908583"
       rx="0.29415652"
       ry="0.48722407"
       transform="matrix(0.99217244,0.1248753,0,1,0,0)" />
    <path
       inkscape:connector-curvature="0"
       style="fill:#b3b3b3;stroke:#000000;stroke-width:0.529167;stroke-linecap:round;stroke-linejoin:round"
       d="m 44.890509,31.23915 c 0,0 1.075986,0.186815 0.78448,1.33759 -0.338928,1.337975 -0.772636,1.919717 -0.772636,1.919717 0,0 -0.332235,1.093216 -1.264501,1.62849 0,0 0.174739,0.333078 -0.02993,0.587624 -0.416383,0.517861 -1.170211,0.168571 -1.170211,0.168571 0,0 -0.686829,-0.310945 -0.372495,-0.877916 0.259172,-0.467476 0.823681,-0.339689 0.823681,-0.339689 0,0 0.539882,-1.494595 0.989764,-1.774729 0,0 -0.113733,-1.408416 0.05522,-1.968072 0.255377,-0.845937 0.956626,-0.681586 0.956626,-0.681586 z"
       id="path1149"
       sodipodi:nodetypes="csccscsccsc" />
    <path
       inkscape:connector-curvature="0"
       style="fill:#2a7fff;stroke:none;stroke-width:0.529167;stroke-linecap:round;stroke-linejoin:round"
       d="m 44.595425,22.325778 c -3.126336,-9.86e-4 -6.235209,2.396836 -6.230837,4.444065 0,0 0.879149,1.890897 6.179728,1.872867 5.30058,-0.01803 5.991119,-1.872867 5.991119,-1.872867 -0.0293,-1.996532 -2.813674,-4.443079 -5.94001,-4.444065 z"
       id="path1151"
       sodipodi:nodetypes="zcscz" />
    <path
       inkscape:connector-curvature="0"
       style="fill:#ffdd55;stroke:#0044aa;stroke-width:0.529167;stroke-linecap:round;stroke-linejoin:round"
       d="m 38.370883,26.759453 c 0,0 -0.02062,-1.384569 1.34838,-2.464571 0,0 1.629717,0.483192 1.286896,3.990327 0,0 -2.058053,-0.479366 -2.635276,-1.525756 z"
       id="path1153"
       sodipodi:nodetypes="cccc" />
    <path
       inkscape:connector-curvature="0"
       style="fill:none;stroke:#0044aa;stroke-width:0.529167;stroke-linecap:round;stroke-linejoin:round"
       d="m 41.035153,26.429836 c 0,0 3.256366,-1.621859 9.151286,0.653502"
       id="path1155" />
    <path
       inkscape:connector-curvature="0"
       style="fill:none;stroke:#0044aa;stroke-width:0.529167;stroke-linecap:round;stroke-linejoin:round"
       d="m 40.552693,24.934225 c 0,0 4.775891,-4.620963 9.960599,1.807541"
       id="path1157" />
    <path
       inkscape:connector-curvature="0"
       style="fill:none;stroke:#000000;stroke-width:0.529167;stroke-linecap:round;stroke-linejoin:round"
       d="m 44.595425,22.325778 c -3.126336,-9.86e-4 -6.235209,2.396836 -6.230837,4.444065 0,0 0.879149,1.890897 6.179728,1.872867 5.30058,-0.01803 5.991119,-1.872867 5.991119,-1.872867 -0.0293,-1.996532 -2.813674,-4.443079 -5.94001,-4.444065 z"
       id="path1159"
       sodipodi:nodetypes="zcscz" />
    <path
       sodipodi:nodetypes="cccscccccscccc"
       inkscape:connector-curvature="0"
       id="path176"
       d="m 6.1274907,58.040456 c 0,0 -1.2388482,0.888644 -1.5725482,1.880751 0,0 -0.2620569,1.312696 -0.7149329,1.957565 0,0 -0.3331697,0.08721 -0.6427676,0.469286 -0.2851151,0.351861 0.1914785,0.718355 0.1914785,0.718355 0,0 0.3803551,0.24076 0.8328339,0.147086 0.667398,0.04961 0.5480432,-0.813872 0.5480432,-0.813872 0,0 0.4770645,-0.867169 0.6437378,-1.157418 0.4532282,-0.529044 0.7629584,-1.112428 0.7629584,-1.112428 0,0 1.5320797,-0.932632 1.7871417,-1.562568 0.357798,-0.883666 0.07129,-1.760989 0.07129,-1.760989 0,0 -1.570136,0.119365 -3.000272,-0.57511 0,0 -0.071242,1.463106 0.567484,2.214562 z"
       style="fill:#aaaaaa;fill-opacity:1;stroke:#000000;stroke-width:0.5291667;stroke-linecap:round;stroke-linejoin:miter;stroke-miterlimit:4;stroke-dasharray:none;stroke-opacity:1;paint-order:normal" />
    <path
       sodipodi:nodetypes="csccscsccsc"
       id="path148"
       d="m 5.3589851,50.726657 c 0,0 1.0535977,0.310088 0.5391022,1.385594 -0.5981939,1.250462 -1.1481434,1.759618 -1.1481434,1.759618 0,0 -0.5447475,1.015042 -1.5905308,1.419214 0,0 0.1133833,0.342546 -0.1423286,0.563534 -0.5202357,0.44959 -1.2167367,0.02155 -1.2167367,0.02155 0,0 -0.6359875,-0.382951 -0.2096924,-0.892249 0.351492,-0.419916 0.8985704,-0.228498 0.8985704,-0.228498 0,0 0.831472,-1.377389 1.3402962,-1.593494 0,0 0.3004008,-1.168305 0.5781335,-1.688077 0.419799,-0.78565 0.9513287,-0.747191 0.9513296,-0.747192 z"
       style="fill:#b3b3b3;stroke:#000000;stroke-width:0.529167;stroke-linecap:round;stroke-linejoin:round"
       inkscape:connector-curvature="0" />
    <path
       inkscape:connector-curvature="0"
       sodipodi:nodetypes="csscccc"
       id="path150"
       d="m 4.1804623,51.820843 c 0,0 -0.105669,-1.344238 1.079354,-0.962009 0.592513,0.191115 2.374313,0.15741 2.966593,0.523099 0.592279,0.365689 0.6608595,0.914691 0.6282745,1.674611 l -0.8952266,4.030251 c 0,0 -1.9489339,0.701189 -2.9925339,-1.046142 z"
       style="fill:#b3b3b3;stroke:#000000;stroke-width:0.529167;stroke-linecap:round;stroke-linejoin:round" />
    <ellipse
       ry="2.2830188"
       rx="2.3908131"
       cy="49.16103"
       cx="6.3500056"
       id="ellipse152"
       style="fill:#b3b3b3;stroke:#000000;stroke-width:0.529167;stroke-linecap:round;stroke-linejoin:round" />
    <ellipse
       transform="matrix(0.99217244,0.1248753,0,1,0,0)"
       ry="0.48722407"
       rx="0.29415652"
       cy="49.851627"
       cx="5.9546719"
       id="ellipse154"
       style="fill:#000000;stroke:none;stroke-width:0.53125101;stroke-linecap:round;stroke-linejoin:round" />
    <ellipse
       transform="matrix(0.7852609,0.61916502,0,1,0,0)"
       ry="0.48722407"
       rx="0.2818267"
       cy="46.624413"
       cx="6.107625"
       id="ellipse156"
       style="fill:#000000;stroke:none;stroke-width:0.59715402;stroke-linecap:round;stroke-linejoin:round" />
    <path
       sodipodi:nodetypes="csccscsccsc"
       id="path158"
       d="m 7.8758678,52.21144 c 0,0 0.5583843,-0.609765 1.2210611,0.28791 0.7704793,1.043704 0.9364751,1.72515 0.9364751,1.72515 0,0 0.596889,0.896749 0.434922,1.947675 0,0 0.344736,0.05382 0.408578,0.363831 0.129884,0.630708 -0.568397,1.0279 -0.568397,1.0279 0,0 -0.6309216,0.366111 -0.8566587,-0.211882 -0.1861195,-0.476564 0.2397489,-0.851416 0.2397489,-0.851416 0,0 -0.7654783,-1.294099 -0.7031523,-1.813873 0,0 -0.9499926,-0.920155 -1.2562285,-1.378334 -0.462884,-0.69255 0.1436514,-1.096961 0.1436514,-1.096961 z"
       style="fill:#b3b3b3;stroke:#000000;stroke-width:0.529167;stroke-linecap:round;stroke-linejoin:round"
       inkscape:connector-curvature="0" />
    <path
       sodipodi:nodetypes="zcscz"
       id="path160"
       d="m 6.4954253,43.356742 c -3.126336,-9.86e-4 -6.23520897,2.396836 -6.23083697,4.444065 0,0 0.87914897,1.890897 6.17972797,1.872867 5.3005797,-0.01803 5.9911187,-1.872867 5.9911187,-1.872867 -0.0293,-1.996532 -2.8136737,-4.443079 -5.9400097,-4.444065 z"
       style="fill:#2a7fff;stroke:none;stroke-width:0.529167;stroke-linecap:round;stroke-linejoin:round"
       inkscape:connector-curvature="0" />
    <path
       sodipodi:nodetypes="cscc"
       id="path162"
       d="m 0.98166033,48.500416 c 0,0 0.15081697,-2.313067 1.98177097,-2.000892 1.830953,0.312174 2.673937,3.155407 2.673937,3.155407 0,0 -3.000528,-0.02036 -4.65570797,-1.154515 z"
       style="fill:#ffdd55;stroke:#0044aa;stroke-width:0.529167;stroke-linecap:round;stroke-linejoin:round"
       inkscape:connector-curvature="0" />
    <path
       id="path164"
       d="m 5.0199183,48.072122 c 0,0 4.318754,-0.127019 7.0193877,-1.289619"
       style="fill:none;stroke:#0044aa;stroke-width:0.529167;stroke-linecap:round;stroke-linejoin:round"
       inkscape:connector-curvature="0" />
    <path
       id="path166"
       d="m 3.9605843,46.960464 c 0,0 1.98976,-1.84113 5.975514,-2.492583"
       style="fill:none;stroke:#0044aa;stroke-width:0.529167;stroke-linecap:round;stroke-linejoin:round"
       inkscape:connector-curvature="0" />
    <path
       sodipodi:nodetypes="cc"
       id="path168"
       d="m 2.2341633,46.474729 c 0,0 0.03903,-2.076516 2.158398,-2.764543"
       style="fill:none;stroke:#0044aa;stroke-width:0.529167;stroke-linecap:round;stroke-linejoin:round"
       inkscape:connector-curvature="0" />
    <path
       id="path170"
       d="m 1.3931073,47.132021 c 0,0 -0.55958497,-0.515574 -0.312618,-1.211731"
       style="fill:none;stroke:#0044aa;stroke-width:0.529167;stroke-linecap:round;stroke-linejoin:round"
       inkscape:connector-curvature="0" />
    <path
       sodipodi:nodetypes="zcscz"
       id="path172"
       d="m 6.4954253,43.356742 c -3.126336,-9.86e-4 -6.23520897,2.396836 -6.23083697,4.444065 0,0 0.87914897,1.890897 6.17972797,1.872867 5.3005797,-0.01803 5.9911187,-1.872867 5.9911187,-1.872867 -0.0293,-1.996532 -2.8136737,-4.443079 -5.9400097,-4.444065 z"
       style="fill:none;stroke:#000000;stroke-width:0.529167;stroke-linecap:round;stroke-linejoin:round"
       inkscape:connector-curvature="0" />
    <path
       style="fill:#b3b3b3;stroke:#000000;stroke-width:0.529167;stroke-linecap:round;stroke-linejoin:round"
       d="m 16.880462,51.820843 c 0,0 -0.105669,-1.344238 1.079354,-0.962009 0.592513,0.191115 2.374313,0.15741 2.966593,0.523099 0.592279,0.365689 0.66086,0.914691 0.628275,1.674611 l -0.895227,4.030251 c 0,0 -1.948934,0.701189 -2.992534,-1.046142 z"
       id="path184"
       sodipodi:nodetypes="csscccc"
       inkscape:connector-curvature="0" />
    <ellipse
       style="fill:#b3b3b3;stroke:#000000;stroke-width:0.529167;stroke-linecap:round;stroke-linejoin:round"
       id="ellipse186"
       cx="19.050005"
       cy="49.16103"
       rx="2.3908131"
       ry="2.2830188" />
    <ellipse
       style="fill:#000000;stroke:none;stroke-width:0.53125101;stroke-linecap:round;stroke-linejoin:round"
       id="ellipse188"
       cx="18.754866"
       cy="48.253201"
       rx="0.29415652"
       ry="0.48722407"
       transform="matrix(0.99217244,0.1248753,0,1,0,0)" />
    <ellipse
       style="fill:#000000;stroke:none;stroke-width:0.59715402;stroke-linecap:round;stroke-linejoin:round"
       id="ellipse190"
       cx="22.280594"
       cy="36.610676"
       rx="0.2818267"
       ry="0.48722407"
       transform="matrix(0.7852609,0.61916502,0,1,0,0)" />
    <path
       inkscape:connector-curvature="0"
       style="fill:#b3b3b3;stroke:#000000;stroke-width:0.529167;stroke-linecap:round;stroke-linejoin:round"
       d="m 20.511299,52.400629 c 0,0 0.815951,0.133529 0.427437,1.179483 -0.451716,1.216103 -0.931144,1.728033 -0.931144,1.728033 0,0 -0.423751,0.990389 -1.391911,1.430096 0,0 0.143661,0.317966 -0.08084,0.541087 -0.456734,0.453935 -1.171363,0.08696 -1.171363,0.08696 0,0 -0.651746,-0.327605 -0.291597,-0.832903 0.296951,-0.416622 0.843771,-0.265406 0.843771,-0.265406 0,0 0.664004,-1.34898 1.13311,-1.581335 0,0 0.250049,-1.298709 0.465877,-1.805789 0.326211,-0.766469 0.996661,-0.480234 0.996661,-0.480234 z"
       id="path192"
       sodipodi:nodetypes="csccscsccsc" />
    <path
       inkscape:connector-curvature="0"
       style="fill:#2a7fff;stroke:none;stroke-width:0.529167;stroke-linecap:round;stroke-linejoin:round"
       d="m 19.195425,43.356742 c -3.126336,-9.86e-4 -6.235209,2.396836 -6.230837,4.444065 0,0 0.879149,1.890897 6.179728,1.872867 5.30058,-0.01803 5.991119,-1.872867 5.991119,-1.872867 -0.0293,-1.996532 -2.813674,-4.443079 -5.94001,-4.444065 z"
       id="path194"
       sodipodi:nodetypes="zcscz" />
    <path
       inkscape:connector-curvature="0"
       style="fill:#ffdd55;stroke:#0044aa;stroke-width:0.529167;stroke-linecap:round;stroke-linejoin:round"
       d="m 13.68166,48.500416 c 0,0 0.150817,-2.313067 1.981771,-2.000892 1.830953,0.312174 2.673937,3.155407 2.673937,3.155407 0,0 -3.000528,-0.02036 -4.655708,-1.154515 z"
       id="path196"
       sodipodi:nodetypes="cscc" />
    <path
       inkscape:connector-curvature="0"
       style="fill:none;stroke:#0044aa;stroke-width:0.529167;stroke-linecap:round;stroke-linejoin:round"
       d="m 17.719918,48.072122 c 0,0 4.318754,-0.127019 7.019388,-1.289619"
       id="path198" />
    <path
       inkscape:connector-curvature="0"
       style="fill:none;stroke:#0044aa;stroke-width:0.529167;stroke-linecap:round;stroke-linejoin:round"
       d="m 16.660584,46.960464 c 0,0 1.98976,-1.84113 5.975514,-2.492583"
       id="path200" />
    <path
       inkscape:connector-curvature="0"
       style="fill:none;stroke:#0044aa;stroke-width:0.529167;stroke-linecap:round;stroke-linejoin:round"
       d="m 14.934163,46.474729 c 0,0 0.03903,-2.076516 2.158398,-2.764543"
       id="path202"
       sodipodi:nodetypes="cc" />
    <path
       inkscape:connector-curvature="0"
       style="fill:none;stroke:#0044aa;stroke-width:0.529167;stroke-linecap:round;stroke-linejoin:round"
       d="m 14.093107,47.132021 c 0,0 -0.559585,-0.515574 -0.312618,-1.211731"
       id="path204" />
    <path
       inkscape:connector-curvature="0"
       style="fill:none;stroke:#000000;stroke-width:0.529167;stroke-linecap:round;stroke-linejoin:round"
       d="m 19.195425,43.356742 c -3.126336,-9.86e-4 -6.235209,2.396836 -6.230837,4.444065 0,0 0.879149,1.890897 6.179728,1.872867 5.30058,-0.01803 5.991119,-1.872867 5.991119,-1.872867 -0.0293,-1.996532 -2.813674,-4.443079 -5.94001,-4.444065 z"
       id="path206"
       sodipodi:nodetypes="zcscz" />
    <path
       sodipodi:nodetypes="csccscsccsc"
       id="path210"
       d="m 45.974566,51.089592 c 0,0 0.716339,-0.292637 1.263377,0.765409 0.636029,1.23018 0.864774,1.857443 0.864774,1.857443 0,0 0.481371,1.029723 0.184009,1.875987 0,0 0.33781,0.191071 0.361714,0.487419 0.04863,0.602908 -0.700835,0.656159 -0.700835,0.656159 0,0 -0.678103,0.05441 -0.829382,-0.542766 -0.124719,-0.492375 0.349444,-0.640192 0.349444,-0.640192 0,0 -0.598776,-1.445868 -0.469483,-1.871857 0,0 -0.995415,-1.085813 -1.242629,-1.612461 -0.373675,-0.796045 0.219011,-0.975142 0.219011,-0.975141 z"
       style="fill:#b3b3b3;stroke:#000000;stroke-width:0.529167;stroke-linecap:round;stroke-linejoin:round"
       inkscape:connector-curvature="0" />
    <path
       sodipodi:nodetypes="csscccc"
       id="path214"
       d="m 46.916461,51.765595 c 0,0 0.09036,-1.392139 -1.094667,-1.005063 -0.592513,0.193538 -2.448039,0.268122 -2.926292,0.776073 -0.454497,0.482718 -0.594346,0.826362 -0.561761,1.595917 l 1.057762,4.045248 c 0,0 1.845305,0.507928 2.809486,-1.02753 z"
       style="fill:#b3b3b3;stroke:#000000;stroke-width:0.529167;stroke-linecap:round;stroke-linejoin:round"
       inkscape:connector-curvature="0" />
    <ellipse
       ry="2.2830188"
       rx="2.3908131"
       cy="49.16103"
       cx="44.449997"
       id="ellipse216"
       style="fill:#b3b3b3;stroke:#000000;stroke-width:0.529167;stroke-linecap:round;stroke-linejoin:round" />
    <path
       sodipodi:nodetypes="csccscsccscc"
       id="path218"
       d="m 43.171672,52.0619 c 0,0 0.871485,0.672791 0.40551,1.792034 -0.541776,1.301319 -1.018773,1.741934 -1.018773,1.741934 0,0 -0.489298,1.039086 -1.377769,1.211397 0,0 0.0836,0.437233 -0.137667,0.623516 -0.450164,0.378986 -1.01893,-0.328977 -1.01893,-0.328977 0,0 -0.519609,-0.637132 -0.146093,-1.113936 0.307969,-0.393132 0.75949,-0.0079 0.75949,-0.0079 0,0 0.74118,-1.383131 1.174102,-1.489934 0,0 0.312971,-1.40687 0.562509,-1.939308 0.37718,-0.804797 1.015415,-0.244023 1.015415,-0.244023 z"
       style="fill:#b3b3b3;stroke:#000000;stroke-width:0.529167;stroke-linecap:round;stroke-linejoin:round"
       inkscape:connector-curvature="0" />
    <path
       sodipodi:nodetypes="zcscz"
       id="path220"
       d="m 44.595425,43.356742 c -3.126336,-9.86e-4 -6.235209,2.396836 -6.230837,4.444065 0,0 0.879149,1.890897 6.179728,1.872867 5.30058,-0.01803 5.991119,-1.872867 5.991119,-1.872867 -0.0293,-1.996532 -2.813674,-4.443079 -5.94001,-4.444065 z"
       style="fill:#2a7fff;stroke:none;stroke-width:0.529167;stroke-linecap:round;stroke-linejoin:round"
       inkscape:connector-curvature="0" />
    <path
       sodipodi:nodetypes="cc"
       id="path222"
       d="m 49.020265,48.914425 c 0,0 0.690726,-1.256433 0.317984,-3.504021"
       style="fill:none;stroke:#0044aa;stroke-width:0.529167;stroke-linecap:round;stroke-linejoin:round"
       inkscape:connector-curvature="0" />
    <path
       sodipodi:nodetypes="cc"
       id="path224"
       d="m 46.587827,43.721103 c 0,0 2.113627,1.914258 2.292888,5.217903"
       style="fill:none;stroke:#0044aa;stroke-width:0.529167;stroke-linecap:round;stroke-linejoin:round"
       inkscape:connector-curvature="0" />
    <path
       sodipodi:nodetypes="cc"
       id="path226"
       d="m 42.504358,43.773856 c 0,0 2.914419,1.255928 6.370399,5.202167"
       style="fill:none;stroke:#0044aa;stroke-width:0.529167;stroke-linecap:round;stroke-linejoin:round"
       inkscape:connector-curvature="0" />
    <path
       sodipodi:nodetypes="cc"
       id="path228"
       d="m 39.677383,45.386981 c 0,0 1.474269,2.616652 9.178729,3.633946"
       style="fill:none;stroke:#0044aa;stroke-width:0.529167;stroke-linecap:round;stroke-linejoin:round"
       inkscape:connector-curvature="0" />
    <path
       sodipodi:nodetypes="zcscz"
       id="path230"
       d="m 44.595425,43.356742 c -3.126336,-9.86e-4 -6.235209,2.396836 -6.230837,4.444065 0,0 0.879149,1.890897 6.179728,1.872867 5.30058,-0.01803 5.991119,-1.872867 5.991119,-1.872867 -0.0293,-1.996532 -2.813674,-4.443079 -5.94001,-4.444065 z"
       style="fill:none;stroke:#000000;stroke-width:0.529167;stroke-linecap:round;stroke-linejoin:round"
       inkscape:connector-curvature="0" />
    <path
       inkscape:connector-curvature="0"
       style="fill:#b3b3b3;stroke:#000000;stroke-width:0.529167;stroke-linecap:round;stroke-linejoin:round"
       d="m 58.328445,51.274376 c 0,0 0.651976,0.416779 0.102548,1.473586 -0.638818,1.228734 -1.019621,1.777161 -1.019621,1.777161 0,0 -0.564124,0.986818 -1.427096,1.231496 0,0 0.03853,0.386186 -0.189887,0.576505 -0.464698,0.387193 -0.940127,-0.194614 -0.940127,-0.194614 0,0 -0.435252,-0.522819 -0.03439,-0.990599 0.330516,-0.385678 0.724575,-0.08336 0.724575,-0.08336 0,0 0.836557,-1.322588 1.259204,-1.462418 0,0 0.313724,-1.439243 0.601657,-1.94478 0.435217,-0.764138 0.923143,-0.382981 0.923142,-0.38298 z"
       id="path240"
       sodipodi:nodetypes="csccscsccsc" />
    <path
       inkscape:connector-curvature="0"
       style="fill:#b3b3b3;stroke:#000000;stroke-width:0.529167;stroke-linecap:round;stroke-linejoin:round"
       d="m 59.616461,51.765595 c 0,0 0.09036,-1.392139 -1.094667,-1.005063 -0.592513,0.193538 -2.448039,0.268122 -2.926292,0.776073 -0.454497,0.482718 -0.594346,0.826362 -0.561761,1.595917 l 1.057762,4.045248 c 0,0 1.845305,0.507928 2.809486,-1.02753 z"
       id="path242"
       sodipodi:nodetypes="csscccc" />
    <ellipse
       style="fill:#b3b3b3;stroke:#000000;stroke-width:0.529167;stroke-linecap:round;stroke-linejoin:round"
       id="ellipse244"
       cx="57.149998"
       cy="49.16103"
       rx="2.3908131"
       ry="2.2830188" />
    <path
       inkscape:connector-curvature="0"
       style="fill:#b3b3b3;stroke:#000000;stroke-width:0.529167;stroke-linecap:round;stroke-linejoin:round"
       d="m 55.203651,52.667738 c 0,0 0.897719,-0.641279 1.633988,0.26853 0.856043,1.057814 1.02987,1.718864 1.02987,1.718864 0,0 0.661131,0.903148 0.451688,1.885898 0,0 0.392609,0.08134 0.458353,0.381048 0.133749,0.609741 -0.673251,0.9252 -0.673251,0.9252 0,0 -0.729323,0.291893 -0.973809,-0.276261 -0.201584,-0.46845 0.293673,-0.786649 0.293673,-0.786649 0,0 -0.844514,-1.294912 -0.761243,-1.782529 0,0 -1.033276,-0.862199 -1.372514,-1.323761 -0.51277,-0.69766 0.200644,-1.141216 0.200644,-1.141216 z"
       id="path246"
       sodipodi:nodetypes="csccscsccscc" />
    <path
       inkscape:connector-curvature="0"
       style="fill:#2a7fff;stroke:none;stroke-width:0.529167;stroke-linecap:round;stroke-linejoin:round"
       d="m 57.295425,43.356742 c -3.126336,-9.86e-4 -6.235209,2.396836 -6.230837,4.444065 0,0 0.879149,1.890897 6.179728,1.872867 5.30058,-0.01803 5.991119,-1.872867 5.991119,-1.872867 -0.0293,-1.996532 -2.813674,-4.443079 -5.94001,-4.444065 z"
       id="path248"
       sodipodi:nodetypes="zcscz" />
    <path
       inkscape:connector-curvature="0"
       style="fill:none;stroke:#0044aa;stroke-width:0.529167;stroke-linecap:round;stroke-linejoin:round"
       d="m 61.720265,48.914425 c 0,0 0.690726,-1.256433 0.317984,-3.504021"
       id="path250"
       sodipodi:nodetypes="cc" />
    <path
       inkscape:connector-curvature="0"
       style="fill:none;stroke:#0044aa;stroke-width:0.529167;stroke-linecap:round;stroke-linejoin:round"
       d="m 59.287827,43.721103 c 0,0 2.113627,1.914258 2.292888,5.217903"
       id="path252"
       sodipodi:nodetypes="cc" />
    <path
       inkscape:connector-curvature="0"
       style="fill:none;stroke:#0044aa;stroke-width:0.529167;stroke-linecap:round;stroke-linejoin:round"
       d="m 55.204358,43.773856 c 0,0 2.914419,1.255928 6.370399,5.202167"
       id="path254"
       sodipodi:nodetypes="cc" />
    <path
       inkscape:connector-curvature="0"
       style="fill:none;stroke:#0044aa;stroke-width:0.529167;stroke-linecap:round;stroke-linejoin:round"
       d="m 52.377383,45.386981 c 0,0 1.474269,2.616652 9.178729,3.633946"
       id="path256"
       sodipodi:nodetypes="cc" />
    <path
       inkscape:connector-curvature="0"
       style="fill:none;stroke:#000000;stroke-width:0.529167;stroke-linecap:round;stroke-linejoin:round"
       d="m 57.295425,43.356742 c -3.126336,-9.86e-4 -6.235209,2.396836 -6.230837,4.444065 0,0 0.879149,1.890897 6.179728,1.872867 5.30058,-0.01803 5.991119,-1.872867 5.991119,-1.872867 -0.0293,-1.996532 -2.813674,-4.443079 -5.94001,-4.444065 z"
       id="path258"
       sodipodi:nodetypes="zcscz" />
  </g>
</svg>
